<svg width="31" height="31" viewBox="0 0 31 31" fill="none" xmlns="http://www.w3.org/2000/svg">
<path d="M29.2778 27.8741L27.8741 29.2778L22.7764 24.18C23.2761 23.7451 23.7451 23.2761 24.18 22.7764L29.2778 27.8741Z" fill="white"/>
<path fill-rule="evenodd" clip-rule="evenodd" d="M13.6572 7.93945C14.0779 7.93945 14.4891 8.0642 14.8389 8.29791C15.1887 8.53162 15.4613 8.8638 15.6223 9.25245C15.7832 9.6411 15.8254 10.0688 15.7433 10.4813C15.6612 10.8939 15.4587 11.2729 15.1612 11.5704C14.8637 11.8678 14.4848 12.0704 14.0722 12.1525C13.6596 12.2345 13.2319 12.1924 12.8433 12.0314C12.4546 11.8705 12.1224 11.5978 11.8887 11.2481C11.655 10.8983 11.5303 10.4871 11.5303 10.0664C11.5303 9.5023 11.7544 8.9613 12.1532 8.56242C12.5521 8.16354 13.0931 7.93945 13.6572 7.93945Z" fill="white"/>
<path fill-rule="evenodd" clip-rule="evenodd" d="M13.6577 1.72217C11.2971 1.72217 8.98963 2.42214 7.02693 3.73358C5.06423 5.04501 3.53449 6.909 2.63116 9.08984C1.72783 11.2707 1.49147 13.6704 1.95199 15.9856C2.4125 18.3007 3.5492 20.4273 5.21834 22.0965C6.88748 23.7656 9.0141 24.9023 11.3293 25.3628C13.6444 25.8234 16.0442 25.587 18.225 24.6837C20.4058 23.7803 22.2698 22.2506 23.5813 20.2879C24.8927 18.3252 25.5927 16.0177 25.5927 13.6572C25.5881 10.4932 24.3292 7.46014 22.092 5.22288C19.8547 2.98562 16.8216 1.72672 13.6577 1.72217ZM13.6577 5.95022C14.4718 5.95022 15.2676 6.19163 15.9445 6.64391C16.6213 7.0962 17.1489 7.73905 17.4605 8.49117C17.772 9.24329 17.8535 10.0709 17.6947 10.8693C17.5359 11.6678 17.1438 12.4012 16.5682 12.9769C15.9925 13.5525 15.2591 13.9445 14.4607 14.1034C13.6622 14.2622 12.8346 14.1807 12.0825 13.8691C11.3304 13.5576 10.6875 13.03 10.2352 12.3531C9.78296 11.6762 9.54155 10.8804 9.54155 10.0663C9.54155 8.97467 9.97521 7.92773 10.7471 7.1558C11.5191 6.38388 12.566 5.95022 13.6577 5.95022ZM19.1085 19.8744H17.1193V18.2986C17.1188 18.0354 17.017 17.7826 16.8352 17.5924C16.644 17.4121 16.3918 17.3106 16.1291 17.3083H11.1949C10.9329 17.3105 10.6824 17.4156 10.4971 17.6008C10.3119 17.786 10.2069 18.0366 10.2046 18.2986V19.8658H8.19822V18.2986C8.19935 17.9062 8.27775 17.5178 8.42896 17.1557C8.58017 16.7936 8.80122 16.4649 9.07948 16.1882C9.35775 15.9115 9.68779 15.6924 10.0507 15.5433C10.4137 15.3941 10.8025 15.318 11.1949 15.3191H16.1377C16.9269 15.3171 17.685 15.6266 18.2474 16.1802C18.5243 16.4568 18.7431 16.7858 18.8909 17.1481C19.0388 17.5104 19.1128 17.8987 19.1085 18.2899V19.8744Z" fill="white"/>
</svg>
