<svg width="34" height="35" viewBox="0 0 34 35" fill="none" xmlns="http://www.w3.org/2000/svg">
<path d="M17.0004 0C10.0361 0 4.37012 5.83258 4.37012 13.0017C4.37012 16.6031 6.39149 21.287 10.3781 26.9235C13.2942 31.0464 16.164 34.1105 16.2848 34.239L17.0003 35L17.7158 34.239C17.8365 34.1106 20.7064 31.0464 23.6225 26.9235C27.6091 21.287 29.6305 16.603 29.6305 13.0017C29.6306 5.83258 23.9647 0 17.0004 0V0ZM16.9788 5.79219C18.9295 5.79219 20.5165 7.42588 20.5165 9.43393C20.5165 11.442 18.9295 13.0757 16.9788 13.0757C15.0281 13.0757 13.4411 11.442 13.4411 9.43393C13.4411 7.42588 15.028 5.79219 16.9788 5.79219ZM23.0583 20.758H10.8992V18.4683C10.8992 15.4997 13.2453 13.0846 16.1291 13.0846H17.8284C20.7122 13.0846 23.0583 15.4997 23.0583 18.4683V20.758Z" fill="white"/>
<path d="M16.9787 11.0255C17.8313 11.0255 18.5249 10.3115 18.5249 9.43388C18.5249 8.55628 17.8313 7.84229 16.9787 7.84229C16.1262 7.84229 15.4326 8.55628 15.4326 9.43388C15.4326 10.3115 16.1261 11.0255 16.9787 11.0255Z" fill="white"/>
<path d="M17.8282 15.1348H16.129C14.3433 15.1348 12.8906 16.6302 12.8906 18.4684V18.7079H21.0666V18.4684C21.0666 16.6303 19.6139 15.1348 17.8282 15.1348Z" fill="white"/>
</svg>
