<svg width="36" height="36" viewBox="0 0 36 36" fill="none" xmlns="http://www.w3.org/2000/svg">
<path d="M13.9899 11.7765C14.8047 11.0246 15.7609 10.4423 16.8029 10.0637C17.845 9.685 18.9519 9.5175 20.0593 9.57094C21.7008 9.64545 23.2849 10.1971 24.6176 11.1584C25.9503 12.1196 26.9737 13.4487 27.5625 14.9827V5.0625C27.5625 4.61495 27.3847 4.18572 27.0682 3.86926C26.7518 3.55279 26.3226 3.375 25.875 3.375H3.375C2.92745 3.375 2.49822 3.55279 2.18176 3.86926C1.86529 4.18572 1.6875 4.61495 1.6875 5.0625V17.4375C1.6875 17.8851 1.86529 18.3143 2.18176 18.6307C2.49822 18.9472 2.92745 19.125 3.375 19.125H11.3299C11.262 18.629 11.2381 18.1279 11.2584 17.6276C11.3042 16.5202 11.5692 15.4328 12.0381 14.4284C12.5069 13.4241 13.1704 12.5227 13.9899 11.7765ZM12.9375 5.0625H23.0625V6.1875H12.9375V5.0625ZM12.9375 7.3125H26.4375V8.4375H12.9375V7.3125ZM10.6875 16.875H3.9375V15.75H10.6875V16.875ZM3.375 14.625C3.22582 14.625 3.08274 14.5657 2.97725 14.4602C2.87176 14.3548 2.8125 14.2117 2.8125 14.0625V5.0625C2.8125 4.91332 2.87176 4.77024 2.97725 4.66475C3.08274 4.55926 3.22582 4.5 3.375 4.5H11.25C11.3992 4.5 11.5423 4.55926 11.6477 4.66475C11.7532 4.77024 11.8125 4.91332 11.8125 5.0625V14.0625C11.8125 14.2117 11.7532 14.3548 11.6477 14.4602C11.5423 14.5657 11.3992 14.625 11.25 14.625H3.375Z" fill="white"/>
<path d="M19.6875 23.0625C22.4834 23.0625 24.75 20.7959 24.75 18C24.75 15.2041 22.4834 12.9375 19.6875 12.9375C16.8916 12.9375 14.625 15.2041 14.625 18C14.625 20.7959 16.8916 23.0625 19.6875 23.0625Z" fill="white"/>
<path d="M7.3125 10.125C7.93382 10.125 8.4375 9.62132 8.4375 9C8.4375 8.37868 7.93382 7.875 7.3125 7.875C6.69118 7.875 6.1875 8.37868 6.1875 9C6.1875 9.62132 6.69118 10.125 7.3125 10.125Z" fill="white"/>
<path d="M7.31253 11.25C6.74045 11.2481 6.17928 11.4065 5.69263 11.7073C5.20597 12.008 4.81329 12.4391 4.55909 12.9516L4.28516 13.5H10.3399L10.066 12.9516C9.81177 12.4391 9.41909 12.008 8.93244 11.7073C8.44578 11.4065 7.88461 11.2481 7.31253 11.25Z" fill="white"/>
<path d="M3.9375 11.8327C4.37051 11.2395 4.95268 10.7712 5.625 10.4754C5.33791 10.1509 5.15064 9.75037 5.08568 9.32197C5.02072 8.89357 5.08084 8.45553 5.25882 8.06047C5.43679 7.66541 5.72505 7.33015 6.08896 7.09496C6.45287 6.85977 6.87695 6.73466 7.31025 6.73466C7.74355 6.73466 8.16763 6.85977 8.53154 7.09496C8.89545 7.33015 9.18371 7.66541 9.36168 8.06047C9.53966 8.45553 9.59978 8.89357 9.53482 9.32197C9.46986 9.75037 9.28259 10.1509 8.9955 10.4754C9.66782 10.7712 10.25 11.2395 10.683 11.8327V5.625H3.9375V11.8327Z" fill="white"/>
<path d="M26.993 18.3229C27.0763 16.3859 26.3879 14.495 25.0789 13.065C23.7698 11.6349 21.9469 10.7825 20.0101 10.6948C19.8999 10.6899 19.7896 10.6875 19.6794 10.6875C18.2472 10.6889 16.8469 11.1108 15.6523 11.901C14.4578 12.6911 13.5216 13.8146 12.9599 15.1321C12.3982 16.4496 12.2357 17.903 12.4927 19.312C12.7497 20.721 13.4147 22.0235 14.4054 23.0578C15.396 24.0922 16.6686 24.8129 18.0651 25.1305C19.4617 25.448 20.9208 25.3485 22.2613 24.8442C23.6018 24.3399 24.7647 23.4531 25.6057 22.2938C26.4466 21.1345 26.9287 19.7537 26.9919 18.3229H26.993ZM19.6878 24.1875C18.4641 24.1875 17.2678 23.8246 16.2502 23.1447C15.2327 22.4648 14.4396 21.4985 13.9713 20.3679C13.503 19.2372 13.3805 17.9931 13.6192 16.7929C13.858 15.5926 14.4473 14.4901 15.3126 13.6248C16.1779 12.7594 17.2805 12.1701 18.4807 11.9314C19.681 11.6926 20.9251 11.8152 22.0557 12.2835C23.1863 12.7518 24.1527 13.5449 24.8326 14.5624C25.5124 15.5799 25.8753 16.7762 25.8753 18C25.8734 19.6404 25.2209 21.2131 24.0609 22.3731C22.901 23.533 21.3283 24.1856 19.6878 24.1875Z" fill="white"/>
<path d="M34.0111 30.8683L28.1245 24.9829L26.6699 26.4375L32.5565 32.3235C32.7003 32.4674 32.8835 32.5654 33.0831 32.6051C33.2826 32.6449 33.4894 32.6245 33.6774 32.5466C33.8653 32.4688 34.0259 32.3369 34.1389 32.1677C34.2519 31.9985 34.3121 31.7997 34.312 31.5962C34.3124 31.461 34.286 31.3271 34.2344 31.2022C34.1827 31.0773 34.1068 30.9638 34.0111 30.8683Z" fill="white"/>
<path d="M26.795 22.5276C26.1335 23.565 25.2544 24.4463 24.2188 25.1106L25.3128 26.2046L27.8924 23.625L26.795 22.5276Z" fill="white"/>
</svg>
