<svg width="29" height="29" viewBox="0 0 29 29" fill="none" xmlns="http://www.w3.org/2000/svg">
<g clip-path="url(#clip0_224_1282)">
<path d="M24.2494 15.481H22.0576C22.281 16.1068 22.4031 16.7823 22.4031 17.4863V25.9626C22.4031 26.2561 22.3531 26.5378 22.2623 26.7998H25.8858C27.2394 26.7998 28.3405 25.673 28.3405 24.288V19.6672C28.3406 17.3589 26.5053 15.481 24.2494 15.481Z" fill="white"/>
<path d="M5.93749 17.4865C5.93749 16.7825 6.05954 16.1071 6.28295 15.4812H4.09117C1.8353 15.4812 0 17.3592 0 19.6675V24.2883C0 25.6733 1.10115 26.8001 2.4547 26.8001H6.07825C5.98742 26.538 5.93749 26.2563 5.93749 25.9628V17.4865Z" fill="white"/>
<path d="M16.6761 13.3H11.6654C9.40952 13.3 7.57422 15.178 7.57422 17.4864V25.9627C7.57422 26.425 7.94055 26.7999 8.39245 26.7999H19.949C20.4009 26.7999 20.7673 26.4251 20.7673 25.9627V17.4864C20.7673 15.178 18.932 13.3 16.6761 13.3Z" fill="white"/>
<path d="M14.1701 2.19995C11.4572 2.19995 9.25 4.45844 9.25 7.23458C9.25 9.1176 10.2657 10.7622 11.7656 11.6256C12.4771 12.0351 13.2973 12.2691 14.1701 12.2691C15.043 12.2691 15.8632 12.0351 16.5746 11.6256C18.0747 10.7622 19.0903 9.11754 19.0903 7.23458C19.0903 4.4585 16.8831 2.19995 14.1701 2.19995Z" fill="white"/>
<path d="M5.53118 6.89258C3.5022 6.89258 1.85156 8.5816 1.85156 10.6578C1.85156 12.7339 3.5022 14.423 5.53118 14.423C6.04586 14.423 6.53596 14.3139 6.98117 14.1178C7.75091 13.7787 8.38559 13.1784 8.77833 12.4265C9.05399 11.8988 9.2108 11.2967 9.2108 10.6578C9.2108 8.58166 7.56016 6.89258 5.53118 6.89258Z" fill="white"/>
<path d="M22.8105 6.89258C20.7815 6.89258 19.1309 8.5816 19.1309 10.6578C19.1309 11.2968 19.2877 11.8988 19.5633 12.4265C19.9561 13.1785 20.5908 13.7787 21.3605 14.1178C21.8057 14.3139 22.2958 14.423 22.8105 14.423C24.8395 14.423 26.4901 12.7339 26.4901 10.6578C26.4901 8.5816 24.8395 6.89258 22.8105 6.89258Z" fill="white"/>
</g>
<defs>
<clipPath id="clip0_224_1282">
<rect width="28.3409" height="29" fill="white"/>
</clipPath>
</defs>
</svg>
