<svg width="33" height="33" viewBox="0 0 33 33" fill="none" xmlns="http://www.w3.org/2000/svg">
<path d="M23.5895 20.5425L30.25 15.3436V26.125C30.25 26.5278 30.173 26.9087 30.0658 27.2786L23.5895 20.5425ZM21.4115 22.2447L17.3456 25.4196C17.0968 25.6135 16.7984 25.7097 16.5 25.7097C16.2016 25.7097 15.9019 25.6135 15.6544 25.4196L11.6311 22.2777L4.62 29.5721C5.269 29.997 6.04313 30.25 6.875 30.25H26.125C26.9775 30.25 27.7709 29.9901 28.4309 29.5432L21.4115 22.2447ZM2.75 15.3436V26.125C2.75 26.5498 2.83388 26.9527 2.95213 27.3391L9.45175 20.5768L2.75 15.3436ZM29.0084 12.8246L16.5 22.5912L3.993 12.826L15.6338 2.8256C16.1508 2.3801 16.9139 2.38285 17.4281 2.82697L29.0084 12.8246ZM17.875 16.3418C17.875 15.5815 17.2604 14.9668 16.5 14.9668C15.7396 14.9668 15.125 15.5815 15.125 16.3418V16.5C15.125 17.2603 15.7396 17.875 16.5 17.875C17.2604 17.875 17.875 17.2603 17.875 16.5V16.3418ZM17.875 12.5826V7.51435C17.875 6.75397 17.2604 6.13935 16.5 6.13935C15.7396 6.13935 15.125 6.75397 15.125 7.51435V12.584C15.125 13.3443 15.7396 13.959 16.5 13.959C17.2604 13.959 17.875 13.343 17.875 12.5826Z" fill="white"/>
</svg>
