<svg width="661" height="265" viewBox="0 0 661 265" fill="none" xmlns="http://www.w3.org/2000/svg">
<g filter="url(#filter0_d_314_3983)">
<path d="M143.248 16C141.766 26.9551 136.683 40.6489 128.001 57.0815C119.318 73.3034 108.942 89.6306 96.8712 106.063C85.0123 122.285 73.8946 135.663 63.518 146.197H126.413V101.007C132.977 91.7374 139.648 80.7823 146.425 68.1419C153.201 55.5014 157.648 45.073 159.766 36.8568H186.766V146.197H217.26V192.65H186.766V237.208H126.413V192.65H20V145.565C31.4354 129.132 42.7649 109.223 53.9885 85.8385C65.2121 62.4537 74.2122 39.1742 80.9887 16H143.248Z" fill="white"/>
<path d="M330.659 16C364.753 16 388.683 25.691 402.448 45.073C416.424 64.2444 423.413 92.0534 423.413 128.5C423.413 164.947 416.424 192.861 402.448 212.243C388.683 231.414 364.753 241 330.659 241C296.353 241 272.211 231.414 258.235 212.243C244.47 192.861 237.587 164.947 237.587 128.5C237.587 92.0534 244.47 64.2444 258.235 45.073C272.211 25.691 296.353 16 330.659 16ZM330.659 58.6615C319.647 58.6615 311.812 62.875 307.153 71.302C302.494 79.7289 300.164 93.5281 300.164 112.699V143.985C300.164 163.367 302.494 177.271 307.153 185.698C311.812 194.125 319.647 198.339 330.659 198.339C341.671 198.339 349.4 194.125 353.847 185.698C358.294 177.271 360.518 163.367 360.518 143.985V112.699C360.518 93.3174 358.294 79.5183 353.847 71.302C349.4 62.875 341.671 58.6615 330.659 58.6615Z" fill="white"/>
<path d="M566.988 16C565.505 26.9551 560.423 40.6489 551.74 57.0815C543.058 73.3034 532.681 89.6306 520.611 106.063C508.752 122.285 497.634 135.663 487.258 146.197H550.152V101.007C556.717 91.7374 563.388 80.7823 570.164 68.1419C576.941 55.5014 581.388 45.073 583.505 36.8568H610.506V146.197H641V192.65H610.506V237.208H550.152V192.65H443.74V145.565C455.175 129.132 466.504 109.223 477.728 85.8385C488.952 62.4537 497.952 39.1742 504.728 16H566.988Z" fill="white"/>
</g>
<defs>
<filter id="filter0_d_314_3983" x="0" y="0" width="661" height="265" filterUnits="userSpaceOnUse" color-interpolation-filters="sRGB">
<feFlood flood-opacity="0" result="BackgroundImageFix"/>
<feColorMatrix in="SourceAlpha" type="matrix" values="0 0 0 0 0 0 0 0 0 0 0 0 0 0 0 0 0 0 127 0" result="hardAlpha"/>
<feOffset dy="4"/>
<feGaussianBlur stdDeviation="10"/>
<feComposite in2="hardAlpha" operator="out"/>
<feColorMatrix type="matrix" values="0 0 0 0 0.820556 0 0 0 0 0.852133 0 0 0 0 0.933333 0 0 0 1 0"/>
<feBlend mode="normal" in2="BackgroundImageFix" result="effect1_dropShadow_314_3983"/>
<feBlend mode="normal" in="SourceGraphic" in2="effect1_dropShadow_314_3983" result="shape"/>
</filter>
</defs>
</svg>
