<svg width="113" height="67" viewBox="0 0 113 67" fill="none" xmlns="http://www.w3.org/2000/svg">
<path d="M54.3514 27.3988C60.556 27.3988 65.5857 22.3788 65.5857 16.1862C65.5857 9.99368 60.556 4.97363 54.3514 4.97363C48.1469 4.97363 43.1172 9.99368 43.1172 16.1862C43.1172 22.3788 48.1469 27.3988 54.3514 27.3988Z" fill="#F6E049"/>
<path d="M54.3521 27.798C47.9348 27.798 42.7178 22.591 42.7178 16.1861C42.7178 9.78121 47.9348 4.57422 54.3521 4.57422C60.7694 4.57422 65.9864 9.78121 65.9864 16.1861C65.9864 22.591 60.7694 27.798 54.3521 27.798ZM54.3521 5.37284C52.2093 5.37284 50.1146 6.00703 48.333 7.1952C46.5513 8.38338 45.1626 10.0722 44.3426 12.0481C43.5226 14.0239 43.3081 16.1981 43.7261 18.2957C44.1441 20.3933 45.176 22.32 46.6912 23.8323C48.2064 25.3445 50.1368 26.3744 52.2385 26.7916C54.3401 27.2089 56.5185 26.9947 58.4982 26.1763C60.4778 25.3579 62.1699 23.9719 63.3604 22.1937C64.5509 20.4154 65.1863 18.3248 65.1863 16.1861C65.1863 10.2284 60.3213 5.37284 54.3521 5.37284Z" fill="#2C394B"/>
<path d="M54.352 20.9777C52.3916 20.9777 50.9753 19.7159 50.3512 17.4159C50.3242 17.3144 50.3386 17.2065 50.3912 17.1156C50.4438 17.0247 50.5303 16.9582 50.6318 16.9308C50.7333 16.9034 50.8416 16.9171 50.9329 16.9691C51.0243 17.0211 51.0913 17.1071 51.1193 17.2082C51.6474 19.1569 52.7597 20.1791 54.352 20.1791C55.9443 20.1791 57.0565 19.1489 57.5846 17.2082C57.6127 17.1071 57.6797 17.0211 57.771 16.9691C57.8624 16.9171 57.9707 16.9034 58.0722 16.9308C58.1737 16.9582 58.2602 17.0247 58.3127 17.1156C58.3653 17.2065 58.3797 17.3144 58.3528 17.4159C57.7287 19.7159 56.3124 20.9777 54.352 20.9777Z" fill="#2C394B"/>
<path d="M56.8086 15.0442C56.8086 14.7371 56.9308 14.4426 57.1484 14.2254C57.366 14.0082 57.6611 13.8862 57.9688 13.8862C58.2765 13.8862 58.5716 14.0082 58.7892 14.2254C59.0068 14.4426 59.1291 14.7371 59.1291 15.0442" fill="#F6E049"/>
<path d="M59.1287 15.4434C59.0761 15.444 59.0238 15.434 58.975 15.4141C58.9262 15.3942 58.8819 15.3648 58.8447 15.3276C58.8074 15.2905 58.778 15.2462 58.7581 15.1975C58.7381 15.1489 58.7281 15.0967 58.7287 15.0441C58.7287 14.8429 58.6486 14.6499 58.506 14.5076C58.3635 14.3654 58.1701 14.2854 57.9685 14.2854C57.7669 14.2854 57.5736 14.3654 57.431 14.5076C57.2885 14.6499 57.2084 14.8429 57.2084 15.0441C57.2084 15.15 57.1662 15.2516 57.0912 15.3265C57.0162 15.4014 56.9144 15.4434 56.8083 15.4434C56.7022 15.4434 56.6004 15.4014 56.5254 15.3265C56.4504 15.2516 56.4082 15.15 56.4082 15.0441C56.4082 14.6311 56.5726 14.235 56.8652 13.9429C57.1578 13.6509 57.5547 13.4868 57.9685 13.4868C58.3823 13.4868 58.7792 13.6509 59.0718 13.9429C59.3644 14.235 59.5288 14.6311 59.5288 15.0441C59.5272 15.1495 59.4845 15.2501 59.4098 15.3246C59.3351 15.3992 59.2343 15.4418 59.1287 15.4434Z" fill="#2C394B"/>
<path d="M51.8956 15.0442C51.8956 14.7371 51.7734 14.4426 51.5558 14.2254C51.3382 14.0082 51.0431 13.8862 50.7354 13.8862C50.4277 13.8862 50.1326 14.0082 49.915 14.2254C49.6974 14.4426 49.5752 14.7371 49.5752 15.0442" fill="#F6E049"/>
<path d="M51.8954 15.4434C51.8427 15.444 51.7904 15.434 51.7416 15.4141C51.6929 15.3942 51.6485 15.3648 51.6113 15.3276C51.574 15.2905 51.5446 15.2462 51.5247 15.1975C51.5047 15.1489 51.4948 15.0967 51.4953 15.0441C51.4953 14.8429 51.4152 14.6499 51.2726 14.5076C51.1301 14.3654 50.9367 14.2854 50.7351 14.2854C50.5335 14.2854 50.3402 14.3654 50.1976 14.5076C50.0551 14.6499 49.975 14.8429 49.975 15.0441C49.975 15.15 49.9328 15.2516 49.8578 15.3265C49.7828 15.4014 49.681 15.4434 49.5749 15.4434C49.4688 15.4434 49.367 15.4014 49.292 15.3265C49.217 15.2516 49.1748 15.15 49.1748 15.0441C49.1748 14.6311 49.3392 14.235 49.6318 13.9429C49.9244 13.6509 50.3213 13.4868 50.7351 13.4868C51.1489 13.4868 51.5458 13.6509 51.8384 13.9429C52.1311 14.235 52.2954 14.6311 52.2954 15.0441C52.2938 15.1495 52.2511 15.2501 52.1764 15.3246C52.1017 15.3992 52.0009 15.4418 51.8954 15.4434Z" fill="#2C394B"/>
<path d="M79.1523 66.4841L112.608 37.9121V14.7827L79.1523 43.3468V66.4841Z" fill="#74B9FF"/>
<path d="M79.1526 66.8814C79.094 66.8835 79.036 66.8698 78.9847 66.8417C78.9155 66.8107 78.8568 66.7604 78.8157 66.697C78.7746 66.6335 78.7528 66.5596 78.7529 66.4842V43.3469C78.7525 43.2898 78.7644 43.2333 78.7878 43.1812C78.8113 43.1291 78.8457 43.0826 78.8888 43.0449L112.344 14.4729C112.401 14.4229 112.471 14.3902 112.547 14.3789C112.622 14.3676 112.698 14.3781 112.768 14.4092C112.837 14.4402 112.896 14.4905 112.937 14.554C112.978 14.6174 113 14.6914 113 14.7669V37.9042C113 37.9613 112.988 38.0178 112.965 38.0698C112.941 38.1219 112.907 38.1684 112.864 38.2061L79.4083 66.7781C79.375 66.8117 79.3351 66.8382 79.2911 66.8559C79.2471 66.8737 79.2 66.8824 79.1526 66.8814ZM79.5522 43.5296V65.6181L112.208 37.7294V15.6409L79.5522 43.5296Z" fill="#2C394B"/>
<path d="M111.617 16.507C111.838 16.507 112.017 16.3291 112.017 16.1097C112.017 15.8903 111.838 15.7124 111.617 15.7124C111.397 15.7124 111.218 15.8903 111.218 16.1097C111.218 16.3291 111.397 16.507 111.617 16.507Z" fill="#2C394B"/>
<path d="M111.617 18.4615C111.838 18.4615 112.017 18.2837 112.017 18.0643C112.017 17.8449 111.838 17.667 111.617 17.667C111.397 17.667 111.218 17.8449 111.218 18.0643C111.218 18.2837 111.397 18.4615 111.617 18.4615Z" fill="#2C394B"/>
<path d="M111.617 20.4239C111.838 20.4239 112.017 20.2461 112.017 20.0267C112.017 19.8073 111.838 19.6294 111.617 19.6294C111.397 19.6294 111.218 19.8073 111.218 20.0267C111.218 20.2461 111.397 20.4239 111.617 20.4239Z" fill="#2C394B"/>
<path d="M111.617 22.3868C111.838 22.3868 112.017 22.209 112.017 21.9896C112.017 21.7702 111.838 21.5923 111.617 21.5923C111.397 21.5923 111.218 21.7702 111.218 21.9896C111.218 22.209 111.397 22.3868 111.617 22.3868Z" fill="#2C394B"/>
<path d="M111.617 24.3414C111.838 24.3414 112.017 24.1636 112.017 23.9442C112.017 23.7247 111.838 23.5469 111.617 23.5469C111.397 23.5469 111.218 23.7247 111.218 23.9442C111.218 24.1636 111.397 24.3414 111.617 24.3414Z" fill="#2C394B"/>
<path d="M111.617 26.3038C111.838 26.3038 112.017 26.126 112.017 25.9066C112.017 25.6871 111.838 25.5093 111.617 25.5093C111.397 25.5093 111.218 25.6871 111.218 25.9066C111.218 26.126 111.397 26.3038 111.617 26.3038Z" fill="#2C394B"/>
<path d="M111.617 28.2662C111.838 28.2662 112.017 28.0884 112.017 27.869C112.017 27.6495 111.838 27.4717 111.617 27.4717C111.397 27.4717 111.218 27.6495 111.218 27.869C111.218 28.0884 111.397 28.2662 111.617 28.2662Z" fill="#2C394B"/>
<path d="M111.617 30.2208C111.838 30.2208 112.017 30.043 112.017 29.8235C112.017 29.6041 111.838 29.4263 111.617 29.4263C111.397 29.4263 111.218 29.6041 111.218 29.8235C111.218 30.043 111.397 30.2208 111.617 30.2208Z" fill="#2C394B"/>
<path d="M111.617 32.1832C111.838 32.1832 112.017 32.0054 112.017 31.7859C112.017 31.5665 111.838 31.3887 111.617 31.3887C111.397 31.3887 111.218 31.5665 111.218 31.7859C111.218 32.0054 111.397 32.1832 111.617 32.1832Z" fill="#2C394B"/>
<path d="M111.617 34.1461C111.838 34.1461 112.017 33.9682 112.017 33.7488C112.017 33.5294 111.838 33.3516 111.617 33.3516C111.397 33.3516 111.218 33.5294 111.218 33.7488C111.218 33.9682 111.397 34.1461 111.617 34.1461Z" fill="#2C394B"/>
<path d="M111.617 36.1007C111.838 36.1007 112.017 35.9228 112.017 35.7034C112.017 35.484 111.838 35.3062 111.617 35.3062C111.397 35.3062 111.218 35.484 111.218 35.7034C111.218 35.9228 111.397 36.1007 111.617 36.1007Z" fill="#2C394B"/>
<path d="M111.617 38.0631C111.838 38.0631 112.017 37.8852 112.017 37.6658C112.017 37.4464 111.838 37.2686 111.617 37.2686C111.397 37.2686 111.218 37.4464 111.218 37.6658C111.218 37.8852 111.397 38.0631 111.617 38.0631Z" fill="#2C394B"/>
<path d="M109.643 18.4615C109.863 18.4615 110.042 18.2837 110.042 18.0643C110.042 17.8449 109.863 17.667 109.643 17.667C109.422 17.667 109.243 17.8449 109.243 18.0643C109.243 18.2837 109.422 18.4615 109.643 18.4615Z" fill="#2C394B"/>
<path d="M109.643 20.4239C109.863 20.4239 110.042 20.2461 110.042 20.0267C110.042 19.8073 109.863 19.6294 109.643 19.6294C109.422 19.6294 109.243 19.8073 109.243 20.0267C109.243 20.2461 109.422 20.4239 109.643 20.4239Z" fill="#2C394B"/>
<path d="M109.643 22.3868C109.863 22.3868 110.042 22.209 110.042 21.9896C110.042 21.7702 109.863 21.5923 109.643 21.5923C109.422 21.5923 109.243 21.7702 109.243 21.9896C109.243 22.209 109.422 22.3868 109.643 22.3868Z" fill="#2C394B"/>
<path d="M109.643 24.3414C109.863 24.3414 110.042 24.1636 110.042 23.9442C110.042 23.7247 109.863 23.5469 109.643 23.5469C109.422 23.5469 109.243 23.7247 109.243 23.9442C109.243 24.1636 109.422 24.3414 109.643 24.3414Z" fill="#2C394B"/>
<path d="M109.643 26.3038C109.863 26.3038 110.042 26.126 110.042 25.9066C110.042 25.6871 109.863 25.5093 109.643 25.5093C109.422 25.5093 109.243 25.6871 109.243 25.9066C109.243 26.126 109.422 26.3038 109.643 26.3038Z" fill="#2C394B"/>
<path d="M109.643 28.2662C109.863 28.2662 110.042 28.0884 110.042 27.869C110.042 27.6495 109.863 27.4717 109.643 27.4717C109.422 27.4717 109.243 27.6495 109.243 27.869C109.243 28.0884 109.422 28.2662 109.643 28.2662Z" fill="#2C394B"/>
<path d="M109.643 30.2208C109.863 30.2208 110.042 30.043 110.042 29.8235C110.042 29.6041 109.863 29.4263 109.643 29.4263C109.422 29.4263 109.243 29.6041 109.243 29.8235C109.243 30.043 109.422 30.2208 109.643 30.2208Z" fill="#2C394B"/>
<path d="M109.643 32.1832C109.863 32.1832 110.042 32.0054 110.042 31.7859C110.042 31.5665 109.863 31.3887 109.643 31.3887C109.422 31.3887 109.243 31.5665 109.243 31.7859C109.243 32.0054 109.422 32.1832 109.643 32.1832Z" fill="#2C394B"/>
<path d="M109.643 34.1461C109.863 34.1461 110.042 33.9682 110.042 33.7488C110.042 33.5294 109.863 33.3516 109.643 33.3516C109.422 33.3516 109.243 33.5294 109.243 33.7488C109.243 33.9682 109.422 34.1461 109.643 34.1461Z" fill="#2C394B"/>
<path d="M109.643 36.1007C109.863 36.1007 110.042 35.9228 110.042 35.7034C110.042 35.484 109.863 35.3062 109.643 35.3062C109.422 35.3062 109.243 35.484 109.243 35.7034C109.243 35.9228 109.422 36.1007 109.643 36.1007Z" fill="#2C394B"/>
<path d="M109.643 38.0631C109.863 38.0631 110.042 37.8852 110.042 37.6658C110.042 37.4464 109.863 37.2686 109.643 37.2686C109.422 37.2686 109.243 37.4464 109.243 37.6658C109.243 37.8852 109.422 38.0631 109.643 38.0631Z" fill="#2C394B"/>
<path d="M109.643 40.0255C109.863 40.0255 110.042 39.8476 110.042 39.6282C110.042 39.4088 109.863 39.231 109.643 39.231C109.422 39.231 109.243 39.4088 109.243 39.6282C109.243 39.8476 109.422 40.0255 109.643 40.0255Z" fill="#2C394B"/>
<path d="M107.677 20.4239C107.898 20.4239 108.077 20.2461 108.077 20.0267C108.077 19.8073 107.898 19.6294 107.677 19.6294C107.456 19.6294 107.277 19.8073 107.277 20.0267C107.277 20.2461 107.456 20.4239 107.677 20.4239Z" fill="#2C394B"/>
<path d="M107.677 22.3868C107.898 22.3868 108.077 22.209 108.077 21.9896C108.077 21.7702 107.898 21.5923 107.677 21.5923C107.456 21.5923 107.277 21.7702 107.277 21.9896C107.277 22.209 107.456 22.3868 107.677 22.3868Z" fill="#2C394B"/>
<path d="M107.677 24.3414C107.898 24.3414 108.077 24.1636 108.077 23.9442C108.077 23.7247 107.898 23.5469 107.677 23.5469C107.456 23.5469 107.277 23.7247 107.277 23.9442C107.277 24.1636 107.456 24.3414 107.677 24.3414Z" fill="#2C394B"/>
<path d="M107.677 26.3038C107.898 26.3038 108.077 26.126 108.077 25.9066C108.077 25.6871 107.898 25.5093 107.677 25.5093C107.456 25.5093 107.277 25.6871 107.277 25.9066C107.277 26.126 107.456 26.3038 107.677 26.3038Z" fill="#2C394B"/>
<path d="M107.677 28.2662C107.898 28.2662 108.077 28.0884 108.077 27.869C108.077 27.6495 107.898 27.4717 107.677 27.4717C107.456 27.4717 107.277 27.6495 107.277 27.869C107.277 28.0884 107.456 28.2662 107.677 28.2662Z" fill="#2C394B"/>
<path d="M107.677 30.2208C107.898 30.2208 108.077 30.043 108.077 29.8235C108.077 29.6041 107.898 29.4263 107.677 29.4263C107.456 29.4263 107.277 29.6041 107.277 29.8235C107.277 30.043 107.456 30.2208 107.677 30.2208Z" fill="#2C394B"/>
<path d="M107.677 32.1832C107.898 32.1832 108.077 32.0054 108.077 31.7859C108.077 31.5665 107.898 31.3887 107.677 31.3887C107.456 31.3887 107.277 31.5665 107.277 31.7859C107.277 32.0054 107.456 32.1832 107.677 32.1832Z" fill="#2C394B"/>
<path d="M107.677 34.1461C107.898 34.1461 108.077 33.9682 108.077 33.7488C108.077 33.5294 107.898 33.3516 107.677 33.3516C107.456 33.3516 107.277 33.5294 107.277 33.7488C107.277 33.9682 107.456 34.1461 107.677 34.1461Z" fill="#2C394B"/>
<path d="M107.677 36.1007C107.898 36.1007 108.077 35.9228 108.077 35.7034C108.077 35.484 107.898 35.3062 107.677 35.3062C107.456 35.3062 107.277 35.484 107.277 35.7034C107.277 35.9228 107.456 36.1007 107.677 36.1007Z" fill="#2C394B"/>
<path d="M107.677 38.0631C107.898 38.0631 108.077 37.8852 108.077 37.6658C108.077 37.4464 107.898 37.2686 107.677 37.2686C107.456 37.2686 107.277 37.4464 107.277 37.6658C107.277 37.8852 107.456 38.0631 107.677 38.0631Z" fill="#2C394B"/>
<path d="M107.677 40.0255C107.898 40.0255 108.077 39.8476 108.077 39.6282C108.077 39.4088 107.898 39.231 107.677 39.231C107.456 39.231 107.277 39.4088 107.277 39.6282C107.277 39.8476 107.456 40.0255 107.677 40.0255Z" fill="#2C394B"/>
<path d="M107.677 41.9801C107.898 41.9801 108.077 41.8022 108.077 41.5828C108.077 41.3634 107.898 41.1855 107.677 41.1855C107.456 41.1855 107.277 41.3634 107.277 41.5828C107.277 41.8022 107.456 41.9801 107.677 41.9801Z" fill="#2C394B"/>
<path d="M105.702 22.3868C105.923 22.3868 106.102 22.209 106.102 21.9896C106.102 21.7702 105.923 21.5923 105.702 21.5923C105.482 21.5923 105.303 21.7702 105.303 21.9896C105.303 22.209 105.482 22.3868 105.702 22.3868Z" fill="#2C394B"/>
<path d="M105.702 24.3414C105.923 24.3414 106.102 24.1636 106.102 23.9442C106.102 23.7247 105.923 23.5469 105.702 23.5469C105.482 23.5469 105.303 23.7247 105.303 23.9442C105.303 24.1636 105.482 24.3414 105.702 24.3414Z" fill="#2C394B"/>
<path d="M105.702 26.3038C105.923 26.3038 106.102 26.126 106.102 25.9066C106.102 25.6871 105.923 25.5093 105.702 25.5093C105.482 25.5093 105.303 25.6871 105.303 25.9066C105.303 26.126 105.482 26.3038 105.702 26.3038Z" fill="#2C394B"/>
<path d="M105.702 28.2662C105.923 28.2662 106.102 28.0884 106.102 27.869C106.102 27.6495 105.923 27.4717 105.702 27.4717C105.482 27.4717 105.303 27.6495 105.303 27.869C105.303 28.0884 105.482 28.2662 105.702 28.2662Z" fill="#2C394B"/>
<path d="M105.702 30.2208C105.923 30.2208 106.102 30.043 106.102 29.8235C106.102 29.6041 105.923 29.4263 105.702 29.4263C105.482 29.4263 105.303 29.6041 105.303 29.8235C105.303 30.043 105.482 30.2208 105.702 30.2208Z" fill="#2C394B"/>
<path d="M105.702 32.1832C105.923 32.1832 106.102 32.0054 106.102 31.7859C106.102 31.5665 105.923 31.3887 105.702 31.3887C105.482 31.3887 105.303 31.5665 105.303 31.7859C105.303 32.0054 105.482 32.1832 105.702 32.1832Z" fill="#2C394B"/>
<path d="M105.702 34.1461C105.923 34.1461 106.102 33.9682 106.102 33.7488C106.102 33.5294 105.923 33.3516 105.702 33.3516C105.482 33.3516 105.303 33.5294 105.303 33.7488C105.303 33.9682 105.482 34.1461 105.702 34.1461Z" fill="#2C394B"/>
<path d="M105.702 36.1007C105.923 36.1007 106.102 35.9228 106.102 35.7034C106.102 35.484 105.923 35.3062 105.702 35.3062C105.482 35.3062 105.303 35.484 105.303 35.7034C105.303 35.9228 105.482 36.1007 105.702 36.1007Z" fill="#2C394B"/>
<path d="M105.702 38.0631C105.923 38.0631 106.102 37.8852 106.102 37.6658C106.102 37.4464 105.923 37.2686 105.702 37.2686C105.482 37.2686 105.303 37.4464 105.303 37.6658C105.303 37.8852 105.482 38.0631 105.702 38.0631Z" fill="#2C394B"/>
<path d="M105.702 40.0255C105.923 40.0255 106.102 39.8476 106.102 39.6282C106.102 39.4088 105.923 39.231 105.702 39.231C105.482 39.231 105.303 39.4088 105.303 39.6282C105.303 39.8476 105.482 40.0255 105.702 40.0255Z" fill="#2C394B"/>
<path d="M105.702 41.9801C105.923 41.9801 106.102 41.8022 106.102 41.5828C106.102 41.3634 105.923 41.1855 105.702 41.1855C105.482 41.1855 105.303 41.3634 105.303 41.5828C105.303 41.8022 105.482 41.9801 105.702 41.9801Z" fill="#2C394B"/>
<path d="M103.729 24.3414C103.949 24.3414 104.128 24.1636 104.128 23.9442C104.128 23.7247 103.949 23.5469 103.729 23.5469C103.508 23.5469 103.329 23.7247 103.329 23.9442C103.329 24.1636 103.508 24.3414 103.729 24.3414Z" fill="#2C394B"/>
<path d="M103.729 26.3038C103.949 26.3038 104.128 26.126 104.128 25.9066C104.128 25.6871 103.949 25.5093 103.729 25.5093C103.508 25.5093 103.329 25.6871 103.329 25.9066C103.329 26.126 103.508 26.3038 103.729 26.3038Z" fill="#2C394B"/>
<path d="M103.729 28.2662C103.949 28.2662 104.128 28.0884 104.128 27.869C104.128 27.6495 103.949 27.4717 103.729 27.4717C103.508 27.4717 103.329 27.6495 103.329 27.869C103.329 28.0884 103.508 28.2662 103.729 28.2662Z" fill="#2C394B"/>
<path d="M103.729 30.2208C103.949 30.2208 104.128 30.043 104.128 29.8235C104.128 29.6041 103.949 29.4263 103.729 29.4263C103.508 29.4263 103.329 29.6041 103.329 29.8235C103.329 30.043 103.508 30.2208 103.729 30.2208Z" fill="#2C394B"/>
<path d="M103.729 32.1832C103.949 32.1832 104.128 32.0054 104.128 31.7859C104.128 31.5665 103.949 31.3887 103.729 31.3887C103.508 31.3887 103.329 31.5665 103.329 31.7859C103.329 32.0054 103.508 32.1832 103.729 32.1832Z" fill="#2C394B"/>
<path d="M103.729 34.1461C103.949 34.1461 104.128 33.9682 104.128 33.7488C104.128 33.5294 103.949 33.3516 103.729 33.3516C103.508 33.3516 103.329 33.5294 103.329 33.7488C103.329 33.9682 103.508 34.1461 103.729 34.1461Z" fill="#2C394B"/>
<path d="M103.729 36.1007C103.949 36.1007 104.128 35.9228 104.128 35.7034C104.128 35.484 103.949 35.3062 103.729 35.3062C103.508 35.3062 103.329 35.484 103.329 35.7034C103.329 35.9228 103.508 36.1007 103.729 36.1007Z" fill="#2C394B"/>
<path d="M103.729 38.0631C103.949 38.0631 104.128 37.8852 104.128 37.6658C104.128 37.4464 103.949 37.2686 103.729 37.2686C103.508 37.2686 103.329 37.4464 103.329 37.6658C103.329 37.8852 103.508 38.0631 103.729 38.0631Z" fill="#2C394B"/>
<path d="M103.729 40.0255C103.949 40.0255 104.128 39.8476 104.128 39.6282C104.128 39.4088 103.949 39.231 103.729 39.231C103.508 39.231 103.329 39.4088 103.329 39.6282C103.329 39.8476 103.508 40.0255 103.729 40.0255Z" fill="#2C394B"/>
<path d="M103.729 41.9801C103.949 41.9801 104.128 41.8022 104.128 41.5828C104.128 41.3634 103.949 41.1855 103.729 41.1855C103.508 41.1855 103.329 41.3634 103.329 41.5828C103.329 41.8022 103.508 41.9801 103.729 41.9801Z" fill="#2C394B"/>
<path d="M103.729 43.943C103.949 43.943 104.128 43.7651 104.128 43.5457C104.128 43.3263 103.949 43.1484 103.729 43.1484C103.508 43.1484 103.329 43.3263 103.329 43.5457C103.329 43.7651 103.508 43.943 103.729 43.943Z" fill="#2C394B"/>
<path d="M101.763 24.3414C101.984 24.3414 102.162 24.1636 102.162 23.9442C102.162 23.7247 101.984 23.5469 101.763 23.5469C101.542 23.5469 101.363 23.7247 101.363 23.9442C101.363 24.1636 101.542 24.3414 101.763 24.3414Z" fill="#2C394B"/>
<path d="M101.763 26.3038C101.984 26.3038 102.162 26.126 102.162 25.9066C102.162 25.6871 101.984 25.5093 101.763 25.5093C101.542 25.5093 101.363 25.6871 101.363 25.9066C101.363 26.126 101.542 26.3038 101.763 26.3038Z" fill="#2C394B"/>
<path d="M101.763 28.2662C101.984 28.2662 102.162 28.0884 102.162 27.869C102.162 27.6495 101.984 27.4717 101.763 27.4717C101.542 27.4717 101.363 27.6495 101.363 27.869C101.363 28.0884 101.542 28.2662 101.763 28.2662Z" fill="#2C394B"/>
<path d="M101.763 30.2208C101.984 30.2208 102.162 30.043 102.162 29.8235C102.162 29.6041 101.984 29.4263 101.763 29.4263C101.542 29.4263 101.363 29.6041 101.363 29.8235C101.363 30.043 101.542 30.2208 101.763 30.2208Z" fill="#2C394B"/>
<path d="M101.763 32.1832C101.984 32.1832 102.162 32.0054 102.162 31.7859C102.162 31.5665 101.984 31.3887 101.763 31.3887C101.542 31.3887 101.363 31.5665 101.363 31.7859C101.363 32.0054 101.542 32.1832 101.763 32.1832Z" fill="#2C394B"/>
<path d="M101.763 34.1461C101.984 34.1461 102.162 33.9682 102.162 33.7488C102.162 33.5294 101.984 33.3516 101.763 33.3516C101.542 33.3516 101.363 33.5294 101.363 33.7488C101.363 33.9682 101.542 34.1461 101.763 34.1461Z" fill="#2C394B"/>
<path d="M101.763 36.1007C101.984 36.1007 102.162 35.9228 102.162 35.7034C102.162 35.484 101.984 35.3062 101.763 35.3062C101.542 35.3062 101.363 35.484 101.363 35.7034C101.363 35.9228 101.542 36.1007 101.763 36.1007Z" fill="#2C394B"/>
<path d="M101.763 38.0631C101.984 38.0631 102.162 37.8852 102.162 37.6658C102.162 37.4464 101.984 37.2686 101.763 37.2686C101.542 37.2686 101.363 37.4464 101.363 37.6658C101.363 37.8852 101.542 38.0631 101.763 38.0631Z" fill="#2C394B"/>
<path d="M101.763 40.0255C101.984 40.0255 102.162 39.8476 102.162 39.6282C102.162 39.4088 101.984 39.231 101.763 39.231C101.542 39.231 101.363 39.4088 101.363 39.6282C101.363 39.8476 101.542 40.0255 101.763 40.0255Z" fill="#2C394B"/>
<path d="M101.763 41.9801C101.984 41.9801 102.162 41.8022 102.162 41.5828C102.162 41.3634 101.984 41.1855 101.763 41.1855C101.542 41.1855 101.363 41.3634 101.363 41.5828C101.363 41.8022 101.542 41.9801 101.763 41.9801Z" fill="#2C394B"/>
<path d="M101.763 43.943C101.984 43.943 102.162 43.7651 102.162 43.5457C102.162 43.3263 101.984 43.1484 101.763 43.1484C101.542 43.1484 101.363 43.3263 101.363 43.5457C101.363 43.7651 101.542 43.943 101.763 43.943Z" fill="#2C394B"/>
<path d="M101.763 45.9054C101.984 45.9054 102.162 45.7275 102.162 45.5081C102.162 45.2887 101.984 45.1108 101.763 45.1108C101.542 45.1108 101.363 45.2887 101.363 45.5081C101.363 45.7275 101.542 45.9054 101.763 45.9054Z" fill="#2C394B"/>
<path d="M99.7883 26.3038C100.009 26.3038 100.188 26.126 100.188 25.9066C100.188 25.6871 100.009 25.5093 99.7883 25.5093C99.5676 25.5093 99.3887 25.6871 99.3887 25.9066C99.3887 26.126 99.5676 26.3038 99.7883 26.3038Z" fill="#2C394B"/>
<path d="M99.7883 28.2662C100.009 28.2662 100.188 28.0884 100.188 27.869C100.188 27.6495 100.009 27.4717 99.7883 27.4717C99.5676 27.4717 99.3887 27.6495 99.3887 27.869C99.3887 28.0884 99.5676 28.2662 99.7883 28.2662Z" fill="#2C394B"/>
<path d="M99.7883 30.2208C100.009 30.2208 100.188 30.043 100.188 29.8235C100.188 29.6041 100.009 29.4263 99.7883 29.4263C99.5676 29.4263 99.3887 29.6041 99.3887 29.8235C99.3887 30.043 99.5676 30.2208 99.7883 30.2208Z" fill="#2C394B"/>
<path d="M99.7883 32.1832C100.009 32.1832 100.188 32.0054 100.188 31.7859C100.188 31.5665 100.009 31.3887 99.7883 31.3887C99.5676 31.3887 99.3887 31.5665 99.3887 31.7859C99.3887 32.0054 99.5676 32.1832 99.7883 32.1832Z" fill="#2C394B"/>
<path d="M99.7883 34.1461C100.009 34.1461 100.188 33.9682 100.188 33.7488C100.188 33.5294 100.009 33.3516 99.7883 33.3516C99.5676 33.3516 99.3887 33.5294 99.3887 33.7488C99.3887 33.9682 99.5676 34.1461 99.7883 34.1461Z" fill="#2C394B"/>
<path d="M99.7883 36.1007C100.009 36.1007 100.188 35.9228 100.188 35.7034C100.188 35.484 100.009 35.3062 99.7883 35.3062C99.5676 35.3062 99.3887 35.484 99.3887 35.7034C99.3887 35.9228 99.5676 36.1007 99.7883 36.1007Z" fill="#2C394B"/>
<path d="M99.7883 38.0631C100.009 38.0631 100.188 37.8852 100.188 37.6658C100.188 37.4464 100.009 37.2686 99.7883 37.2686C99.5676 37.2686 99.3887 37.4464 99.3887 37.6658C99.3887 37.8852 99.5676 38.0631 99.7883 38.0631Z" fill="#2C394B"/>
<path d="M99.7883 40.0255C100.009 40.0255 100.188 39.8476 100.188 39.6282C100.188 39.4088 100.009 39.231 99.7883 39.231C99.5676 39.231 99.3887 39.4088 99.3887 39.6282C99.3887 39.8476 99.5676 40.0255 99.7883 40.0255Z" fill="#2C394B"/>
<path d="M99.7883 41.9801C100.009 41.9801 100.188 41.8022 100.188 41.5828C100.188 41.3634 100.009 41.1855 99.7883 41.1855C99.5676 41.1855 99.3887 41.3634 99.3887 41.5828C99.3887 41.8022 99.5676 41.9801 99.7883 41.9801Z" fill="#2C394B"/>
<path d="M99.7883 43.943C100.009 43.943 100.188 43.7651 100.188 43.5457C100.188 43.3263 100.009 43.1484 99.7883 43.1484C99.5676 43.1484 99.3887 43.3263 99.3887 43.5457C99.3887 43.7651 99.5676 43.943 99.7883 43.943Z" fill="#2C394B"/>
<path d="M99.7883 45.9054C100.009 45.9054 100.188 45.7275 100.188 45.5081C100.188 45.2887 100.009 45.1108 99.7883 45.1108C99.5676 45.1108 99.3887 45.2887 99.3887 45.5081C99.3887 45.7275 99.5676 45.9054 99.7883 45.9054Z" fill="#2C394B"/>
<path d="M99.7883 47.86C100.009 47.86 100.188 47.6821 100.188 47.4627C100.188 47.2433 100.009 47.0654 99.7883 47.0654C99.5676 47.0654 99.3887 47.2433 99.3887 47.4627C99.3887 47.6821 99.5676 47.86 99.7883 47.86Z" fill="#2C394B"/>
<path d="M97.8146 28.2662C98.0353 28.2662 98.2142 28.0884 98.2142 27.869C98.2142 27.6495 98.0353 27.4717 97.8146 27.4717C97.5939 27.4717 97.415 27.6495 97.415 27.869C97.415 28.0884 97.5939 28.2662 97.8146 28.2662Z" fill="#2C394B"/>
<path d="M97.8146 30.2208C98.0353 30.2208 98.2142 30.043 98.2142 29.8235C98.2142 29.6041 98.0353 29.4263 97.8146 29.4263C97.5939 29.4263 97.415 29.6041 97.415 29.8235C97.415 30.043 97.5939 30.2208 97.8146 30.2208Z" fill="#2C394B"/>
<path d="M97.8146 32.1832C98.0353 32.1832 98.2142 32.0054 98.2142 31.7859C98.2142 31.5665 98.0353 31.3887 97.8146 31.3887C97.5939 31.3887 97.415 31.5665 97.415 31.7859C97.415 32.0054 97.5939 32.1832 97.8146 32.1832Z" fill="#2C394B"/>
<path d="M97.8146 34.1461C98.0353 34.1461 98.2142 33.9682 98.2142 33.7488C98.2142 33.5294 98.0353 33.3516 97.8146 33.3516C97.5939 33.3516 97.415 33.5294 97.415 33.7488C97.415 33.9682 97.5939 34.1461 97.8146 34.1461Z" fill="#2C394B"/>
<path d="M97.8146 36.1007C98.0353 36.1007 98.2142 35.9228 98.2142 35.7034C98.2142 35.484 98.0353 35.3062 97.8146 35.3062C97.5939 35.3062 97.415 35.484 97.415 35.7034C97.415 35.9228 97.5939 36.1007 97.8146 36.1007Z" fill="#2C394B"/>
<path d="M97.8146 38.0631C98.0353 38.0631 98.2142 37.8852 98.2142 37.6658C98.2142 37.4464 98.0353 37.2686 97.8146 37.2686C97.5939 37.2686 97.415 37.4464 97.415 37.6658C97.415 37.8852 97.5939 38.0631 97.8146 38.0631Z" fill="#2C394B"/>
<path d="M97.8146 40.0255C98.0353 40.0255 98.2142 39.8476 98.2142 39.6282C98.2142 39.4088 98.0353 39.231 97.8146 39.231C97.5939 39.231 97.415 39.4088 97.415 39.6282C97.415 39.8476 97.5939 40.0255 97.8146 40.0255Z" fill="#2C394B"/>
<path d="M97.8146 41.9801C98.0353 41.9801 98.2142 41.8022 98.2142 41.5828C98.2142 41.3634 98.0353 41.1855 97.8146 41.1855C97.5939 41.1855 97.415 41.3634 97.415 41.5828C97.415 41.8022 97.5939 41.9801 97.8146 41.9801Z" fill="#2C394B"/>
<path d="M97.8146 43.943C98.0353 43.943 98.2142 43.7651 98.2142 43.5457C98.2142 43.3263 98.0353 43.1484 97.8146 43.1484C97.5939 43.1484 97.415 43.3263 97.415 43.5457C97.415 43.7651 97.5939 43.943 97.8146 43.943Z" fill="#2C394B"/>
<path d="M97.8146 45.9054C98.0353 45.9054 98.2142 45.7275 98.2142 45.5081C98.2142 45.2887 98.0353 45.1108 97.8146 45.1108C97.5939 45.1108 97.415 45.2887 97.415 45.5081C97.415 45.7275 97.5939 45.9054 97.8146 45.9054Z" fill="#2C394B"/>
<path d="M97.8146 47.86C98.0353 47.86 98.2142 47.6821 98.2142 47.4627C98.2142 47.2433 98.0353 47.0654 97.8146 47.0654C97.5939 47.0654 97.415 47.2433 97.415 47.4627C97.415 47.6821 97.5939 47.86 97.8146 47.86Z" fill="#2C394B"/>
<path d="M97.8146 49.8224C98.0353 49.8224 98.2142 49.6445 98.2142 49.4251C98.2142 49.2057 98.0353 49.0278 97.8146 49.0278C97.5939 49.0278 97.415 49.2057 97.415 49.4251C97.415 49.6445 97.5939 49.8224 97.8146 49.8224Z" fill="#2C394B"/>
<path d="M95.8488 30.2208C96.0695 30.2208 96.2484 30.043 96.2484 29.8235C96.2484 29.6041 96.0695 29.4263 95.8488 29.4263C95.6281 29.4263 95.4492 29.6041 95.4492 29.8235C95.4492 30.043 95.6281 30.2208 95.8488 30.2208Z" fill="#2C394B"/>
<path d="M95.8488 32.1832C96.0695 32.1832 96.2484 32.0054 96.2484 31.7859C96.2484 31.5665 96.0695 31.3887 95.8488 31.3887C95.6281 31.3887 95.4492 31.5665 95.4492 31.7859C95.4492 32.0054 95.6281 32.1832 95.8488 32.1832Z" fill="#2C394B"/>
<path d="M95.8488 34.1461C96.0695 34.1461 96.2484 33.9682 96.2484 33.7488C96.2484 33.5294 96.0695 33.3516 95.8488 33.3516C95.6281 33.3516 95.4492 33.5294 95.4492 33.7488C95.4492 33.9682 95.6281 34.1461 95.8488 34.1461Z" fill="#2C394B"/>
<path d="M95.8488 36.1007C96.0695 36.1007 96.2484 35.9228 96.2484 35.7034C96.2484 35.484 96.0695 35.3062 95.8488 35.3062C95.6281 35.3062 95.4492 35.484 95.4492 35.7034C95.4492 35.9228 95.6281 36.1007 95.8488 36.1007Z" fill="#2C394B"/>
<path d="M95.8488 38.0631C96.0695 38.0631 96.2484 37.8852 96.2484 37.6658C96.2484 37.4464 96.0695 37.2686 95.8488 37.2686C95.6281 37.2686 95.4492 37.4464 95.4492 37.6658C95.4492 37.8852 95.6281 38.0631 95.8488 38.0631Z" fill="#2C394B"/>
<path d="M95.8488 40.0255C96.0695 40.0255 96.2484 39.8476 96.2484 39.6282C96.2484 39.4088 96.0695 39.231 95.8488 39.231C95.6281 39.231 95.4492 39.4088 95.4492 39.6282C95.4492 39.8476 95.6281 40.0255 95.8488 40.0255Z" fill="#2C394B"/>
<path d="M95.8488 41.9801C96.0695 41.9801 96.2484 41.8022 96.2484 41.5828C96.2484 41.3634 96.0695 41.1855 95.8488 41.1855C95.6281 41.1855 95.4492 41.3634 95.4492 41.5828C95.4492 41.8022 95.6281 41.9801 95.8488 41.9801Z" fill="#2C394B"/>
<path d="M95.8488 43.943C96.0695 43.943 96.2484 43.7651 96.2484 43.5457C96.2484 43.3263 96.0695 43.1484 95.8488 43.1484C95.6281 43.1484 95.4492 43.3263 95.4492 43.5457C95.4492 43.7651 95.6281 43.943 95.8488 43.943Z" fill="#2C394B"/>
<path d="M95.8488 45.9054C96.0695 45.9054 96.2484 45.7275 96.2484 45.5081C96.2484 45.2887 96.0695 45.1108 95.8488 45.1108C95.6281 45.1108 95.4492 45.2887 95.4492 45.5081C95.4492 45.7275 95.6281 45.9054 95.8488 45.9054Z" fill="#2C394B"/>
<path d="M95.8488 47.86C96.0695 47.86 96.2484 47.6821 96.2484 47.4627C96.2484 47.2433 96.0695 47.0654 95.8488 47.0654C95.6281 47.0654 95.4492 47.2433 95.4492 47.4627C95.4492 47.6821 95.6281 47.86 95.8488 47.86Z" fill="#2C394B"/>
<path d="M95.8488 49.8224C96.0695 49.8224 96.2484 49.6445 96.2484 49.4251C96.2484 49.2057 96.0695 49.0278 95.8488 49.0278C95.6281 49.0278 95.4492 49.2057 95.4492 49.4251C95.4492 49.6445 95.6281 49.8224 95.8488 49.8224Z" fill="#2C394B"/>
<path d="M95.8488 51.7848C96.0695 51.7848 96.2484 51.6069 96.2484 51.3875C96.2484 51.1681 96.0695 50.9902 95.8488 50.9902C95.6281 50.9902 95.4492 51.1681 95.4492 51.3875C95.4492 51.6069 95.6281 51.7848 95.8488 51.7848Z" fill="#2C394B"/>
<path d="M93.8742 32.1832C94.0949 32.1832 94.2738 32.0054 94.2738 31.7859C94.2738 31.5665 94.0949 31.3887 93.8742 31.3887C93.6535 31.3887 93.4746 31.5665 93.4746 31.7859C93.4746 32.0054 93.6535 32.1832 93.8742 32.1832Z" fill="#2C394B"/>
<path d="M93.8742 34.1461C94.0949 34.1461 94.2738 33.9682 94.2738 33.7488C94.2738 33.5294 94.0949 33.3516 93.8742 33.3516C93.6535 33.3516 93.4746 33.5294 93.4746 33.7488C93.4746 33.9682 93.6535 34.1461 93.8742 34.1461Z" fill="#2C394B"/>
<path d="M93.8742 36.1007C94.0949 36.1007 94.2738 35.9228 94.2738 35.7034C94.2738 35.484 94.0949 35.3062 93.8742 35.3062C93.6535 35.3062 93.4746 35.484 93.4746 35.7034C93.4746 35.9228 93.6535 36.1007 93.8742 36.1007Z" fill="#2C394B"/>
<path d="M93.8742 38.0631C94.0949 38.0631 94.2738 37.8852 94.2738 37.6658C94.2738 37.4464 94.0949 37.2686 93.8742 37.2686C93.6535 37.2686 93.4746 37.4464 93.4746 37.6658C93.4746 37.8852 93.6535 38.0631 93.8742 38.0631Z" fill="#2C394B"/>
<path d="M93.8742 40.0255C94.0949 40.0255 94.2738 39.8476 94.2738 39.6282C94.2738 39.4088 94.0949 39.231 93.8742 39.231C93.6535 39.231 93.4746 39.4088 93.4746 39.6282C93.4746 39.8476 93.6535 40.0255 93.8742 40.0255Z" fill="#2C394B"/>
<path d="M93.8742 41.9801C94.0949 41.9801 94.2738 41.8022 94.2738 41.5828C94.2738 41.3634 94.0949 41.1855 93.8742 41.1855C93.6535 41.1855 93.4746 41.3634 93.4746 41.5828C93.4746 41.8022 93.6535 41.9801 93.8742 41.9801Z" fill="#2C394B"/>
<path d="M93.8742 43.943C94.0949 43.943 94.2738 43.7651 94.2738 43.5457C94.2738 43.3263 94.0949 43.1484 93.8742 43.1484C93.6535 43.1484 93.4746 43.3263 93.4746 43.5457C93.4746 43.7651 93.6535 43.943 93.8742 43.943Z" fill="#2C394B"/>
<path d="M93.8742 45.9054C94.0949 45.9054 94.2738 45.7275 94.2738 45.5081C94.2738 45.2887 94.0949 45.1108 93.8742 45.1108C93.6535 45.1108 93.4746 45.2887 93.4746 45.5081C93.4746 45.7275 93.6535 45.9054 93.8742 45.9054Z" fill="#2C394B"/>
<path d="M93.8742 47.86C94.0949 47.86 94.2738 47.6821 94.2738 47.4627C94.2738 47.2433 94.0949 47.0654 93.8742 47.0654C93.6535 47.0654 93.4746 47.2433 93.4746 47.4627C93.4746 47.6821 93.6535 47.86 93.8742 47.86Z" fill="#2C394B"/>
<path d="M93.8742 49.8224C94.0949 49.8224 94.2738 49.6445 94.2738 49.4251C94.2738 49.2057 94.0949 49.0278 93.8742 49.0278C93.6535 49.0278 93.4746 49.2057 93.4746 49.4251C93.4746 49.6445 93.6535 49.8224 93.8742 49.8224Z" fill="#2C394B"/>
<path d="M93.8742 51.7848C94.0949 51.7848 94.2738 51.6069 94.2738 51.3875C94.2738 51.1681 94.0949 50.9902 93.8742 50.9902C93.6535 50.9902 93.4746 51.1681 93.4746 51.3875C93.4746 51.6069 93.6535 51.7848 93.8742 51.7848Z" fill="#2C394B"/>
<path d="M93.8742 53.7394C94.0949 53.7394 94.2738 53.5615 94.2738 53.3421C94.2738 53.1227 94.0949 52.9448 93.8742 52.9448C93.6535 52.9448 93.4746 53.1227 93.4746 53.3421C93.4746 53.5615 93.6535 53.7394 93.8742 53.7394Z" fill="#2C394B"/>
<path d="M91.9006 34.1461C92.1213 34.1461 92.3002 33.9682 92.3002 33.7488C92.3002 33.5294 92.1213 33.3516 91.9006 33.3516C91.6799 33.3516 91.501 33.5294 91.501 33.7488C91.501 33.9682 91.6799 34.1461 91.9006 34.1461Z" fill="#2C394B"/>
<path d="M91.9006 36.1007C92.1213 36.1007 92.3002 35.9228 92.3002 35.7034C92.3002 35.484 92.1213 35.3062 91.9006 35.3062C91.6799 35.3062 91.501 35.484 91.501 35.7034C91.501 35.9228 91.6799 36.1007 91.9006 36.1007Z" fill="#2C394B"/>
<path d="M91.9006 38.0631C92.1213 38.0631 92.3002 37.8852 92.3002 37.6658C92.3002 37.4464 92.1213 37.2686 91.9006 37.2686C91.6799 37.2686 91.501 37.4464 91.501 37.6658C91.501 37.8852 91.6799 38.0631 91.9006 38.0631Z" fill="#2C394B"/>
<path d="M91.9006 40.0255C92.1213 40.0255 92.3002 39.8476 92.3002 39.6282C92.3002 39.4088 92.1213 39.231 91.9006 39.231C91.6799 39.231 91.501 39.4088 91.501 39.6282C91.501 39.8476 91.6799 40.0255 91.9006 40.0255Z" fill="#2C394B"/>
<path d="M91.9006 41.9801C92.1213 41.9801 92.3002 41.8022 92.3002 41.5828C92.3002 41.3634 92.1213 41.1855 91.9006 41.1855C91.6799 41.1855 91.501 41.3634 91.501 41.5828C91.501 41.8022 91.6799 41.9801 91.9006 41.9801Z" fill="#2C394B"/>
<path d="M91.9006 43.943C92.1213 43.943 92.3002 43.7651 92.3002 43.5457C92.3002 43.3263 92.1213 43.1484 91.9006 43.1484C91.6799 43.1484 91.501 43.3263 91.501 43.5457C91.501 43.7651 91.6799 43.943 91.9006 43.943Z" fill="#2C394B"/>
<path d="M91.9006 45.9054C92.1213 45.9054 92.3002 45.7275 92.3002 45.5081C92.3002 45.2887 92.1213 45.1108 91.9006 45.1108C91.6799 45.1108 91.501 45.2887 91.501 45.5081C91.501 45.7275 91.6799 45.9054 91.9006 45.9054Z" fill="#2C394B"/>
<path d="M91.9006 47.86C92.1213 47.86 92.3002 47.6821 92.3002 47.4627C92.3002 47.2433 92.1213 47.0654 91.9006 47.0654C91.6799 47.0654 91.501 47.2433 91.501 47.4627C91.501 47.6821 91.6799 47.86 91.9006 47.86Z" fill="#2C394B"/>
<path d="M91.9006 49.8224C92.1213 49.8224 92.3002 49.6445 92.3002 49.4251C92.3002 49.2057 92.1213 49.0278 91.9006 49.0278C91.6799 49.0278 91.501 49.2057 91.501 49.4251C91.501 49.6445 91.6799 49.8224 91.9006 49.8224Z" fill="#2C394B"/>
<path d="M91.9006 51.7848C92.1213 51.7848 92.3002 51.6069 92.3002 51.3875C92.3002 51.1681 92.1213 50.9902 91.9006 50.9902C91.6799 50.9902 91.501 51.1681 91.501 51.3875C91.501 51.6069 91.6799 51.7848 91.9006 51.7848Z" fill="#2C394B"/>
<path d="M91.9006 53.7394C92.1213 53.7394 92.3002 53.5615 92.3002 53.3421C92.3002 53.1227 92.1213 52.9448 91.9006 52.9448C91.6799 52.9448 91.501 53.1227 91.501 53.3421C91.501 53.5615 91.6799 53.7394 91.9006 53.7394Z" fill="#2C394B"/>
<path d="M89.9338 36.1007C90.1545 36.1007 90.3334 35.9228 90.3334 35.7034C90.3334 35.484 90.1545 35.3062 89.9338 35.3062C89.7131 35.3062 89.5342 35.484 89.5342 35.7034C89.5342 35.9228 89.7131 36.1007 89.9338 36.1007Z" fill="#2C394B"/>
<path d="M89.9338 38.0631C90.1545 38.0631 90.3334 37.8852 90.3334 37.6658C90.3334 37.4464 90.1545 37.2686 89.9338 37.2686C89.7131 37.2686 89.5342 37.4464 89.5342 37.6658C89.5342 37.8852 89.7131 38.0631 89.9338 38.0631Z" fill="#2C394B"/>
<path d="M89.9338 40.0255C90.1545 40.0255 90.3334 39.8476 90.3334 39.6282C90.3334 39.4088 90.1545 39.231 89.9338 39.231C89.7131 39.231 89.5342 39.4088 89.5342 39.6282C89.5342 39.8476 89.7131 40.0255 89.9338 40.0255Z" fill="#2C394B"/>
<path d="M89.9338 41.9801C90.1545 41.9801 90.3334 41.8022 90.3334 41.5828C90.3334 41.3634 90.1545 41.1855 89.9338 41.1855C89.7131 41.1855 89.5342 41.3634 89.5342 41.5828C89.5342 41.8022 89.7131 41.9801 89.9338 41.9801Z" fill="#2C394B"/>
<path d="M89.9338 43.943C90.1545 43.943 90.3334 43.7651 90.3334 43.5457C90.3334 43.3263 90.1545 43.1484 89.9338 43.1484C89.7131 43.1484 89.5342 43.3263 89.5342 43.5457C89.5342 43.7651 89.7131 43.943 89.9338 43.943Z" fill="#2C394B"/>
<path d="M89.9338 45.9054C90.1545 45.9054 90.3334 45.7275 90.3334 45.5081C90.3334 45.2887 90.1545 45.1108 89.9338 45.1108C89.7131 45.1108 89.5342 45.2887 89.5342 45.5081C89.5342 45.7275 89.7131 45.9054 89.9338 45.9054Z" fill="#2C394B"/>
<path d="M89.9338 47.86C90.1545 47.86 90.3334 47.6821 90.3334 47.4627C90.3334 47.2433 90.1545 47.0654 89.9338 47.0654C89.7131 47.0654 89.5342 47.2433 89.5342 47.4627C89.5342 47.6821 89.7131 47.86 89.9338 47.86Z" fill="#2C394B"/>
<path d="M89.9338 49.8224C90.1545 49.8224 90.3334 49.6445 90.3334 49.4251C90.3334 49.2057 90.1545 49.0278 89.9338 49.0278C89.7131 49.0278 89.5342 49.2057 89.5342 49.4251C89.5342 49.6445 89.7131 49.8224 89.9338 49.8224Z" fill="#2C394B"/>
<path d="M89.9338 51.7848C90.1545 51.7848 90.3334 51.6069 90.3334 51.3875C90.3334 51.1681 90.1545 50.9902 89.9338 50.9902C89.7131 50.9902 89.5342 51.1681 89.5342 51.3875C89.5342 51.6069 89.7131 51.7848 89.9338 51.7848Z" fill="#2C394B"/>
<path d="M89.9338 53.7394C90.1545 53.7394 90.3334 53.5615 90.3334 53.3421C90.3334 53.1227 90.1545 52.9448 89.9338 52.9448C89.7131 52.9448 89.5342 53.1227 89.5342 53.3421C89.5342 53.5615 89.7131 53.7394 89.9338 53.7394Z" fill="#2C394B"/>
<path d="M89.9338 55.7023C90.1545 55.7023 90.3334 55.5244 90.3334 55.305C90.3334 55.0856 90.1545 54.9077 89.9338 54.9077C89.7131 54.9077 89.5342 55.0856 89.5342 55.305C89.5342 55.5244 89.7131 55.7023 89.9338 55.7023Z" fill="#2C394B"/>
<path d="M87.9602 38.0631C88.1809 38.0631 88.3598 37.8852 88.3598 37.6658C88.3598 37.4464 88.1809 37.2686 87.9602 37.2686C87.7395 37.2686 87.5605 37.4464 87.5605 37.6658C87.5605 37.8852 87.7395 38.0631 87.9602 38.0631Z" fill="#2C394B"/>
<path d="M87.9602 40.0255C88.1809 40.0255 88.3598 39.8476 88.3598 39.6282C88.3598 39.4088 88.1809 39.231 87.9602 39.231C87.7395 39.231 87.5605 39.4088 87.5605 39.6282C87.5605 39.8476 87.7395 40.0255 87.9602 40.0255Z" fill="#2C394B"/>
<path d="M87.9602 41.9801C88.1809 41.9801 88.3598 41.8022 88.3598 41.5828C88.3598 41.3634 88.1809 41.1855 87.9602 41.1855C87.7395 41.1855 87.5605 41.3634 87.5605 41.5828C87.5605 41.8022 87.7395 41.9801 87.9602 41.9801Z" fill="#2C394B"/>
<path d="M87.9602 43.943C88.1809 43.943 88.3598 43.7651 88.3598 43.5457C88.3598 43.3263 88.1809 43.1484 87.9602 43.1484C87.7395 43.1484 87.5605 43.3263 87.5605 43.5457C87.5605 43.7651 87.7395 43.943 87.9602 43.943Z" fill="#2C394B"/>
<path d="M87.9602 45.9054C88.1809 45.9054 88.3598 45.7275 88.3598 45.5081C88.3598 45.2887 88.1809 45.1108 87.9602 45.1108C87.7395 45.1108 87.5605 45.2887 87.5605 45.5081C87.5605 45.7275 87.7395 45.9054 87.9602 45.9054Z" fill="#2C394B"/>
<path d="M87.9602 47.86C88.1809 47.86 88.3598 47.6821 88.3598 47.4627C88.3598 47.2433 88.1809 47.0654 87.9602 47.0654C87.7395 47.0654 87.5605 47.2433 87.5605 47.4627C87.5605 47.6821 87.7395 47.86 87.9602 47.86Z" fill="#2C394B"/>
<path d="M87.9602 49.8224C88.1809 49.8224 88.3598 49.6445 88.3598 49.4251C88.3598 49.2057 88.1809 49.0278 87.9602 49.0278C87.7395 49.0278 87.5605 49.2057 87.5605 49.4251C87.5605 49.6445 87.7395 49.8224 87.9602 49.8224Z" fill="#2C394B"/>
<path d="M87.9602 51.7848C88.1809 51.7848 88.3598 51.6069 88.3598 51.3875C88.3598 51.1681 88.1809 50.9902 87.9602 50.9902C87.7395 50.9902 87.5605 51.1681 87.5605 51.3875C87.5605 51.6069 87.7395 51.7848 87.9602 51.7848Z" fill="#2C394B"/>
<path d="M87.9602 53.7394C88.1809 53.7394 88.3598 53.5615 88.3598 53.3421C88.3598 53.1227 88.1809 52.9448 87.9602 52.9448C87.7395 52.9448 87.5605 53.1227 87.5605 53.3421C87.5605 53.5615 87.7395 53.7394 87.9602 53.7394Z" fill="#2C394B"/>
<path d="M87.9602 55.7023C88.1809 55.7023 88.3598 55.5244 88.3598 55.305C88.3598 55.0856 88.1809 54.9077 87.9602 54.9077C87.7395 54.9077 87.5605 55.0856 87.5605 55.305C87.5605 55.5244 87.7395 55.7023 87.9602 55.7023Z" fill="#2C394B"/>
<path d="M87.9602 57.6647C88.1809 57.6647 88.3598 57.4868 88.3598 57.2674C88.3598 57.048 88.1809 56.8701 87.9602 56.8701C87.7395 56.8701 87.5605 57.048 87.5605 57.2674C87.5605 57.4868 87.7395 57.6647 87.9602 57.6647Z" fill="#2C394B"/>
<path d="M85.9855 38.0631C86.2062 38.0631 86.3852 37.8852 86.3852 37.6658C86.3852 37.4464 86.2062 37.2686 85.9855 37.2686C85.7648 37.2686 85.5859 37.4464 85.5859 37.6658C85.5859 37.8852 85.7648 38.0631 85.9855 38.0631Z" fill="#2C394B"/>
<path d="M85.9855 40.0255C86.2062 40.0255 86.3852 39.8476 86.3852 39.6282C86.3852 39.4088 86.2062 39.231 85.9855 39.231C85.7648 39.231 85.5859 39.4088 85.5859 39.6282C85.5859 39.8476 85.7648 40.0255 85.9855 40.0255Z" fill="#2C394B"/>
<path d="M85.9855 41.9801C86.2062 41.9801 86.3852 41.8022 86.3852 41.5828C86.3852 41.3634 86.2062 41.1855 85.9855 41.1855C85.7648 41.1855 85.5859 41.3634 85.5859 41.5828C85.5859 41.8022 85.7648 41.9801 85.9855 41.9801Z" fill="#2C394B"/>
<path d="M85.9855 43.943C86.2062 43.943 86.3852 43.7651 86.3852 43.5457C86.3852 43.3263 86.2062 43.1484 85.9855 43.1484C85.7648 43.1484 85.5859 43.3263 85.5859 43.5457C85.5859 43.7651 85.7648 43.943 85.9855 43.943Z" fill="#2C394B"/>
<path d="M85.9855 45.9054C86.2062 45.9054 86.3852 45.7275 86.3852 45.5081C86.3852 45.2887 86.2062 45.1108 85.9855 45.1108C85.7648 45.1108 85.5859 45.2887 85.5859 45.5081C85.5859 45.7275 85.7648 45.9054 85.9855 45.9054Z" fill="#2C394B"/>
<path d="M85.9855 47.86C86.2062 47.86 86.3852 47.6821 86.3852 47.4627C86.3852 47.2433 86.2062 47.0654 85.9855 47.0654C85.7648 47.0654 85.5859 47.2433 85.5859 47.4627C85.5859 47.6821 85.7648 47.86 85.9855 47.86Z" fill="#2C394B"/>
<path d="M85.9855 49.8224C86.2062 49.8224 86.3852 49.6445 86.3852 49.4251C86.3852 49.2057 86.2062 49.0278 85.9855 49.0278C85.7648 49.0278 85.5859 49.2057 85.5859 49.4251C85.5859 49.6445 85.7648 49.8224 85.9855 49.8224Z" fill="#2C394B"/>
<path d="M85.9855 51.7848C86.2062 51.7848 86.3852 51.6069 86.3852 51.3875C86.3852 51.1681 86.2062 50.9902 85.9855 50.9902C85.7648 50.9902 85.5859 51.1681 85.5859 51.3875C85.5859 51.6069 85.7648 51.7848 85.9855 51.7848Z" fill="#2C394B"/>
<path d="M85.9855 53.7394C86.2062 53.7394 86.3852 53.5615 86.3852 53.3421C86.3852 53.1227 86.2062 52.9448 85.9855 52.9448C85.7648 52.9448 85.5859 53.1227 85.5859 53.3421C85.5859 53.5615 85.7648 53.7394 85.9855 53.7394Z" fill="#2C394B"/>
<path d="M85.9855 55.7023C86.2062 55.7023 86.3852 55.5244 86.3852 55.305C86.3852 55.0856 86.2062 54.9077 85.9855 54.9077C85.7648 54.9077 85.5859 55.0856 85.5859 55.305C85.5859 55.5244 85.7648 55.7023 85.9855 55.7023Z" fill="#2C394B"/>
<path d="M85.9855 57.6647C86.2062 57.6647 86.3852 57.4868 86.3852 57.2674C86.3852 57.048 86.2062 56.8701 85.9855 56.8701C85.7648 56.8701 85.5859 57.048 85.5859 57.2674C85.5859 57.4868 85.7648 57.6647 85.9855 57.6647Z" fill="#2C394B"/>
<path d="M85.9855 59.6193C86.2062 59.6193 86.3852 59.4414 86.3852 59.222C86.3852 59.0026 86.2062 58.8247 85.9855 58.8247C85.7648 58.8247 85.5859 59.0026 85.5859 59.222C85.5859 59.4414 85.7648 59.6193 85.9855 59.6193Z" fill="#2C394B"/>
<path d="M84.0197 40.0255C84.2404 40.0255 84.4193 39.8476 84.4193 39.6282C84.4193 39.4088 84.2404 39.231 84.0197 39.231C83.799 39.231 83.6201 39.4088 83.6201 39.6282C83.6201 39.8476 83.799 40.0255 84.0197 40.0255Z" fill="#2C394B"/>
<path d="M84.0197 41.9801C84.2404 41.9801 84.4193 41.8022 84.4193 41.5828C84.4193 41.3634 84.2404 41.1855 84.0197 41.1855C83.799 41.1855 83.6201 41.3634 83.6201 41.5828C83.6201 41.8022 83.799 41.9801 84.0197 41.9801Z" fill="#2C394B"/>
<path d="M84.0197 43.943C84.2404 43.943 84.4193 43.7651 84.4193 43.5457C84.4193 43.3263 84.2404 43.1484 84.0197 43.1484C83.799 43.1484 83.6201 43.3263 83.6201 43.5457C83.6201 43.7651 83.799 43.943 84.0197 43.943Z" fill="#2C394B"/>
<path d="M84.0197 45.9054C84.2404 45.9054 84.4193 45.7275 84.4193 45.5081C84.4193 45.2887 84.2404 45.1108 84.0197 45.1108C83.799 45.1108 83.6201 45.2887 83.6201 45.5081C83.6201 45.7275 83.799 45.9054 84.0197 45.9054Z" fill="#2C394B"/>
<path d="M84.0197 47.86C84.2404 47.86 84.4193 47.6821 84.4193 47.4627C84.4193 47.2433 84.2404 47.0654 84.0197 47.0654C83.799 47.0654 83.6201 47.2433 83.6201 47.4627C83.6201 47.6821 83.799 47.86 84.0197 47.86Z" fill="#2C394B"/>
<path d="M84.0197 49.8224C84.2404 49.8224 84.4193 49.6445 84.4193 49.4251C84.4193 49.2057 84.2404 49.0278 84.0197 49.0278C83.799 49.0278 83.6201 49.2057 83.6201 49.4251C83.6201 49.6445 83.799 49.8224 84.0197 49.8224Z" fill="#2C394B"/>
<path d="M84.0197 51.7848C84.2404 51.7848 84.4193 51.6069 84.4193 51.3875C84.4193 51.1681 84.2404 50.9902 84.0197 50.9902C83.799 50.9902 83.6201 51.1681 83.6201 51.3875C83.6201 51.6069 83.799 51.7848 84.0197 51.7848Z" fill="#2C394B"/>
<path d="M84.0197 53.7394C84.2404 53.7394 84.4193 53.5615 84.4193 53.3421C84.4193 53.1227 84.2404 52.9448 84.0197 52.9448C83.799 52.9448 83.6201 53.1227 83.6201 53.3421C83.6201 53.5615 83.799 53.7394 84.0197 53.7394Z" fill="#2C394B"/>
<path d="M84.0197 55.7023C84.2404 55.7023 84.4193 55.5244 84.4193 55.305C84.4193 55.0856 84.2404 54.9077 84.0197 54.9077C83.799 54.9077 83.6201 55.0856 83.6201 55.305C83.6201 55.5244 83.799 55.7023 84.0197 55.7023Z" fill="#2C394B"/>
<path d="M84.0197 57.6647C84.2404 57.6647 84.4193 57.4868 84.4193 57.2674C84.4193 57.048 84.2404 56.8701 84.0197 56.8701C83.799 56.8701 83.6201 57.048 83.6201 57.2674C83.6201 57.4868 83.799 57.6647 84.0197 57.6647Z" fill="#2C394B"/>
<path d="M84.0197 59.6193C84.2404 59.6193 84.4193 59.4414 84.4193 59.222C84.4193 59.0026 84.2404 58.8247 84.0197 58.8247C83.799 58.8247 83.6201 59.0026 83.6201 59.222C83.6201 59.4414 83.799 59.6193 84.0197 59.6193Z" fill="#2C394B"/>
<path d="M84.0197 61.5817C84.2404 61.5817 84.4193 61.4038 84.4193 61.1844C84.4193 60.965 84.2404 60.7871 84.0197 60.7871C83.799 60.7871 83.6201 60.965 83.6201 61.1844C83.6201 61.4038 83.799 61.5817 84.0197 61.5817Z" fill="#2C394B"/>
<path d="M82.0461 41.9801C82.2668 41.9801 82.4457 41.8022 82.4457 41.5828C82.4457 41.3634 82.2668 41.1855 82.0461 41.1855C81.8254 41.1855 81.6465 41.3634 81.6465 41.5828C81.6465 41.8022 81.8254 41.9801 82.0461 41.9801Z" fill="#2C394B"/>
<path d="M82.0461 43.943C82.2668 43.943 82.4457 43.7651 82.4457 43.5457C82.4457 43.3263 82.2668 43.1484 82.0461 43.1484C81.8254 43.1484 81.6465 43.3263 81.6465 43.5457C81.6465 43.7651 81.8254 43.943 82.0461 43.943Z" fill="#2C394B"/>
<path d="M82.0461 45.9054C82.2668 45.9054 82.4457 45.7275 82.4457 45.5081C82.4457 45.2887 82.2668 45.1108 82.0461 45.1108C81.8254 45.1108 81.6465 45.2887 81.6465 45.5081C81.6465 45.7275 81.8254 45.9054 82.0461 45.9054Z" fill="#2C394B"/>
<path d="M82.0461 47.86C82.2668 47.86 82.4457 47.6821 82.4457 47.4627C82.4457 47.2433 82.2668 47.0654 82.0461 47.0654C81.8254 47.0654 81.6465 47.2433 81.6465 47.4627C81.6465 47.6821 81.8254 47.86 82.0461 47.86Z" fill="#2C394B"/>
<path d="M82.0461 49.8224C82.2668 49.8224 82.4457 49.6445 82.4457 49.4251C82.4457 49.2057 82.2668 49.0278 82.0461 49.0278C81.8254 49.0278 81.6465 49.2057 81.6465 49.4251C81.6465 49.6445 81.8254 49.8224 82.0461 49.8224Z" fill="#2C394B"/>
<path d="M82.0461 51.7848C82.2668 51.7848 82.4457 51.6069 82.4457 51.3875C82.4457 51.1681 82.2668 50.9902 82.0461 50.9902C81.8254 50.9902 81.6465 51.1681 81.6465 51.3875C81.6465 51.6069 81.8254 51.7848 82.0461 51.7848Z" fill="#2C394B"/>
<path d="M82.0461 53.7394C82.2668 53.7394 82.4457 53.5615 82.4457 53.3421C82.4457 53.1227 82.2668 52.9448 82.0461 52.9448C81.8254 52.9448 81.6465 53.1227 81.6465 53.3421C81.6465 53.5615 81.8254 53.7394 82.0461 53.7394Z" fill="#2C394B"/>
<path d="M82.0461 55.7023C82.2668 55.7023 82.4457 55.5244 82.4457 55.305C82.4457 55.0856 82.2668 54.9077 82.0461 54.9077C81.8254 54.9077 81.6465 55.0856 81.6465 55.305C81.6465 55.5244 81.8254 55.7023 82.0461 55.7023Z" fill="#2C394B"/>
<path d="M82.0461 57.6647C82.2668 57.6647 82.4457 57.4868 82.4457 57.2674C82.4457 57.048 82.2668 56.8701 82.0461 56.8701C81.8254 56.8701 81.6465 57.048 81.6465 57.2674C81.6465 57.4868 81.8254 57.6647 82.0461 57.6647Z" fill="#2C394B"/>
<path d="M82.0461 59.6193C82.2668 59.6193 82.4457 59.4414 82.4457 59.222C82.4457 59.0026 82.2668 58.8247 82.0461 58.8247C81.8254 58.8247 81.6465 59.0026 81.6465 59.222C81.6465 59.4414 81.8254 59.6193 82.0461 59.6193Z" fill="#2C394B"/>
<path d="M82.0461 61.5817C82.2668 61.5817 82.4457 61.4038 82.4457 61.1844C82.4457 60.965 82.2668 60.7871 82.0461 60.7871C81.8254 60.7871 81.6465 60.965 81.6465 61.1844C81.6465 61.4038 81.8254 61.5817 82.0461 61.5817Z" fill="#2C394B"/>
<path d="M82.0461 63.5446C82.2668 63.5446 82.4457 63.3667 82.4457 63.1473C82.4457 62.9279 82.2668 62.75 82.0461 62.75C81.8254 62.75 81.6465 62.9279 81.6465 63.1473C81.6465 63.3667 81.8254 63.5446 82.0461 63.5446Z" fill="#2C394B"/>
<path d="M80.0715 43.943C80.2922 43.943 80.4711 43.7651 80.4711 43.5457C80.4711 43.3263 80.2922 43.1484 80.0715 43.1484C79.8508 43.1484 79.6719 43.3263 79.6719 43.5457C79.6719 43.7651 79.8508 43.943 80.0715 43.943Z" fill="#2C394B"/>
<path d="M80.0715 45.9054C80.2922 45.9054 80.4711 45.7275 80.4711 45.5081C80.4711 45.2887 80.2922 45.1108 80.0715 45.1108C79.8508 45.1108 79.6719 45.2887 79.6719 45.5081C79.6719 45.7275 79.8508 45.9054 80.0715 45.9054Z" fill="#2C394B"/>
<path d="M80.0715 47.86C80.2922 47.86 80.4711 47.6821 80.4711 47.4627C80.4711 47.2433 80.2922 47.0654 80.0715 47.0654C79.8508 47.0654 79.6719 47.2433 79.6719 47.4627C79.6719 47.6821 79.8508 47.86 80.0715 47.86Z" fill="#2C394B"/>
<path d="M80.0715 49.8224C80.2922 49.8224 80.4711 49.6445 80.4711 49.4251C80.4711 49.2057 80.2922 49.0278 80.0715 49.0278C79.8508 49.0278 79.6719 49.2057 79.6719 49.4251C79.6719 49.6445 79.8508 49.8224 80.0715 49.8224Z" fill="#2C394B"/>
<path d="M80.0715 51.7848C80.2922 51.7848 80.4711 51.6069 80.4711 51.3875C80.4711 51.1681 80.2922 50.9902 80.0715 50.9902C79.8508 50.9902 79.6719 51.1681 79.6719 51.3875C79.6719 51.6069 79.8508 51.7848 80.0715 51.7848Z" fill="#2C394B"/>
<path d="M80.0715 53.7394C80.2922 53.7394 80.4711 53.5615 80.4711 53.3421C80.4711 53.1227 80.2922 52.9448 80.0715 52.9448C79.8508 52.9448 79.6719 53.1227 79.6719 53.3421C79.6719 53.5615 79.8508 53.7394 80.0715 53.7394Z" fill="#2C394B"/>
<path d="M80.0715 55.7023C80.2922 55.7023 80.4711 55.5244 80.4711 55.305C80.4711 55.0856 80.2922 54.9077 80.0715 54.9077C79.8508 54.9077 79.6719 55.0856 79.6719 55.305C79.6719 55.5244 79.8508 55.7023 80.0715 55.7023Z" fill="#2C394B"/>
<path d="M80.0715 57.6647C80.2922 57.6647 80.4711 57.4868 80.4711 57.2674C80.4711 57.048 80.2922 56.8701 80.0715 56.8701C79.8508 56.8701 79.6719 57.048 79.6719 57.2674C79.6719 57.4868 79.8508 57.6647 80.0715 57.6647Z" fill="#2C394B"/>
<path d="M80.0715 59.6193C80.2922 59.6193 80.4711 59.4414 80.4711 59.222C80.4711 59.0026 80.2922 58.8247 80.0715 58.8247C79.8508 58.8247 79.6719 59.0026 79.6719 59.222C79.6719 59.4414 79.8508 59.6193 80.0715 59.6193Z" fill="#2C394B"/>
<path d="M80.0715 61.5817C80.2922 61.5817 80.4711 61.4038 80.4711 61.1844C80.4711 60.965 80.2922 60.7871 80.0715 60.7871C79.8508 60.7871 79.6719 60.965 79.6719 61.1844C79.6719 61.4038 79.8508 61.5817 80.0715 61.5817Z" fill="#2C394B"/>
<path d="M80.0715 63.5446C80.2922 63.5446 80.4711 63.3667 80.4711 63.1473C80.4711 62.9279 80.2922 62.75 80.0715 62.75C79.8508 62.75 79.6719 62.9279 79.6719 63.1473C79.6719 63.3667 79.8508 63.5446 80.0715 63.5446Z" fill="#2C394B"/>
<path d="M80.0715 65.4991C80.2922 65.4991 80.4711 65.3213 80.4711 65.1019C80.4711 64.8825 80.2922 64.7046 80.0715 64.7046C79.8508 64.7046 79.6719 64.8825 79.6719 65.1019C79.6719 65.3213 79.8508 65.4991 80.0715 65.4991Z" fill="#2C394B"/>
<path d="M79.0714 21.1855H27.6016V66.4768H79.0714V21.1855Z" fill="#E2EEFF"/>
<path d="M79.0715 66.8813H27.6017C27.379 66.8813 27.2041 66.7068 27.2041 66.4848V21.1856C27.2041 20.9635 27.379 20.7891 27.6017 20.7891H79.0715C79.2942 20.7891 79.4691 20.9635 79.4691 21.1856V66.4848C79.4691 66.7068 79.2862 66.8813 79.0715 66.8813ZM27.9992 66.0883H78.674V21.5821H27.9992V66.0883Z" fill="#2C394B"/>
<path d="M79.0714 21.1855H27.6016V31.6539H79.0714V21.1855Z" fill="#2C394B"/>
<path d="M79.0715 32.0504H27.6017C27.379 32.0504 27.2041 31.8759 27.2041 31.6539V21.1856C27.2041 20.9635 27.379 20.7891 27.6017 20.7891H79.0715C79.2942 20.7891 79.4691 20.9635 79.4691 21.1856V31.6539C79.4691 31.8759 79.2862 32.0504 79.0715 32.0504ZM27.9992 31.2574H78.674V21.5821H27.9992V31.2574Z" fill="#2C394B"/>
<path d="M73.7712 25.1223L73.209 25.6831L75.0644 27.5336L75.6267 26.9729L73.7712 25.1223Z" fill="#2C394B"/>
<path d="M75.0761 25.1187L73.2207 26.9692L73.783 27.53L75.6384 25.6795L75.0761 25.1187Z" fill="#2C394B"/>
<path d="M71.9234 27.7284H69.1006V24.9131H71.9234V27.7284ZM69.8957 26.9354H71.1282V25.7061H69.8957V26.9354Z" fill="#2C394B"/>
<path d="M67.5022 26.9355H65.4746V27.7286H67.5022V26.9355Z" fill="#2C394B"/>
<path d="M56.2003 50.7525L61.7284 58.2869L58.389 60.9559L52.8375 53.3905L49.4748 58.3837L45.8476 45.1123L43.6084 36.9038L46.8079 38.9104L61.9617 48.4011L56.2003 50.7525Z" fill="#E2EEFF"/>
<path d="M58.3894 61.1501C58.3816 61.1501 58.3738 61.1501 58.3622 61.1501C58.3078 61.1424 58.2611 61.1152 58.23 61.0726L52.8457 53.728L49.6345 58.4927C49.5918 58.5547 49.5179 58.5896 49.4402 58.5741C49.3663 58.5624 49.3041 58.5082 49.2847 58.4346L45.6614 45.1632L43.4183 36.9586C43.3989 36.8811 43.4261 36.7997 43.4883 36.7532C43.5544 36.7068 43.6399 36.7029 43.706 36.7455L46.9055 38.7482L62.0593 48.2389C62.1215 48.2776 62.1565 48.3474 62.1487 48.421C62.1409 48.4946 62.0943 48.5566 62.0282 48.5837L56.4961 50.8421L61.8766 58.1751C61.9388 58.2603 61.9232 58.3765 61.8416 58.4424L58.506 61.1114C58.4788 61.1346 58.436 61.1501 58.3894 61.1501ZM52.8379 53.1973C52.9001 53.1973 52.9584 53.2283 52.9934 53.2748L58.4244 60.6775L61.4567 58.2525L56.0374 50.8692C56.0024 50.8227 55.9908 50.7607 56.0063 50.7026C56.0219 50.6445 56.0646 50.598 56.119 50.5748L61.5344 48.3667L46.6994 39.0775L43.9198 37.3382L46.0307 45.0663L49.5451 57.931L52.6708 53.2864C52.7057 53.2322 52.7641 53.2012 52.8301 53.2012C52.8379 53.1973 52.8379 53.1973 52.8379 53.1973Z" fill="#2C394B"/>
<path d="M46.9134 38.7482L43.7139 36.7455C43.6478 36.7029 43.5584 36.7068 43.4962 36.7532C43.4301 36.7997 43.4029 36.8811 43.4262 36.9586L45.6693 45.1631C45.6927 45.2484 45.7704 45.3065 45.8559 45.3065C45.8598 45.3065 45.8637 45.3065 45.8676 45.3065C45.9609 45.3026 46.0348 45.2329 46.0503 45.1438L47.0105 38.9419C47.0144 38.8644 46.9794 38.787 46.9134 38.7482Z" fill="#2C394B"/>
<path d="M5.68321 58.3282C5.53934 58.3282 5.39548 58.2491 5.33153 58.1147C5.21964 57.9011 5.10774 57.6797 5.00383 57.4661C4.90792 57.2684 4.99584 57.0311 5.19566 56.9362C5.39548 56.8413 5.63526 56.9283 5.73117 57.126C5.82708 57.3317 5.93099 57.5452 6.04289 57.7508C6.14679 57.9486 6.06686 58.1859 5.86705 58.2808C5.8111 58.3124 5.74716 58.3282 5.68321 58.3282ZM4.47631 55.4888C4.30846 55.4888 4.14861 55.386 4.10065 55.2199C3.99675 54.9114 3.90084 54.603 3.82091 54.2945C3.76496 54.081 3.88485 53.8674 4.10065 53.812C4.31646 53.7567 4.53226 53.8753 4.58821 54.0889C4.66814 54.3894 4.76405 54.6821 4.85996 54.9826C4.9319 55.1882 4.81201 55.4097 4.6042 55.4809C4.56423 55.4809 4.51628 55.4888 4.47631 55.4888ZM3.70901 52.2618C3.51718 52.2618 3.34134 52.1195 3.31737 51.9217C3.2854 51.6924 3.25342 51.4551 3.22945 51.2257C3.22145 51.1387 3.21346 51.0517 3.20547 50.9647C3.18149 50.7512 3.34134 50.5534 3.56514 50.5297C3.78894 50.5139 3.98076 50.6642 4.00474 50.8856C4.01273 50.9726 4.02073 51.0517 4.02872 51.1387C4.0527 51.3602 4.08467 51.5895 4.11664 51.811C4.14861 52.0245 3.99675 52.2302 3.78094 52.2618C3.74897 52.2539 3.725 52.2618 3.70901 52.2618ZM3.5012 48.9478H3.49321C3.26941 48.9399 3.10156 48.758 3.10156 48.5445C3.10956 48.2202 3.12554 47.8959 3.14952 47.5795C3.1655 47.3581 3.35733 47.1999 3.57313 47.2157C3.79693 47.2315 3.95678 47.4214 3.9408 47.6349C3.91682 47.9434 3.90084 48.2518 3.89284 48.5603C3.90084 48.7738 3.717 48.9478 3.5012 48.9478ZM3.86087 45.6497C3.83689 45.6497 3.81292 45.6497 3.78094 45.6418C3.56514 45.6022 3.42127 45.3966 3.46124 45.1751C3.46923 45.1119 3.48521 45.0565 3.5012 44.9932C3.55715 44.7401 3.6131 44.4791 3.66905 44.2339C3.725 44.0204 3.9408 43.8938 4.14861 43.9413C4.36441 43.9967 4.4923 44.2102 4.44434 44.4158C4.38839 44.661 4.33244 44.9062 4.27649 45.1514C4.26051 45.2068 4.25252 45.27 4.24452 45.3254C4.22054 45.5152 4.0527 45.6497 3.86087 45.6497ZM4.77204 42.4543C4.72409 42.4543 4.67613 42.4464 4.63617 42.4306C4.42836 42.3515 4.32445 42.1301 4.40438 41.9244C4.51628 41.6239 4.63617 41.3233 4.76405 41.0228C4.85197 40.825 5.08376 40.7301 5.29157 40.8171C5.49139 40.9041 5.5873 41.1335 5.49938 41.3391C5.37949 41.6239 5.2596 41.9165 5.1477 42.2013C5.08376 42.3515 4.9319 42.4543 4.77204 42.4543ZM6.19475 39.4488C6.13081 39.4488 6.05887 39.433 5.99493 39.3935C5.8031 39.2827 5.73916 39.0455 5.84307 38.8556C6.00292 38.5788 6.17077 38.302 6.34661 38.0252C6.4665 37.8433 6.71428 37.7879 6.89811 37.8986C7.08194 38.0093 7.13789 38.2624 7.02599 38.4444C6.85814 38.7054 6.69829 38.9743 6.53844 39.2432C6.4665 39.3776 6.33062 39.4488 6.19475 39.4488ZM8.07304 36.6964C7.98512 36.6964 7.8972 36.6648 7.82526 36.6094C7.64942 36.475 7.62545 36.2219 7.76132 36.0558C7.96114 35.8106 8.16895 35.5575 8.38476 35.3123C8.52862 35.1462 8.78439 35.1304 8.95224 35.2727C9.12009 35.4151 9.13607 35.6682 8.9922 35.8343C8.78439 36.0716 8.58457 36.3168 8.39275 36.554C8.30483 36.649 8.19293 36.6964 8.07304 36.6964ZM10.335 34.2445C10.2311 34.2445 10.1272 34.205 10.0472 34.1259C9.89538 33.9677 9.90337 33.7146 10.0552 33.5643C10.279 33.3508 10.5188 33.1372 10.7506 32.9237L10.7666 32.9079C10.9344 32.7655 11.1822 32.7734 11.3341 32.9395C11.4779 33.1056 11.4699 33.3508 11.3021 33.5011L11.2861 33.5169C11.0543 33.7225 10.8305 33.9282 10.6067 34.1417C10.5348 34.2129 10.4309 34.2445 10.335 34.2445ZM12.8847 32.0853C12.7648 32.0853 12.6449 32.0299 12.565 31.935C12.4291 31.761 12.461 31.5158 12.6369 31.3814C12.8847 31.1916 13.1484 30.9938 13.4122 30.804C13.588 30.6775 13.8438 30.717 13.9717 30.891C14.0996 31.065 14.0596 31.3181 13.8838 31.4447C13.628 31.6345 13.3722 31.8243 13.1244 32.0062C13.0525 32.0616 12.9646 32.0853 12.8847 32.0853ZM15.6182 30.1713C15.4903 30.1713 15.3624 30.108 15.2825 29.9894C15.1626 29.8074 15.2105 29.5623 15.3944 29.4436C15.6581 29.2696 15.9299 29.0956 16.2096 28.9295C16.3935 28.8109 16.6412 28.8662 16.7611 29.0561C16.881 29.238 16.8251 29.4832 16.6333 29.6018C16.3615 29.7679 16.0897 29.9419 15.834 30.108C15.77 30.1475 15.6981 30.1713 15.6182 30.1713Z" fill="#2C394B"/>
<path d="M7.68291 31.3615C7.5695 31.3615 7.46419 31.321 7.38318 31.2318C7.22926 31.0696 7.24546 30.8101 7.40748 30.656C7.48849 30.5831 7.5695 30.5101 7.65051 30.4371C7.81253 30.2911 7.97454 30.1452 8.14466 29.9992C8.31478 29.8532 8.56591 29.8695 8.71983 30.0397C8.86565 30.21 8.84944 30.4614 8.67932 30.6155C8.51731 30.7533 8.35529 30.8993 8.20137 31.0372C8.12036 31.1101 8.03935 31.1831 7.96644 31.2561C7.87733 31.321 7.78012 31.3615 7.68291 31.3615ZM10.2995 29.1883C10.178 29.1883 10.0565 29.1315 9.97547 29.0261C9.83775 28.8477 9.87826 28.5963 10.0565 28.4585C10.3076 28.2639 10.5749 28.0692 10.8423 27.8746C11.0205 27.7449 11.2797 27.7854 11.4093 27.9638C11.5389 28.1422 11.4984 28.4017 11.3202 28.5315C11.0529 28.7261 10.7937 28.9126 10.5425 29.1072C10.4696 29.1559 10.3805 29.1883 10.2995 29.1883ZM13.0862 27.234C12.9566 27.234 12.827 27.1691 12.746 27.0475C12.6245 26.861 12.6731 26.6096 12.8675 26.488C13.1348 26.3177 13.4103 26.1393 13.6938 25.9609C13.8801 25.8392 14.1312 25.896 14.2528 26.0906C14.3743 26.2852 14.3176 26.5285 14.1231 26.6502C13.8477 26.8204 13.5723 26.9988 13.313 27.1691C13.2401 27.2097 13.1591 27.234 13.0862 27.234Z" fill="#2C394B"/>
<path d="M26.8472 18.8407C27.9455 18.8407 28.836 17.9542 28.836 16.8608C28.836 15.7673 27.9455 14.8809 26.8472 14.8809C25.7488 14.8809 24.8584 15.7673 24.8584 16.8608C24.8584 17.9542 25.7488 18.8407 26.8472 18.8407Z" fill="#BDDEFF"/>
<path d="M26.8475 19.2445C25.5349 19.2445 24.4609 18.1753 24.4609 16.8686C24.4609 15.5618 25.5349 14.4927 26.8475 14.4927C28.1601 14.4927 29.234 15.5618 29.234 16.8686C29.234 18.1753 28.1601 19.2445 26.8475 19.2445ZM26.8475 15.2767C25.9724 15.2767 25.2564 15.9895 25.2564 16.8606C25.2564 17.7318 25.9724 18.4446 26.8475 18.4446C27.7225 18.4446 28.4385 17.7318 28.4385 16.8606C28.4385 15.9895 27.7225 15.2767 26.8475 15.2767Z" fill="#2C394B"/>
<path d="M94.2065 19.4566C99.489 19.4566 103.771 15.1851 103.771 9.91581C103.771 4.64657 99.489 0.375 94.2065 0.375C88.9239 0.375 84.6416 4.64657 84.6416 9.91581C84.6416 15.1851 88.9239 19.4566 94.2065 19.4566Z" fill="#BDDEFF"/>
<path d="M93.6246 19.8387C93.6166 19.8387 93.6086 19.8387 93.6006 19.8387C93.2736 19.8227 92.9385 19.783 92.6115 19.7273C92.3961 19.6954 92.2445 19.4885 92.2844 19.2737C92.3163 19.0588 92.5237 18.9077 92.7391 18.9474C93.0422 18.9952 93.3454 19.027 93.6485 19.0509C93.8719 19.0668 94.0394 19.2498 94.0234 19.4726C94.0155 19.6795 93.84 19.8387 93.6246 19.8387ZM96.0098 19.6875C95.8184 19.6875 95.6508 19.5522 95.6189 19.3612C95.579 19.1464 95.7226 18.9395 95.938 18.8997C96.2412 18.844 96.5363 18.7724 96.8315 18.6848C97.0389 18.6212 97.2623 18.7405 97.3261 18.9554C97.3899 19.1623 97.2702 19.3851 97.0549 19.4487C96.7358 19.5442 96.4087 19.6238 96.0896 19.6875C96.0577 19.6875 96.0338 19.6875 96.0098 19.6875ZM90.3858 19.0668C90.3299 19.0668 90.2821 19.0588 90.2262 19.035C89.9231 18.8997 89.6199 18.7565 89.3327 18.5894C89.1413 18.478 89.0695 18.2392 89.1812 18.0483C89.2929 17.8573 89.5322 17.7857 89.7236 17.8971C89.9869 18.0483 90.2661 18.1835 90.5453 18.3029C90.7447 18.3904 90.8405 18.6291 90.7527 18.8281C90.6889 18.9793 90.5373 19.0668 90.3858 19.0668ZM99.121 18.5018C98.9854 18.5018 98.8498 18.4302 98.778 18.3109C98.6663 18.1199 98.7221 17.8812 98.9136 17.7618C99.1768 17.6027 99.4321 17.4356 99.6714 17.2525C99.8469 17.1252 100.094 17.157 100.23 17.3321C100.358 17.5072 100.326 17.7538 100.15 17.8891C99.8868 18.088 99.6076 18.2711 99.3204 18.4461C99.2646 18.4859 99.1928 18.5018 99.121 18.5018ZM87.6096 17.2287C87.5139 17.2287 87.4102 17.1889 87.3384 17.1173C87.0991 16.8865 86.8677 16.6478 86.6523 16.3931C86.5087 16.226 86.5247 15.9794 86.6922 15.8282C86.8597 15.6849 87.107 15.7009 87.2586 15.868C87.4581 16.0987 87.6734 16.3215 87.8888 16.5284C88.0484 16.6796 88.0564 16.9342 87.9048 17.0934C87.825 17.1809 87.7133 17.2287 87.6096 17.2287ZM101.642 16.3215C101.554 16.3215 101.466 16.2897 101.395 16.234C101.227 16.0987 101.195 15.8441 101.339 15.677C101.53 15.4383 101.714 15.1916 101.881 14.937C102.001 14.7539 102.248 14.7062 102.432 14.8256C102.615 14.9449 102.663 15.1916 102.543 15.3746C102.36 15.6531 102.16 15.9237 101.953 16.1783C101.873 16.2738 101.754 16.3215 101.642 16.3215ZM85.6312 14.547C85.4876 14.547 85.344 14.4675 85.2722 14.3242C85.1287 14.0298 84.993 13.7195 84.8734 13.4092C84.7936 13.2023 84.8973 12.9715 85.1047 12.8999C85.3121 12.8203 85.5435 12.9238 85.6153 13.1306C85.719 13.4171 85.8466 13.6956 85.9822 13.9662C86.078 14.1651 85.9982 14.4038 85.7988 14.4993C85.7509 14.5391 85.695 14.547 85.6312 14.547ZM103.253 13.4171C103.213 13.4171 103.166 13.4092 103.126 13.3932C102.918 13.3216 102.807 13.0988 102.878 12.884C102.974 12.5975 103.062 12.3031 103.134 12.0087C103.181 11.7938 103.397 11.6585 103.612 11.7142C103.828 11.762 103.963 11.9768 103.907 12.1917C103.836 12.51 103.74 12.8362 103.628 13.1466C103.58 13.3137 103.421 13.4171 103.253 13.4171ZM84.6979 11.3562C84.4984 11.3562 84.3229 11.205 84.299 10.9981C84.2671 10.6718 84.2432 10.3376 84.2432 10.0034C84.2432 9.78062 84.4187 9.60556 84.642 9.60556C84.8574 9.60556 85.0409 9.78062 85.0409 10.0034C85.0409 10.3058 85.0648 10.6161 85.0967 10.9185C85.1207 11.1334 84.9611 11.3323 84.7457 11.3562C84.7298 11.3562 84.7138 11.3562 84.6979 11.3562ZM103.772 10.3138C103.548 10.3138 103.373 10.1387 103.373 9.9159C103.373 9.61352 103.357 9.30319 103.325 9.00081C103.301 8.78596 103.461 8.58703 103.684 8.56316C103.907 8.53928 104.099 8.69843 104.123 8.92123C104.155 9.24748 104.171 9.58169 104.171 9.9159C104.171 10.1387 103.995 10.3138 103.772 10.3138ZM84.9133 8.03797C84.8814 8.03797 84.8494 8.03797 84.8175 8.03002C84.6021 7.97432 84.4745 7.75947 84.5224 7.55258C84.6021 7.23429 84.6979 6.90804 84.8096 6.5977C84.8814 6.39081 85.1127 6.27941 85.3201 6.35898C85.5275 6.4306 85.6392 6.66136 85.5594 6.86825C85.4557 7.15471 85.368 7.44913 85.2962 7.74355C85.2563 7.91861 85.0967 8.03797 84.9133 8.03797ZM103.197 7.04331C103.038 7.04331 102.878 6.93987 102.823 6.78072C102.719 6.49426 102.599 6.21575 102.464 5.93725C102.368 5.73831 102.448 5.49959 102.647 5.40411C102.846 5.30862 103.086 5.38819 103.181 5.58712C103.325 5.88154 103.453 6.19188 103.572 6.50221C103.644 6.7091 103.54 6.93987 103.333 7.01148C103.285 7.03535 103.237 7.04331 103.197 7.04331ZM86.2614 4.99828C86.1817 4.99828 86.1099 4.97441 86.0381 4.92667C85.8546 4.80731 85.8067 4.56063 85.9264 4.37761C86.1099 4.10707 86.3093 3.83652 86.5247 3.58188C86.6683 3.41478 86.9156 3.39091 87.0831 3.52618C87.2506 3.66941 87.2746 3.91609 87.139 4.08319C86.9475 4.31396 86.764 4.56063 86.5885 4.81527C86.5167 4.94258 86.3891 4.99828 86.2614 4.99828ZM101.522 4.16277C101.411 4.16277 101.299 4.11502 101.219 4.01954C101.02 3.78877 100.812 3.56597 100.597 3.35112C100.437 3.19993 100.437 2.9453 100.589 2.78615C100.74 2.62701 100.996 2.62701 101.155 2.7782C101.395 3.00896 101.618 3.25563 101.833 3.50231C101.977 3.66941 101.953 3.92405 101.785 4.05932C101.706 4.13889 101.61 4.16277 101.522 4.16277ZM88.5749 2.60313C88.4552 2.60313 88.3276 2.54743 88.2558 2.43603C88.1282 2.26097 88.168 2.00634 88.3435 1.87902C88.6148 1.68804 88.894 1.49707 89.1732 1.32997C89.3647 1.21856 89.604 1.28222 89.7157 1.4732C89.8273 1.66417 89.7635 1.90289 89.5721 2.01429C89.3088 2.16548 89.0535 2.34054 88.8062 2.5156C88.7344 2.57926 88.6547 2.60313 88.5749 2.60313ZM98.9615 2.03817C98.8976 2.03817 98.8258 2.02225 98.762 1.98246C98.4988 1.83128 98.2196 1.68804 97.9483 1.56868C97.7489 1.48115 97.6611 1.24244 97.7489 1.0435C97.8366 0.84457 98.076 0.75704 98.2754 0.84457C98.5785 0.979844 98.8737 1.13103 99.1609 1.29814C99.3523 1.40954 99.4162 1.64826 99.3045 1.83923C99.2327 1.96655 99.105 2.03817 98.9615 2.03817ZM91.5664 1.13899C91.3909 1.13899 91.2314 1.02759 91.1835 0.852527C91.1197 0.63768 91.2473 0.422833 91.4547 0.359174C91.7738 0.271644 92.1009 0.192071 92.428 0.13637C92.6434 0.0965834 92.8508 0.239815 92.8907 0.454662C92.9305 0.669509 92.787 0.876399 92.5716 0.916186C92.2684 0.971887 91.9733 1.0435 91.6781 1.12308C91.6382 1.13899 91.5983 1.13899 91.5664 1.13899ZM95.8263 0.908229C95.8024 0.908229 95.7785 0.908229 95.7625 0.900271C95.4594 0.852527 95.1562 0.812741 94.8531 0.788869C94.6297 0.772954 94.4702 0.581979 94.4861 0.367132C94.5021 0.144327 94.6936 -0.0148188 94.9089 0.00109578C95.236 0.0249677 95.5711 0.0647542 95.8981 0.120455C96.1135 0.160242 96.2651 0.359175 96.2252 0.581979C96.1853 0.772954 96.0178 0.908229 95.8263 0.908229Z" fill="#2C394B"/>
<path d="M2.78497 19.3621L0.953125 21.186L1.50831 21.7387L3.34015 19.9147L2.78497 19.3621Z" fill="#2C394B"/>
<path d="M1.50823 19.3629L0.953125 19.9155L2.78497 21.7392L3.34008 21.1866L1.50823 19.3629Z" fill="#2C394B"/>
<path d="M1.83184 61.4148L0 63.2388L0.555182 63.7914L2.38702 61.9675L1.83184 61.4148Z" fill="#2C394B"/>
<path d="M0.555103 61.4156L0 61.9683L1.83184 63.7919L2.38694 63.2393L0.555103 61.4156Z" fill="#2C394B"/>
<path d="M72.95 12.472L71.1182 14.2959L71.6733 14.8485L73.5052 13.0246L72.95 12.472Z" fill="#2C394B"/>
<path d="M71.6733 12.4723L71.1182 13.0249L72.95 14.8486L73.5051 14.2959L71.6733 12.4723Z" fill="#2C394B"/>
<path d="M107.646 57.1386L105.723 59.0537L106.306 59.634L108.229 57.7188L107.646 57.1386Z" fill="#2C394B"/>
<path d="M106.306 57.1385L105.723 57.7188L107.646 59.6336L108.229 59.0533L106.306 57.1385Z" fill="#2C394B"/>
<path d="M78.0356 11.3939C78.0149 11.3813 77.9963 11.3654 77.9808 11.3469C77.906 11.2727 77.8638 11.172 77.8635 11.0669C77.8632 10.9618 77.9047 10.8608 77.979 10.7861L78.9989 9.75382C79.1999 9.54819 79.4406 9.38511 79.7065 9.27441C79.9723 9.16371 80.2579 9.10767 80.546 9.10966C80.8338 9.10706 81.1191 9.1616 81.3854 9.2701C81.6517 9.3786 81.8935 9.53887 82.0968 9.74155L83.0362 10.6709C83.2987 10.9276 83.6527 11.0703 84.0207 11.068C84.3888 11.0657 84.7412 10.9185 85.001 10.6586L85.9353 9.72251C86.1363 9.51687 86.377 9.3538 86.6429 9.2431C86.9088 9.1324 87.1943 9.07636 87.4824 9.07835C87.7702 9.07575 88.0556 9.13029 88.3218 9.23879C88.5881 9.34728 88.8299 9.50756 89.0332 9.71024L89.9726 10.6396C90.235 10.8965 90.5883 11.0402 90.9565 11.0397C91.1393 11.0399 91.3204 11.0035 91.4889 10.9326C91.6574 10.8618 91.8099 10.758 91.9374 10.6273L92.8717 9.6912C93.0728 9.48556 93.3134 9.32249 93.5793 9.21178C93.8452 9.10108 94.1307 9.04504 94.4188 9.04703C94.7066 9.04443 94.992 9.09897 95.2583 9.20747C95.5245 9.31597 95.7664 9.47624 95.9696 9.67893L96.9156 10.6128C96.9529 10.6494 96.9826 10.693 97.003 10.7411C97.0233 10.7892 97.0339 10.8408 97.0342 10.893C97.0344 10.9452 97.0243 10.9969 97.0044 11.0453C96.9846 11.0936 96.9553 11.1375 96.9184 11.1746C96.8814 11.2116 96.8375 11.2411 96.7891 11.2612C96.7407 11.2813 96.6888 11.2917 96.6364 11.2918C96.584 11.2919 96.532 11.2818 96.4836 11.2618C96.4352 11.2419 96.3911 11.2127 96.3541 11.1758L95.4081 10.2419C95.1457 9.98507 94.7923 9.84136 94.4242 9.84185C94.2414 9.84166 94.0603 9.87808 93.8918 9.94892C93.7233 10.0198 93.5708 10.1236 93.4433 10.2542L92.5089 11.1903C92.3079 11.396 92.0672 11.5591 91.8014 11.6698C91.5355 11.7805 91.2499 11.8365 90.9619 11.8345C90.6741 11.8371 90.3887 11.7826 90.1224 11.6741C89.8562 11.5656 89.6143 11.4053 89.4111 11.2026L88.4717 10.2732C88.2093 10.0164 87.8559 9.87268 87.4878 9.87316C87.3049 9.87298 87.1239 9.90939 86.9554 9.98023C86.7869 10.0511 86.6343 10.1549 86.5069 10.2855L85.5725 11.2217C85.3715 11.4273 85.1308 11.5904 84.865 11.7011C84.5991 11.8118 84.3135 11.8678 84.0254 11.8658C83.7376 11.8684 83.4523 11.8139 83.186 11.7054C82.9197 11.5969 82.6779 11.4366 82.4747 11.2339L81.5352 10.3045C81.2729 10.0477 80.9195 9.90399 80.5514 9.90447C80.3685 9.90429 80.1875 9.9407 80.0189 10.0115C79.8504 10.0824 79.6979 10.1862 79.5705 10.3168L78.5506 11.3491C78.4817 11.4121 78.3938 11.4506 78.3007 11.4587C78.2075 11.4668 78.1143 11.444 78.0356 11.3939Z" fill="#2C394B"/>
<path d="M90.6463 67H14.5984C14.3748 67 14.1992 66.8171 14.1992 66.5842C14.1992 66.3514 14.3748 66.1685 14.5984 66.1685H90.6463C90.8699 66.1685 91.0455 66.3514 91.0455 66.5842C91.0455 66.8171 90.8619 67 90.6463 67Z" fill="#2C394B"/>
<path d="M17.3267 15.1671H8.32529C5.13612 15.1671 2.54492 12.6015 2.54492 9.44391C2.54492 6.28628 5.13612 3.7207 8.32529 3.7207H17.3267C20.5159 3.7207 23.1071 6.28628 23.1071 9.44391C23.1071 12.6094 20.5239 15.1671 17.3267 15.1671Z" fill="#BDDEFF"/>
<path d="M17.3269 15.562H8.3255C4.92106 15.562 2.14648 12.8149 2.14648 9.44409C2.14648 6.07331 4.92106 3.32617 8.3255 3.32617H17.3269C20.7314 3.32617 23.5059 6.07331 23.5059 9.44409C23.5059 12.8149 20.7393 15.562 17.3269 15.562ZM8.3255 4.11558C5.35957 4.11558 2.94378 6.50749 2.94378 9.44409C2.94378 12.3807 5.35957 14.7726 8.3255 14.7726H17.3269C20.2928 14.7726 22.7086 12.3807 22.7086 9.44409C22.7086 6.50749 20.2928 4.11558 17.3269 4.11558H8.3255Z" fill="#2C394B"/>
<path d="M18.3787 7.28125H7.27246V8.07066H18.3787V7.28125Z" fill="#2C394B"/>
<path d="M13.8342 10.7783H7.27246V11.5677H13.8342V10.7783Z" fill="#2C394B"/>
</svg>
