<svg width="13" height="13" viewBox="0 0 13 13" fill="none" xmlns="http://www.w3.org/2000/svg">
<path fill-rule="evenodd" clip-rule="evenodd" d="M6.49935 0.541668C7.28194 0.540746 8.05701 0.694446 8.78004 0.993943C9.50305 1.29343 10.1598 1.73281 10.7125 2.28684C11.2665 2.83957 11.7059 3.4963 12.0054 4.21933C12.3049 4.94235 12.4586 5.71741 12.4577 6.5C12.4586 7.28259 12.3049 8.05766 12.0054 8.78069C11.7059 9.50371 11.2665 10.1604 10.7125 10.7131C10.1598 11.2672 9.50306 11.7066 8.78004 12.0061C8.05701 12.3056 7.28194 12.4593 6.49934 12.4583C5.71675 12.4592 4.9417 12.3055 4.21868 12.006C3.49566 11.7065 2.83894 11.2672 2.28622 10.7131C1.73218 10.1604 1.29279 9.50371 0.993294 8.78069C0.693797 8.05766 0.540097 7.28259 0.54102 6.49999C0.540115 5.7174 0.693821 4.94234 0.993315 4.21933C1.29281 3.49631 1.73219 2.83958 2.28621 2.28686C2.83893 1.73283 3.49566 1.29346 4.21868 0.993964C4.9417 0.694469 5.71676 0.540762 6.49935 0.541668ZM6.49935 11.9167L6.50006 11.375C7.14015 11.3758 7.77409 11.2502 8.36545 11.0052C8.95682 10.7602 9.49394 10.4008 9.94596 9.94762L9.94697 9.94661C10.4002 9.49459 10.7596 8.95747 11.0045 8.3661C11.2495 7.77474 11.3752 7.14079 11.3744 6.5007V6.49931C11.3752 5.85922 11.2495 5.22528 11.0045 4.63391C10.7596 4.04255 10.4002 3.50542 9.94696 3.05339L9.94596 3.05239C9.49394 2.59918 8.95682 2.23977 8.36545 1.99481C7.77409 1.74985 7.14015 1.62417 6.50006 1.625H6.49866C5.85857 1.62419 5.22463 1.74987 4.63326 1.99483C4.0419 2.23979 3.50477 2.59919 3.05274 3.0524L3.05175 3.05339C2.59855 3.50542 2.23914 4.04254 1.99418 4.63391C1.74922 5.22528 1.62354 5.85922 1.62435 6.49931V6.5007C1.62352 7.14079 1.7492 7.77474 1.99416 8.3661C2.23912 8.95747 2.59853 9.49459 3.05174 9.94661L3.05274 9.94761C3.50477 10.4008 4.0419 10.7602 4.63326 11.0052C5.22463 11.2501 5.85857 11.3758 6.49866 11.375L6.49935 11.9167Z" fill="#6E85A7"/>
<path fill-rule="evenodd" clip-rule="evenodd" d="M6.49935 10.0208C6.67892 10.0208 6.85114 9.9495 6.97812 9.82252C7.1051 9.69555 7.17643 9.52333 7.17643 9.34375C7.17643 9.16418 7.1051 8.99196 6.97812 8.86498C6.85114 8.738 6.67892 8.66667 6.49935 8.66667C6.31978 8.66667 6.14756 8.738 6.02058 8.86498C5.8936 8.99196 5.82227 9.16418 5.82227 9.34375C5.82227 9.52333 5.8936 9.69555 6.02058 9.82252C6.14756 9.9495 6.31978 10.0208 6.49935 10.0208Z" fill="#6E85A7"/>
<path fill-rule="evenodd" clip-rule="evenodd" d="M6.4987 2.70834C6.79785 2.70834 7.04036 2.95085 7.04036 3.25V7.58334C7.04036 7.88249 6.79785 8.125 6.4987 8.125C6.19954 8.125 5.95703 7.88249 5.95703 7.58334V3.25C5.95703 2.95085 6.19954 2.70834 6.4987 2.70834Z" fill="#6E85A7"/>
</svg>
