<svg width="217" height="187" viewBox="0 0 217 187" fill="none" xmlns="http://www.w3.org/2000/svg">
<g filter="url(#filter0_d_309_3957)">
<path d="M20.0935 85.9121C21.2092 102.824 32.167 117.197 48.9701 126.752C52.6338 128.834 33.5076 161.96 33.5076 161.96C37.0464 163.312 68.0046 134.822 71.8515 135.801C84.1499 138.928 97.922 140.047 112.344 138.704C161.071 134.167 198.774 103.18 196.55 69.4899C194.327 35.7995 153.019 12.1615 104.292 16.6984C55.5731 21.2352 17.8703 52.2217 20.0935 85.9121Z" fill="white"/>
</g>
<path d="M39.8849 156.689V156.711L39.6698 156.628L40.235 155.65L40.2351 155.649C44.241 148.711 48.2939 141.115 51.2907 134.876C52.7886 131.757 54.0264 128.97 54.8627 126.769C55.2806 125.67 55.6018 124.708 55.8046 123.919C56.0022 123.151 56.1063 122.481 56.0337 122L55.9977 121.76L55.7874 121.64C38.0776 111.517 27.7809 96.7879 26.687 80.1895L26.687 80.1894C25.5641 63.2069 34.4457 46.83 49.7987 34.1027C65.1488 21.3778 86.929 12.34 111.474 10.0551C136.019 7.77006 158.713 12.6674 175.537 22.3918C192.363 32.1165 203.28 46.6396 204.403 63.6175C205.521 80.6 196.64 96.9748 181.287 109.7C165.937 122.423 144.157 131.459 119.608 133.744L119.608 133.744C105.447 135.066 91.7738 134.082 78.9853 130.829L78.9411 130.818L78.8955 130.815C78.7009 130.802 78.496 130.843 78.3051 130.9C78.1075 130.959 77.889 131.046 77.6557 131.154C77.1891 131.371 76.6274 131.687 75.9957 132.077C74.7307 132.859 73.1437 133.965 71.4028 135.239C67.919 137.788 63.7841 141.036 60.3089 143.777C54.632 148.253 50.4258 151.522 47.3209 153.703C45.7684 154.793 44.5029 155.602 43.4745 156.152C42.4363 156.708 41.6835 156.974 41.1458 157.025L41.1405 157.025C40.8876 157.052 40.7065 157.022 40.5729 156.968L39.8849 156.689ZM79.0792 129.141L79.1885 129.169C91.9045 132.402 105.476 133.367 119.525 132.06C143.627 129.817 165.056 121.065 180.2 108.724C195.34 96.3852 204.24 80.417 203.144 63.759C202.043 47.0961 191.152 32.9594 174.57 23.5672C157.985 14.1742 135.665 9.49498 111.564 11.7383C87.4627 13.9817 66.0312 22.7335 50.8863 35.075C35.7452 47.4134 26.8451 63.3816 27.9457 80.0397L28.4445 80.0067L27.9457 80.0397C29.0087 96.1153 39.1659 110.356 56.4414 120.17L56.4426 120.171C56.7893 120.366 57.0811 120.767 57.2166 121.355C57.3246 121.835 57.2969 122.555 57.1146 123.509C56.9344 124.452 56.6131 125.576 56.1764 126.84C55.3032 129.367 53.9838 132.411 52.4638 135.609C49.4249 142.002 45.6057 148.965 43.0138 153.553L42.0753 155.214L43.7079 154.227C47.4719 151.95 54.3558 146.525 59.6793 142.322C65.2728 137.912 69.4624 134.658 72.5673 132.476C74.1199 131.386 75.3898 130.572 76.4207 130.018C77.4625 129.458 78.214 129.189 78.7414 129.141L78.7486 129.14C78.87 129.127 78.98 129.129 79.0792 129.141Z" stroke="white"/>
<defs>
<filter id="filter0_d_309_3957" x="0" y="0.140625" width="216.645" height="185.866" filterUnits="userSpaceOnUse" color-interpolation-filters="sRGB">
<feFlood flood-opacity="0" result="BackgroundImageFix"/>
<feColorMatrix in="SourceAlpha" type="matrix" values="0 0 0 0 0 0 0 0 0 0 0 0 0 0 0 0 0 0 127 0" result="hardAlpha"/>
<feOffset dy="4"/>
<feGaussianBlur stdDeviation="10"/>
<feComposite in2="hardAlpha" operator="out"/>
<feColorMatrix type="matrix" values="0 0 0 0 0.820556 0 0 0 0 0.852133 0 0 0 0 0.933333 0 0 0 1 0"/>
<feBlend mode="normal" in2="BackgroundImageFix" result="effect1_dropShadow_309_3957"/>
<feBlend mode="normal" in="SourceGraphic" in2="effect1_dropShadow_309_3957" result="shape"/>
</filter>
</defs>
</svg>
