<svg width="207" height="150" viewBox="0 0 207 150" fill="none" xmlns="http://www.w3.org/2000/svg">
<g filter="url(#filter0_d_309_3958)">
<path d="M186.04 64.38C186.04 77.76 176.69 89.88 161.58 98.62C158.28 100.53 178.2 125.18 178.2 125.18C174.98 126.5 144.3 106.36 140.76 107.41C129.46 110.77 116.66 112.66 103.11 112.66C57.2999 112.66 20.1699 91.04 20.1699 64.38C20.1699 37.72 57.2999 16.09 103.1 16.09C148.9 16.09 186.04 37.71 186.04 64.37V64.38Z" fill="white"/>
</g>
<path d="M170.74 122.26C168.34 122.26 162.93 119.39 151.77 113.18C144.93 109.37 135.54 104.18 133.93 104.4C122.13 107.91 109.36 109.69 96 109.69C49.68 109.69 12 87.55 12 60.34C12 33.13 49.68 11 96 11C142.32 11 180 33.14 180 60.34C180 73.64 171.18 86.09 155.16 95.41C154.93 97.79 163.59 110.16 171.92 120.47L172.81 121.58L171.49 122.12C171.28 122.21 171.03 122.25 170.74 122.25V122.26ZM133.93 102.29C136.3 102.29 141.81 105.21 152.8 111.33C158.05 114.25 164.78 118 168.41 119.5C163 112.66 152.39 98.67 153.09 94.93C153.19 94.38 153.5 93.93 153.95 93.67C169.38 84.74 177.88 72.9 177.88 60.35C177.88 34.31 141.15 13.13 96 13.13C50.85 13.13 14.12 34.31 14.12 60.34C14.12 86.37 50.85 107.56 96 107.56C109.16 107.56 121.72 105.81 133.35 102.35C133.52 102.3 133.71 102.28 133.93 102.28V102.29Z" fill="white"/>
<path d="M77.2097 59.74C75.8297 66.11 71.0697 71.02 64.2497 69.54C58.0697 68.2 55.3197 62.28 56.8197 55.37C58.2397 48.82 63.0397 44.16 69.6797 45.59C75.7697 46.91 78.7697 52.55 77.2097 59.73V59.74ZM59.2497 55.9C58.0697 61.35 60.0497 66.38 64.8997 67.43C69.8497 68.5 73.5197 65.03 74.7697 59.26C75.9397 53.86 74.1597 48.82 69.0697 47.72C63.8497 46.59 60.4297 50.4 59.2397 55.9H59.2497Z" fill="#6E85A7"/>
<path d="M102.51 67.61C102.51 74.12 98.9002 79.93 91.9202 79.93C85.5902 79.93 81.6602 74.73 81.6602 67.65C81.6602 60.95 85.3602 55.37 92.1502 55.37C98.3802 55.37 102.51 60.24 102.51 67.6V67.61ZM84.1402 67.66C84.1402 73.24 87.1402 77.73 92.1102 77.73C97.0802 77.73 100.03 73.56 100.03 67.66C100.03 62.13 97.2201 57.58 92.0201 57.58C86.8201 57.58 84.1502 62.03 84.1502 67.66H84.1402Z" fill="#6E85A7"/>
<path d="M110.669 64.89V77.73H108.329V50.69C108.329 48.77 108.329 46.71 108.279 44.93H110.579C110.669 45.82 110.669 47.23 110.669 49.15C112.119 46.34 114.699 44.37 118.919 44.37C124.449 44.37 128.289 49.01 128.289 56.04C128.289 64.47 123.789 68.93 118.119 68.93C113.999 68.93 111.839 67.1 110.669 64.9V64.89ZM125.809 56.13C125.809 50.69 123.189 46.62 118.549 46.62C112.879 46.62 110.539 50.18 110.539 56.55C110.539 62.92 112.369 66.72 118.219 66.72C123.089 66.72 125.809 62.6 125.809 56.13Z" fill="#6E85A7"/>
<path d="M134.999 71.12C135.999 74.1 138.279 75.78 141.969 75.52C146.129 75.23 147.679 73.2 147.499 70.58C147.319 67.91 146.099 66.68 140.779 65.78C134.649 64.75 133.029 63.03 132.819 59.94C132.599 56.71 134.819 53.56 140.109 53.19C145.389 52.83 148.139 55.88 148.739 59.17L146.399 59.33C145.839 57.4 144.129 55.07 140.159 55.34C136.089 55.62 135.059 57.71 135.189 59.58C135.339 61.73 136.529 62.73 141.239 63.53C147.939 64.67 149.719 66.7 149.969 70.21C150.259 74.46 146.979 77.32 142.079 77.66C136.749 78.03 133.569 75.43 132.619 71.27L134.999 71.11V71.12Z" fill="#6E85A7"/>
<defs>
<filter id="filter0_d_309_3958" x="0.169922" y="0.0899963" width="205.869" height="149.152" filterUnits="userSpaceOnUse" color-interpolation-filters="sRGB">
<feFlood flood-opacity="0" result="BackgroundImageFix"/>
<feColorMatrix in="SourceAlpha" type="matrix" values="0 0 0 0 0 0 0 0 0 0 0 0 0 0 0 0 0 0 127 0" result="hardAlpha"/>
<feOffset dy="4"/>
<feGaussianBlur stdDeviation="10"/>
<feComposite in2="hardAlpha" operator="out"/>
<feColorMatrix type="matrix" values="0 0 0 0 0.820556 0 0 0 0 0.852133 0 0 0 0 0.933333 0 0 0 1 0"/>
<feBlend mode="normal" in2="BackgroundImageFix" result="effect1_dropShadow_309_3958"/>
<feBlend mode="normal" in="SourceGraphic" in2="effect1_dropShadow_309_3958" result="shape"/>
</filter>
</defs>
</svg>
