<svg width="167" height="123" viewBox="0 0 167 123" fill="none" xmlns="http://www.w3.org/2000/svg">
<g clip-path="url(#clip0_309_3205)">
<g clip-path="url(#clip1_309_3205)">
<path d="M136.228 51.1594C136.228 51.7997 136.814 52.3188 137.536 52.3188C138.258 52.3188 138.844 51.7997 138.844 51.1594C138.844 50.5191 138.258 50 137.536 50C136.814 50 136.228 50.5191 136.228 51.1594Z" fill="#2C394B"/>
<path d="M130.998 51.1594C130.998 51.7997 131.583 52.3188 132.306 52.3188C133.028 52.3188 133.613 51.7997 133.613 51.1594C133.613 50.5191 133.028 50 132.306 50C131.583 50 130.998 50.5191 130.998 51.1594Z" fill="#2C394B"/>
<path d="M125.768 51.1594C125.768 51.7997 126.353 52.3188 127.075 52.3188C127.797 52.3188 128.383 51.7997 128.383 51.1594C128.383 50.5191 127.797 50 127.075 50C126.353 50 125.768 50.5191 125.768 51.1594Z" fill="#2C394B"/>
<path d="M120.535 51.1594C120.535 51.7997 121.121 52.3188 121.843 52.3188C122.565 52.3188 123.15 51.7997 123.15 51.1594C123.15 50.5191 122.565 50 121.843 50C121.121 50 120.535 50.5191 120.535 51.1594Z" fill="#2C394B"/>
<path d="M115.305 51.1594C115.305 51.7997 115.89 52.3188 116.612 52.3188C117.334 52.3188 117.92 51.7997 117.92 51.1594C117.92 50.5191 117.334 50 116.612 50C115.89 50 115.305 50.5191 115.305 51.1594Z" fill="#2C394B"/>
<path d="M110.074 51.1594C110.074 51.7997 110.66 52.3188 111.382 52.3188C112.104 52.3188 112.689 51.7997 112.689 51.1594C112.689 50.5191 112.104 50 111.382 50C110.66 50 110.074 50.5191 110.074 51.1594Z" fill="#2C394B"/>
<path d="M104.846 51.1594C104.846 51.7997 105.431 52.3188 106.153 52.3188C106.875 52.3188 107.461 51.7997 107.461 51.1594C107.461 50.5191 106.875 50 106.153 50C105.431 50 104.846 50.5191 104.846 51.1594Z" fill="#2C394B"/>
<path d="M99.6152 51.1594C99.6152 51.7997 100.201 52.3188 100.923 52.3188C101.645 52.3188 102.23 51.7997 102.23 51.1594C102.23 50.5191 101.645 50 100.923 50C100.201 50 99.6152 50.5191 99.6152 51.1594Z" fill="#2C394B"/>
<path d="M94.3847 51.1594C94.3847 51.7997 94.9702 52.3188 95.6924 52.3188C96.4146 52.3188 97 51.7997 97 51.1594C97 50.5191 96.4146 50 95.6924 50C94.9702 50 94.3847 50.5191 94.3847 51.1594Z" fill="#2C394B"/>
<path d="M136.228 55.7971C136.228 56.4374 136.814 56.9564 137.536 56.9564C138.258 56.9564 138.844 56.4374 138.844 55.7971C138.844 55.1568 138.258 54.6377 137.536 54.6377C136.814 54.6377 136.228 55.1568 136.228 55.7971Z" fill="#2C394B"/>
<path d="M130.998 55.7971C130.998 56.4374 131.583 56.9564 132.306 56.9564C133.028 56.9564 133.613 56.4374 133.613 55.7971C133.613 55.1568 133.028 54.6377 132.306 54.6377C131.583 54.6377 130.998 55.1568 130.998 55.7971Z" fill="#2C394B"/>
<path d="M125.768 55.7971C125.768 56.4374 126.353 56.9564 127.075 56.9564C127.797 56.9564 128.383 56.4374 128.383 55.7971C128.383 55.1568 127.797 54.6377 127.075 54.6377C126.353 54.6377 125.768 55.1568 125.768 55.7971Z" fill="#2C394B"/>
<path d="M120.535 55.7971C120.535 56.4374 121.121 56.9564 121.843 56.9564C122.565 56.9564 123.15 56.4374 123.15 55.7971C123.15 55.1568 122.565 54.6377 121.843 54.6377C121.121 54.6377 120.535 55.1568 120.535 55.7971Z" fill="#2C394B"/>
<path d="M115.305 55.7971C115.305 56.4374 115.89 56.9564 116.612 56.9564C117.334 56.9564 117.92 56.4374 117.92 55.7971C117.92 55.1568 117.334 54.6377 116.612 54.6377C115.89 54.6377 115.305 55.1568 115.305 55.7971Z" fill="#2C394B"/>
<path d="M110.074 55.7971C110.074 56.4374 110.66 56.9564 111.382 56.9564C112.104 56.9564 112.689 56.4374 112.689 55.7971C112.689 55.1568 112.104 54.6377 111.382 54.6377C110.66 54.6377 110.074 55.1568 110.074 55.7971Z" fill="#2C394B"/>
<path d="M104.846 55.7971C104.846 56.4374 105.431 56.9564 106.153 56.9564C106.875 56.9564 107.461 56.4374 107.461 55.7971C107.461 55.1568 106.875 54.6377 106.153 54.6377C105.431 54.6377 104.846 55.1568 104.846 55.7971Z" fill="#2C394B"/>
<path d="M99.6152 55.7971C99.6152 56.4374 100.201 56.9564 100.923 56.9564C101.645 56.9564 102.23 56.4374 102.23 55.7971C102.23 55.1568 101.645 54.6377 100.923 54.6377C100.201 54.6377 99.6152 55.1568 99.6152 55.7971Z" fill="#2C394B"/>
<path d="M94.3847 55.7971C94.3847 56.4374 94.9702 56.9564 95.6924 56.9564C96.4146 56.9564 97 56.4374 97 55.7971C97 55.1568 96.4146 54.6377 95.6924 54.6377C94.9702 54.6377 94.3847 55.1568 94.3847 55.7971Z" fill="#2C394B"/>
<path d="M89.1543 55.7971C89.1543 56.4374 89.7397 56.9564 90.4619 56.9564C91.1841 56.9564 91.7695 56.4374 91.7695 55.7971C91.7695 55.1568 91.1841 54.6377 90.4619 54.6377C89.7397 54.6377 89.1543 55.1568 89.1543 55.7971Z" fill="#2C394B"/>
<path d="M136.228 60.4343C136.228 61.0746 136.814 61.5936 137.536 61.5936C138.258 61.5936 138.844 61.0746 138.844 60.4343C138.844 59.794 138.258 59.2749 137.536 59.2749C136.814 59.2749 136.228 59.794 136.228 60.4343Z" fill="#2C394B"/>
<path d="M130.998 60.4343C130.998 61.0746 131.583 61.5936 132.306 61.5936C133.028 61.5936 133.613 61.0746 133.613 60.4343C133.613 59.794 133.028 59.2749 132.306 59.2749C131.583 59.2749 130.998 59.794 130.998 60.4343Z" fill="#2C394B"/>
<path d="M125.768 60.4343C125.768 61.0746 126.353 61.5936 127.075 61.5936C127.797 61.5936 128.383 61.0746 128.383 60.4343C128.383 59.794 127.797 59.2749 127.075 59.2749C126.353 59.2749 125.768 59.794 125.768 60.4343Z" fill="#2C394B"/>
<path d="M120.535 60.4343C120.535 61.0746 121.121 61.5936 121.843 61.5936C122.565 61.5936 123.15 61.0746 123.15 60.4343C123.15 59.794 122.565 59.2749 121.843 59.2749C121.121 59.2749 120.535 59.794 120.535 60.4343Z" fill="#2C394B"/>
<path d="M115.305 60.4343C115.305 61.0746 115.89 61.5936 116.612 61.5936C117.334 61.5936 117.92 61.0746 117.92 60.4343C117.92 59.794 117.334 59.2749 116.612 59.2749C115.89 59.2749 115.305 59.794 115.305 60.4343Z" fill="#2C394B"/>
<path d="M110.074 60.4343C110.074 61.0746 110.66 61.5936 111.382 61.5936C112.104 61.5936 112.689 61.0746 112.689 60.4343C112.689 59.794 112.104 59.2749 111.382 59.2749C110.66 59.2749 110.074 59.794 110.074 60.4343Z" fill="#2C394B"/>
<path d="M104.846 60.4343C104.846 61.0746 105.431 61.5936 106.153 61.5936C106.875 61.5936 107.461 61.0746 107.461 60.4343C107.461 59.794 106.875 59.2749 106.153 59.2749C105.431 59.2749 104.846 59.794 104.846 60.4343Z" fill="#2C394B"/>
<path d="M99.6152 60.4343C99.6152 61.0746 100.201 61.5936 100.923 61.5936C101.645 61.5936 102.23 61.0746 102.23 60.4343C102.23 59.794 101.645 59.2749 100.923 59.2749C100.201 59.2749 99.6152 59.794 99.6152 60.4343Z" fill="#2C394B"/>
<path d="M94.3847 60.4343C94.3847 61.0746 94.9702 61.5936 95.6924 61.5936C96.4146 61.5936 97 61.0746 97 60.4343C97 59.794 96.4146 59.2749 95.6924 59.2749C94.9702 59.2749 94.3847 59.794 94.3847 60.4343Z" fill="#2C394B"/>
<path d="M89.1543 60.4343C89.1543 61.0746 89.7397 61.5936 90.4619 61.5936C91.1841 61.5936 91.7695 61.0746 91.7695 60.4343C91.7695 59.794 91.1841 59.2749 90.4619 59.2749C89.7397 59.2749 89.1543 59.794 89.1543 60.4343Z" fill="#2C394B"/>
<path d="M83.9219 60.4343C83.9219 61.0746 84.5073 61.5936 85.2295 61.5936C85.9517 61.5936 86.5371 61.0746 86.5371 60.4343C86.5371 59.794 85.9517 59.2749 85.2295 59.2749C84.5073 59.2749 83.9219 59.794 83.9219 60.4343Z" fill="#2C394B"/>
<path d="M136.228 65.072C136.228 65.7123 136.814 66.2313 137.536 66.2313C138.258 66.2313 138.844 65.7123 138.844 65.072C138.844 64.4317 138.258 63.9126 137.536 63.9126C136.814 63.9126 136.228 64.4317 136.228 65.072Z" fill="#2C394B"/>
<path d="M130.998 65.072C130.998 65.7123 131.583 66.2313 132.306 66.2313C133.028 66.2313 133.613 65.7123 133.613 65.072C133.613 64.4317 133.028 63.9126 132.306 63.9126C131.583 63.9126 130.998 64.4317 130.998 65.072Z" fill="#2C394B"/>
<path d="M125.768 65.072C125.768 65.7123 126.353 66.2313 127.075 66.2313C127.797 66.2313 128.383 65.7123 128.383 65.072C128.383 64.4317 127.797 63.9126 127.075 63.9126C126.353 63.9126 125.768 64.4317 125.768 65.072Z" fill="#2C394B"/>
<path d="M120.535 65.072C120.535 65.7123 121.121 66.2313 121.843 66.2313C122.565 66.2313 123.15 65.7123 123.15 65.072C123.15 64.4317 122.565 63.9126 121.843 63.9126C121.121 63.9126 120.535 64.4317 120.535 65.072Z" fill="#2C394B"/>
<path d="M115.305 65.072C115.305 65.7123 115.89 66.2313 116.612 66.2313C117.334 66.2313 117.92 65.7123 117.92 65.072C117.92 64.4317 117.334 63.9126 116.612 63.9126C115.89 63.9126 115.305 64.4317 115.305 65.072Z" fill="#2C394B"/>
<path d="M110.074 65.072C110.074 65.7123 110.66 66.2313 111.382 66.2313C112.104 66.2313 112.689 65.7123 112.689 65.072C112.689 64.4317 112.104 63.9126 111.382 63.9126C110.66 63.9126 110.074 64.4317 110.074 65.072Z" fill="#2C394B"/>
<path d="M104.846 65.072C104.846 65.7123 105.431 66.2313 106.153 66.2313C106.875 66.2313 107.461 65.7123 107.461 65.072C107.461 64.4317 106.875 63.9126 106.153 63.9126C105.431 63.9126 104.846 64.4317 104.846 65.072Z" fill="#2C394B"/>
<path d="M99.6152 65.072C99.6152 65.7123 100.201 66.2313 100.923 66.2313C101.645 66.2313 102.23 65.7123 102.23 65.072C102.23 64.4317 101.645 63.9126 100.923 63.9126C100.201 63.9126 99.6152 64.4317 99.6152 65.072Z" fill="#2C394B"/>
<path d="M94.3847 65.072C94.3847 65.7123 94.9702 66.2313 95.6924 66.2313C96.4146 66.2313 97 65.7123 97 65.072C97 64.4317 96.4146 63.9126 95.6924 63.9126C94.9702 63.9126 94.3847 64.4317 94.3847 65.072Z" fill="#2C394B"/>
<path d="M89.1543 65.072C89.1543 65.7123 89.7397 66.2313 90.4619 66.2313C91.1841 66.2313 91.7695 65.7123 91.7695 65.072C91.7695 64.4317 91.1841 63.9126 90.4619 63.9126C89.7397 63.9126 89.1543 64.4317 89.1543 65.072Z" fill="#2C394B"/>
<path d="M83.9219 65.072C83.9219 65.7123 84.5073 66.2313 85.2295 66.2313C85.9517 66.2313 86.5371 65.7123 86.5371 65.072C86.5371 64.4317 85.9517 63.9126 85.2295 63.9126C84.5073 63.9126 83.9219 64.4317 83.9219 65.072Z" fill="#2C394B"/>
<path d="M78.6914 65.072C78.6914 65.7123 79.2768 66.2313 79.999 66.2313C80.7212 66.2313 81.3066 65.7123 81.3066 65.072C81.3066 64.4317 80.7212 63.9126 79.999 63.9126C79.2768 63.9126 78.6914 64.4317 78.6914 65.072Z" fill="#2C394B"/>
<path d="M136.228 69.7092C136.228 70.3495 136.814 70.8685 137.536 70.8685C138.258 70.8685 138.844 70.3495 138.844 69.7092C138.844 69.0689 138.258 68.5498 137.536 68.5498C136.814 68.5498 136.228 69.0689 136.228 69.7092Z" fill="#2C394B"/>
<path d="M130.998 69.7092C130.998 70.3495 131.583 70.8685 132.306 70.8685C133.028 70.8685 133.613 70.3495 133.613 69.7092C133.613 69.0689 133.028 68.5498 132.306 68.5498C131.583 68.5498 130.998 69.0689 130.998 69.7092Z" fill="#2C394B"/>
<path d="M125.768 69.7092C125.768 70.3495 126.353 70.8685 127.075 70.8685C127.797 70.8685 128.383 70.3495 128.383 69.7092C128.383 69.0689 127.797 68.5498 127.075 68.5498C126.353 68.5498 125.768 69.0689 125.768 69.7092Z" fill="#2C394B"/>
<path d="M120.535 69.7092C120.535 70.3495 121.121 70.8685 121.843 70.8685C122.565 70.8685 123.15 70.3495 123.15 69.7092C123.15 69.0689 122.565 68.5498 121.843 68.5498C121.121 68.5498 120.535 69.0689 120.535 69.7092Z" fill="#2C394B"/>
<path d="M115.305 69.7092C115.305 70.3495 115.89 70.8685 116.612 70.8685C117.334 70.8685 117.92 70.3495 117.92 69.7092C117.92 69.0689 117.334 68.5498 116.612 68.5498C115.89 68.5498 115.305 69.0689 115.305 69.7092Z" fill="#2C394B"/>
<path d="M110.074 69.7092C110.074 70.3495 110.66 70.8685 111.382 70.8685C112.104 70.8685 112.689 70.3495 112.689 69.7092C112.689 69.0689 112.104 68.5498 111.382 68.5498C110.66 68.5498 110.074 69.0689 110.074 69.7092Z" fill="#2C394B"/>
<path d="M104.846 69.7092C104.846 70.3495 105.431 70.8685 106.153 70.8685C106.875 70.8685 107.461 70.3495 107.461 69.7092C107.461 69.0689 106.875 68.5498 106.153 68.5498C105.431 68.5498 104.846 69.0689 104.846 69.7092Z" fill="#2C394B"/>
<path d="M99.6152 69.7092C99.6152 70.3495 100.201 70.8685 100.923 70.8685C101.645 70.8685 102.23 70.3495 102.23 69.7092C102.23 69.0689 101.645 68.5498 100.923 68.5498C100.201 68.5498 99.6152 69.0689 99.6152 69.7092Z" fill="#2C394B"/>
<path d="M94.3847 69.7092C94.3847 70.3495 94.9702 70.8685 95.6924 70.8685C96.4146 70.8685 97 70.3495 97 69.7092C97 69.0689 96.4146 68.5498 95.6924 68.5498C94.9702 68.5498 94.3847 69.0689 94.3847 69.7092Z" fill="#2C394B"/>
<path d="M89.1543 69.7092C89.1543 70.3495 89.7397 70.8685 90.4619 70.8685C91.1841 70.8685 91.7695 70.3495 91.7695 69.7092C91.7695 69.0689 91.1841 68.5498 90.4619 68.5498C89.7397 68.5498 89.1543 69.0689 89.1543 69.7092Z" fill="#2C394B"/>
<path d="M83.9219 69.7092C83.9219 70.3495 84.5073 70.8685 85.2295 70.8685C85.9517 70.8685 86.5371 70.3495 86.5371 69.7092C86.5371 69.0689 85.9517 68.5498 85.2295 68.5498C84.5073 68.5498 83.9219 69.0689 83.9219 69.7092Z" fill="#2C394B"/>
<path d="M78.6914 69.7092C78.6914 70.3495 79.2768 70.8685 79.999 70.8685C80.7212 70.8685 81.3066 70.3495 81.3066 69.7092C81.3066 69.0689 80.7212 68.5498 79.999 68.5498C79.2768 68.5498 78.6914 69.0689 78.6914 69.7092Z" fill="#2C394B"/>
<path d="M73.4609 69.7092C73.4609 70.3495 74.0464 70.8685 74.7685 70.8685C75.4907 70.8685 76.0762 70.3495 76.0762 69.7092C76.0762 69.0689 75.4907 68.5498 74.7685 68.5498C74.0464 68.5498 73.4609 69.0689 73.4609 69.7092Z" fill="#2C394B"/>
<path d="M136.228 74.3469C136.228 74.9872 136.814 75.5062 137.536 75.5062C138.258 75.5062 138.844 74.9872 138.844 74.3469C138.844 73.7066 138.258 73.1875 137.536 73.1875C136.814 73.1875 136.228 73.7066 136.228 74.3469Z" fill="#2C394B"/>
<path d="M130.998 74.3469C130.998 74.9872 131.583 75.5062 132.306 75.5062C133.028 75.5062 133.613 74.9872 133.613 74.3469C133.613 73.7066 133.028 73.1875 132.306 73.1875C131.583 73.1875 130.998 73.7066 130.998 74.3469Z" fill="#2C394B"/>
<path d="M125.768 74.3469C125.768 74.9872 126.353 75.5062 127.075 75.5062C127.797 75.5062 128.383 74.9872 128.383 74.3469C128.383 73.7066 127.797 73.1875 127.075 73.1875C126.353 73.1875 125.768 73.7066 125.768 74.3469Z" fill="#2C394B"/>
<path d="M120.535 74.3469C120.535 74.9872 121.121 75.5062 121.843 75.5062C122.565 75.5062 123.15 74.9872 123.15 74.3469C123.15 73.7066 122.565 73.1875 121.843 73.1875C121.121 73.1875 120.535 73.7066 120.535 74.3469Z" fill="#2C394B"/>
<path d="M115.305 74.3469C115.305 74.9872 115.89 75.5062 116.612 75.5062C117.334 75.5062 117.92 74.9872 117.92 74.3469C117.92 73.7066 117.334 73.1875 116.612 73.1875C115.89 73.1875 115.305 73.7066 115.305 74.3469Z" fill="#2C394B"/>
<path d="M110.074 74.3469C110.074 74.9872 110.66 75.5062 111.382 75.5062C112.104 75.5062 112.689 74.9872 112.689 74.3469C112.689 73.7066 112.104 73.1875 111.382 73.1875C110.66 73.1875 110.074 73.7066 110.074 74.3469Z" fill="#2C394B"/>
<path d="M104.846 74.3469C104.846 74.9872 105.431 75.5062 106.153 75.5062C106.875 75.5062 107.461 74.9872 107.461 74.3469C107.461 73.7066 106.875 73.1875 106.153 73.1875C105.431 73.1875 104.846 73.7066 104.846 74.3469Z" fill="#2C394B"/>
<path d="M99.6152 74.3469C99.6152 74.9872 100.201 75.5062 100.923 75.5062C101.645 75.5062 102.23 74.9872 102.23 74.3469C102.23 73.7066 101.645 73.1875 100.923 73.1875C100.201 73.1875 99.6152 73.7066 99.6152 74.3469Z" fill="#2C394B"/>
<path d="M94.3847 74.3469C94.3847 74.9872 94.9702 75.5062 95.6924 75.5062C96.4146 75.5062 97 74.9872 97 74.3469C97 73.7066 96.4146 73.1875 95.6924 73.1875C94.9702 73.1875 94.3847 73.7066 94.3847 74.3469Z" fill="#2C394B"/>
<path d="M89.1543 74.3469C89.1543 74.9872 89.7397 75.5062 90.4619 75.5062C91.1841 75.5062 91.7695 74.9872 91.7695 74.3469C91.7695 73.7066 91.1841 73.1875 90.4619 73.1875C89.7397 73.1875 89.1543 73.7066 89.1543 74.3469Z" fill="#2C394B"/>
<path d="M83.9219 74.3469C83.9219 74.9872 84.5073 75.5062 85.2295 75.5062C85.9517 75.5062 86.5371 74.9872 86.5371 74.3469C86.5371 73.7066 85.9517 73.1875 85.2295 73.1875C84.5073 73.1875 83.9219 73.7066 83.9219 74.3469Z" fill="#2C394B"/>
<path d="M78.6914 74.3469C78.6914 74.9872 79.2768 75.5062 79.999 75.5062C80.7212 75.5062 81.3066 74.9872 81.3066 74.3469C81.3066 73.7066 80.7212 73.1875 79.999 73.1875C79.2768 73.1875 78.6914 73.7066 78.6914 74.3469Z" fill="#2C394B"/>
<path d="M73.4609 74.3469C73.4609 74.9872 74.0464 75.5062 74.7685 75.5062C75.4907 75.5062 76.0762 74.9872 76.0762 74.3469C76.0762 73.7066 75.4907 73.1875 74.7685 73.1875C74.0464 73.1875 73.4609 73.7066 73.4609 74.3469Z" fill="#2C394B"/>
<path d="M136.228 78.9841C136.228 79.6244 136.814 80.1434 137.536 80.1434C138.258 80.1434 138.844 79.6244 138.844 78.9841C138.844 78.3438 138.258 77.8247 137.536 77.8247C136.814 77.8247 136.228 78.3438 136.228 78.9841Z" fill="#2C394B"/>
<path d="M130.998 78.9841C130.998 79.6244 131.583 80.1434 132.306 80.1434C133.028 80.1434 133.613 79.6244 133.613 78.9841C133.613 78.3438 133.028 77.8247 132.306 77.8247C131.583 77.8247 130.998 78.3438 130.998 78.9841Z" fill="#2C394B"/>
<path d="M125.768 78.9841C125.768 79.6244 126.353 80.1434 127.075 80.1434C127.797 80.1434 128.383 79.6244 128.383 78.9841C128.383 78.3438 127.797 77.8247 127.075 77.8247C126.353 77.8247 125.768 78.3438 125.768 78.9841Z" fill="#2C394B"/>
<path d="M120.535 78.9841C120.535 79.6244 121.121 80.1434 121.843 80.1434C122.565 80.1434 123.15 79.6244 123.15 78.9841C123.15 78.3438 122.565 77.8247 121.843 77.8247C121.121 77.8247 120.535 78.3438 120.535 78.9841Z" fill="#2C394B"/>
<path d="M115.305 78.9841C115.305 79.6244 115.89 80.1434 116.612 80.1434C117.334 80.1434 117.92 79.6244 117.92 78.9841C117.92 78.3438 117.334 77.8247 116.612 77.8247C115.89 77.8247 115.305 78.3438 115.305 78.9841Z" fill="#2C394B"/>
<path d="M110.074 78.9841C110.074 79.6244 110.66 80.1434 111.382 80.1434C112.104 80.1434 112.689 79.6244 112.689 78.9841C112.689 78.3438 112.104 77.8247 111.382 77.8247C110.66 77.8247 110.074 78.3438 110.074 78.9841Z" fill="#2C394B"/>
<path d="M104.846 78.9841C104.846 79.6244 105.431 80.1434 106.153 80.1434C106.875 80.1434 107.461 79.6244 107.461 78.9841C107.461 78.3438 106.875 77.8247 106.153 77.8247C105.431 77.8247 104.846 78.3438 104.846 78.9841Z" fill="#2C394B"/>
<path d="M99.6152 78.9841C99.6152 79.6244 100.201 80.1434 100.923 80.1434C101.645 80.1434 102.23 79.6244 102.23 78.9841C102.23 78.3438 101.645 77.8247 100.923 77.8247C100.201 77.8247 99.6152 78.3438 99.6152 78.9841Z" fill="#2C394B"/>
<path d="M94.3848 78.9841C94.3848 79.6244 94.9702 80.1434 95.6924 80.1434C96.4146 80.1434 97 79.6244 97 78.9841C97 78.3438 96.4146 77.8247 95.6924 77.8247C94.9702 77.8247 94.3848 78.3438 94.3848 78.9841Z" fill="#2C394B"/>
<path d="M89.1543 78.9841C89.1543 79.6244 89.7397 80.1434 90.4619 80.1434C91.1841 80.1434 91.7695 79.6244 91.7695 78.9841C91.7695 78.3438 91.1841 77.8247 90.4619 77.8247C89.7397 77.8247 89.1543 78.3438 89.1543 78.9841Z" fill="#2C394B"/>
<path d="M83.9219 78.9841C83.9219 79.6244 84.5073 80.1434 85.2295 80.1434C85.9517 80.1434 86.5371 79.6244 86.5371 78.9841C86.5371 78.3438 85.9517 77.8247 85.2295 77.8247C84.5073 77.8247 83.9219 78.3438 83.9219 78.9841Z" fill="#2C394B"/>
<path d="M78.6914 78.9841C78.6914 79.6244 79.2768 80.1434 79.999 80.1434C80.7212 80.1434 81.3066 79.6244 81.3066 78.9841C81.3066 78.3438 80.7212 77.8247 79.999 77.8247C79.2768 77.8247 78.6914 78.3438 78.6914 78.9841Z" fill="#2C394B"/>
<path d="M73.4609 78.9841C73.4609 79.6244 74.0464 80.1434 74.7685 80.1434C75.4907 80.1434 76.0762 79.6244 76.0762 78.9841C76.0762 78.3438 75.4907 77.8247 74.7685 77.8247C74.0464 77.8247 73.4609 78.3438 73.4609 78.9841Z" fill="#2C394B"/>
<path d="M68.2324 78.9841C68.2324 79.6244 68.8178 80.1434 69.54 80.1434C70.2622 80.1434 70.8477 79.6244 70.8477 78.9841C70.8477 78.3438 70.2622 77.8247 69.54 77.8247C68.8178 77.8247 68.2324 78.3438 68.2324 78.9841Z" fill="#2C394B"/>
<path d="M136.228 83.6217C136.228 84.262 136.814 84.7811 137.536 84.7811C138.258 84.7811 138.844 84.262 138.844 83.6217C138.844 82.9815 138.258 82.4624 137.536 82.4624C136.814 82.4624 136.228 82.9815 136.228 83.6217Z" fill="#2C394B"/>
<path d="M130.998 83.6217C130.998 84.262 131.583 84.7811 132.306 84.7811C133.028 84.7811 133.613 84.262 133.613 83.6217C133.613 82.9815 133.028 82.4624 132.306 82.4624C131.583 82.4624 130.998 82.9815 130.998 83.6217Z" fill="#2C394B"/>
<path d="M125.768 83.6217C125.768 84.262 126.353 84.7811 127.075 84.7811C127.797 84.7811 128.383 84.262 128.383 83.6217C128.383 82.9815 127.797 82.4624 127.075 82.4624C126.353 82.4624 125.768 82.9815 125.768 83.6217Z" fill="#2C394B"/>
<path d="M120.535 83.6217C120.535 84.262 121.121 84.7811 121.843 84.7811C122.565 84.7811 123.15 84.262 123.15 83.6217C123.15 82.9815 122.565 82.4624 121.843 82.4624C121.121 82.4624 120.535 82.9815 120.535 83.6217Z" fill="#2C394B"/>
<path d="M115.305 83.6217C115.305 84.262 115.89 84.7811 116.612 84.7811C117.334 84.7811 117.92 84.262 117.92 83.6217C117.92 82.9815 117.334 82.4624 116.612 82.4624C115.89 82.4624 115.305 82.9815 115.305 83.6217Z" fill="#2C394B"/>
<path d="M110.074 83.6217C110.074 84.262 110.66 84.7811 111.382 84.7811C112.104 84.7811 112.689 84.262 112.689 83.6217C112.689 82.9815 112.104 82.4624 111.382 82.4624C110.66 82.4624 110.074 82.9815 110.074 83.6217Z" fill="#2C394B"/>
<path d="M104.846 83.6217C104.846 84.262 105.431 84.7811 106.153 84.7811C106.875 84.7811 107.461 84.262 107.461 83.6217C107.461 82.9815 106.875 82.4624 106.153 82.4624C105.431 82.4624 104.846 82.9815 104.846 83.6217Z" fill="#2C394B"/>
<path d="M99.6152 83.6217C99.6152 84.262 100.201 84.7811 100.923 84.7811C101.645 84.7811 102.23 84.262 102.23 83.6217C102.23 82.9815 101.645 82.4624 100.923 82.4624C100.201 82.4624 99.6152 82.9815 99.6152 83.6217Z" fill="#2C394B"/>
<path d="M94.3847 83.6217C94.3847 84.262 94.9702 84.7811 95.6924 84.7811C96.4146 84.7811 97 84.262 97 83.6217C97 82.9815 96.4146 82.4624 95.6924 82.4624C94.9702 82.4624 94.3847 82.9815 94.3847 83.6217Z" fill="#2C394B"/>
<path d="M89.1543 83.6217C89.1543 84.262 89.7397 84.7811 90.4619 84.7811C91.1841 84.7811 91.7695 84.262 91.7695 83.6217C91.7695 82.9815 91.1841 82.4624 90.4619 82.4624C89.7397 82.4624 89.1543 82.9815 89.1543 83.6217Z" fill="#2C394B"/>
<path d="M83.9219 83.6217C83.9219 84.262 84.5073 84.7811 85.2295 84.7811C85.9517 84.7811 86.5371 84.262 86.5371 83.6217C86.5371 82.9815 85.9517 82.4624 85.2295 82.4624C84.5073 82.4624 83.9219 82.9815 83.9219 83.6217Z" fill="#2C394B"/>
<path d="M78.6914 83.6217C78.6914 84.262 79.2768 84.7811 79.999 84.7811C80.7212 84.7811 81.3066 84.262 81.3066 83.6217C81.3066 82.9815 80.7212 82.4624 79.999 82.4624C79.2768 82.4624 78.6914 82.9815 78.6914 83.6217Z" fill="#2C394B"/>
<path d="M73.4609 83.6217C73.4609 84.262 74.0464 84.7811 74.7685 84.7811C75.4907 84.7811 76.0762 84.262 76.0762 83.6217C76.0762 82.9815 75.4907 82.4624 74.7685 82.4624C74.0464 82.4624 73.4609 82.9815 73.4609 83.6217Z" fill="#2C394B"/>
<path d="M68.2324 83.6217C68.2324 84.262 68.8178 84.7811 69.54 84.7811C70.2622 84.7811 70.8477 84.262 70.8477 83.6217C70.8477 82.9815 70.2622 82.4624 69.54 82.4624C68.8178 82.4624 68.2324 82.9815 68.2324 83.6217Z" fill="#2C394B"/>
<path d="M63.0019 83.6217C63.0019 84.262 63.5874 84.7811 64.3096 84.7811C65.0317 84.7811 65.6172 84.262 65.6172 83.6217C65.6172 82.9815 65.0317 82.4624 64.3096 82.4624C63.5874 82.4624 63.0019 82.9815 63.0019 83.6217Z" fill="#2C394B"/>
<path d="M136.228 88.259C136.228 88.8993 136.814 89.4183 137.536 89.4183C138.258 89.4183 138.844 88.8993 138.844 88.259C138.844 87.6187 138.258 87.0996 137.536 87.0996C136.814 87.0996 136.228 87.6187 136.228 88.259Z" fill="#2C394B"/>
<path d="M130.998 88.259C130.998 88.8993 131.583 89.4183 132.306 89.4183C133.028 89.4183 133.613 88.8993 133.613 88.259C133.613 87.6187 133.028 87.0996 132.306 87.0996C131.583 87.0996 130.998 87.6187 130.998 88.259Z" fill="#2C394B"/>
<path d="M125.768 88.259C125.768 88.8993 126.353 89.4183 127.075 89.4183C127.797 89.4183 128.383 88.8993 128.383 88.259C128.383 87.6187 127.797 87.0996 127.075 87.0996C126.353 87.0996 125.768 87.6187 125.768 88.259Z" fill="#2C394B"/>
<path d="M120.535 88.259C120.535 88.8993 121.121 89.4183 121.843 89.4183C122.565 89.4183 123.15 88.8993 123.15 88.259C123.15 87.6187 122.565 87.0996 121.843 87.0996C121.121 87.0996 120.535 87.6187 120.535 88.259Z" fill="#2C394B"/>
<path d="M115.305 88.259C115.305 88.8993 115.89 89.4183 116.612 89.4183C117.334 89.4183 117.92 88.8993 117.92 88.259C117.92 87.6187 117.334 87.0996 116.612 87.0996C115.89 87.0996 115.305 87.6187 115.305 88.259Z" fill="#2C394B"/>
<path d="M110.074 88.259C110.074 88.8993 110.66 89.4183 111.382 89.4183C112.104 89.4183 112.689 88.8993 112.689 88.259C112.689 87.6187 112.104 87.0996 111.382 87.0996C110.66 87.0996 110.074 87.6187 110.074 88.259Z" fill="#2C394B"/>
<path d="M104.846 88.259C104.846 88.8993 105.431 89.4183 106.153 89.4183C106.875 89.4183 107.461 88.8993 107.461 88.259C107.461 87.6187 106.875 87.0996 106.153 87.0996C105.431 87.0996 104.846 87.6187 104.846 88.259Z" fill="#2C394B"/>
<path d="M99.6152 88.259C99.6152 88.8993 100.201 89.4183 100.923 89.4183C101.645 89.4183 102.23 88.8993 102.23 88.259C102.23 87.6187 101.645 87.0996 100.923 87.0996C100.201 87.0996 99.6152 87.6187 99.6152 88.259Z" fill="#2C394B"/>
<path d="M94.3847 88.259C94.3847 88.8993 94.9702 89.4183 95.6924 89.4183C96.4146 89.4183 97 88.8993 97 88.259C97 87.6187 96.4146 87.0996 95.6924 87.0996C94.9702 87.0996 94.3847 87.6187 94.3847 88.259Z" fill="#2C394B"/>
<path d="M89.1543 88.259C89.1543 88.8993 89.7397 89.4183 90.4619 89.4183C91.1841 89.4183 91.7695 88.8993 91.7695 88.259C91.7695 87.6187 91.1841 87.0996 90.4619 87.0996C89.7397 87.0996 89.1543 87.6187 89.1543 88.259Z" fill="#2C394B"/>
<path d="M83.9219 88.259C83.9219 88.8993 84.5073 89.4183 85.2295 89.4183C85.9517 89.4183 86.5371 88.8993 86.5371 88.259C86.5371 87.6187 85.9517 87.0996 85.2295 87.0996C84.5073 87.0996 83.9219 87.6187 83.9219 88.259Z" fill="#2C394B"/>
<path d="M78.6914 88.259C78.6914 88.8993 79.2768 89.4183 79.999 89.4183C80.7212 89.4183 81.3066 88.8993 81.3066 88.259C81.3066 87.6187 80.7212 87.0996 79.999 87.0996C79.2768 87.0996 78.6914 87.6187 78.6914 88.259Z" fill="#2C394B"/>
<path d="M73.4609 88.259C73.4609 88.8993 74.0464 89.4183 74.7685 89.4183C75.4907 89.4183 76.0762 88.8993 76.0762 88.259C76.0762 87.6187 75.4907 87.0996 74.7685 87.0996C74.0464 87.0996 73.4609 87.6187 73.4609 88.259Z" fill="#2C394B"/>
<path d="M68.2324 88.259C68.2324 88.8993 68.8178 89.4183 69.54 89.4183C70.2622 89.4183 70.8477 88.8993 70.8477 88.259C70.8477 87.6187 70.2622 87.0996 69.54 87.0996C68.8178 87.0996 68.2324 87.6187 68.2324 88.259Z" fill="#2C394B"/>
<path d="M63.0019 88.259C63.0019 88.8993 63.5874 89.4183 64.3096 89.4183C65.0317 89.4183 65.6172 88.8993 65.6172 88.259C65.6172 87.6187 65.0317 87.0996 64.3096 87.0996C63.5874 87.0996 63.0019 87.6187 63.0019 88.259Z" fill="#2C394B"/>
<path d="M136.228 92.8967C136.228 93.537 136.814 94.0561 137.536 94.0561C138.258 94.0561 138.844 93.537 138.844 92.8967C138.844 92.2564 138.258 91.7373 137.536 91.7373C136.814 91.7373 136.228 92.2564 136.228 92.8967Z" fill="#2C394B"/>
<path d="M130.998 92.8967C130.998 93.537 131.583 94.0561 132.306 94.0561C133.028 94.0561 133.613 93.537 133.613 92.8967C133.613 92.2564 133.028 91.7373 132.306 91.7373C131.583 91.7373 130.998 92.2564 130.998 92.8967Z" fill="#2C394B"/>
<path d="M125.768 92.8967C125.768 93.537 126.353 94.0561 127.075 94.0561C127.797 94.0561 128.383 93.537 128.383 92.8967C128.383 92.2564 127.797 91.7373 127.075 91.7373C126.353 91.7373 125.768 92.2564 125.768 92.8967Z" fill="#2C394B"/>
<path d="M120.535 92.8967C120.535 93.537 121.121 94.0561 121.843 94.0561C122.565 94.0561 123.15 93.537 123.15 92.8967C123.15 92.2564 122.565 91.7373 121.843 91.7373C121.121 91.7373 120.535 92.2564 120.535 92.8967Z" fill="#2C394B"/>
<path d="M115.305 92.8967C115.305 93.537 115.89 94.0561 116.612 94.0561C117.334 94.0561 117.92 93.537 117.92 92.8967C117.92 92.2564 117.334 91.7373 116.612 91.7373C115.89 91.7373 115.305 92.2564 115.305 92.8967Z" fill="#2C394B"/>
<path d="M110.074 92.8967C110.074 93.537 110.66 94.0561 111.382 94.0561C112.104 94.0561 112.689 93.537 112.689 92.8967C112.689 92.2564 112.104 91.7373 111.382 91.7373C110.66 91.7373 110.074 92.2564 110.074 92.8967Z" fill="#2C394B"/>
<path d="M104.846 92.8967C104.846 93.537 105.431 94.0561 106.153 94.0561C106.875 94.0561 107.461 93.537 107.461 92.8967C107.461 92.2564 106.875 91.7373 106.153 91.7373C105.431 91.7373 104.846 92.2564 104.846 92.8967Z" fill="#2C394B"/>
<path d="M99.6152 92.8967C99.6152 93.537 100.201 94.0561 100.923 94.0561C101.645 94.0561 102.23 93.537 102.23 92.8967C102.23 92.2564 101.645 91.7373 100.923 91.7373C100.201 91.7373 99.6152 92.2564 99.6152 92.8967Z" fill="#2C394B"/>
<path d="M94.3847 92.8967C94.3847 93.537 94.9702 94.0561 95.6924 94.0561C96.4146 94.0561 97 93.537 97 92.8967C97 92.2564 96.4146 91.7373 95.6924 91.7373C94.9702 91.7373 94.3847 92.2564 94.3847 92.8967Z" fill="#2C394B"/>
<path d="M89.1543 92.8967C89.1543 93.537 89.7397 94.0561 90.4619 94.0561C91.1841 94.0561 91.7695 93.537 91.7695 92.8967C91.7695 92.2564 91.1841 91.7373 90.4619 91.7373C89.7397 91.7373 89.1543 92.2564 89.1543 92.8967Z" fill="#2C394B"/>
<path d="M83.9219 92.8967C83.9219 93.537 84.5073 94.0561 85.2295 94.0561C85.9517 94.0561 86.5371 93.537 86.5371 92.8967C86.5371 92.2564 85.9517 91.7373 85.2295 91.7373C84.5073 91.7373 83.9219 92.2564 83.9219 92.8967Z" fill="#2C394B"/>
<path d="M78.6914 92.8967C78.6914 93.537 79.2768 94.0561 79.999 94.0561C80.7212 94.0561 81.3066 93.537 81.3066 92.8967C81.3066 92.2564 80.7212 91.7373 79.999 91.7373C79.2768 91.7373 78.6914 92.2564 78.6914 92.8967Z" fill="#2C394B"/>
<path d="M73.4609 92.8967C73.4609 93.537 74.0464 94.0561 74.7685 94.0561C75.4907 94.0561 76.0762 93.537 76.0762 92.8967C76.0762 92.2564 75.4907 91.7373 74.7685 91.7373C74.0464 91.7373 73.4609 92.2564 73.4609 92.8967Z" fill="#2C394B"/>
<path d="M68.2324 92.8967C68.2324 93.537 68.8178 94.0561 69.54 94.0561C70.2622 94.0561 70.8477 93.537 70.8477 92.8967C70.8477 92.2564 70.2622 91.7373 69.54 91.7373C68.8178 91.7373 68.2324 92.2564 68.2324 92.8967Z" fill="#2C394B"/>
<path d="M63.0019 92.8967C63.0019 93.537 63.5874 94.0561 64.3096 94.0561C65.0317 94.0561 65.6172 93.537 65.6172 92.8967C65.6172 92.2564 65.0317 91.7373 64.3096 91.7373C63.5874 91.7373 63.0019 92.2564 63.0019 92.8967Z" fill="#2C394B"/>
<path d="M136.228 97.5344C136.228 98.1747 136.814 98.6937 137.536 98.6937C138.258 98.6937 138.844 98.1747 138.844 97.5344C138.844 96.8941 138.258 96.375 137.536 96.375C136.814 96.375 136.228 96.8941 136.228 97.5344Z" fill="#2C394B"/>
<path d="M130.998 97.5344C130.998 98.1747 131.583 98.6937 132.306 98.6937C133.028 98.6937 133.613 98.1747 133.613 97.5344C133.613 96.8941 133.028 96.375 132.306 96.375C131.583 96.375 130.998 96.8941 130.998 97.5344Z" fill="#2C394B"/>
<path d="M125.768 97.5344C125.768 98.1747 126.353 98.6937 127.075 98.6937C127.797 98.6937 128.383 98.1747 128.383 97.5344C128.383 96.8941 127.797 96.375 127.075 96.375C126.353 96.375 125.768 96.8941 125.768 97.5344Z" fill="#2C394B"/>
<path d="M120.535 97.5344C120.535 98.1747 121.121 98.6937 121.843 98.6937C122.565 98.6937 123.15 98.1747 123.15 97.5344C123.15 96.8941 122.565 96.375 121.843 96.375C121.121 96.375 120.535 96.8941 120.535 97.5344Z" fill="#2C394B"/>
<path d="M115.305 97.5344C115.305 98.1747 115.89 98.6937 116.612 98.6937C117.334 98.6937 117.92 98.1747 117.92 97.5344C117.92 96.8941 117.334 96.375 116.612 96.375C115.89 96.375 115.305 96.8941 115.305 97.5344Z" fill="#2C394B"/>
<path d="M110.074 97.5344C110.074 98.1747 110.66 98.6937 111.382 98.6937C112.104 98.6937 112.689 98.1747 112.689 97.5344C112.689 96.8941 112.104 96.375 111.382 96.375C110.66 96.375 110.074 96.8941 110.074 97.5344Z" fill="#2C394B"/>
<path d="M104.846 97.5344C104.846 98.1747 105.431 98.6937 106.153 98.6937C106.875 98.6937 107.461 98.1747 107.461 97.5344C107.461 96.8941 106.875 96.375 106.153 96.375C105.431 96.375 104.846 96.8941 104.846 97.5344Z" fill="#2C394B"/>
<path d="M99.6152 97.5344C99.6152 98.1747 100.201 98.6937 100.923 98.6937C101.645 98.6937 102.23 98.1747 102.23 97.5344C102.23 96.8941 101.645 96.375 100.923 96.375C100.201 96.375 99.6152 96.8941 99.6152 97.5344Z" fill="#2C394B"/>
<path d="M94.3847 97.5344C94.3847 98.1747 94.9702 98.6937 95.6924 98.6937C96.4146 98.6937 97 98.1747 97 97.5344C97 96.8941 96.4146 96.375 95.6924 96.375C94.9702 96.375 94.3847 96.8941 94.3847 97.5344Z" fill="#2C394B"/>
<path d="M89.1543 97.5344C89.1543 98.1747 89.7397 98.6937 90.4619 98.6937C91.1841 98.6937 91.7695 98.1747 91.7695 97.5344C91.7695 96.8941 91.1841 96.375 90.4619 96.375C89.7397 96.375 89.1543 96.8941 89.1543 97.5344Z" fill="#2C394B"/>
<path d="M83.9219 97.5344C83.9219 98.1747 84.5073 98.6937 85.2295 98.6937C85.9517 98.6937 86.5371 98.1747 86.5371 97.5344C86.5371 96.8941 85.9517 96.375 85.2295 96.375C84.5073 96.375 83.9219 96.8941 83.9219 97.5344Z" fill="#2C394B"/>
<path d="M78.6914 97.5344C78.6914 98.1747 79.2768 98.6937 79.999 98.6937C80.7212 98.6937 81.3066 98.1747 81.3066 97.5344C81.3066 96.8941 80.7212 96.375 79.999 96.375C79.2768 96.375 78.6914 96.8941 78.6914 97.5344Z" fill="#2C394B"/>
<path d="M73.4609 97.5344C73.4609 98.1747 74.0464 98.6937 74.7685 98.6937C75.4907 98.6937 76.0762 98.1747 76.0762 97.5344C76.0762 96.8941 75.4907 96.375 74.7685 96.375C74.0464 96.375 73.4609 96.8941 73.4609 97.5344Z" fill="#2C394B"/>
<path d="M68.2324 97.5344C68.2324 98.1747 68.8178 98.6937 69.54 98.6937C70.2622 98.6937 70.8477 98.1747 70.8477 97.5344C70.8477 96.8941 70.2622 96.375 69.54 96.375C68.8178 96.375 68.2324 96.8941 68.2324 97.5344Z" fill="#2C394B"/>
<path d="M63.0019 97.5344C63.0019 98.1747 63.5874 98.6937 64.3096 98.6937C65.0317 98.6937 65.6172 98.1747 65.6172 97.5344C65.6172 96.8941 65.0317 96.375 64.3096 96.375C63.5874 96.375 63.0019 96.8941 63.0019 97.5344Z" fill="#2C394B"/>
<path d="M136.228 102.172C136.228 102.812 136.814 103.331 137.536 103.331C138.258 103.331 138.844 102.812 138.844 102.172C138.844 101.531 138.258 101.012 137.536 101.012C136.814 101.012 136.228 101.531 136.228 102.172Z" fill="#2C394B"/>
<path d="M130.998 102.172C130.998 102.812 131.583 103.331 132.306 103.331C133.028 103.331 133.613 102.812 133.613 102.172C133.613 101.531 133.028 101.012 132.306 101.012C131.583 101.012 130.998 101.531 130.998 102.172Z" fill="#2C394B"/>
<path d="M125.768 102.172C125.768 102.812 126.353 103.331 127.075 103.331C127.797 103.331 128.383 102.812 128.383 102.172C128.383 101.531 127.797 101.012 127.075 101.012C126.353 101.012 125.768 101.531 125.768 102.172Z" fill="#2C394B"/>
<path d="M120.535 102.172C120.535 102.812 121.121 103.331 121.843 103.331C122.565 103.331 123.15 102.812 123.15 102.172C123.15 101.531 122.565 101.012 121.843 101.012C121.121 101.012 120.535 101.531 120.535 102.172Z" fill="#2C394B"/>
<path d="M115.305 102.172C115.305 102.812 115.89 103.331 116.612 103.331C117.334 103.331 117.92 102.812 117.92 102.172C117.92 101.531 117.334 101.012 116.612 101.012C115.89 101.012 115.305 101.531 115.305 102.172Z" fill="#2C394B"/>
<path d="M110.074 102.172C110.074 102.812 110.66 103.331 111.382 103.331C112.104 103.331 112.689 102.812 112.689 102.172C112.689 101.531 112.104 101.012 111.382 101.012C110.66 101.012 110.074 101.531 110.074 102.172Z" fill="#2C394B"/>
<path d="M104.846 102.172C104.846 102.812 105.431 103.331 106.153 103.331C106.875 103.331 107.461 102.812 107.461 102.172C107.461 101.531 106.875 101.012 106.153 101.012C105.431 101.012 104.846 101.531 104.846 102.172Z" fill="#2C394B"/>
<path d="M99.6152 102.172C99.6152 102.812 100.201 103.331 100.923 103.331C101.645 103.331 102.23 102.812 102.23 102.172C102.23 101.531 101.645 101.012 100.923 101.012C100.201 101.012 99.6152 101.531 99.6152 102.172Z" fill="#2C394B"/>
<path d="M94.3847 102.172C94.3847 102.812 94.9702 103.331 95.6924 103.331C96.4146 103.331 97 102.812 97 102.172C97 101.531 96.4146 101.012 95.6924 101.012C94.9702 101.012 94.3847 101.531 94.3847 102.172Z" fill="#2C394B"/>
<path d="M89.1543 102.172C89.1543 102.812 89.7397 103.331 90.4619 103.331C91.1841 103.331 91.7695 102.812 91.7695 102.172C91.7695 101.531 91.1841 101.012 90.4619 101.012C89.7397 101.012 89.1543 101.531 89.1543 102.172Z" fill="#2C394B"/>
<path d="M83.9219 102.172C83.9219 102.812 84.5073 103.331 85.2295 103.331C85.9517 103.331 86.5371 102.812 86.5371 102.172C86.5371 101.531 85.9517 101.012 85.2295 101.012C84.5073 101.012 83.9219 101.531 83.9219 102.172Z" fill="#2C394B"/>
<path d="M78.6914 102.172C78.6914 102.812 79.2768 103.331 79.999 103.331C80.7212 103.331 81.3066 102.812 81.3066 102.172C81.3066 101.531 80.7212 101.012 79.999 101.012C79.2768 101.012 78.6914 101.531 78.6914 102.172Z" fill="#2C394B"/>
<path d="M73.4609 102.172C73.4609 102.812 74.0464 103.331 74.7685 103.331C75.4907 103.331 76.0762 102.812 76.0762 102.172C76.0762 101.531 75.4907 101.012 74.7685 101.012C74.0464 101.012 73.4609 101.531 73.4609 102.172Z" fill="#2C394B"/>
<path d="M68.2324 102.172C68.2324 102.812 68.8178 103.331 69.54 103.331C70.2622 103.331 70.8477 102.812 70.8477 102.172C70.8477 101.531 70.2622 101.012 69.54 101.012C68.8178 101.012 68.2324 101.531 68.2324 102.172Z" fill="#2C394B"/>
<path d="M63.0019 102.172C63.0019 102.812 63.5874 103.331 64.3096 103.331C65.0317 103.331 65.6172 102.812 65.6172 102.172C65.6172 101.531 65.0317 101.012 64.3096 101.012C63.5874 101.012 63.0019 101.531 63.0019 102.172Z" fill="#2C394B"/>
<path d="M136.228 106.809C136.228 107.45 136.814 107.969 137.536 107.969C138.258 107.969 138.844 107.45 138.844 106.809C138.844 106.169 138.258 105.65 137.536 105.65C136.814 105.65 136.228 106.169 136.228 106.809Z" fill="#2C394B"/>
<path d="M130.998 106.809C130.998 107.45 131.583 107.969 132.306 107.969C133.028 107.969 133.613 107.45 133.613 106.809C133.613 106.169 133.028 105.65 132.306 105.65C131.583 105.65 130.998 106.169 130.998 106.809Z" fill="#2C394B"/>
<path d="M125.768 106.809C125.768 107.45 126.353 107.969 127.075 107.969C127.797 107.969 128.383 107.45 128.383 106.809C128.383 106.169 127.797 105.65 127.075 105.65C126.353 105.65 125.768 106.169 125.768 106.809Z" fill="#2C394B"/>
<path d="M120.535 106.809C120.535 107.45 121.121 107.969 121.843 107.969C122.565 107.969 123.15 107.45 123.15 106.809C123.15 106.169 122.565 105.65 121.843 105.65C121.121 105.65 120.535 106.169 120.535 106.809Z" fill="#2C394B"/>
<path d="M115.305 106.809C115.305 107.45 115.89 107.969 116.612 107.969C117.334 107.969 117.92 107.45 117.92 106.809C117.92 106.169 117.334 105.65 116.612 105.65C115.89 105.65 115.305 106.169 115.305 106.809Z" fill="#2C394B"/>
<path d="M110.074 106.809C110.074 107.45 110.66 107.969 111.382 107.969C112.104 107.969 112.689 107.45 112.689 106.809C112.689 106.169 112.104 105.65 111.382 105.65C110.66 105.65 110.074 106.169 110.074 106.809Z" fill="#2C394B"/>
<path d="M104.846 106.809C104.846 107.45 105.431 107.969 106.153 107.969C106.875 107.969 107.461 107.45 107.461 106.809C107.461 106.169 106.875 105.65 106.153 105.65C105.431 105.65 104.846 106.169 104.846 106.809Z" fill="#2C394B"/>
<path d="M99.6152 106.809C99.6152 107.45 100.201 107.969 100.923 107.969C101.645 107.969 102.23 107.45 102.23 106.809C102.23 106.169 101.645 105.65 100.923 105.65C100.201 105.65 99.6152 106.169 99.6152 106.809Z" fill="#2C394B"/>
<path d="M94.3847 106.809C94.3847 107.45 94.9702 107.969 95.6924 107.969C96.4146 107.969 97 107.45 97 106.809C97 106.169 96.4146 105.65 95.6924 105.65C94.9702 105.65 94.3847 106.169 94.3847 106.809Z" fill="#2C394B"/>
<path d="M89.1543 106.809C89.1543 107.45 89.7397 107.969 90.4619 107.969C91.1841 107.969 91.7695 107.45 91.7695 106.809C91.7695 106.169 91.1841 105.65 90.4619 105.65C89.7397 105.65 89.1543 106.169 89.1543 106.809Z" fill="#2C394B"/>
<path d="M83.9219 106.809C83.9219 107.45 84.5073 107.969 85.2295 107.969C85.9517 107.969 86.5371 107.45 86.5371 106.809C86.5371 106.169 85.9517 105.65 85.2295 105.65C84.5073 105.65 83.9219 106.169 83.9219 106.809Z" fill="#2C394B"/>
<path d="M78.6914 106.809C78.6914 107.45 79.2768 107.969 79.999 107.969C80.7212 107.969 81.3066 107.45 81.3066 106.809C81.3066 106.169 80.7212 105.65 79.999 105.65C79.2768 105.65 78.6914 106.169 78.6914 106.809Z" fill="#2C394B"/>
<path d="M73.4609 106.809C73.4609 107.45 74.0464 107.969 74.7685 107.969C75.4907 107.969 76.0762 107.45 76.0762 106.809C76.0762 106.169 75.4907 105.65 74.7685 105.65C74.0464 105.65 73.4609 106.169 73.4609 106.809Z" fill="#2C394B"/>
<path d="M68.2324 106.809C68.2324 107.45 68.8178 107.969 69.54 107.969C70.2622 107.969 70.8477 107.45 70.8477 106.809C70.8477 106.169 70.2622 105.65 69.54 105.65C68.8178 105.65 68.2324 106.169 68.2324 106.809Z" fill="#2C394B"/>
<path d="M63.0019 106.809C63.0019 107.45 63.5874 107.969 64.3096 107.969C65.0317 107.969 65.6172 107.45 65.6172 106.809C65.6172 106.169 65.0317 105.65 64.3096 105.65C63.5874 105.65 63.0019 106.169 63.0019 106.809Z" fill="#2C394B"/>
<path d="M136.228 111.446C136.228 112.087 136.814 112.606 137.536 112.606C138.258 112.606 138.844 112.087 138.844 111.446C138.844 110.806 138.258 110.287 137.536 110.287C136.814 110.287 136.228 110.806 136.228 111.446Z" fill="#2C394B"/>
<path d="M130.998 111.446C130.998 112.087 131.583 112.606 132.306 112.606C133.028 112.606 133.613 112.087 133.613 111.446C133.613 110.806 133.028 110.287 132.306 110.287C131.583 110.287 130.998 110.806 130.998 111.446Z" fill="#2C394B"/>
<path d="M125.768 111.446C125.768 112.087 126.353 112.606 127.075 112.606C127.797 112.606 128.383 112.087 128.383 111.446C128.383 110.806 127.797 110.287 127.075 110.287C126.353 110.287 125.768 110.806 125.768 111.446Z" fill="#2C394B"/>
<path d="M120.535 111.446C120.535 112.087 121.121 112.606 121.843 112.606C122.565 112.606 123.15 112.087 123.15 111.446C123.15 110.806 122.565 110.287 121.843 110.287C121.121 110.287 120.535 110.806 120.535 111.446Z" fill="#2C394B"/>
<path d="M115.305 111.446C115.305 112.087 115.89 112.606 116.612 112.606C117.334 112.606 117.92 112.087 117.92 111.446C117.92 110.806 117.334 110.287 116.612 110.287C115.89 110.287 115.305 110.806 115.305 111.446Z" fill="#2C394B"/>
<path d="M110.074 111.446C110.074 112.087 110.66 112.606 111.382 112.606C112.104 112.606 112.689 112.087 112.689 111.446C112.689 110.806 112.104 110.287 111.382 110.287C110.66 110.287 110.074 110.806 110.074 111.446Z" fill="#2C394B"/>
<path d="M104.846 111.446C104.846 112.087 105.431 112.606 106.153 112.606C106.875 112.606 107.461 112.087 107.461 111.446C107.461 110.806 106.875 110.287 106.153 110.287C105.431 110.287 104.846 110.806 104.846 111.446Z" fill="#2C394B"/>
<path d="M99.6152 111.446C99.6152 112.087 100.201 112.606 100.923 112.606C101.645 112.606 102.23 112.087 102.23 111.446C102.23 110.806 101.645 110.287 100.923 110.287C100.201 110.287 99.6152 110.806 99.6152 111.446Z" fill="#2C394B"/>
<path d="M94.3847 111.446C94.3847 112.087 94.9702 112.606 95.6924 112.606C96.4146 112.606 97 112.087 97 111.446C97 110.806 96.4146 110.287 95.6924 110.287C94.9702 110.287 94.3847 110.806 94.3847 111.446Z" fill="#2C394B"/>
<path d="M89.1543 111.446C89.1543 112.087 89.7397 112.606 90.4619 112.606C91.1841 112.606 91.7695 112.087 91.7695 111.446C91.7695 110.806 91.1841 110.287 90.4619 110.287C89.7397 110.287 89.1543 110.806 89.1543 111.446Z" fill="#2C394B"/>
<path d="M83.9219 111.446C83.9219 112.087 84.5073 112.606 85.2295 112.606C85.9517 112.606 86.5371 112.087 86.5371 111.446C86.5371 110.806 85.9517 110.287 85.2295 110.287C84.5073 110.287 83.9219 110.806 83.9219 111.446Z" fill="#2C394B"/>
<path d="M78.6914 111.446C78.6914 112.087 79.2768 112.606 79.999 112.606C80.7212 112.606 81.3066 112.087 81.3066 111.446C81.3066 110.806 80.7212 110.287 79.999 110.287C79.2768 110.287 78.6914 110.806 78.6914 111.446Z" fill="#2C394B"/>
<path d="M73.4609 111.446C73.4609 112.087 74.0464 112.606 74.7685 112.606C75.4907 112.606 76.0762 112.087 76.0762 111.446C76.0762 110.806 75.4907 110.287 74.7685 110.287C74.0464 110.287 73.4609 110.806 73.4609 111.446Z" fill="#2C394B"/>
<path d="M68.2324 111.446C68.2324 112.087 68.8178 112.606 69.54 112.606C70.2622 112.606 70.8477 112.087 70.8477 111.446C70.8477 110.806 70.2622 110.287 69.54 110.287C68.8178 110.287 68.2324 110.806 68.2324 111.446Z" fill="#2C394B"/>
<path d="M63.0019 111.446C63.0019 112.087 63.5874 112.606 64.3096 112.606C65.0317 112.606 65.6172 112.087 65.6172 111.446C65.6172 110.806 65.0317 110.287 64.3096 110.287C63.5874 110.287 63.0019 110.806 63.0019 111.446Z" fill="#2C394B"/>
<path d="M136.228 116.084C136.228 116.724 136.814 117.243 137.536 117.243C138.258 117.243 138.844 116.724 138.844 116.084C138.844 115.444 138.258 114.925 137.536 114.925C136.814 114.925 136.228 115.444 136.228 116.084Z" fill="#2C394B"/>
<path d="M130.998 116.084C130.998 116.724 131.583 117.243 132.306 117.243C133.028 117.243 133.613 116.724 133.613 116.084C133.613 115.444 133.028 114.925 132.306 114.925C131.583 114.925 130.998 115.444 130.998 116.084Z" fill="#2C394B"/>
<path d="M125.768 116.084C125.768 116.724 126.353 117.243 127.075 117.243C127.797 117.243 128.383 116.724 128.383 116.084C128.383 115.444 127.797 114.925 127.075 114.925C126.353 114.925 125.768 115.444 125.768 116.084Z" fill="#2C394B"/>
<path d="M120.535 116.084C120.535 116.724 121.121 117.243 121.843 117.243C122.565 117.243 123.15 116.724 123.15 116.084C123.15 115.444 122.565 114.925 121.843 114.925C121.121 114.925 120.535 115.444 120.535 116.084Z" fill="#2C394B"/>
<path d="M115.305 116.084C115.305 116.724 115.89 117.243 116.612 117.243C117.334 117.243 117.92 116.724 117.92 116.084C117.92 115.444 117.334 114.925 116.612 114.925C115.89 114.925 115.305 115.444 115.305 116.084Z" fill="#2C394B"/>
<path d="M110.074 116.084C110.074 116.724 110.66 117.243 111.382 117.243C112.104 117.243 112.689 116.724 112.689 116.084C112.689 115.444 112.104 114.925 111.382 114.925C110.66 114.925 110.074 115.444 110.074 116.084Z" fill="#2C394B"/>
<path d="M104.846 116.084C104.846 116.724 105.431 117.243 106.153 117.243C106.875 117.243 107.461 116.724 107.461 116.084C107.461 115.444 106.875 114.925 106.153 114.925C105.431 114.925 104.846 115.444 104.846 116.084Z" fill="#2C394B"/>
<path d="M99.6152 116.084C99.6152 116.724 100.201 117.243 100.923 117.243C101.645 117.243 102.23 116.724 102.23 116.084C102.23 115.444 101.645 114.925 100.923 114.925C100.201 114.925 99.6152 115.444 99.6152 116.084Z" fill="#2C394B"/>
<path d="M94.3848 116.084C94.3848 116.724 94.9702 117.243 95.6924 117.243C96.4146 117.243 97 116.724 97 116.084C97 115.444 96.4146 114.925 95.6924 114.925C94.9702 114.925 94.3848 115.444 94.3848 116.084Z" fill="#2C394B"/>
<path d="M89.1543 116.084C89.1543 116.724 89.7397 117.243 90.4619 117.243C91.1841 117.243 91.7695 116.724 91.7695 116.084C91.7695 115.444 91.1841 114.925 90.4619 114.925C89.7397 114.925 89.1543 115.444 89.1543 116.084Z" fill="#2C394B"/>
<path d="M83.9219 116.084C83.9219 116.724 84.5073 117.243 85.2295 117.243C85.9517 117.243 86.5371 116.724 86.5371 116.084C86.5371 115.444 85.9517 114.925 85.2295 114.925C84.5073 114.925 83.9219 115.444 83.9219 116.084Z" fill="#2C394B"/>
<path d="M78.6914 116.084C78.6914 116.724 79.2768 117.243 79.999 117.243C80.7212 117.243 81.3066 116.724 81.3066 116.084C81.3066 115.444 80.7212 114.925 79.999 114.925C79.2768 114.925 78.6914 115.444 78.6914 116.084Z" fill="#2C394B"/>
<path d="M73.4609 116.084C73.4609 116.724 74.0464 117.243 74.7685 117.243C75.4907 117.243 76.0762 116.724 76.0762 116.084C76.0762 115.444 75.4907 114.925 74.7685 114.925C74.0464 114.925 73.4609 115.444 73.4609 116.084Z" fill="#2C394B"/>
<path d="M68.2324 116.084C68.2324 116.724 68.8178 117.243 69.54 117.243C70.2622 117.243 70.8477 116.724 70.8477 116.084C70.8477 115.444 70.2622 114.925 69.54 114.925C68.8178 114.925 68.2324 115.444 68.2324 116.084Z" fill="#2C394B"/>
</g>
<path d="M111.927 19.4821C112.708 13.8817 117.499 9.71338 123.156 9.71338H153.17C160.053 9.71338 165.348 15.7946 164.398 22.6092L152.441 108.411C151.66 114.011 146.869 118.18 141.212 118.18H111.199C104.315 118.18 99.0201 112.098 99.9698 105.284L111.927 19.4821Z" fill="#2C394B"/>
<path d="M107.068 19.4821C107.849 13.8817 112.64 9.71338 118.297 9.71338H148.31C155.193 9.71338 160.489 15.7946 159.539 22.6092L147.581 108.411C146.801 114.011 142.01 118.18 136.353 118.18H106.339C99.4559 118.18 94.1608 112.098 95.1105 105.284L107.068 19.4821Z" fill="#E2EEFF"/>
<line x1="108.389" y1="111.204" x2="131.683" y2="111.204" stroke="#2C394B" stroke-linecap="round"/>
<path fill-rule="evenodd" clip-rule="evenodd" d="M142.295 88.23H133.939V86.6111H140.923L142.205 78.9232L143.803 79.1893L142.295 88.23Z" fill="#2C394B"/>
<path fill-rule="evenodd" clip-rule="evenodd" d="M110.939 36.4253H119.296V38.0442H112.311L111.029 45.7321L109.432 45.466L110.939 36.4253Z" fill="#2C394B"/>
<path fill-rule="evenodd" clip-rule="evenodd" d="M149.539 36.4253H140.913V38.0442H147.627L146.39 45.466L147.987 45.7321L149.539 36.4253Z" fill="#2C394B"/>
<path fill-rule="evenodd" clip-rule="evenodd" d="M103.695 88.23H112.322V86.6111H105.607L106.845 79.1893L105.247 78.9232L103.695 88.23Z" fill="#2C394B"/>
<path fill-rule="evenodd" clip-rule="evenodd" d="M148.31 11.3323H118.297C113.448 11.3323 109.341 14.9051 108.672 19.7055L96.7146 105.507C95.9005 111.348 100.439 116.561 106.339 116.561H136.353C141.201 116.561 145.308 112.988 145.977 108.187L157.935 22.3858C158.749 16.5448 154.21 11.3323 148.31 11.3323ZM118.297 9.71338C112.64 9.71338 107.849 13.8817 107.068 19.4821L95.1105 105.284C94.1608 112.098 99.4559 118.18 106.339 118.18H136.353C142.01 118.18 146.801 114.011 147.581 108.411L159.539 22.6092C160.489 15.7946 155.193 9.71338 148.31 9.71338H118.297Z" fill="#2C394B"/>
<path d="M122.467 11.3325H146.761L145.879 13.9753C145.438 15.2974 144.201 16.1892 142.806 16.1892H126.421C125.027 16.1892 123.789 15.2974 123.348 13.9753L122.467 11.3325Z" fill="#2C394B"/>
<path d="M111 50H147L143 74H107L111 50Z" fill="#F6E049"/>
<path fill-rule="evenodd" clip-rule="evenodd" d="M111.424 50.5L107.59 73.5H142.576L146.41 50.5H111.424ZM111 50L107 74H143L147 50H111Z" fill="#2C394B"/>
<path d="M127 62L107 74H143L127 62Z" fill="#E4D041"/>
<path fill-rule="evenodd" clip-rule="evenodd" d="M107 74H143L127 62L107 74ZM108.805 73.5H141.5L126.969 62.6017L108.805 73.5Z" fill="#2C394B"/>
<path d="M127 62.5L111 50H147L127 62.5Z" fill="#FFEC6B"/>
<path fill-rule="evenodd" clip-rule="evenodd" d="M127.032 61.8904L145.257 50.5H112.452L127.032 61.8904ZM127 62.5L147 50H111L127 62.5Z" fill="#2C394B"/>
<path fill-rule="evenodd" clip-rule="evenodd" d="M2.95508 117.441C2.95508 117.033 3.31835 116.702 3.76646 116.702H167.666C168.114 116.702 168.477 117.033 168.477 117.441C168.477 117.849 168.114 118.179 167.666 118.179H3.76646C3.31835 118.179 2.95508 117.849 2.95508 117.441Z" fill="#2C394B"/>
<g clip-path="url(#clip2_309_3205)">
<path d="M3.52657 70.9861C3.32734 70.9388 3.17301 70.7719 3.14775 70.5605C3.10285 70.1738 3.06918 69.7788 3.04392 69.3866C3.02709 69.114 3.23474 68.8775 3.50974 68.8608C3.78474 68.8441 4.02326 69.05 4.04009 69.3226C4.06535 69.6981 4.09902 70.0792 4.14111 70.4492C4.17198 70.7218 3.97555 70.9666 3.70055 70.9972C3.64163 71.0028 3.5827 70.9972 3.52657 70.9861Z" fill="#2C394B"/>
<path d="M3.38109 67.5034C3.1566 67.4505 2.99385 67.2474 3.00227 67.0082C3.02191 66.2265 3.07803 65.4281 3.16783 64.6381C3.19869 64.3655 3.44563 64.1708 3.72063 64.2014C3.99282 64.232 4.19205 64.4768 4.16119 64.7494C4.0742 65.5116 4.02088 66.2794 4.00124 67.0332C3.99282 67.3059 3.76553 67.5228 3.48772 67.5145C3.45124 67.5145 3.41476 67.5089 3.38109 67.5006V67.5034ZM3.90583 62.8717C3.64767 62.8105 3.48211 62.5545 3.53543 62.2958C3.61961 61.8702 3.71782 61.439 3.82165 61.0134C3.90583 60.6713 3.99563 60.3291 4.09384 59.9897C4.16961 59.7254 4.43338 59.5697 4.71118 59.6475C4.97776 59.7227 5.1321 59.9953 5.05634 60.2595C4.96373 60.5878 4.87394 60.9188 4.79256 61.2499C4.69154 61.6616 4.59894 62.0761 4.51756 62.4878C4.46425 62.7548 4.20047 62.9301 3.93109 62.8772C3.92267 62.8772 3.91706 62.8744 3.90864 62.8717H3.90583ZM5.18261 58.3846C5.16297 58.379 5.14613 58.3735 5.12929 58.3679C4.87113 58.2733 4.73644 57.9896 4.83185 57.7337C5.10404 56.9965 5.41271 56.2593 5.74383 55.5416C5.85888 55.294 6.15352 55.1827 6.40607 55.2968C6.65582 55.4108 6.76806 55.7029 6.65301 55.9533C6.33311 56.6488 6.03567 57.3637 5.77189 58.0758C5.6821 58.3151 5.42955 58.4458 5.18542 58.3846H5.18261ZM7.13847 54.1423C7.09638 54.1312 7.05428 54.1173 7.015 54.095C6.77367 53.9615 6.68668 53.6611 6.81857 53.4219C7.20301 52.732 7.61831 52.0504 8.05326 51.3911C8.20479 51.163 8.51346 51.099 8.74356 51.2493C8.97366 51.3995 9.0382 51.7055 8.88667 51.9336C8.46576 52.5706 8.06448 53.2327 7.69127 53.9003C7.57903 54.1006 7.34893 54.1952 7.13566 54.1423H7.13847ZM9.71728 50.2422C9.65274 50.2256 9.5882 50.1977 9.53208 50.1532C9.3132 49.9863 9.27391 49.6748 9.44228 49.4578C9.93054 48.8319 10.4469 48.2199 10.9772 47.6385C11.1624 47.4354 11.4795 47.4215 11.6816 47.6051C11.8864 47.7887 11.9004 48.103 11.7152 48.3033C11.2017 48.8652 10.7022 49.4578 10.2308 50.0614C10.1073 50.2228 9.90248 50.284 9.71728 50.2395V50.2422ZM31.0549 53.4747C30.9511 53.4358 30.8388 53.4191 30.7322 53.3885C30.6761 53.3718 30.62 53.3551 30.5639 53.3384C30.3001 53.2577 30.1542 52.9795 30.2355 52.7181C30.3197 52.4566 30.6031 52.3147 30.8613 52.3926L31.01 52.4371C31.1026 52.4649 31.1868 52.4872 31.2906 52.5122C31.8519 52.6485 32.4327 52.7097 33.0192 52.6958C33.2942 52.6902 33.5243 52.9044 33.5299 53.1798C33.5355 53.4525 33.3194 53.6806 33.0416 53.6861C32.3682 53.7028 31.6975 53.6305 31.0521 53.4747H31.0549ZM28.4929 52.3203C28.434 52.3063 28.3751 52.2785 28.3218 52.2424C27.6427 51.7611 27.0478 51.1714 26.5511 50.4843C26.3912 50.2617 26.4417 49.9529 26.6662 49.7944C26.8907 49.6358 27.2021 49.6859 27.3621 49.9084C27.7942 50.5065 28.3105 51.0184 28.8998 51.4356C29.1243 51.5942 29.1776 51.903 29.0149 52.1255C28.8914 52.2952 28.681 52.3648 28.4901 52.3203H28.4929ZM35.2164 53.2438C35.0592 53.2049 34.9245 53.0936 34.8656 52.9323C34.7702 52.6763 34.9049 52.3898 35.1631 52.298C35.8618 52.0476 36.496 51.6888 37.0544 51.2353C37.2676 51.0629 37.5819 51.0935 37.7587 51.3021C37.9327 51.5135 37.9046 51.8251 37.6914 52.0003C37.046 52.5261 36.3108 52.9406 35.5082 53.2299C35.4128 53.2633 35.3118 53.2689 35.2192 53.2466L35.2164 53.2438ZM12.877 46.79C12.7872 46.7678 12.7002 46.7205 12.63 46.6481C12.442 46.4479 12.4532 46.1363 12.6525 45.9471C13.2389 45.4047 13.8507 44.8845 14.4708 44.4004C14.6869 44.2308 15.0012 44.2697 15.1724 44.4839C15.3435 44.6981 15.3042 45.0097 15.0882 45.1794C14.4905 45.6467 13.8984 46.1474 13.3344 46.6704C13.2053 46.79 13.0313 46.829 12.8741 46.79H12.877ZM25.771 48.6065C25.6111 48.5676 25.4736 48.4508 25.4174 48.2866C25.1565 47.5355 24.9853 46.7316 24.9039 45.8943C24.8787 45.6217 25.0807 45.3796 25.3557 45.3546C25.6307 45.3296 25.8748 45.5299 25.9001 45.8025C25.9731 46.5619 26.1274 47.288 26.3631 47.9639C26.4529 48.2227 26.3154 48.5036 26.0544 48.5926C25.9618 48.626 25.8636 48.626 25.7738 48.6065H25.771ZM38.7605 50.3229C38.7156 50.3118 38.6735 50.2951 38.6314 50.2728C38.3929 50.1365 38.3087 49.8361 38.4462 49.5969C38.4855 49.5273 38.5248 49.455 38.5641 49.3827C38.8026 48.9209 38.9822 48.4535 39.0944 47.9973C39.1281 47.8555 39.1562 47.7191 39.1786 47.5801C39.2235 47.3102 39.4789 47.1266 39.751 47.1711C40.0232 47.2129 40.2084 47.4688 40.1635 47.7386C40.1383 47.9027 40.1046 48.0669 40.0625 48.2338C39.9306 48.7651 39.7258 49.3048 39.4508 49.8361C39.4059 49.9223 39.361 50.0058 39.3133 50.0892C39.201 50.2868 38.9709 50.3758 38.7605 50.3257V50.3229ZM16.5754 43.9108C16.4575 43.883 16.3481 43.8107 16.2752 43.6994C16.1236 43.4713 16.191 43.1625 16.4211 43.0151C17.0945 42.5811 17.7933 42.1778 18.4948 41.8134C18.7389 41.6882 19.042 41.78 19.1682 42.0248C19.2945 42.2668 19.2019 42.5672 18.955 42.6924C18.2815 43.0401 17.6137 43.4268 16.9655 43.8441C16.8448 43.922 16.7045 43.9414 16.5754 43.9108ZM25.3108 43.9971C25.0695 43.9387 24.9039 43.7106 24.9348 43.4602C24.9937 42.9595 25.0835 42.4587 25.2042 41.9691C25.2771 41.6715 25.3641 41.3738 25.4595 41.0845C25.5465 40.8258 25.8243 40.6867 26.0909 40.7674C26.3519 40.8536 26.495 41.1318 26.4108 41.3933C26.3238 41.6576 26.2453 41.9302 26.1779 42.2028C26.0685 42.6507 25.9843 43.1125 25.931 43.5715C25.9001 43.8441 25.6504 44.0388 25.3782 44.0054C25.3557 44.0054 25.3361 43.9999 25.3164 43.9943L25.3108 43.9971ZM20.7425 41.7577C20.5909 41.7216 20.4591 41.6159 20.3973 41.4601C20.2935 41.2069 20.4198 40.9176 20.6751 40.8175C21.4216 40.5226 22.1876 40.2611 22.9509 40.0469C23.2175 39.9718 23.4925 40.1248 23.5682 40.3891C23.644 40.6533 23.4897 40.926 23.2231 41.0011C22.4935 41.2069 21.7611 41.4545 21.0455 41.7383C20.9445 41.7772 20.8379 41.7828 20.7425 41.7605V41.7577ZM39.4171 45.8275C39.2488 45.7858 39.1056 45.6606 39.0551 45.4826C38.8643 44.8261 38.5304 44.1918 38.0562 43.6021C37.885 43.3879 37.9215 43.0763 38.1375 42.9066C38.3536 42.7369 38.6679 42.7731 38.8391 42.9873C39.3919 43.68 39.7875 44.4283 40.012 45.21C40.0878 45.4742 39.9362 45.7468 39.6697 45.8219C39.5827 45.847 39.4957 45.847 39.4143 45.8275H39.4171ZM25.2631 40.4892C25.0751 40.4447 24.9236 40.2917 24.8899 40.0914C24.8422 39.8216 25.0274 39.5657 25.2996 39.5212C25.6784 39.4572 26.0629 39.4015 26.4445 39.357C26.3603 39.2152 26.3491 39.0343 26.4305 38.8758C26.7981 38.1692 27.2049 37.4765 27.6371 36.82C27.7886 36.5919 28.0973 36.5251 28.3274 36.6754C28.5575 36.8256 28.6248 37.1316 28.4733 37.3597C28.072 37.9717 27.6932 38.6143 27.348 39.268C27.4603 39.2597 27.5725 39.2513 27.6876 39.2458C27.9626 39.2291 28.1983 39.4377 28.2151 39.7103C28.232 39.9829 28.0215 40.2166 27.7465 40.2333C26.9861 40.2778 26.2172 40.3668 25.4652 40.4948C25.395 40.5059 25.3277 40.5031 25.2631 40.4892ZM36.6166 42.1889C36.5577 42.175 36.5016 42.15 36.4483 42.1138C35.8534 41.6965 35.1911 41.3432 34.484 41.0595C34.2286 40.9566 34.1052 40.6673 34.209 40.4141C34.3128 40.161 34.6018 40.0358 34.86 40.1415C35.6401 40.4531 36.3697 40.8453 37.0263 41.3043C37.2508 41.4629 37.3069 41.7716 37.147 41.9942C37.0263 42.1667 36.813 42.2362 36.6194 42.1889H36.6166ZM29.9493 40.2083C29.722 40.1526 29.5565 39.944 29.5705 39.702C29.5845 39.4294 29.8174 39.2179 30.0924 39.2318C30.8304 39.268 31.5797 39.3403 32.3177 39.4488L32.486 39.4739C32.761 39.5184 32.9434 39.7715 32.8985 40.0413C32.8536 40.3112 32.5983 40.4948 32.3261 40.4503L32.1717 40.4252C31.4646 40.3223 30.7491 40.2528 30.0419 40.2166C30.0082 40.2166 29.9774 40.211 29.9465 40.2027L29.9493 40.2083ZM29.3207 35.685C29.2506 35.6683 29.1832 35.635 29.1243 35.5877C28.9111 35.4152 28.8774 35.1036 29.0514 34.8922C29.5508 34.2802 30.0924 33.6821 30.6565 33.1202C30.8501 32.9255 31.1672 32.9255 31.3636 33.1202C31.56 33.3122 31.56 33.6265 31.3636 33.8212C30.822 34.3581 30.3057 34.9284 29.8258 35.5153C29.6996 35.6683 29.5003 35.7295 29.3179 35.685H29.3207ZM32.6348 32.3858C32.5337 32.3608 32.4383 32.3051 32.3682 32.2189C32.1942 32.0075 32.2251 31.6959 32.4383 31.5207C33.0501 31.0255 33.6983 30.547 34.3689 30.1047C34.599 29.9517 34.9077 30.0129 35.062 30.241C35.2164 30.4691 35.1546 30.7751 34.9245 30.9281C34.2819 31.3538 33.659 31.81 33.0725 32.2857C32.9462 32.3886 32.7835 32.4192 32.6376 32.383L32.6348 32.3858ZM36.5381 29.7932C36.4062 29.7626 36.2883 29.6763 36.2182 29.5484C36.0863 29.3091 36.1761 29.0087 36.4174 28.8779C37.1077 28.5052 37.8289 28.1547 38.5669 27.8348C38.8194 27.7263 39.1141 27.8403 39.2263 28.0907C39.3357 28.3411 39.2207 28.6331 38.9681 28.7444C38.2554 29.0532 37.5567 29.3926 36.8944 29.7514C36.7822 29.8126 36.6531 29.8265 36.5381 29.7987V29.7932ZM40.8398 27.9182C40.6799 27.8793 40.5452 27.7652 40.4862 27.6011C40.3965 27.3424 40.534 27.0614 40.7949 26.9696C41.5357 26.7137 42.3018 26.48 43.0791 26.2742C43.3457 26.2046 43.6207 26.3604 43.6908 26.6247C43.761 26.889 43.6038 27.1616 43.3372 27.2311C42.5852 27.4314 41.8416 27.6595 41.1232 27.9043C41.0278 27.9377 40.9324 27.9405 40.8398 27.9182ZM45.3801 26.7054C45.1977 26.6608 45.0462 26.5162 45.0097 26.3215C44.9564 26.0544 45.1332 25.7929 45.4025 25.7401C46.1714 25.5898 46.9627 25.4591 47.7541 25.3534C48.0263 25.3172 48.2788 25.5064 48.3153 25.779C48.3518 26.0488 48.1609 26.2992 47.886 26.3354C47.1143 26.4383 46.3426 26.5635 45.5962 26.7109C45.5232 26.7248 45.4502 26.722 45.3801 26.7054ZM78.9439 33.9993C78.8822 33.9853 78.8205 33.9575 78.7672 33.9158C78.1442 33.4624 77.5016 33.0201 76.8562 32.6056C76.6261 32.4554 76.5588 32.1494 76.7103 31.9212C76.8618 31.6931 77.1705 31.6264 77.4006 31.7766C78.0628 32.2022 78.7223 32.6556 79.3592 33.1202C79.5809 33.2816 79.6286 33.5931 79.4659 33.8129C79.3424 33.9798 79.1348 34.0465 78.9439 33.9993ZM50.0438 26.0878C49.839 26.0377 49.6819 25.8625 49.665 25.6427C49.6454 25.3701 49.8502 25.1336 50.1252 25.1114C50.9053 25.053 51.7079 25.014 52.5048 25.0001C52.7798 24.9945 53.0099 25.2115 53.0155 25.4841C53.0211 25.7568 52.8022 25.9849 52.5273 25.9904C51.7472 26.0071 50.9671 26.0433 50.2038 26.0989C50.1505 26.1017 50.0972 26.0989 50.0467 26.085L50.0438 26.0878ZM75.0014 31.465C74.9565 31.4539 74.9144 31.4372 74.8723 31.415C74.2044 31.0366 73.5141 30.675 72.8182 30.3356C72.5713 30.2132 72.4703 29.9183 72.5909 29.6735C72.7144 29.4287 73.0118 29.3286 73.2588 29.4482C73.9687 29.7959 74.6787 30.1687 75.3633 30.5554C75.6019 30.6917 75.6861 30.9921 75.5514 31.2314C75.4391 31.4289 75.209 31.5179 74.9986 31.4678L75.0014 31.465ZM54.7497 25.9904C54.5252 25.9348 54.3624 25.7317 54.3709 25.4925C54.3793 25.2199 54.6094 25.0057 54.8872 25.014C55.6757 25.039 56.4726 25.0863 57.264 25.1503C57.539 25.1754 57.7438 25.4118 57.7214 25.6844C57.6989 25.957 57.4576 26.1601 57.1826 26.1379C56.4081 26.0739 55.628 26.0294 54.8563 26.0043C54.8198 26.0043 54.7862 25.9988 54.7525 25.9904H54.7497ZM70.781 29.3954C70.7557 29.3898 70.7305 29.3815 70.7052 29.3703C69.9953 29.0727 69.2685 28.7917 68.5389 28.533C68.2779 28.4412 68.1432 28.1575 68.2358 27.9015C68.3284 27.6428 68.6147 27.5121 68.8728 27.6011C69.6192 27.8654 70.3657 28.1547 71.0925 28.4579C71.3478 28.5636 71.4657 28.8557 71.359 29.1061C71.2636 29.3342 71.0139 29.451 70.781 29.3954ZM59.4415 26.3771C59.1974 26.3187 59.0318 26.085 59.0655 25.8291C59.102 25.5592 59.3545 25.3673 59.6267 25.4035C60.4068 25.5064 61.1981 25.6316 61.9754 25.7762C62.2476 25.8291 62.4272 26.085 62.3767 26.3521C62.3262 26.6219 62.0652 26.7999 61.7958 26.7499C61.0326 26.6108 60.2609 26.4884 59.4948 26.3854C59.478 26.3854 59.4583 26.3799 59.4415 26.3743V26.3771ZM66.3473 27.8264C66.3473 27.8264 66.3333 27.8236 66.3249 27.8209L65.9657 27.7179C65.4325 27.5677 64.8882 27.4258 64.3466 27.2951L64.0744 27.2311C63.7966 27.1616 63.6394 26.9001 63.704 26.6358C63.7685 26.3688 64.0379 26.2046 64.3045 26.2686L64.5823 26.3354C65.1351 26.4689 65.6935 26.6163 66.2379 26.7693L66.6055 26.875C66.8693 26.9529 67.0208 27.2283 66.945 27.4898C66.8693 27.7458 66.6055 27.8932 66.3473 27.832V27.8264Z" fill="#2C394B"/>
<path d="M81.7334 36.2305C81.6576 36.211 81.5846 36.1748 81.5229 36.122C81.2339 35.8688 80.942 35.624 80.6474 35.3792C80.4341 35.204 80.4061 34.8924 80.5829 34.681C80.7596 34.4696 81.0739 34.4417 81.2872 34.617C81.5874 34.8646 81.8877 35.1177 82.1823 35.3764C82.39 35.5573 82.4096 35.8688 82.2272 36.0747C82.101 36.2193 81.9073 36.2722 81.7334 36.2277V36.2305Z" fill="#2C394B"/>
<path d="M79.8093 32.9947L79.248 30.4883L96.0005 38.0743L79.8093 32.9947Z" fill="#2C394B"/>
<path d="M78.5234 36.6973L79.3737 39.4513L95.9999 38.0743L78.5234 36.6973Z" fill="#2C394B"/>
<path d="M79.248 30.4886L82.795 27.5732L96.0005 38.0746L79.248 30.4886Z" fill="#74B9FF"/>
<path d="M76.8434 31.874L96.0007 38.0747L71.4023 36.1858L76.8434 31.874Z" fill="#74B9FF"/>
</g>
<g clip-path="url(#clip3_309_3205)">
<path d="M25.4906 101.885C25.415 101.809 25.2924 101.809 25.2168 101.885L24.7098 102.392C24.6342 102.467 24.6342 102.59 24.7098 102.666C24.7848 102.741 24.9075 102.742 24.9835 102.666L25.4906 102.159C25.5662 102.083 25.5662 101.96 25.4906 101.885ZM24.1151 100.509C24.0396 100.434 23.9171 100.434 23.8415 100.509L23.3344 101.016C23.2588 101.092 23.2588 101.215 23.3344 101.29C23.4099 101.366 23.5322 101.366 23.608 101.29L24.1151 100.783C24.1907 100.708 24.1907 100.585 24.1151 100.509ZM25.0321 100.968C24.9565 100.892 24.834 100.892 24.7584 100.968L23.4732 102.253C23.3976 102.329 23.3976 102.451 23.4732 102.527C23.5488 102.602 23.6711 102.602 23.747 102.527L25.0321 101.242C25.1077 101.166 25.1077 101.043 25.0321 100.968ZM28.9901 97.2539L27.1561 102.867C27.1042 103.025 26.8889 103.048 26.8048 102.904L25.5714 100.783C25.5324 100.716 25.5372 100.632 25.5832 100.57L26.0261 99.9739L25.4299 100.417C25.3677 100.463 25.2841 100.468 25.2172 100.429L23.0961 99.1952C22.9522 99.1115 22.9743 98.8959 23.1332 98.8439L28.746 97.0098C28.896 96.9609 29.0393 97.1033 28.9901 97.2539Z" fill="#2C394B"/>
</g>
<path fill-rule="evenodd" clip-rule="evenodd" d="M52.5 68.5C53.6046 68.5 54.5 67.6046 54.5 66.5C54.5 65.3954 53.6046 64.5 52.5 64.5C51.3954 64.5 50.5 65.3954 50.5 66.5C50.5 67.6046 51.3954 68.5 52.5 68.5ZM52.5 69C53.8807 69 55 67.8807 55 66.5C55 65.1193 53.8807 64 52.5 64C51.1193 64 50 65.1193 50 66.5C50 67.8807 51.1193 69 52.5 69Z" fill="#2C394B"/>
<path fill-rule="evenodd" clip-rule="evenodd" d="M6.5 25.5C7.05228 25.5 7.5 25.0523 7.5 24.5C7.5 23.9477 7.05228 23.5 6.5 23.5C5.94772 23.5 5.5 23.9477 5.5 24.5C5.5 25.0523 5.94772 25.5 6.5 25.5ZM6.5 26C7.32843 26 8 25.3284 8 24.5C8 23.6716 7.32843 23 6.5 23C5.67157 23 5 23.6716 5 24.5C5 25.3284 5.67157 26 6.5 26Z" fill="#2C394B"/>
<g clip-path="url(#clip4_309_3205)">
<path d="M49.4052 9.80599C49.3105 9.85562 49.2739 9.97259 49.3236 10.0673L49.6565 10.7025C49.706 10.7971 49.8231 10.8337 49.9177 10.784C50.012 10.7348 50.0492 10.6179 49.9993 10.5227L49.6664 9.88754C49.6167 9.79283 49.4998 9.75631 49.4052 9.80599ZM47.6822 10.709C47.5875 10.7586 47.551 10.8755 47.6007 10.9702L47.9336 11.6054C47.9832 11.7001 48.1002 11.7366 48.1949 11.687C48.2894 11.6374 48.3262 11.5207 48.2764 11.4258L47.9435 10.7906C47.8939 10.6959 47.7769 10.6594 47.6822 10.709ZM48.3932 9.9703C48.2985 10.0199 48.2621 10.1369 48.3116 10.2316L49.1553 11.8414C49.2049 11.9361 49.3219 11.9726 49.4166 11.923C49.5111 11.8733 49.5478 11.7566 49.4982 11.6616L48.6545 10.0519C48.6048 9.95719 48.4879 9.92067 48.3932 9.9703ZM46.0277 5.0853L50.8388 8.50884C50.9746 8.60555 50.9325 8.81795 50.7695 8.85523L48.3772 9.40038C48.3018 9.41763 48.2234 9.38821 48.1778 9.32569L47.7406 8.72526L47.9856 9.42639C48.0111 9.49948 47.9907 9.58067 47.9336 9.63292L46.1241 11.2901C46.0013 11.4025 45.8021 11.3171 45.7998 11.1499L45.7219 5.24556C45.7199 5.08777 45.8985 4.99346 46.0277 5.0853Z" fill="#2C394B"/>
</g>
</g>
<defs>
<clipPath id="clip0_309_3205">
<rect width="167" height="123" fill="white"/>
</clipPath>
<clipPath id="clip1_309_3205">
<rect width="74" height="67" fill="white" transform="matrix(-1 0 0 1 137 50)"/>
</clipPath>
<clipPath id="clip2_309_3205">
<rect width="93" height="46" fill="white" transform="translate(3 25)"/>
</clipPath>
<clipPath id="clip3_309_3205">
<rect width="6" height="6" fill="white" transform="translate(23 97)"/>
</clipPath>
<clipPath id="clip4_309_3205">
<rect width="6" height="6" fill="white" transform="translate(44 10.7275) rotate(-72.6605)"/>
</clipPath>
</defs>
</svg>
