<svg width="113" height="84" viewBox="0 0 113 84" fill="none" xmlns="http://www.w3.org/2000/svg">
<path d="M64.7402 72.1632L109.572 63.3352V27.3979H64.7402V72.1632Z" fill="#E2EEFF"/>
<path d="M64.7402 72.1632L109.572 63.3352V27.3979H64.7402V72.1632Z" fill="white"/>
<path d="M64.7422 72.567C64.6541 72.567 64.558 72.535 64.4859 72.4788C64.3898 72.4067 64.3418 72.2864 64.3418 72.1661V27.4009C64.3418 27.1764 64.518 27 64.7422 27H109.574C109.798 27 109.974 27.1764 109.974 27.4009V63.3382C109.974 63.5306 109.838 63.691 109.654 63.7311L64.8222 72.559C64.7982 72.559 64.7662 72.567 64.7422 72.567ZM65.1425 27.8018V71.677L109.173 63.0094V27.8018H65.1425Z" fill="#2C394B"/>
<path d="M52.1709 78.073H76.5925L80.0115 76.9505L82.2535 69.2932H103.632L97.6911 54.3393C97.6911 50.4906 94.5763 47.3716 90.7329 47.3716H52.1709V78.073Z" fill="#E2EEFF"/>
<path d="M52.1709 78.073H76.5925L80.0115 76.9505L82.2535 69.2932H103.632L97.6911 54.3393C97.6911 50.4906 94.5763 47.3716 90.7329 47.3716H52.1709V78.073Z" fill="#E2EEFF"/>
<path d="M76.5973 78.4769H52.1757C51.9515 78.4769 51.7754 78.3005 51.7754 78.076V47.3745C51.7754 47.15 51.9515 46.9736 52.1757 46.9736H90.7378C94.7653 46.9736 98.0482 50.237 98.0883 54.2621L104.006 69.1438C104.054 69.264 104.038 69.4084 103.965 69.5206C103.893 69.6329 103.765 69.697 103.637 69.697H82.5546L80.4007 77.0657C80.3606 77.194 80.2645 77.2902 80.1444 77.3303L76.7254 78.4528C76.6774 78.4689 76.6373 78.4769 76.5973 78.4769ZM52.5761 77.6751H76.5332L79.688 76.6407L81.874 69.1839C81.922 69.0155 82.0821 68.8952 82.2583 68.8952H103.045L97.3196 54.4946C97.3036 54.4465 97.2876 54.3984 97.2876 54.3503C97.2876 50.7341 94.349 47.7835 90.7298 47.7835H52.5761V77.6751Z" fill="#2C394B"/>
<path d="M83.9897 47.3774H45.9882C41.8405 47.3774 38.4775 50.7451 38.4775 54.8984V81.7031H48.038L51.1447 78.0789H76.5912" fill="#E2EEFF"/>
<path d="M83.9897 47.3774H45.9882C41.8405 47.3774 38.4775 50.7451 38.4775 54.8984V81.7031H48.038L51.1447 78.0789H76.5912" fill="#E2EEFF"/>
<path d="M48.0418 82.1018H38.4814C38.2572 82.1018 38.0811 81.9254 38.0811 81.7009V54.9043C38.0811 50.5345 41.6282 46.9824 45.992 46.9824H83.9936C84.2178 46.9824 84.3939 47.1588 84.3939 47.3833C84.3939 47.6078 84.2178 47.7842 83.9936 47.7842H45.992C42.0686 47.7842 38.8818 50.9755 38.8818 54.9043V81.308H47.8577L50.8443 77.8202C50.9164 77.732 51.0285 77.6838 51.1486 77.6838H76.5951C76.8192 77.6838 76.9954 77.8602 76.9954 78.0848C76.9954 78.3093 76.8192 78.4857 76.5951 78.4857H51.3247L48.3461 81.9655C48.266 82.0537 48.1539 82.1018 48.0418 82.1018Z" fill="#2C394B"/>
<path d="M83.9902 71.1964C83.766 71.1964 83.5898 71.02 83.5898 70.7955V54.23C83.5898 50.229 86.8407 46.9736 90.8362 46.9736C94.8318 46.9736 98.0826 50.229 98.0826 54.23V64.8701C98.0826 65.0946 97.9065 65.271 97.6823 65.271C97.4581 65.271 97.2819 65.0946 97.2819 64.8701V54.23C97.2819 50.67 94.3914 47.7754 90.8362 47.7754C87.2811 47.7754 84.3906 50.67 84.3906 54.23V70.7955C84.3906 71.02 84.2144 71.1964 83.9902 71.1964Z" fill="#2C394B"/>
<path d="M109.573 44.9736V63.3352C109.573 66.6226 106.915 69.2846 103.632 69.2846C100.349 69.2846 97.6904 66.6226 97.6904 63.3352V54.0662" fill="#E2EEFF"/>
<path d="M109.573 44.9736V63.3352C109.573 66.6226 106.915 69.2846 103.632 69.2846C100.349 69.2846 97.6904 66.6226 97.6904 63.3352V54.0662" fill="#E2EEFF"/>
<path d="M103.637 69.697C100.137 69.697 97.2949 66.8505 97.2949 63.3466V54.0696C97.2949 53.8451 97.4711 53.6687 97.6953 53.6687C97.9195 53.6687 98.0956 53.8451 98.0956 54.0696V63.3386C98.0956 66.4015 100.586 68.8871 103.637 68.8871C106.687 68.8871 109.177 66.3935 109.177 63.3386V44.9771C109.177 44.7526 109.354 44.5762 109.578 44.5762C109.802 44.5762 109.978 44.7526 109.978 44.9771V63.3386C109.978 66.8425 107.136 69.697 103.637 69.697Z" fill="#2C394B"/>
<path d="M109.572 27.3979H64.7402V39.9223H109.572V27.3979Z" fill="#2C394B"/>
<path d="M109.574 40.3261H64.7422C64.518 40.3261 64.3418 40.1497 64.3418 39.9252V27.4009C64.3418 27.1764 64.518 27 64.7422 27H109.574C109.798 27 109.974 27.1764 109.974 27.4009V39.9252C109.974 40.1497 109.798 40.3261 109.574 40.3261ZM65.1425 39.5243H109.173V27.8018H65.1425V39.5243Z" fill="#2C394B"/>
<path d="M18.2149 71.0492C18.2149 76.9345 13.4507 81.6973 7.58156 81.6973H0.407227H48.3856C48.3856 81.6973 52.6293 81.0959 54.0546 78.0731C55.4799 75.0502 62.2298 59.8398 62.2298 59.8398H26.5663C21.9543 59.8398 18.2149 63.5843 18.2149 68.2028V71.0492Z" fill="#E2EEFF"/>
<path d="M18.2149 71.0492C18.2149 76.9345 13.4507 81.6973 7.58156 81.6973H0.407227H48.3856C48.3856 81.6973 52.6293 81.0959 54.0546 78.0731C55.4799 75.0502 62.2298 59.8398 62.2298 59.8398H26.5663C21.9543 59.8398 18.2149 63.5843 18.2149 68.2028V71.0492Z" fill="white"/>
<path d="M48.3787 82.1006H0.400353C0.176156 82.1006 0 81.9242 0 81.6997C0 81.4752 0.176156 81.2988 0.400353 81.2988H7.57469C13.2197 81.2988 17.8077 76.7044 17.8077 71.0517V68.2052C17.8077 63.3703 21.7312 59.4414 26.5595 59.4414H62.2149C62.3511 59.4414 62.4792 59.5136 62.5512 59.6258C62.6233 59.7381 62.6393 59.8824 62.5833 60.0107C62.5192 60.163 55.8173 75.2612 54.408 78.2519C52.9027 81.4351 48.6189 82.0766 48.4348 82.1087C48.4188 82.1006 48.4027 82.1006 48.3787 82.1006ZM11.7063 81.2988H48.3467C48.691 81.2427 52.4223 80.5772 53.6874 77.8991C54.9365 75.2451 60.3733 63.0175 61.6064 60.2352H26.5675C22.1796 60.2352 18.6164 63.8113 18.6164 68.1972V71.0436C18.6164 75.6861 15.7499 79.6631 11.7063 81.2988Z" fill="#2C394B"/>
<path d="M83.9874 57.0977V70.6563C83.9874 74.7536 80.6725 78.0731 76.5809 78.0731C72.4893 78.0731 69.1743 74.7536 69.1743 70.6563V66.7755C69.1743 62.9429 66.0756 59.8399 62.2482 59.8399C58.4208 59.8399 55.3221 62.9429 55.3221 66.7755V73.7353C55.3221 78.1292 51.759 81.6973 47.3711 81.6973C47.3711 81.6973 52.2794 81.4968 54.041 78.0731H76.5809" fill="#E2EEFF"/>
<path d="M83.9874 57.0977V70.6563C83.9874 74.7536 80.6725 78.0731 76.5809 78.0731C72.4893 78.0731 69.1743 74.7536 69.1743 70.6563V66.7755C69.1743 62.9429 66.0756 59.8399 62.2482 59.8399C58.4208 59.8399 55.3221 62.9429 55.3221 66.7755V73.7353C55.3221 78.1292 51.759 81.6973 47.3711 81.6973C47.3711 81.6973 52.2794 81.4968 54.041 78.0731H76.5809" fill="#E2EEFF"/>
<path d="M47.3762 82.1011C47.16 82.1011 46.9839 81.9247 46.9758 81.7083C46.9678 81.4918 47.144 81.3073 47.3602 81.2993C47.3922 81.2993 49.378 81.1951 51.2116 80.249C53.4376 78.934 54.9269 76.5045 54.9269 73.7382V66.7785C54.9269 62.7293 58.2178 59.4419 62.2533 59.4419C66.2969 59.4419 69.5798 62.7374 69.5798 66.7785V70.6593C69.5798 74.524 72.7186 77.6751 76.586 77.6751C80.4454 77.6751 83.5922 74.532 83.5922 70.6593V57.1006C83.5922 56.8761 83.7683 56.6997 83.9925 56.6997C84.2167 56.6997 84.3929 56.8761 84.3929 57.1006V70.6593C84.3929 74.965 80.8938 78.4769 76.586 78.4769H54.2863C53.6938 79.5113 52.765 80.3612 51.5479 80.9866C50.3148 81.7002 48.8975 82.1011 47.3762 82.1011ZM54.7427 77.6751H73.143C70.5647 76.4003 68.7791 73.7382 68.7791 70.6593V66.7785C68.7791 63.1703 65.8485 60.2437 62.2533 60.2437C58.6502 60.2437 55.7276 63.1784 55.7276 66.7785V73.7382C55.7276 75.1655 55.3753 76.5045 54.7427 77.6751Z" fill="#2C394B"/>
<path d="M69.8842 34.8267C70.7819 34.8267 71.5097 34.0979 71.5097 33.199C71.5097 32.3 70.7819 31.5713 69.8842 31.5713C68.9865 31.5713 68.2588 32.3 68.2588 33.199C68.2588 34.0979 68.9865 34.8267 69.8842 34.8267Z" fill="#E06A63"/>
<path d="M74.7368 34.8267C75.6345 34.8267 76.3622 34.0979 76.3622 33.199C76.3622 32.3 75.6345 31.5713 74.7368 31.5713C73.8391 31.5713 73.1113 32.3 73.1113 33.199C73.1113 34.0979 73.8391 34.8267 74.7368 34.8267Z" fill="#F6E049"/>
<path d="M79.5942 34.8267C80.4919 34.8267 81.2196 34.0979 81.2196 33.199C81.2196 32.3 80.4919 31.5713 79.5942 31.5713C78.6965 31.5713 77.9688 32.3 77.9688 33.199C77.9688 34.0979 78.6965 34.8267 79.5942 34.8267Z" fill="#7FD6C2"/>
<path d="M71.0908 77.2076C71.3119 77.2076 71.4911 77.0281 71.4911 76.8067C71.4911 76.5853 71.3119 76.4058 71.0908 76.4058C70.8697 76.4058 70.6904 76.5853 70.6904 76.8067C70.6904 77.0281 70.8697 77.2076 71.0908 77.2076Z" fill="#2C394B"/>
<path d="M69.1103 73.2593C69.3314 73.2593 69.5107 73.0798 69.5107 72.8584C69.5107 72.637 69.3314 72.4575 69.1103 72.4575C68.8892 72.4575 68.71 72.637 68.71 72.8584C68.71 73.0798 68.8892 73.2593 69.1103 73.2593Z" fill="#2C394B"/>
<path d="M69.1103 75.2374C69.3314 75.2374 69.5107 75.0579 69.5107 74.8365C69.5107 74.615 69.3314 74.4355 69.1103 74.4355C68.8892 74.4355 68.71 74.615 68.71 74.8365C68.71 75.0579 68.8892 75.2374 69.1103 75.2374Z" fill="#2C394B"/>
<path d="M69.1103 77.2076C69.3314 77.2076 69.5107 77.0281 69.5107 76.8067C69.5107 76.5853 69.3314 76.4058 69.1103 76.4058C68.8892 76.4058 68.71 76.5853 68.71 76.8067C68.71 77.0281 68.8892 77.2076 69.1103 77.2076Z" fill="#2C394B"/>
<path d="M67.1396 63.3716C67.3607 63.3716 67.54 63.1921 67.54 62.9707C67.54 62.7493 67.3607 62.5698 67.1396 62.5698C66.9185 62.5698 66.7393 62.7493 66.7393 62.9707C66.7393 63.1921 66.9185 63.3716 67.1396 63.3716Z" fill="#2C394B"/>
<path d="M67.1396 65.3462C67.3607 65.3462 67.54 65.1668 67.54 64.9453C67.54 64.7239 67.3607 64.5444 67.1396 64.5444C66.9185 64.5444 66.7393 64.7239 66.7393 64.9453C66.7393 65.1668 66.9185 65.3462 67.1396 65.3462Z" fill="#2C394B"/>
<path d="M67.1396 67.3204C67.3607 67.3204 67.54 67.1409 67.54 66.9195C67.54 66.698 67.3607 66.5186 67.1396 66.5186C66.9185 66.5186 66.7393 66.698 66.7393 66.9195C66.7393 67.1409 66.9185 67.3204 67.1396 67.3204Z" fill="#2C394B"/>
<path d="M67.1396 69.3023C67.3607 69.3023 67.54 69.1228 67.54 68.9014C67.54 68.68 67.3607 68.5005 67.1396 68.5005C66.9185 68.5005 66.7393 68.68 66.7393 68.9014C66.7393 69.1228 66.9185 69.3023 67.1396 69.3023Z" fill="#2C394B"/>
<path d="M67.1396 71.2769C67.3607 71.2769 67.54 71.0974 67.54 70.876C67.54 70.6546 67.3607 70.4751 67.1396 70.4751C66.9185 70.4751 66.7393 70.6546 66.7393 70.876C66.7393 71.0974 66.9185 71.2769 67.1396 71.2769Z" fill="#2C394B"/>
<path d="M67.1396 73.2593C67.3607 73.2593 67.54 73.0798 67.54 72.8584C67.54 72.637 67.3607 72.4575 67.1396 72.4575C66.9185 72.4575 66.7393 72.637 66.7393 72.8584C66.7393 73.0798 66.9185 73.2593 67.1396 73.2593Z" fill="#2C394B"/>
<path d="M67.1396 75.2374C67.3607 75.2374 67.54 75.0579 67.54 74.8365C67.54 74.615 67.3607 74.4355 67.1396 74.4355C66.9185 74.4355 66.7393 74.615 66.7393 74.8365C66.7393 75.0579 66.9185 75.2374 67.1396 75.2374Z" fill="#2C394B"/>
<path d="M67.1396 77.2076C67.3607 77.2076 67.54 77.0281 67.54 76.8067C67.54 76.5853 67.3607 76.4058 67.1396 76.4058C66.9185 76.4058 66.7393 76.5853 66.7393 76.8067C66.7393 77.0281 66.9185 77.2076 67.1396 77.2076Z" fill="#2C394B"/>
<path d="M65.165 61.3882C65.3861 61.3882 65.5654 61.2087 65.5654 60.9873C65.5654 60.7659 65.3861 60.5864 65.165 60.5864C64.9439 60.5864 64.7646 60.7659 64.7646 60.9873C64.7646 61.2087 64.9439 61.3882 65.165 61.3882Z" fill="#2C394B"/>
<path d="M65.165 63.3716C65.3861 63.3716 65.5654 63.1921 65.5654 62.9707C65.5654 62.7493 65.3861 62.5698 65.165 62.5698C64.9439 62.5698 64.7646 62.7493 64.7646 62.9707C64.7646 63.1921 64.9439 63.3716 65.165 63.3716Z" fill="#2C394B"/>
<path d="M65.165 65.3462C65.3861 65.3462 65.5654 65.1668 65.5654 64.9453C65.5654 64.7239 65.3861 64.5444 65.165 64.5444C64.9439 64.5444 64.7646 64.7239 64.7646 64.9453C64.7646 65.1668 64.9439 65.3462 65.165 65.3462Z" fill="#2C394B"/>
<path d="M65.165 67.3204C65.3861 67.3204 65.5654 67.1409 65.5654 66.9195C65.5654 66.698 65.3861 66.5186 65.165 66.5186C64.9439 66.5186 64.7646 66.698 64.7646 66.9195C64.7646 67.1409 64.9439 67.3204 65.165 67.3204Z" fill="#2C394B"/>
<path d="M65.165 69.3023C65.3861 69.3023 65.5654 69.1228 65.5654 68.9014C65.5654 68.68 65.3861 68.5005 65.165 68.5005C64.9439 68.5005 64.7646 68.68 64.7646 68.9014C64.7646 69.1228 64.9439 69.3023 65.165 69.3023Z" fill="#2C394B"/>
<path d="M65.165 71.2769C65.3861 71.2769 65.5654 71.0974 65.5654 70.876C65.5654 70.6546 65.3861 70.4751 65.165 70.4751C64.9439 70.4751 64.7646 70.6546 64.7646 70.876C64.7646 71.0974 64.9439 71.2769 65.165 71.2769Z" fill="#2C394B"/>
<path d="M65.165 73.2593C65.3861 73.2593 65.5654 73.0798 65.5654 72.8584C65.5654 72.637 65.3861 72.4575 65.165 72.4575C64.9439 72.4575 64.7646 72.637 64.7646 72.8584C64.7646 73.0798 64.9439 73.2593 65.165 73.2593Z" fill="#2C394B"/>
<path d="M65.165 75.2374C65.3861 75.2374 65.5654 75.0579 65.5654 74.8365C65.5654 74.615 65.3861 74.4355 65.165 74.4355C64.9439 74.4355 64.7646 74.615 64.7646 74.8365C64.7646 75.0579 64.9439 75.2374 65.165 75.2374Z" fill="#2C394B"/>
<path d="M65.165 77.2076C65.3861 77.2076 65.5654 77.0281 65.5654 76.8067C65.5654 76.5853 65.3861 76.4058 65.165 76.4058C64.9439 76.4058 64.7646 76.5853 64.7646 76.8067C64.7646 77.0281 64.9439 77.2076 65.165 77.2076Z" fill="#2C394B"/>
<path d="M63.1875 61.3882C63.4086 61.3882 63.5878 61.2087 63.5878 60.9873C63.5878 60.7659 63.4086 60.5864 63.1875 60.5864C62.9664 60.5864 62.7871 60.7659 62.7871 60.9873C62.7871 61.2087 62.9664 61.3882 63.1875 61.3882Z" fill="#2C394B"/>
<path d="M63.1875 63.3716C63.4086 63.3716 63.5878 63.1921 63.5878 62.9707C63.5878 62.7493 63.4086 62.5698 63.1875 62.5698C62.9664 62.5698 62.7871 62.7493 62.7871 62.9707C62.7871 63.1921 62.9664 63.3716 63.1875 63.3716Z" fill="#2C394B"/>
<path d="M63.1875 65.3462C63.4086 65.3462 63.5878 65.1668 63.5878 64.9453C63.5878 64.7239 63.4086 64.5444 63.1875 64.5444C62.9664 64.5444 62.7871 64.7239 62.7871 64.9453C62.7871 65.1668 62.9664 65.3462 63.1875 65.3462Z" fill="#2C394B"/>
<path d="M63.1875 67.3204C63.4086 67.3204 63.5878 67.1409 63.5878 66.9195C63.5878 66.698 63.4086 66.5186 63.1875 66.5186C62.9664 66.5186 62.7871 66.698 62.7871 66.9195C62.7871 67.1409 62.9664 67.3204 63.1875 67.3204Z" fill="#2C394B"/>
<path d="M63.1875 69.3023C63.4086 69.3023 63.5878 69.1228 63.5878 68.9014C63.5878 68.68 63.4086 68.5005 63.1875 68.5005C62.9664 68.5005 62.7871 68.68 62.7871 68.9014C62.7871 69.1228 62.9664 69.3023 63.1875 69.3023Z" fill="#2C394B"/>
<path d="M63.1875 71.2769C63.4086 71.2769 63.5878 71.0974 63.5878 70.876C63.5878 70.6546 63.4086 70.4751 63.1875 70.4751C62.9664 70.4751 62.7871 70.6546 62.7871 70.876C62.7871 71.0974 62.9664 71.2769 63.1875 71.2769Z" fill="#2C394B"/>
<path d="M63.1875 73.2593C63.4086 73.2593 63.5878 73.0798 63.5878 72.8584C63.5878 72.637 63.4086 72.4575 63.1875 72.4575C62.9664 72.4575 62.7871 72.637 62.7871 72.8584C62.7871 73.0798 62.9664 73.2593 63.1875 73.2593Z" fill="#2C394B"/>
<path d="M63.1875 75.2374C63.4086 75.2374 63.5878 75.0579 63.5878 74.8365C63.5878 74.615 63.4086 74.4355 63.1875 74.4355C62.9664 74.4355 62.7871 74.615 62.7871 74.8365C62.7871 75.0579 62.9664 75.2374 63.1875 75.2374Z" fill="#2C394B"/>
<path d="M63.1875 77.2076C63.4086 77.2076 63.5878 77.0281 63.5878 76.8067C63.5878 76.5853 63.4086 76.4058 63.1875 76.4058C62.9664 76.4058 62.7871 76.5853 62.7871 76.8067C62.7871 77.0281 62.9664 77.2076 63.1875 77.2076Z" fill="#2C394B"/>
<path d="M61.2099 61.3882C61.431 61.3882 61.6103 61.2087 61.6103 60.9873C61.6103 60.7659 61.431 60.5864 61.2099 60.5864C60.9888 60.5864 60.8096 60.7659 60.8096 60.9873C60.8096 61.2087 60.9888 61.3882 61.2099 61.3882Z" fill="#2C394B"/>
<path d="M61.2099 63.3716C61.431 63.3716 61.6103 63.1921 61.6103 62.9707C61.6103 62.7493 61.431 62.5698 61.2099 62.5698C60.9888 62.5698 60.8096 62.7493 60.8096 62.9707C60.8096 63.1921 60.9888 63.3716 61.2099 63.3716Z" fill="#2C394B"/>
<path d="M61.2099 65.3462C61.431 65.3462 61.6103 65.1668 61.6103 64.9453C61.6103 64.7239 61.431 64.5444 61.2099 64.5444C60.9888 64.5444 60.8096 64.7239 60.8096 64.9453C60.8096 65.1668 60.9888 65.3462 61.2099 65.3462Z" fill="#2C394B"/>
<path d="M61.2099 67.3204C61.431 67.3204 61.6103 67.1409 61.6103 66.9195C61.6103 66.698 61.431 66.5186 61.2099 66.5186C60.9888 66.5186 60.8096 66.698 60.8096 66.9195C60.8096 67.1409 60.9888 67.3204 61.2099 67.3204Z" fill="#2C394B"/>
<path d="M61.2099 69.3023C61.431 69.3023 61.6103 69.1228 61.6103 68.9014C61.6103 68.68 61.431 68.5005 61.2099 68.5005C60.9888 68.5005 60.8096 68.68 60.8096 68.9014C60.8096 69.1228 60.9888 69.3023 61.2099 69.3023Z" fill="#2C394B"/>
<path d="M61.2099 71.2769C61.431 71.2769 61.6103 71.0974 61.6103 70.876C61.6103 70.6546 61.431 70.4751 61.2099 70.4751C60.9888 70.4751 60.8096 70.6546 60.8096 70.876C60.8096 71.0974 60.9888 71.2769 61.2099 71.2769Z" fill="#2C394B"/>
<path d="M61.2099 73.2593C61.431 73.2593 61.6103 73.0798 61.6103 72.8584C61.6103 72.637 61.431 72.4575 61.2099 72.4575C60.9888 72.4575 60.8096 72.637 60.8096 72.8584C60.8096 73.0798 60.9888 73.2593 61.2099 73.2593Z" fill="#2C394B"/>
<path d="M61.2099 75.2374C61.431 75.2374 61.6103 75.0579 61.6103 74.8365C61.6103 74.615 61.431 74.4355 61.2099 74.4355C60.9888 74.4355 60.8096 74.615 60.8096 74.8365C60.8096 75.0579 60.9888 75.2374 61.2099 75.2374Z" fill="#2C394B"/>
<path d="M61.2099 77.2076C61.431 77.2076 61.6103 77.0281 61.6103 76.8067C61.6103 76.5853 61.431 76.4058 61.2099 76.4058C60.9888 76.4058 60.8096 76.5853 60.8096 76.8067C60.8096 77.0281 60.9888 77.2076 61.2099 77.2076Z" fill="#2C394B"/>
<path d="M59.2412 61.3882C59.4623 61.3882 59.6415 61.2087 59.6415 60.9873C59.6415 60.7659 59.4623 60.5864 59.2412 60.5864C59.0201 60.5864 58.8408 60.7659 58.8408 60.9873C58.8408 61.2087 59.0201 61.3882 59.2412 61.3882Z" fill="#2C394B"/>
<path d="M59.2412 63.3716C59.4623 63.3716 59.6415 63.1921 59.6415 62.9707C59.6415 62.7493 59.4623 62.5698 59.2412 62.5698C59.0201 62.5698 58.8408 62.7493 58.8408 62.9707C58.8408 63.1921 59.0201 63.3716 59.2412 63.3716Z" fill="#2C394B"/>
<path d="M59.2412 65.3462C59.4623 65.3462 59.6415 65.1668 59.6415 64.9453C59.6415 64.7239 59.4623 64.5444 59.2412 64.5444C59.0201 64.5444 58.8408 64.7239 58.8408 64.9453C58.8408 65.1668 59.0201 65.3462 59.2412 65.3462Z" fill="#2C394B"/>
<path d="M59.2412 67.3204C59.4623 67.3204 59.6415 67.1409 59.6415 66.9195C59.6415 66.698 59.4623 66.5186 59.2412 66.5186C59.0201 66.5186 58.8408 66.698 58.8408 66.9195C58.8408 67.1409 59.0201 67.3204 59.2412 67.3204Z" fill="#2C394B"/>
<path d="M59.2412 69.3023C59.4623 69.3023 59.6415 69.1228 59.6415 68.9014C59.6415 68.68 59.4623 68.5005 59.2412 68.5005C59.0201 68.5005 58.8408 68.68 58.8408 68.9014C58.8408 69.1228 59.0201 69.3023 59.2412 69.3023Z" fill="#2C394B"/>
<path d="M59.2412 71.2769C59.4623 71.2769 59.6415 71.0974 59.6415 70.876C59.6415 70.6546 59.4623 70.4751 59.2412 70.4751C59.0201 70.4751 58.8408 70.6546 58.8408 70.876C58.8408 71.0974 59.0201 71.2769 59.2412 71.2769Z" fill="#2C394B"/>
<path d="M59.2412 73.2593C59.4623 73.2593 59.6415 73.0798 59.6415 72.8584C59.6415 72.637 59.4623 72.4575 59.2412 72.4575C59.0201 72.4575 58.8408 72.637 58.8408 72.8584C58.8408 73.0798 59.0201 73.2593 59.2412 73.2593Z" fill="#2C394B"/>
<path d="M59.2412 75.2374C59.4623 75.2374 59.6415 75.0579 59.6415 74.8365C59.6415 74.615 59.4623 74.4355 59.2412 74.4355C59.0201 74.4355 58.8408 74.615 58.8408 74.8365C58.8408 75.0579 59.0201 75.2374 59.2412 75.2374Z" fill="#2C394B"/>
<path d="M59.2412 77.2076C59.4623 77.2076 59.6415 77.0281 59.6415 76.8067C59.6415 76.5853 59.4623 76.4058 59.2412 76.4058C59.0201 76.4058 58.8408 76.5853 58.8408 76.8067C58.8408 77.0281 59.0201 77.2076 59.2412 77.2076Z" fill="#2C394B"/>
<path d="M57.2607 63.3716C57.4818 63.3716 57.6611 63.1921 57.6611 62.9707C57.6611 62.7493 57.4818 62.5698 57.2607 62.5698C57.0396 62.5698 56.8604 62.7493 56.8604 62.9707C56.8604 63.1921 57.0396 63.3716 57.2607 63.3716Z" fill="#2C394B"/>
<path d="M57.2607 65.3462C57.4818 65.3462 57.6611 65.1668 57.6611 64.9453C57.6611 64.7239 57.4818 64.5444 57.2607 64.5444C57.0396 64.5444 56.8604 64.7239 56.8604 64.9453C56.8604 65.1668 57.0396 65.3462 57.2607 65.3462Z" fill="#2C394B"/>
<path d="M57.2607 67.3204C57.4818 67.3204 57.6611 67.1409 57.6611 66.9195C57.6611 66.698 57.4818 66.5186 57.2607 66.5186C57.0396 66.5186 56.8604 66.698 56.8604 66.9195C56.8604 67.1409 57.0396 67.3204 57.2607 67.3204Z" fill="#2C394B"/>
<path d="M57.2607 69.3023C57.4818 69.3023 57.6611 69.1228 57.6611 68.9014C57.6611 68.68 57.4818 68.5005 57.2607 68.5005C57.0396 68.5005 56.8604 68.68 56.8604 68.9014C56.8604 69.1228 57.0396 69.3023 57.2607 69.3023Z" fill="#2C394B"/>
<path d="M57.2607 71.2769C57.4818 71.2769 57.6611 71.0974 57.6611 70.876C57.6611 70.6546 57.4818 70.4751 57.2607 70.4751C57.0396 70.4751 56.8604 70.6546 56.8604 70.876C56.8604 71.0974 57.0396 71.2769 57.2607 71.2769Z" fill="#2C394B"/>
<path d="M57.2607 73.2593C57.4818 73.2593 57.6611 73.0798 57.6611 72.8584C57.6611 72.637 57.4818 72.4575 57.2607 72.4575C57.0396 72.4575 56.8604 72.637 56.8604 72.8584C56.8604 73.0798 57.0396 73.2593 57.2607 73.2593Z" fill="#2C394B"/>
<path d="M57.2607 75.2374C57.4818 75.2374 57.6611 75.0579 57.6611 74.8365C57.6611 74.615 57.4818 74.4355 57.2607 74.4355C57.0396 74.4355 56.8604 74.615 56.8604 74.8365C56.8604 75.0579 57.0396 75.2374 57.2607 75.2374Z" fill="#2C394B"/>
<path d="M57.2607 77.2076C57.4818 77.2076 57.6611 77.0281 57.6611 76.8067C57.6611 76.5853 57.4818 76.4058 57.2607 76.4058C57.0396 76.4058 56.8604 76.5853 56.8604 76.8067C56.8604 77.0281 57.0396 77.2076 57.2607 77.2076Z" fill="#2C394B"/>
<path d="M55.2861 77.2076C55.5072 77.2076 55.6864 77.0281 55.6864 76.8067C55.6864 76.5853 55.5072 76.4058 55.2861 76.4058C55.065 76.4058 54.8857 76.5853 54.8857 76.8067C54.8857 77.0281 55.065 77.2076 55.2861 77.2076Z" fill="#2C394B"/>
<path d="M99.0586 68.4991C99.2797 68.4991 99.4589 68.3196 99.4589 68.0982C99.4589 67.8768 99.2797 67.6973 99.0586 67.6973C98.8374 67.6973 98.6582 67.8768 98.6582 68.0982C98.6582 68.3196 98.8374 68.4991 99.0586 68.4991Z" fill="#2C394B"/>
<path d="M97.0918 52.6744C97.3129 52.6744 97.4921 52.4949 97.4921 52.2735C97.4921 52.0521 97.3129 51.8726 97.0918 51.8726C96.8707 51.8726 96.6914 52.0521 96.6914 52.2735C96.6914 52.4949 96.8707 52.6744 97.0918 52.6744Z" fill="#2C394B"/>
<path d="M97.0918 54.6495C97.3129 54.6495 97.4921 54.47 97.4921 54.2486C97.4921 54.0271 97.3129 53.8477 97.0918 53.8477C96.8707 53.8477 96.6914 54.0271 96.6914 54.2486C96.6914 54.47 96.8707 54.6495 97.0918 54.6495Z" fill="#2C394B"/>
<path d="M97.0918 56.6255C97.3129 56.6255 97.4921 56.4461 97.4921 56.2246C97.4921 56.0032 97.3129 55.8237 97.0918 55.8237C96.8707 55.8237 96.6914 56.0032 96.6914 56.2246C96.6914 56.4461 96.8707 56.6255 97.0918 56.6255Z" fill="#2C394B"/>
<path d="M97.0918 58.6104C97.3129 58.6104 97.4921 58.4309 97.4921 58.2095C97.4921 57.9881 97.3129 57.8086 97.0918 57.8086C96.8707 57.8086 96.6914 57.9881 96.6914 58.2095C96.6914 58.4309 96.8707 58.6104 97.0918 58.6104Z" fill="#2C394B"/>
<path d="M97.0918 60.5914C97.3129 60.5914 97.4921 60.4119 97.4921 60.1905C97.4921 59.969 97.3129 59.7896 97.0918 59.7896C96.8707 59.7896 96.6914 59.969 96.6914 60.1905C96.6914 60.4119 96.8707 60.5914 97.0918 60.5914Z" fill="#2C394B"/>
<path d="M97.0918 62.5577C97.3129 62.5577 97.4921 62.3782 97.4921 62.1568C97.4921 61.9354 97.3129 61.7559 97.0918 61.7559C96.8707 61.7559 96.6914 61.9354 96.6914 62.1568C96.6914 62.3782 96.8707 62.5577 97.0918 62.5577Z" fill="#2C394B"/>
<path d="M97.0918 64.5377C97.3129 64.5377 97.4921 64.3582 97.4921 64.1367C97.4921 63.9153 97.3129 63.7358 97.0918 63.7358C96.8707 63.7358 96.6914 63.9153 96.6914 64.1367C96.6914 64.3582 96.8707 64.5377 97.0918 64.5377Z" fill="#2C394B"/>
<path d="M97.0918 66.5171C97.3129 66.5171 97.4921 66.3377 97.4921 66.1162C97.4921 65.8948 97.3129 65.7153 97.0918 65.7153C96.8707 65.7153 96.6914 65.8948 96.6914 66.1162C96.6914 66.3377 96.8707 66.5171 97.0918 66.5171Z" fill="#2C394B"/>
<path d="M97.0918 68.4991C97.3129 68.4991 97.4921 68.3196 97.4921 68.0982C97.4921 67.8768 97.3129 67.6973 97.0918 67.6973C96.8707 67.6973 96.6914 67.8768 96.6914 68.0982C96.6914 68.3196 96.8707 68.4991 97.0918 68.4991Z" fill="#2C394B"/>
<path d="M95.1142 50.6934C95.3353 50.6934 95.5146 50.5139 95.5146 50.2925C95.5146 50.0711 95.3353 49.8916 95.1142 49.8916C94.8931 49.8916 94.7139 50.0711 94.7139 50.2925C94.7139 50.5139 94.8931 50.6934 95.1142 50.6934Z" fill="#2C394B"/>
<path d="M95.1142 52.6744C95.3353 52.6744 95.5146 52.4949 95.5146 52.2735C95.5146 52.0521 95.3353 51.8726 95.1142 51.8726C94.8931 51.8726 94.7139 52.0521 94.7139 52.2735C94.7139 52.4949 94.8931 52.6744 95.1142 52.6744Z" fill="#2C394B"/>
<path d="M95.1142 54.6495C95.3353 54.6495 95.5146 54.47 95.5146 54.2486C95.5146 54.0271 95.3353 53.8477 95.1142 53.8477C94.8931 53.8477 94.7139 54.0271 94.7139 54.2486C94.7139 54.47 94.8931 54.6495 95.1142 54.6495Z" fill="#2C394B"/>
<path d="M95.1142 56.6255C95.3353 56.6255 95.5146 56.4461 95.5146 56.2246C95.5146 56.0032 95.3353 55.8237 95.1142 55.8237C94.8931 55.8237 94.7139 56.0032 94.7139 56.2246C94.7139 56.4461 94.8931 56.6255 95.1142 56.6255Z" fill="#2C394B"/>
<path d="M95.1142 58.6104C95.3353 58.6104 95.5146 58.4309 95.5146 58.2095C95.5146 57.9881 95.3353 57.8086 95.1142 57.8086C94.8931 57.8086 94.7139 57.9881 94.7139 58.2095C94.7139 58.4309 94.8931 58.6104 95.1142 58.6104Z" fill="#2C394B"/>
<path d="M95.1142 60.5914C95.3353 60.5914 95.5146 60.4119 95.5146 60.1905C95.5146 59.969 95.3353 59.7896 95.1142 59.7896C94.8931 59.7896 94.7139 59.969 94.7139 60.1905C94.7139 60.4119 94.8931 60.5914 95.1142 60.5914Z" fill="#2C394B"/>
<path d="M95.1142 62.5577C95.3353 62.5577 95.5146 62.3782 95.5146 62.1568C95.5146 61.9354 95.3353 61.7559 95.1142 61.7559C94.8931 61.7559 94.7139 61.9354 94.7139 62.1568C94.7139 62.3782 94.8931 62.5577 95.1142 62.5577Z" fill="#2C394B"/>
<path d="M95.1142 64.5377C95.3353 64.5377 95.5146 64.3582 95.5146 64.1367C95.5146 63.9153 95.3353 63.7358 95.1142 63.7358C94.8931 63.7358 94.7139 63.9153 94.7139 64.1367C94.7139 64.3582 94.8931 64.5377 95.1142 64.5377Z" fill="#2C394B"/>
<path d="M95.1142 66.5171C95.3353 66.5171 95.5146 66.3377 95.5146 66.1162C95.5146 65.8948 95.3353 65.7153 95.1142 65.7153C94.8931 65.7153 94.7139 65.8948 94.7139 66.1162C94.7139 66.3377 94.8931 66.5171 95.1142 66.5171Z" fill="#2C394B"/>
<path d="M95.1142 68.4991C95.3353 68.4991 95.5146 68.3196 95.5146 68.0982C95.5146 67.8768 95.3353 67.6973 95.1142 67.6973C94.8931 67.6973 94.7139 67.8768 94.7139 68.0982C94.7139 68.3196 94.8931 68.4991 95.1142 68.4991Z" fill="#2C394B"/>
<path d="M93.1347 48.7212C93.3558 48.7212 93.5351 48.5418 93.5351 48.3203C93.5351 48.0989 93.3558 47.9194 93.1347 47.9194C92.9136 47.9194 92.7344 48.0989 92.7344 48.3203C92.7344 48.5418 92.9136 48.7212 93.1347 48.7212Z" fill="#2C394B"/>
<path d="M93.1347 50.6934C93.3558 50.6934 93.5351 50.5139 93.5351 50.2925C93.5351 50.0711 93.3558 49.8916 93.1347 49.8916C92.9136 49.8916 92.7344 50.0711 92.7344 50.2925C92.7344 50.5139 92.9136 50.6934 93.1347 50.6934Z" fill="#2C394B"/>
<path d="M93.1347 52.6744C93.3558 52.6744 93.5351 52.4949 93.5351 52.2735C93.5351 52.0521 93.3558 51.8726 93.1347 51.8726C92.9136 51.8726 92.7344 52.0521 92.7344 52.2735C92.7344 52.4949 92.9136 52.6744 93.1347 52.6744Z" fill="#2C394B"/>
<path d="M93.1347 54.6495C93.3558 54.6495 93.5351 54.47 93.5351 54.2486C93.5351 54.0271 93.3558 53.8477 93.1347 53.8477C92.9136 53.8477 92.7344 54.0271 92.7344 54.2486C92.7344 54.47 92.9136 54.6495 93.1347 54.6495Z" fill="#2C394B"/>
<path d="M93.1347 56.6255C93.3558 56.6255 93.5351 56.4461 93.5351 56.2246C93.5351 56.0032 93.3558 55.8237 93.1347 55.8237C92.9136 55.8237 92.7344 56.0032 92.7344 56.2246C92.7344 56.4461 92.9136 56.6255 93.1347 56.6255Z" fill="#2C394B"/>
<path d="M93.1347 58.6104C93.3558 58.6104 93.5351 58.4309 93.5351 58.2095C93.5351 57.9881 93.3558 57.8086 93.1347 57.8086C92.9136 57.8086 92.7344 57.9881 92.7344 58.2095C92.7344 58.4309 92.9136 58.6104 93.1347 58.6104Z" fill="#2C394B"/>
<path d="M93.1347 60.5914C93.3558 60.5914 93.5351 60.4119 93.5351 60.1905C93.5351 59.969 93.3558 59.7896 93.1347 59.7896C92.9136 59.7896 92.7344 59.969 92.7344 60.1905C92.7344 60.4119 92.9136 60.5914 93.1347 60.5914Z" fill="#2C394B"/>
<path d="M93.1347 62.5577C93.3558 62.5577 93.5351 62.3782 93.5351 62.1568C93.5351 61.9354 93.3558 61.7559 93.1347 61.7559C92.9136 61.7559 92.7344 61.9354 92.7344 62.1568C92.7344 62.3782 92.9136 62.5577 93.1347 62.5577Z" fill="#2C394B"/>
<path d="M93.1347 64.5377C93.3558 64.5377 93.5351 64.3582 93.5351 64.1367C93.5351 63.9153 93.3558 63.7358 93.1347 63.7358C92.9136 63.7358 92.7344 63.9153 92.7344 64.1367C92.7344 64.3582 92.9136 64.5377 93.1347 64.5377Z" fill="#2C394B"/>
<path d="M93.1347 66.5171C93.3558 66.5171 93.5351 66.3377 93.5351 66.1162C93.5351 65.8948 93.3558 65.7153 93.1347 65.7153C92.9136 65.7153 92.7344 65.8948 92.7344 66.1162C92.7344 66.3377 92.9136 66.5171 93.1347 66.5171Z" fill="#2C394B"/>
<path d="M93.1347 68.4991C93.3558 68.4991 93.5351 68.3196 93.5351 68.0982C93.5351 67.8768 93.3558 67.6973 93.1347 67.6973C92.9136 67.6973 92.7344 67.8768 92.7344 68.0982C92.7344 68.3196 92.9136 68.4991 93.1347 68.4991Z" fill="#2C394B"/>
<path d="M91.166 48.7212C91.3871 48.7212 91.5663 48.5418 91.5663 48.3203C91.5663 48.0989 91.3871 47.9194 91.166 47.9194C90.9449 47.9194 90.7656 48.0989 90.7656 48.3203C90.7656 48.5418 90.9449 48.7212 91.166 48.7212Z" fill="#2C394B"/>
<path d="M91.166 50.6934C91.3871 50.6934 91.5663 50.5139 91.5663 50.2925C91.5663 50.0711 91.3871 49.8916 91.166 49.8916C90.9449 49.8916 90.7656 50.0711 90.7656 50.2925C90.7656 50.5139 90.9449 50.6934 91.166 50.6934Z" fill="#2C394B"/>
<path d="M91.166 52.6744C91.3871 52.6744 91.5663 52.4949 91.5663 52.2735C91.5663 52.0521 91.3871 51.8726 91.166 51.8726C90.9449 51.8726 90.7656 52.0521 90.7656 52.2735C90.7656 52.4949 90.9449 52.6744 91.166 52.6744Z" fill="#2C394B"/>
<path d="M91.166 54.6495C91.3871 54.6495 91.5663 54.47 91.5663 54.2486C91.5663 54.0271 91.3871 53.8477 91.166 53.8477C90.9449 53.8477 90.7656 54.0271 90.7656 54.2486C90.7656 54.47 90.9449 54.6495 91.166 54.6495Z" fill="#2C394B"/>
<path d="M91.166 56.6255C91.3871 56.6255 91.5663 56.4461 91.5663 56.2246C91.5663 56.0032 91.3871 55.8237 91.166 55.8237C90.9449 55.8237 90.7656 56.0032 90.7656 56.2246C90.7656 56.4461 90.9449 56.6255 91.166 56.6255Z" fill="#2C394B"/>
<path d="M91.166 58.6104C91.3871 58.6104 91.5663 58.4309 91.5663 58.2095C91.5663 57.9881 91.3871 57.8086 91.166 57.8086C90.9449 57.8086 90.7656 57.9881 90.7656 58.2095C90.7656 58.4309 90.9449 58.6104 91.166 58.6104Z" fill="#2C394B"/>
<path d="M91.166 60.5914C91.3871 60.5914 91.5663 60.4119 91.5663 60.1905C91.5663 59.969 91.3871 59.7896 91.166 59.7896C90.9449 59.7896 90.7656 59.969 90.7656 60.1905C90.7656 60.4119 90.9449 60.5914 91.166 60.5914Z" fill="#2C394B"/>
<path d="M91.166 62.5577C91.3871 62.5577 91.5663 62.3782 91.5663 62.1568C91.5663 61.9354 91.3871 61.7559 91.166 61.7559C90.9449 61.7559 90.7656 61.9354 90.7656 62.1568C90.7656 62.3782 90.9449 62.5577 91.166 62.5577Z" fill="#2C394B"/>
<path d="M91.166 64.5377C91.3871 64.5377 91.5663 64.3582 91.5663 64.1367C91.5663 63.9153 91.3871 63.7358 91.166 63.7358C90.9449 63.7358 90.7656 63.9153 90.7656 64.1367C90.7656 64.3582 90.9449 64.5377 91.166 64.5377Z" fill="#2C394B"/>
<path d="M91.166 66.5171C91.3871 66.5171 91.5663 66.3377 91.5663 66.1162C91.5663 65.8948 91.3871 65.7153 91.166 65.7153C90.9449 65.7153 90.7656 65.8948 90.7656 66.1162C90.7656 66.3377 90.9449 66.5171 91.166 66.5171Z" fill="#2C394B"/>
<path d="M91.166 68.4991C91.3871 68.4991 91.5663 68.3196 91.5663 68.0982C91.5663 67.8768 91.3871 67.6973 91.166 67.6973C90.9449 67.6973 90.7656 67.8768 90.7656 68.0982C90.7656 68.3196 90.9449 68.4991 91.166 68.4991Z" fill="#2C394B"/>
<path d="M89.1855 48.7212C89.4066 48.7212 89.5859 48.5418 89.5859 48.3203C89.5859 48.0989 89.4066 47.9194 89.1855 47.9194C88.9644 47.9194 88.7852 48.0989 88.7852 48.3203C88.7852 48.5418 88.9644 48.7212 89.1855 48.7212Z" fill="#2C394B"/>
<path d="M89.1855 50.6934C89.4066 50.6934 89.5859 50.5139 89.5859 50.2925C89.5859 50.0711 89.4066 49.8916 89.1855 49.8916C88.9644 49.8916 88.7852 50.0711 88.7852 50.2925C88.7852 50.5139 88.9644 50.6934 89.1855 50.6934Z" fill="#2C394B"/>
<path d="M89.1855 52.6744C89.4066 52.6744 89.5859 52.4949 89.5859 52.2735C89.5859 52.0521 89.4066 51.8726 89.1855 51.8726C88.9644 51.8726 88.7852 52.0521 88.7852 52.2735C88.7852 52.4949 88.9644 52.6744 89.1855 52.6744Z" fill="#2C394B"/>
<path d="M89.1855 54.6495C89.4066 54.6495 89.5859 54.47 89.5859 54.2486C89.5859 54.0271 89.4066 53.8477 89.1855 53.8477C88.9644 53.8477 88.7852 54.0271 88.7852 54.2486C88.7852 54.47 88.9644 54.6495 89.1855 54.6495Z" fill="#2C394B"/>
<path d="M89.1855 56.6255C89.4066 56.6255 89.5859 56.4461 89.5859 56.2246C89.5859 56.0032 89.4066 55.8237 89.1855 55.8237C88.9644 55.8237 88.7852 56.0032 88.7852 56.2246C88.7852 56.4461 88.9644 56.6255 89.1855 56.6255Z" fill="#2C394B"/>
<path d="M89.1855 58.6104C89.4066 58.6104 89.5859 58.4309 89.5859 58.2095C89.5859 57.9881 89.4066 57.8086 89.1855 57.8086C88.9644 57.8086 88.7852 57.9881 88.7852 58.2095C88.7852 58.4309 88.9644 58.6104 89.1855 58.6104Z" fill="#2C394B"/>
<path d="M89.1855 60.5914C89.4066 60.5914 89.5859 60.4119 89.5859 60.1905C89.5859 59.969 89.4066 59.7896 89.1855 59.7896C88.9644 59.7896 88.7852 59.969 88.7852 60.1905C88.7852 60.4119 88.9644 60.5914 89.1855 60.5914Z" fill="#2C394B"/>
<path d="M89.1855 62.5577C89.4066 62.5577 89.5859 62.3782 89.5859 62.1568C89.5859 61.9354 89.4066 61.7559 89.1855 61.7559C88.9644 61.7559 88.7852 61.9354 88.7852 62.1568C88.7852 62.3782 88.9644 62.5577 89.1855 62.5577Z" fill="#2C394B"/>
<path d="M89.1855 64.5377C89.4066 64.5377 89.5859 64.3582 89.5859 64.1367C89.5859 63.9153 89.4066 63.7358 89.1855 63.7358C88.9644 63.7358 88.7852 63.9153 88.7852 64.1367C88.7852 64.3582 88.9644 64.5377 89.1855 64.5377Z" fill="#2C394B"/>
<path d="M89.1855 66.5171C89.4066 66.5171 89.5859 66.3377 89.5859 66.1162C89.5859 65.8948 89.4066 65.7153 89.1855 65.7153C88.9644 65.7153 88.7852 65.8948 88.7852 66.1162C88.7852 66.3377 88.9644 66.5171 89.1855 66.5171Z" fill="#2C394B"/>
<path d="M89.1855 68.4991C89.4066 68.4991 89.5859 68.3196 89.5859 68.0982C89.5859 67.8768 89.4066 67.6973 89.1855 67.6973C88.9644 67.6973 88.7852 67.8768 88.7852 68.0982C88.7852 68.3196 88.9644 68.4991 89.1855 68.4991Z" fill="#2C394B"/>
<path d="M87.2109 50.6934C87.432 50.6934 87.6113 50.5139 87.6113 50.2925C87.6113 50.0711 87.432 49.8916 87.2109 49.8916C86.9898 49.8916 86.8105 50.0711 86.8105 50.2925C86.8105 50.5139 86.9898 50.6934 87.2109 50.6934Z" fill="#2C394B"/>
<path d="M87.2109 52.6744C87.432 52.6744 87.6113 52.4949 87.6113 52.2735C87.6113 52.0521 87.432 51.8726 87.2109 51.8726C86.9898 51.8726 86.8105 52.0521 86.8105 52.2735C86.8105 52.4949 86.9898 52.6744 87.2109 52.6744Z" fill="#2C394B"/>
<path d="M87.2109 54.6495C87.432 54.6495 87.6113 54.47 87.6113 54.2486C87.6113 54.0271 87.432 53.8477 87.2109 53.8477C86.9898 53.8477 86.8105 54.0271 86.8105 54.2486C86.8105 54.47 86.9898 54.6495 87.2109 54.6495Z" fill="#2C394B"/>
<path d="M87.2109 56.6255C87.432 56.6255 87.6113 56.4461 87.6113 56.2246C87.6113 56.0032 87.432 55.8237 87.2109 55.8237C86.9898 55.8237 86.8105 56.0032 86.8105 56.2246C86.8105 56.4461 86.9898 56.6255 87.2109 56.6255Z" fill="#2C394B"/>
<path d="M87.2109 58.6104C87.432 58.6104 87.6113 58.4309 87.6113 58.2095C87.6113 57.9881 87.432 57.8086 87.2109 57.8086C86.9898 57.8086 86.8105 57.9881 86.8105 58.2095C86.8105 58.4309 86.9898 58.6104 87.2109 58.6104Z" fill="#2C394B"/>
<path d="M87.2109 60.5914C87.432 60.5914 87.6113 60.4119 87.6113 60.1905C87.6113 59.969 87.432 59.7896 87.2109 59.7896C86.9898 59.7896 86.8105 59.969 86.8105 60.1905C86.8105 60.4119 86.9898 60.5914 87.2109 60.5914Z" fill="#2C394B"/>
<path d="M87.2109 62.5577C87.432 62.5577 87.6113 62.3782 87.6113 62.1568C87.6113 61.9354 87.432 61.7559 87.2109 61.7559C86.9898 61.7559 86.8105 61.9354 86.8105 62.1568C86.8105 62.3782 86.9898 62.5577 87.2109 62.5577Z" fill="#2C394B"/>
<path d="M87.2109 64.5377C87.432 64.5377 87.6113 64.3582 87.6113 64.1367C87.6113 63.9153 87.432 63.7358 87.2109 63.7358C86.9898 63.7358 86.8105 63.9153 86.8105 64.1367C86.8105 64.3582 86.9898 64.5377 87.2109 64.5377Z" fill="#2C394B"/>
<path d="M87.2109 66.5171C87.432 66.5171 87.6113 66.3377 87.6113 66.1162C87.6113 65.8948 87.432 65.7153 87.2109 65.7153C86.9898 65.7153 86.8105 65.8948 86.8105 66.1162C86.8105 66.3377 86.9898 66.5171 87.2109 66.5171Z" fill="#2C394B"/>
<path d="M87.2109 68.4991C87.432 68.4991 87.6113 68.3196 87.6113 68.0982C87.6113 67.8768 87.432 67.6973 87.2109 67.6973C86.9898 67.6973 86.8105 67.8768 86.8105 68.0982C86.8105 68.3196 86.9898 68.4991 87.2109 68.4991Z" fill="#2C394B"/>
<path d="M85.2392 52.6744C85.4603 52.6744 85.6396 52.4949 85.6396 52.2735C85.6396 52.0521 85.4603 51.8726 85.2392 51.8726C85.0181 51.8726 84.8389 52.0521 84.8389 52.2735C84.8389 52.4949 85.0181 52.6744 85.2392 52.6744Z" fill="#2C394B"/>
<path d="M85.2392 54.6495C85.4603 54.6495 85.6396 54.47 85.6396 54.2486C85.6396 54.0271 85.4603 53.8477 85.2392 53.8477C85.0181 53.8477 84.8389 54.0271 84.8389 54.2486C84.8389 54.47 85.0181 54.6495 85.2392 54.6495Z" fill="#2C394B"/>
<path d="M85.2392 56.6255C85.4603 56.6255 85.6396 56.4461 85.6396 56.2246C85.6396 56.0032 85.4603 55.8237 85.2392 55.8237C85.0181 55.8237 84.8389 56.0032 84.8389 56.2246C84.8389 56.4461 85.0181 56.6255 85.2392 56.6255Z" fill="#2C394B"/>
<path d="M85.2392 58.6104C85.4603 58.6104 85.6396 58.4309 85.6396 58.2095C85.6396 57.9881 85.4603 57.8086 85.2392 57.8086C85.0181 57.8086 84.8389 57.9881 84.8389 58.2095C84.8389 58.4309 85.0181 58.6104 85.2392 58.6104Z" fill="#2C394B"/>
<path d="M85.2392 60.5914C85.4603 60.5914 85.6396 60.4119 85.6396 60.1905C85.6396 59.969 85.4603 59.7896 85.2392 59.7896C85.0181 59.7896 84.8389 59.969 84.8389 60.1905C84.8389 60.4119 85.0181 60.5914 85.2392 60.5914Z" fill="#2C394B"/>
<path d="M85.2392 62.5577C85.4603 62.5577 85.6396 62.3782 85.6396 62.1568C85.6396 61.9354 85.4603 61.7559 85.2392 61.7559C85.0181 61.7559 84.8389 61.9354 84.8389 62.1568C84.8389 62.3782 85.0181 62.5577 85.2392 62.5577Z" fill="#2C394B"/>
<path d="M85.2392 64.5377C85.4603 64.5377 85.6396 64.3582 85.6396 64.1367C85.6396 63.9153 85.4603 63.7358 85.2392 63.7358C85.0181 63.7358 84.8389 63.9153 84.8389 64.1367C84.8389 64.3582 85.0181 64.5377 85.2392 64.5377Z" fill="#2C394B"/>
<path d="M85.2392 66.5171C85.4603 66.5171 85.6396 66.3377 85.6396 66.1162C85.6396 65.8948 85.4603 65.7153 85.2392 65.7153C85.0181 65.7153 84.8389 65.8948 84.8389 66.1162C84.8389 66.3377 85.0181 66.5171 85.2392 66.5171Z" fill="#2C394B"/>
<path d="M85.2392 68.4991C85.4603 68.4991 85.6396 68.3196 85.6396 68.0982C85.6396 67.8768 85.4603 67.6973 85.2392 67.6973C85.0181 67.6973 84.8389 67.8768 84.8389 68.0982C84.8389 68.3196 85.0181 68.4991 85.2392 68.4991Z" fill="#2C394B"/>
<path d="M47.6167 59.5468L38.865 53.0922C38.7449 53.004 38.5847 52.9879 38.4486 53.0601C38.3125 53.1323 38.2324 53.2686 38.2324 53.4209V59.8515C38.2324 60.076 38.4086 60.2524 38.6328 60.2524L47.3845 60.2764C47.5607 60.2764 47.7128 60.1642 47.7608 60.0038C47.8089 59.8274 47.7528 59.651 47.6167 59.5468Z" fill="#2C394B"/>
<path d="M23.5203 33.5337L43.0506 13L31.5028 53.1478L24.8987 43.6991L13.5478 58.3503L7 53.2697L18.3039 38.6841L23.5203 33.5337Z" fill="#2C394B"/>
<path d="M5.4707 27.6041L41.5307 6.46631L29.9829 46.6141L23.3788 37.1654L12.0279 51.8166L5.48008 46.736L16.784 32.1504L5.4707 27.6041Z" fill="#F6E049"/>
<path d="M12.027 52.2851C11.9238 52.2851 11.8206 52.2476 11.7362 52.1914L5.18832 47.1108C4.98194 46.9514 4.94442 46.6608 5.1039 46.4546L16.0326 32.3565L5.29151 28.0445C5.12266 27.9789 5.01009 27.8196 5.00071 27.6415C4.99133 27.4634 5.07575 27.2946 5.23523 27.2009L41.2952 6.06306C41.4641 5.96932 41.6705 5.97869 41.8206 6.10055C41.9706 6.22241 42.0363 6.41926 41.98 6.59736L30.4322 46.7452C30.3853 46.9233 30.2352 47.0452 30.057 47.0827C29.8787 47.1108 29.7005 47.0358 29.5973 46.8858L23.359 37.962L12.4022 52.107C12.3272 52.2007 12.2146 52.2663 12.0926 52.2851C12.0645 52.2851 12.0457 52.2851 12.027 52.2851ZM6.13579 46.6515L11.9425 51.1602L23.0119 36.884C23.1058 36.7621 23.2465 36.6965 23.3966 36.7059C23.5467 36.7059 23.6874 36.7809 23.7718 36.9027L29.8131 45.5454L40.7605 7.46912L6.53917 27.529L16.9707 31.7191C17.1114 31.7753 17.2146 31.8878 17.2521 32.0284C17.2896 32.169 17.2615 32.319 17.1677 32.4408L6.13579 46.6515Z" fill="#2C394B"/>
<path d="M106.596 14.0001L104 16.5962L104.787 17.3828L107.382 14.7866L106.596 14.0001Z" fill="#2C394B"/>
<path d="M104.787 14.003L104 14.7896L106.596 17.3853L107.382 16.5987L104.787 14.003Z" fill="#2C394B"/>
<path d="M6.59577 70.0001L4 72.5962L4.78671 73.3828L7.38248 70.7866L6.59577 70.0001Z" fill="#2C394B"/>
<path d="M4.7866 70.003L4 70.7896L6.59577 73.3853L7.38237 72.5987L4.7866 70.003Z" fill="#2C394B"/>
<path d="M13.5958 6.00005L11 8.59619L11.7867 9.38279L14.3825 6.78665L13.5958 6.00005Z" fill="#2C394B"/>
<path d="M11.7866 6.00295L11 6.78955L13.5958 9.38532L14.3824 8.59873L11.7866 6.00295Z" fill="#2C394B"/>
<path d="M60.7957 13.063C60.3993 13.063 60.0879 12.7516 60.0879 12.3552V9.70785C60.0879 9.31145 60.3993 9 60.7957 9C61.1921 9 61.5036 9.31145 61.5036 9.70785V12.3552C61.5036 12.7516 61.1921 13.063 60.7957 13.063Z" fill="#74B9FF"/>
<path d="M60.7957 22.605C60.3993 22.605 60.0879 22.2936 60.0879 21.8972V19.2357C60.0879 18.8393 60.3993 18.5278 60.7957 18.5278C61.1921 18.5278 61.5036 18.8393 61.5036 19.2357V21.8972C61.5036 22.2936 61.1921 22.605 60.7957 22.605Z" fill="#74B9FF"/>
<path d="M57.3552 16.5036H54.7078C54.3115 16.5036 54 16.1921 54 15.7957C54 15.3993 54.3115 15.0879 54.7078 15.0879H57.3552C57.7516 15.0879 58.063 15.3993 58.063 15.7957C58.063 16.1921 57.7516 16.5036 57.3552 16.5036Z" fill="#74B9FF"/>
<path d="M66.8967 16.5036H64.2352C63.8388 16.5036 63.5273 16.1921 63.5273 15.7957C63.5273 15.3993 63.8388 15.0879 64.2352 15.0879H66.8967C67.2931 15.0879 67.6045 15.3993 67.6045 15.7957C67.6045 16.1921 67.2931 16.5036 66.8967 16.5036Z" fill="#74B9FF"/>
<path d="M58.3599 14.0819C58.1758 14.0819 57.9918 14.0111 57.8644 13.8695L55.9957 11.9867C55.7267 11.7035 55.7267 11.2647 55.9957 10.9815C56.2788 10.7125 56.7177 10.7125 57.0008 10.9815L58.8695 12.8644C59.1385 13.1475 59.1385 13.5864 58.8695 13.8695C58.7138 14.0111 58.5439 14.0819 58.3599 14.0819Z" fill="#74B9FF"/>
<path d="M65.1132 20.821C64.9291 20.821 64.7451 20.7502 64.6177 20.6087L62.7348 18.7258C62.4517 18.4427 62.4517 18.0038 62.7348 17.7207C63.018 17.4375 63.4568 17.4375 63.74 17.7207L65.6087 19.6177C65.8918 19.9008 65.8918 20.3397 65.6087 20.6228C65.4813 20.7502 65.2972 20.821 65.1132 20.821Z" fill="#74B9FF"/>
<path d="M56.491 20.821C56.307 20.821 56.1371 20.7502 55.9956 20.6087C55.7124 20.3397 55.7124 19.8867 55.9956 19.6035L57.8643 17.7207C58.1333 17.4375 58.5863 17.4375 58.8694 17.7207C59.1526 17.9896 59.1526 18.4427 58.8694 18.7258L56.9865 20.6087C56.8591 20.7502 56.6751 20.821 56.491 20.821Z" fill="#74B9FF"/>
<path d="M63.2303 14.0823C63.0463 14.0823 62.8622 14.0115 62.7348 13.8699C62.4517 13.5868 62.4517 13.1479 62.7348 12.8648L64.6177 10.996C64.9008 10.7129 65.3397 10.7129 65.6228 10.996C65.906 11.2792 65.906 11.718 65.6228 12.0012L63.7258 13.8699C63.5984 14.0115 63.4143 14.0823 63.2303 14.0823Z" fill="#74B9FF"/>
</svg>
