<svg width="113" height="84" viewBox="0 0 113 84" fill="none" xmlns="http://www.w3.org/2000/svg">
<g clip-path="url(#clip0_254_33364)">
<g clip-path="url(#clip1_254_33364)">
<path d="M81.8655 46.6416C81.8655 46.996 82.1864 47.2833 82.5822 47.2833C82.978 47.2833 83.2988 46.996 83.2988 46.6416C83.2988 46.2873 82.978 46 82.5822 46C82.1864 46 81.8655 46.2873 81.8655 46.6416Z" fill="#2C394B"/>
<path d="M78.9984 46.6416C78.9984 46.996 79.3192 47.2833 79.715 47.2833C80.1108 47.2833 80.4316 46.996 80.4316 46.6416C80.4316 46.2873 80.1108 46 79.715 46C79.3192 46 78.9984 46.2873 78.9984 46.6416Z" fill="#2C394B"/>
<path d="M76.1321 46.6416C76.1321 46.996 76.453 47.2833 76.8488 47.2833C77.2446 47.2833 77.5654 46.996 77.5654 46.6416C77.5654 46.2873 77.2446 46 76.8488 46C76.453 46 76.1321 46.2873 76.1321 46.6416Z" fill="#2C394B"/>
<path d="M73.265 46.6416C73.265 46.996 73.5858 47.2833 73.9816 47.2833C74.3774 47.2833 74.6982 46.996 74.6982 46.6416C74.6982 46.2873 74.3774 46 73.9816 46C73.5858 46 73.265 46.2873 73.265 46.6416Z" fill="#2C394B"/>
<path d="M70.3987 46.6416C70.3987 46.996 70.7196 47.2833 71.1154 47.2833C71.5112 47.2833 71.832 46.996 71.832 46.6416C71.832 46.2873 71.5112 46 71.1154 46C70.7196 46 70.3987 46.2873 70.3987 46.6416Z" fill="#2C394B"/>
<path d="M67.5325 46.6416C67.5325 46.996 67.8534 47.2833 68.2492 47.2833C68.645 47.2833 68.9658 46.996 68.9658 46.6416C68.9658 46.2873 68.645 46 68.2492 46C67.8534 46 67.5325 46.2873 67.5325 46.6416Z" fill="#2C394B"/>
<path d="M64.6653 46.6416C64.6653 46.996 64.9862 47.2833 65.382 47.2833C65.7778 47.2833 66.0986 46.996 66.0986 46.6416C66.0986 46.2873 65.7778 46 65.382 46C64.9862 46 64.6653 46.2873 64.6653 46.6416Z" fill="#2C394B"/>
<path d="M61.7991 46.6416C61.7991 46.996 62.12 47.2833 62.5158 47.2833C62.9116 47.2833 63.2324 46.996 63.2324 46.6416C63.2324 46.2873 62.9116 46 62.5158 46C62.12 46 61.7991 46.2873 61.7991 46.6416Z" fill="#2C394B"/>
<path d="M58.9329 46.6416C58.9329 46.996 59.2538 47.2833 59.6496 47.2833C60.0454 47.2833 60.3662 46.996 60.3662 46.6416C60.3662 46.2873 60.0454 46 59.6496 46C59.2538 46 58.9329 46.2873 58.9329 46.6416Z" fill="#2C394B"/>
<path d="M56.0657 46.6416C56.0657 46.996 56.3866 47.2833 56.7824 47.2833C57.1782 47.2833 57.499 46.996 57.499 46.6416C57.499 46.2873 57.1782 46 56.7824 46C56.3866 46 56.0657 46.2873 56.0657 46.6416Z" fill="#2C394B"/>
<path d="M53.1995 46.6416C53.1995 46.996 53.5204 47.2833 53.9162 47.2833C54.312 47.2833 54.6328 46.996 54.6328 46.6416C54.6328 46.2873 54.312 46 53.9162 46C53.5204 46 53.1995 46.2873 53.1995 46.6416Z" fill="#2C394B"/>
<path d="M81.8655 49.208C81.8655 49.5624 82.1864 49.8497 82.5822 49.8497C82.978 49.8497 83.2988 49.5624 83.2988 49.208C83.2988 48.8537 82.978 48.5664 82.5822 48.5664C82.1864 48.5664 81.8655 48.8537 81.8655 49.208Z" fill="#2C394B"/>
<path d="M78.9984 49.208C78.9984 49.5624 79.3192 49.8497 79.715 49.8497C80.1108 49.8497 80.4316 49.5624 80.4316 49.208C80.4316 48.8537 80.1108 48.5664 79.715 48.5664C79.3192 48.5664 78.9984 48.8537 78.9984 49.208Z" fill="#2C394B"/>
<path d="M76.1321 49.208C76.1321 49.5624 76.453 49.8497 76.8488 49.8497C77.2446 49.8497 77.5654 49.5624 77.5654 49.208C77.5654 48.8537 77.2446 48.5664 76.8488 48.5664C76.453 48.5664 76.1321 48.8537 76.1321 49.208Z" fill="#2C394B"/>
<path d="M73.265 49.208C73.265 49.5624 73.5858 49.8497 73.9816 49.8497C74.3774 49.8497 74.6982 49.5624 74.6982 49.208C74.6982 48.8537 74.3774 48.5664 73.9816 48.5664C73.5858 48.5664 73.265 48.8537 73.265 49.208Z" fill="#2C394B"/>
<path d="M70.3987 49.208C70.3987 49.5624 70.7196 49.8497 71.1154 49.8497C71.5112 49.8497 71.832 49.5624 71.832 49.208C71.832 48.8537 71.5112 48.5664 71.1154 48.5664C70.7196 48.5664 70.3987 48.8537 70.3987 49.208Z" fill="#2C394B"/>
<path d="M67.5325 49.208C67.5325 49.5624 67.8534 49.8497 68.2492 49.8497C68.645 49.8497 68.9658 49.5624 68.9658 49.208C68.9658 48.8537 68.645 48.5664 68.2492 48.5664C67.8534 48.5664 67.5325 48.8537 67.5325 49.208Z" fill="#2C394B"/>
<path d="M64.6653 49.208C64.6653 49.5624 64.9862 49.8497 65.382 49.8497C65.7778 49.8497 66.0986 49.5624 66.0986 49.208C66.0986 48.8537 65.7778 48.5664 65.382 48.5664C64.9862 48.5664 64.6653 48.8537 64.6653 49.208Z" fill="#2C394B"/>
<path d="M61.7991 49.208C61.7991 49.5624 62.12 49.8497 62.5158 49.8497C62.9116 49.8497 63.2324 49.5624 63.2324 49.208C63.2324 48.8537 62.9116 48.5664 62.5158 48.5664C62.12 48.5664 61.7991 48.8537 61.7991 49.208Z" fill="#2C394B"/>
<path d="M58.9329 49.208C58.9329 49.5624 59.2538 49.8497 59.6496 49.8497C60.0454 49.8497 60.3662 49.5624 60.3662 49.208C60.3662 48.8537 60.0454 48.5664 59.6496 48.5664C59.2538 48.5664 58.9329 48.8537 58.9329 49.208Z" fill="#2C394B"/>
<path d="M56.0657 49.208C56.0657 49.5624 56.3866 49.8497 56.7824 49.8497C57.1782 49.8497 57.499 49.5624 57.499 49.208C57.499 48.8537 57.1782 48.5664 56.7824 48.5664C56.3866 48.5664 56.0657 48.8537 56.0657 49.208Z" fill="#2C394B"/>
<path d="M53.1995 49.208C53.1995 49.5624 53.5204 49.8497 53.9162 49.8497C54.312 49.8497 54.6328 49.5624 54.6328 49.208C54.6328 48.8537 54.312 48.5664 53.9162 48.5664C53.5204 48.5664 53.1995 48.8537 53.1995 49.208Z" fill="#2C394B"/>
<path d="M50.3323 49.208C50.3323 49.5624 50.6532 49.8497 51.049 49.8497C51.4448 49.8497 51.7656 49.5624 51.7656 49.208C51.7656 48.8537 51.4448 48.5664 51.049 48.5664C50.6532 48.5664 50.3323 48.8537 50.3323 49.208Z" fill="#2C394B"/>
<path d="M81.8655 51.7744C81.8655 52.1288 82.1864 52.4161 82.5822 52.4161C82.978 52.4161 83.2988 52.1288 83.2988 51.7744C83.2988 51.4201 82.978 51.1328 82.5822 51.1328C82.1864 51.1328 81.8655 51.4201 81.8655 51.7744Z" fill="#2C394B"/>
<path d="M78.9984 51.7744C78.9984 52.1288 79.3192 52.4161 79.715 52.4161C80.1108 52.4161 80.4316 52.1288 80.4316 51.7744C80.4316 51.4201 80.1108 51.1328 79.715 51.1328C79.3192 51.1328 78.9984 51.4201 78.9984 51.7744Z" fill="#2C394B"/>
<path d="M76.1321 51.7744C76.1321 52.1288 76.453 52.4161 76.8488 52.4161C77.2446 52.4161 77.5654 52.1288 77.5654 51.7744C77.5654 51.4201 77.2446 51.1328 76.8488 51.1328C76.453 51.1328 76.1321 51.4201 76.1321 51.7744Z" fill="#2C394B"/>
<path d="M73.265 51.7744C73.265 52.1288 73.5858 52.4161 73.9816 52.4161C74.3774 52.4161 74.6982 52.1288 74.6982 51.7744C74.6982 51.4201 74.3774 51.1328 73.9816 51.1328C73.5858 51.1328 73.265 51.4201 73.265 51.7744Z" fill="#2C394B"/>
<path d="M70.3987 51.7744C70.3987 52.1288 70.7196 52.4161 71.1154 52.4161C71.5112 52.4161 71.832 52.1288 71.832 51.7744C71.832 51.4201 71.5112 51.1328 71.1154 51.1328C70.7196 51.1328 70.3987 51.4201 70.3987 51.7744Z" fill="#2C394B"/>
<path d="M67.5325 51.7744C67.5325 52.1288 67.8534 52.4161 68.2492 52.4161C68.645 52.4161 68.9658 52.1288 68.9658 51.7744C68.9658 51.4201 68.645 51.1328 68.2492 51.1328C67.8534 51.1328 67.5325 51.4201 67.5325 51.7744Z" fill="#2C394B"/>
<path d="M64.6653 51.7744C64.6653 52.1288 64.9862 52.4161 65.382 52.4161C65.7778 52.4161 66.0986 52.1288 66.0986 51.7744C66.0986 51.4201 65.7778 51.1328 65.382 51.1328C64.9862 51.1328 64.6653 51.4201 64.6653 51.7744Z" fill="#2C394B"/>
<path d="M61.7991 51.7744C61.7991 52.1288 62.12 52.4161 62.5158 52.4161C62.9116 52.4161 63.2324 52.1288 63.2324 51.7744C63.2324 51.4201 62.9116 51.1328 62.5158 51.1328C62.12 51.1328 61.7991 51.4201 61.7991 51.7744Z" fill="#2C394B"/>
<path d="M58.9329 51.7744C58.9329 52.1288 59.2538 52.4161 59.6496 52.4161C60.0454 52.4161 60.3662 52.1288 60.3662 51.7744C60.3662 51.4201 60.0454 51.1328 59.6496 51.1328C59.2538 51.1328 58.9329 51.4201 58.9329 51.7744Z" fill="#2C394B"/>
<path d="M56.0657 51.7744C56.0657 52.1288 56.3866 52.4161 56.7824 52.4161C57.1782 52.4161 57.499 52.1288 57.499 51.7744C57.499 51.4201 57.1782 51.1328 56.7824 51.1328C56.3866 51.1328 56.0657 51.4201 56.0657 51.7744Z" fill="#2C394B"/>
<path d="M53.1995 51.7744C53.1995 52.1288 53.5204 52.4161 53.9162 52.4161C54.312 52.4161 54.6328 52.1288 54.6328 51.7744C54.6328 51.4201 54.312 51.1328 53.9162 51.1328C53.5204 51.1328 53.1995 51.4201 53.1995 51.7744Z" fill="#2C394B"/>
<path d="M50.3323 51.7744C50.3323 52.1288 50.6532 52.4161 51.049 52.4161C51.4448 52.4161 51.7656 52.1288 51.7656 51.7744C51.7656 51.4201 51.4448 51.1328 51.049 51.1328C50.6532 51.1328 50.3323 51.4201 50.3323 51.7744Z" fill="#2C394B"/>
<path d="M47.4661 51.7744C47.4661 52.1288 47.787 52.4161 48.1828 52.4161C48.5786 52.4161 48.8994 52.1288 48.8994 51.7744C48.8994 51.4201 48.5786 51.1328 48.1828 51.1328C47.787 51.1328 47.4661 51.4201 47.4661 51.7744Z" fill="#2C394B"/>
<path d="M81.8655 54.3408C81.8655 54.6952 82.1864 54.9825 82.5822 54.9825C82.978 54.9825 83.2988 54.6952 83.2988 54.3408C83.2988 53.9865 82.978 53.6992 82.5822 53.6992C82.1864 53.6992 81.8655 53.9865 81.8655 54.3408Z" fill="#2C394B"/>
<path d="M78.9984 54.3408C78.9984 54.6952 79.3192 54.9825 79.715 54.9825C80.1108 54.9825 80.4316 54.6952 80.4316 54.3408C80.4316 53.9865 80.1108 53.6992 79.715 53.6992C79.3192 53.6992 78.9984 53.9865 78.9984 54.3408Z" fill="#2C394B"/>
<path d="M76.1321 54.3408C76.1321 54.6952 76.453 54.9825 76.8488 54.9825C77.2446 54.9825 77.5654 54.6952 77.5654 54.3408C77.5654 53.9865 77.2446 53.6992 76.8488 53.6992C76.453 53.6992 76.1321 53.9865 76.1321 54.3408Z" fill="#2C394B"/>
<path d="M73.265 54.3408C73.265 54.6952 73.5858 54.9825 73.9816 54.9825C74.3774 54.9825 74.6982 54.6952 74.6982 54.3408C74.6982 53.9865 74.3774 53.6992 73.9816 53.6992C73.5858 53.6992 73.265 53.9865 73.265 54.3408Z" fill="#2C394B"/>
<path d="M70.3987 54.3408C70.3987 54.6952 70.7196 54.9825 71.1154 54.9825C71.5112 54.9825 71.832 54.6952 71.832 54.3408C71.832 53.9865 71.5112 53.6992 71.1154 53.6992C70.7196 53.6992 70.3987 53.9865 70.3987 54.3408Z" fill="#2C394B"/>
<path d="M67.5325 54.3408C67.5325 54.6952 67.8534 54.9825 68.2492 54.9825C68.645 54.9825 68.9658 54.6952 68.9658 54.3408C68.9658 53.9865 68.645 53.6992 68.2492 53.6992C67.8534 53.6992 67.5325 53.9865 67.5325 54.3408Z" fill="#2C394B"/>
<path d="M64.6654 54.3408C64.6654 54.6952 64.9862 54.9825 65.382 54.9825C65.7778 54.9825 66.0986 54.6952 66.0986 54.3408C66.0986 53.9865 65.7778 53.6992 65.382 53.6992C64.9862 53.6992 64.6654 53.9865 64.6654 54.3408Z" fill="#2C394B"/>
<path d="M61.7991 54.3408C61.7991 54.6952 62.12 54.9825 62.5158 54.9825C62.9116 54.9825 63.2324 54.6952 63.2324 54.3408C63.2324 53.9865 62.9116 53.6992 62.5158 53.6992C62.12 53.6992 61.7991 53.9865 61.7991 54.3408Z" fill="#2C394B"/>
<path d="M58.9329 54.3408C58.9329 54.6952 59.2538 54.9825 59.6496 54.9825C60.0454 54.9825 60.3662 54.6952 60.3662 54.3408C60.3662 53.9865 60.0454 53.6992 59.6496 53.6992C59.2538 53.6992 58.9329 53.9865 58.9329 54.3408Z" fill="#2C394B"/>
<path d="M56.0657 54.3408C56.0657 54.6952 56.3866 54.9825 56.7824 54.9825C57.1782 54.9825 57.499 54.6952 57.499 54.3408C57.499 53.9865 57.1782 53.6992 56.7824 53.6992C56.3866 53.6992 56.0657 53.9865 56.0657 54.3408Z" fill="#2C394B"/>
<path d="M53.1995 54.3408C53.1995 54.6952 53.5204 54.9825 53.9162 54.9825C54.312 54.9825 54.6328 54.6952 54.6328 54.3408C54.6328 53.9865 54.312 53.6992 53.9162 53.6992C53.5204 53.6992 53.1995 53.9865 53.1995 54.3408Z" fill="#2C394B"/>
<path d="M50.3323 54.3408C50.3323 54.6952 50.6532 54.9825 51.049 54.9825C51.4448 54.9825 51.7656 54.6952 51.7656 54.3408C51.7656 53.9865 51.4448 53.6992 51.049 53.6992C50.6532 53.6992 50.3323 53.9865 50.3323 54.3408Z" fill="#2C394B"/>
<path d="M47.4661 54.3408C47.4661 54.6952 47.787 54.9825 48.1828 54.9825C48.5786 54.9825 48.8994 54.6952 48.8994 54.3408C48.8994 53.9865 48.5786 53.6992 48.1828 53.6992C47.787 53.6992 47.4661 53.9865 47.4661 54.3408Z" fill="#2C394B"/>
<path d="M44.5999 54.3408C44.5999 54.6952 44.9208 54.9825 45.3166 54.9825C45.7124 54.9825 46.0332 54.6952 46.0332 54.3408C46.0332 53.9865 45.7124 53.6992 45.3166 53.6992C44.9208 53.6992 44.5999 53.9865 44.5999 54.3408Z" fill="#2C394B"/>
<path d="M81.8655 56.9077C81.8655 57.2621 82.1864 57.5494 82.5822 57.5494C82.978 57.5494 83.2988 57.2621 83.2988 56.9077C83.2988 56.5534 82.978 56.2661 82.5822 56.2661C82.1864 56.2661 81.8655 56.5534 81.8655 56.9077Z" fill="#2C394B"/>
<path d="M78.9984 56.9077C78.9984 57.2621 79.3192 57.5494 79.715 57.5494C80.1108 57.5494 80.4316 57.2621 80.4316 56.9077C80.4316 56.5534 80.1108 56.2661 79.715 56.2661C79.3192 56.2661 78.9984 56.5534 78.9984 56.9077Z" fill="#2C394B"/>
<path d="M76.1321 56.9077C76.1321 57.2621 76.453 57.5494 76.8488 57.5494C77.2446 57.5494 77.5654 57.2621 77.5654 56.9077C77.5654 56.5534 77.2446 56.2661 76.8488 56.2661C76.453 56.2661 76.1321 56.5534 76.1321 56.9077Z" fill="#2C394B"/>
<path d="M73.265 56.9077C73.265 57.2621 73.5858 57.5494 73.9816 57.5494C74.3774 57.5494 74.6982 57.2621 74.6982 56.9077C74.6982 56.5534 74.3774 56.2661 73.9816 56.2661C73.5858 56.2661 73.265 56.5534 73.265 56.9077Z" fill="#2C394B"/>
<path d="M70.3987 56.9077C70.3987 57.2621 70.7196 57.5494 71.1154 57.5494C71.5112 57.5494 71.832 57.2621 71.832 56.9077C71.832 56.5534 71.5112 56.2661 71.1154 56.2661C70.7196 56.2661 70.3987 56.5534 70.3987 56.9077Z" fill="#2C394B"/>
<path d="M67.5325 56.9077C67.5325 57.2621 67.8534 57.5494 68.2492 57.5494C68.645 57.5494 68.9658 57.2621 68.9658 56.9077C68.9658 56.5534 68.645 56.2661 68.2492 56.2661C67.8534 56.2661 67.5325 56.5534 67.5325 56.9077Z" fill="#2C394B"/>
<path d="M64.6654 56.9077C64.6654 57.2621 64.9862 57.5494 65.382 57.5494C65.7778 57.5494 66.0986 57.2621 66.0986 56.9077C66.0986 56.5534 65.7778 56.2661 65.382 56.2661C64.9862 56.2661 64.6654 56.5534 64.6654 56.9077Z" fill="#2C394B"/>
<path d="M61.7991 56.9077C61.7991 57.2621 62.12 57.5494 62.5158 57.5494C62.9116 57.5494 63.2324 57.2621 63.2324 56.9077C63.2324 56.5534 62.9116 56.2661 62.5158 56.2661C62.12 56.2661 61.7991 56.5534 61.7991 56.9077Z" fill="#2C394B"/>
<path d="M58.9329 56.9077C58.9329 57.2621 59.2538 57.5494 59.6496 57.5494C60.0454 57.5494 60.3662 57.2621 60.3662 56.9077C60.3662 56.5534 60.0454 56.2661 59.6496 56.2661C59.2538 56.2661 58.9329 56.5534 58.9329 56.9077Z" fill="#2C394B"/>
<path d="M56.0657 56.9077C56.0657 57.2621 56.3866 57.5494 56.7824 57.5494C57.1782 57.5494 57.499 57.2621 57.499 56.9077C57.499 56.5534 57.1782 56.2661 56.7824 56.2661C56.3866 56.2661 56.0657 56.5534 56.0657 56.9077Z" fill="#2C394B"/>
<path d="M53.1995 56.9077C53.1995 57.2621 53.5204 57.5494 53.9162 57.5494C54.312 57.5494 54.6328 57.2621 54.6328 56.9077C54.6328 56.5534 54.312 56.2661 53.9162 56.2661C53.5204 56.2661 53.1995 56.5534 53.1995 56.9077Z" fill="#2C394B"/>
<path d="M50.3323 56.9077C50.3323 57.2621 50.6532 57.5494 51.049 57.5494C51.4448 57.5494 51.7656 57.2621 51.7656 56.9077C51.7656 56.5534 51.4448 56.2661 51.049 56.2661C50.6532 56.2661 50.3323 56.5534 50.3323 56.9077Z" fill="#2C394B"/>
<path d="M47.4661 56.9077C47.4661 57.2621 47.787 57.5494 48.1828 57.5494C48.5786 57.5494 48.8994 57.2621 48.8994 56.9077C48.8994 56.5534 48.5786 56.2661 48.1828 56.2661C47.787 56.2661 47.4661 56.5534 47.4661 56.9077Z" fill="#2C394B"/>
<path d="M44.5999 56.9077C44.5999 57.2621 44.9208 57.5494 45.3166 57.5494C45.7124 57.5494 46.0332 57.2621 46.0332 56.9077C46.0332 56.5534 45.7124 56.2661 45.3166 56.2661C44.9208 56.2661 44.5999 56.5534 44.5999 56.9077Z" fill="#2C394B"/>
<path d="M41.7327 56.9077C41.7327 57.2621 42.0536 57.5494 42.4494 57.5494C42.8452 57.5494 43.166 57.2621 43.166 56.9077C43.166 56.5534 42.8452 56.2661 42.4494 56.2661C42.0536 56.2661 41.7327 56.5534 41.7327 56.9077Z" fill="#2C394B"/>
<path d="M81.8655 59.4741C81.8655 59.8285 82.1864 60.1158 82.5822 60.1158C82.978 60.1158 83.2988 59.8285 83.2988 59.4741C83.2988 59.1198 82.978 58.8325 82.5822 58.8325C82.1864 58.8325 81.8655 59.1198 81.8655 59.4741Z" fill="#2C394B"/>
<path d="M78.9984 59.4741C78.9984 59.8285 79.3192 60.1158 79.715 60.1158C80.1108 60.1158 80.4316 59.8285 80.4316 59.4741C80.4316 59.1198 80.1108 58.8325 79.715 58.8325C79.3192 58.8325 78.9984 59.1198 78.9984 59.4741Z" fill="#2C394B"/>
<path d="M76.1321 59.4741C76.1321 59.8285 76.453 60.1158 76.8488 60.1158C77.2446 60.1158 77.5654 59.8285 77.5654 59.4741C77.5654 59.1198 77.2446 58.8325 76.8488 58.8325C76.453 58.8325 76.1321 59.1198 76.1321 59.4741Z" fill="#2C394B"/>
<path d="M73.265 59.4741C73.265 59.8285 73.5858 60.1158 73.9816 60.1158C74.3774 60.1158 74.6982 59.8285 74.6982 59.4741C74.6982 59.1198 74.3774 58.8325 73.9816 58.8325C73.5858 58.8325 73.265 59.1198 73.265 59.4741Z" fill="#2C394B"/>
<path d="M70.3987 59.4741C70.3987 59.8285 70.7196 60.1158 71.1154 60.1158C71.5112 60.1158 71.832 59.8285 71.832 59.4741C71.832 59.1198 71.5112 58.8325 71.1154 58.8325C70.7196 58.8325 70.3987 59.1198 70.3987 59.4741Z" fill="#2C394B"/>
<path d="M67.5325 59.4741C67.5325 59.8285 67.8534 60.1158 68.2492 60.1158C68.645 60.1158 68.9658 59.8285 68.9658 59.4741C68.9658 59.1198 68.645 58.8325 68.2492 58.8325C67.8534 58.8325 67.5325 59.1198 67.5325 59.4741Z" fill="#2C394B"/>
<path d="M64.6654 59.4741C64.6654 59.8285 64.9862 60.1158 65.382 60.1158C65.7778 60.1158 66.0986 59.8285 66.0986 59.4741C66.0986 59.1198 65.7778 58.8325 65.382 58.8325C64.9862 58.8325 64.6654 59.1198 64.6654 59.4741Z" fill="#2C394B"/>
<path d="M61.7991 59.4741C61.7991 59.8285 62.12 60.1158 62.5158 60.1158C62.9116 60.1158 63.2324 59.8285 63.2324 59.4741C63.2324 59.1198 62.9116 58.8325 62.5158 58.8325C62.12 58.8325 61.7991 59.1198 61.7991 59.4741Z" fill="#2C394B"/>
<path d="M58.9329 59.4741C58.9329 59.8285 59.2538 60.1158 59.6496 60.1158C60.0454 60.1158 60.3662 59.8285 60.3662 59.4741C60.3662 59.1198 60.0454 58.8325 59.6496 58.8325C59.2538 58.8325 58.9329 59.1198 58.9329 59.4741Z" fill="#2C394B"/>
<path d="M56.0657 59.4741C56.0657 59.8285 56.3866 60.1158 56.7824 60.1158C57.1782 60.1158 57.499 59.8285 57.499 59.4741C57.499 59.1198 57.1782 58.8325 56.7824 58.8325C56.3866 58.8325 56.0657 59.1198 56.0657 59.4741Z" fill="#2C394B"/>
<path d="M53.1995 59.4741C53.1995 59.8285 53.5204 60.1158 53.9162 60.1158C54.312 60.1158 54.6328 59.8285 54.6328 59.4741C54.6328 59.1198 54.312 58.8325 53.9162 58.8325C53.5204 58.8325 53.1995 59.1198 53.1995 59.4741Z" fill="#2C394B"/>
<path d="M50.3323 59.4741C50.3323 59.8285 50.6532 60.1158 51.049 60.1158C51.4448 60.1158 51.7656 59.8285 51.7656 59.4741C51.7656 59.1198 51.4448 58.8325 51.049 58.8325C50.6532 58.8325 50.3323 59.1198 50.3323 59.4741Z" fill="#2C394B"/>
<path d="M47.4661 59.4741C47.4661 59.8285 47.787 60.1158 48.1828 60.1158C48.5786 60.1158 48.8994 59.8285 48.8994 59.4741C48.8994 59.1198 48.5786 58.8325 48.1828 58.8325C47.787 58.8325 47.4661 59.1198 47.4661 59.4741Z" fill="#2C394B"/>
<path d="M44.5999 59.4741C44.5999 59.8285 44.9208 60.1158 45.3166 60.1158C45.7124 60.1158 46.0332 59.8285 46.0332 59.4741C46.0332 59.1198 45.7124 58.8325 45.3166 58.8325C44.9208 58.8325 44.5999 59.1198 44.5999 59.4741Z" fill="#2C394B"/>
<path d="M41.7327 59.4741C41.7327 59.8285 42.0536 60.1158 42.4494 60.1158C42.8452 60.1158 43.166 59.8285 43.166 59.4741C43.166 59.1198 42.8452 58.8325 42.4494 58.8325C42.0536 58.8325 41.7327 59.1198 41.7327 59.4741Z" fill="#2C394B"/>
<path d="M81.8655 62.0405C81.8655 62.3949 82.1864 62.6822 82.5822 62.6822C82.978 62.6822 83.2988 62.3949 83.2988 62.0405C83.2988 61.6862 82.978 61.3989 82.5822 61.3989C82.1864 61.3989 81.8655 61.6862 81.8655 62.0405Z" fill="#2C394B"/>
<path d="M78.9984 62.0405C78.9984 62.3949 79.3192 62.6822 79.715 62.6822C80.1108 62.6822 80.4316 62.3949 80.4316 62.0405C80.4316 61.6862 80.1108 61.3989 79.715 61.3989C79.3192 61.3989 78.9984 61.6862 78.9984 62.0405Z" fill="#2C394B"/>
<path d="M76.1321 62.0405C76.1321 62.3949 76.453 62.6822 76.8488 62.6822C77.2446 62.6822 77.5654 62.3949 77.5654 62.0405C77.5654 61.6862 77.2446 61.3989 76.8488 61.3989C76.453 61.3989 76.1321 61.6862 76.1321 62.0405Z" fill="#2C394B"/>
<path d="M73.265 62.0405C73.265 62.3949 73.5858 62.6822 73.9816 62.6822C74.3774 62.6822 74.6982 62.3949 74.6982 62.0405C74.6982 61.6862 74.3774 61.3989 73.9816 61.3989C73.5858 61.3989 73.265 61.6862 73.265 62.0405Z" fill="#2C394B"/>
<path d="M70.3987 62.0405C70.3987 62.3949 70.7196 62.6822 71.1154 62.6822C71.5112 62.6822 71.832 62.3949 71.832 62.0405C71.832 61.6862 71.5112 61.3989 71.1154 61.3989C70.7196 61.3989 70.3987 61.6862 70.3987 62.0405Z" fill="#2C394B"/>
<path d="M67.5325 62.0405C67.5325 62.3949 67.8534 62.6822 68.2492 62.6822C68.645 62.6822 68.9658 62.3949 68.9658 62.0405C68.9658 61.6862 68.645 61.3989 68.2492 61.3989C67.8534 61.3989 67.5325 61.6862 67.5325 62.0405Z" fill="#2C394B"/>
<path d="M64.6654 62.0405C64.6654 62.3949 64.9862 62.6822 65.382 62.6822C65.7778 62.6822 66.0986 62.3949 66.0986 62.0405C66.0986 61.6862 65.7778 61.3989 65.382 61.3989C64.9862 61.3989 64.6654 61.6862 64.6654 62.0405Z" fill="#2C394B"/>
<path d="M61.7991 62.0405C61.7991 62.3949 62.12 62.6822 62.5158 62.6822C62.9116 62.6822 63.2324 62.3949 63.2324 62.0405C63.2324 61.6862 62.9116 61.3989 62.5158 61.3989C62.12 61.3989 61.7991 61.6862 61.7991 62.0405Z" fill="#2C394B"/>
<path d="M58.9329 62.0405C58.9329 62.3949 59.2538 62.6822 59.6496 62.6822C60.0454 62.6822 60.3662 62.3949 60.3662 62.0405C60.3662 61.6862 60.0454 61.3989 59.6496 61.3989C59.2538 61.3989 58.9329 61.6862 58.9329 62.0405Z" fill="#2C394B"/>
<path d="M56.0657 62.0405C56.0657 62.3949 56.3866 62.6822 56.7824 62.6822C57.1782 62.6822 57.499 62.3949 57.499 62.0405C57.499 61.6862 57.1782 61.3989 56.7824 61.3989C56.3866 61.3989 56.0657 61.6862 56.0657 62.0405Z" fill="#2C394B"/>
<path d="M53.1995 62.0405C53.1995 62.3949 53.5204 62.6822 53.9162 62.6822C54.312 62.6822 54.6328 62.3949 54.6328 62.0405C54.6328 61.6862 54.312 61.3989 53.9162 61.3989C53.5204 61.3989 53.1995 61.6862 53.1995 62.0405Z" fill="#2C394B"/>
<path d="M50.3323 62.0405C50.3323 62.3949 50.6532 62.6822 51.049 62.6822C51.4448 62.6822 51.7656 62.3949 51.7656 62.0405C51.7656 61.6862 51.4448 61.3989 51.049 61.3989C50.6532 61.3989 50.3323 61.6862 50.3323 62.0405Z" fill="#2C394B"/>
<path d="M47.4661 62.0405C47.4661 62.3949 47.787 62.6822 48.1828 62.6822C48.5786 62.6822 48.8994 62.3949 48.8994 62.0405C48.8994 61.6862 48.5786 61.3989 48.1828 61.3989C47.787 61.3989 47.4661 61.6862 47.4661 62.0405Z" fill="#2C394B"/>
<path d="M44.5999 62.0405C44.5999 62.3949 44.9208 62.6822 45.3166 62.6822C45.7124 62.6822 46.0332 62.3949 46.0332 62.0405C46.0332 61.6862 45.7124 61.3989 45.3166 61.3989C44.9208 61.3989 44.5999 61.6862 44.5999 62.0405Z" fill="#2C394B"/>
<path d="M41.7327 62.0405C41.7327 62.3949 42.0536 62.6822 42.4494 62.6822C42.8452 62.6822 43.166 62.3949 43.166 62.0405C43.166 61.6862 42.8452 61.3989 42.4494 61.3989C42.0536 61.3989 41.7327 61.6862 41.7327 62.0405Z" fill="#2C394B"/>
<path d="M38.8665 62.0405C38.8665 62.3949 39.1874 62.6822 39.5832 62.6822C39.979 62.6822 40.2998 62.3949 40.2998 62.0405C40.2998 61.6862 39.979 61.3989 39.5832 61.3989C39.1874 61.3989 38.8665 61.6862 38.8665 62.0405Z" fill="#2C394B"/>
<path d="M81.8655 64.6069C81.8655 64.9613 82.1864 65.2485 82.5822 65.2485C82.978 65.2485 83.2988 64.9613 83.2988 64.6069C83.2988 64.2526 82.978 63.9653 82.5822 63.9653C82.1864 63.9653 81.8655 64.2526 81.8655 64.6069Z" fill="#2C394B"/>
<path d="M78.9984 64.6069C78.9984 64.9613 79.3192 65.2485 79.715 65.2485C80.1108 65.2485 80.4316 64.9613 80.4316 64.6069C80.4316 64.2526 80.1108 63.9653 79.715 63.9653C79.3192 63.9653 78.9984 64.2526 78.9984 64.6069Z" fill="#2C394B"/>
<path d="M76.1321 64.6069C76.1321 64.9613 76.453 65.2485 76.8488 65.2485C77.2446 65.2485 77.5654 64.9613 77.5654 64.6069C77.5654 64.2526 77.2446 63.9653 76.8488 63.9653C76.453 63.9653 76.1321 64.2526 76.1321 64.6069Z" fill="#2C394B"/>
<path d="M73.265 64.6069C73.265 64.9613 73.5858 65.2485 73.9816 65.2485C74.3774 65.2485 74.6982 64.9613 74.6982 64.6069C74.6982 64.2526 74.3774 63.9653 73.9816 63.9653C73.5858 63.9653 73.265 64.2526 73.265 64.6069Z" fill="#2C394B"/>
<path d="M70.3987 64.6069C70.3987 64.9613 70.7196 65.2485 71.1154 65.2485C71.5112 65.2485 71.832 64.9613 71.832 64.6069C71.832 64.2526 71.5112 63.9653 71.1154 63.9653C70.7196 63.9653 70.3987 64.2526 70.3987 64.6069Z" fill="#2C394B"/>
<path d="M67.5325 64.6069C67.5325 64.9613 67.8534 65.2485 68.2492 65.2485C68.645 65.2485 68.9658 64.9613 68.9658 64.6069C68.9658 64.2526 68.645 63.9653 68.2492 63.9653C67.8534 63.9653 67.5325 64.2526 67.5325 64.6069Z" fill="#2C394B"/>
<path d="M64.6653 64.6069C64.6653 64.9613 64.9862 65.2485 65.382 65.2485C65.7778 65.2485 66.0986 64.9613 66.0986 64.6069C66.0986 64.2526 65.7778 63.9653 65.382 63.9653C64.9862 63.9653 64.6653 64.2526 64.6653 64.6069Z" fill="#2C394B"/>
<path d="M61.7991 64.6069C61.7991 64.9613 62.12 65.2485 62.5158 65.2485C62.9116 65.2485 63.2324 64.9613 63.2324 64.6069C63.2324 64.2526 62.9116 63.9653 62.5158 63.9653C62.12 63.9653 61.7991 64.2526 61.7991 64.6069Z" fill="#2C394B"/>
<path d="M58.9329 64.6069C58.9329 64.9613 59.2538 65.2485 59.6496 65.2485C60.0454 65.2485 60.3662 64.9613 60.3662 64.6069C60.3662 64.2526 60.0454 63.9653 59.6496 63.9653C59.2538 63.9653 58.9329 64.2526 58.9329 64.6069Z" fill="#2C394B"/>
<path d="M56.0657 64.6069C56.0657 64.9613 56.3866 65.2485 56.7824 65.2485C57.1782 65.2485 57.499 64.9613 57.499 64.6069C57.499 64.2526 57.1782 63.9653 56.7824 63.9653C56.3866 63.9653 56.0657 64.2526 56.0657 64.6069Z" fill="#2C394B"/>
<path d="M53.1995 64.6069C53.1995 64.9613 53.5204 65.2485 53.9162 65.2485C54.312 65.2485 54.6328 64.9613 54.6328 64.6069C54.6328 64.2526 54.312 63.9653 53.9162 63.9653C53.5204 63.9653 53.1995 64.2526 53.1995 64.6069Z" fill="#2C394B"/>
<path d="M50.3323 64.6069C50.3323 64.9613 50.6532 65.2485 51.049 65.2485C51.4448 65.2485 51.7656 64.9613 51.7656 64.6069C51.7656 64.2526 51.4448 63.9653 51.049 63.9653C50.6532 63.9653 50.3323 64.2526 50.3323 64.6069Z" fill="#2C394B"/>
<path d="M47.4661 64.6069C47.4661 64.9613 47.787 65.2485 48.1828 65.2485C48.5786 65.2485 48.8994 64.9613 48.8994 64.6069C48.8994 64.2526 48.5786 63.9653 48.1828 63.9653C47.787 63.9653 47.4661 64.2526 47.4661 64.6069Z" fill="#2C394B"/>
<path d="M44.5999 64.6069C44.5999 64.9613 44.9208 65.2485 45.3166 65.2485C45.7124 65.2485 46.0332 64.9613 46.0332 64.6069C46.0332 64.2526 45.7124 63.9653 45.3166 63.9653C44.9208 63.9653 44.5999 64.2526 44.5999 64.6069Z" fill="#2C394B"/>
<path d="M41.7327 64.6069C41.7327 64.9613 42.0536 65.2485 42.4494 65.2485C42.8452 65.2485 43.166 64.9613 43.166 64.6069C43.166 64.2526 42.8452 63.9653 42.4494 63.9653C42.0536 63.9653 41.7327 64.2526 41.7327 64.6069Z" fill="#2C394B"/>
<path d="M38.8665 64.6069C38.8665 64.9613 39.1874 65.2485 39.5832 65.2485C39.979 65.2485 40.2998 64.9613 40.2998 64.6069C40.2998 64.2526 39.979 63.9653 39.5832 63.9653C39.1874 63.9653 38.8665 64.2526 38.8665 64.6069Z" fill="#2C394B"/>
<path d="M36.0003 64.6069C36.0003 64.9613 36.3212 65.2485 36.717 65.2485C37.1127 65.2485 37.4336 64.9613 37.4336 64.6069C37.4336 64.2526 37.1127 63.9653 36.717 63.9653C36.3212 63.9653 36.0003 64.2526 36.0003 64.6069Z" fill="#2C394B"/>
<path d="M81.8655 67.1733C81.8655 67.5277 82.1864 67.815 82.5822 67.815C82.978 67.815 83.2988 67.5277 83.2988 67.1733C83.2988 66.819 82.978 66.5317 82.5822 66.5317C82.1864 66.5317 81.8655 66.819 81.8655 67.1733Z" fill="#2C394B"/>
<path d="M78.9984 67.1733C78.9984 67.5277 79.3192 67.815 79.715 67.815C80.1108 67.815 80.4316 67.5277 80.4316 67.1733C80.4316 66.819 80.1108 66.5317 79.715 66.5317C79.3192 66.5317 78.9984 66.819 78.9984 67.1733Z" fill="#2C394B"/>
<path d="M76.1321 67.1733C76.1321 67.5277 76.453 67.815 76.8488 67.815C77.2446 67.815 77.5654 67.5277 77.5654 67.1733C77.5654 66.819 77.2446 66.5317 76.8488 66.5317C76.453 66.5317 76.1321 66.819 76.1321 67.1733Z" fill="#2C394B"/>
<path d="M73.265 67.1733C73.265 67.5277 73.5858 67.815 73.9816 67.815C74.3774 67.815 74.6982 67.5277 74.6982 67.1733C74.6982 66.819 74.3774 66.5317 73.9816 66.5317C73.5858 66.5317 73.265 66.819 73.265 67.1733Z" fill="#2C394B"/>
<path d="M70.3987 67.1733C70.3987 67.5277 70.7196 67.815 71.1154 67.815C71.5112 67.815 71.832 67.5277 71.832 67.1733C71.832 66.819 71.5112 66.5317 71.1154 66.5317C70.7196 66.5317 70.3987 66.819 70.3987 67.1733Z" fill="#2C394B"/>
<path d="M67.5325 67.1733C67.5325 67.5277 67.8534 67.815 68.2492 67.815C68.645 67.815 68.9658 67.5277 68.9658 67.1733C68.9658 66.819 68.645 66.5317 68.2492 66.5317C67.8534 66.5317 67.5325 66.819 67.5325 67.1733Z" fill="#2C394B"/>
<path d="M64.6653 67.1733C64.6653 67.5277 64.9862 67.815 65.382 67.815C65.7778 67.815 66.0986 67.5277 66.0986 67.1733C66.0986 66.819 65.7778 66.5317 65.382 66.5317C64.9862 66.5317 64.6653 66.819 64.6653 67.1733Z" fill="#2C394B"/>
<path d="M61.7991 67.1733C61.7991 67.5277 62.12 67.815 62.5158 67.815C62.9116 67.815 63.2324 67.5277 63.2324 67.1733C63.2324 66.819 62.9116 66.5317 62.5158 66.5317C62.12 66.5317 61.7991 66.819 61.7991 67.1733Z" fill="#2C394B"/>
<path d="M58.9329 67.1733C58.9329 67.5277 59.2538 67.815 59.6496 67.815C60.0454 67.815 60.3662 67.5277 60.3662 67.1733C60.3662 66.819 60.0454 66.5317 59.6496 66.5317C59.2538 66.5317 58.9329 66.819 58.9329 67.1733Z" fill="#2C394B"/>
<path d="M56.0657 67.1733C56.0657 67.5277 56.3866 67.815 56.7824 67.815C57.1782 67.815 57.499 67.5277 57.499 67.1733C57.499 66.819 57.1782 66.5317 56.7824 66.5317C56.3866 66.5317 56.0657 66.819 56.0657 67.1733Z" fill="#2C394B"/>
<path d="M53.1995 67.1733C53.1995 67.5277 53.5204 67.815 53.9162 67.815C54.312 67.815 54.6328 67.5277 54.6328 67.1733C54.6328 66.819 54.312 66.5317 53.9162 66.5317C53.5204 66.5317 53.1995 66.819 53.1995 67.1733Z" fill="#2C394B"/>
<path d="M50.3323 67.1733C50.3323 67.5277 50.6532 67.815 51.049 67.815C51.4448 67.815 51.7656 67.5277 51.7656 67.1733C51.7656 66.819 51.4448 66.5317 51.049 66.5317C50.6532 66.5317 50.3323 66.819 50.3323 67.1733Z" fill="#2C394B"/>
<path d="M47.4661 67.1733C47.4661 67.5277 47.787 67.815 48.1828 67.815C48.5786 67.815 48.8994 67.5277 48.8994 67.1733C48.8994 66.819 48.5786 66.5317 48.1828 66.5317C47.787 66.5317 47.4661 66.819 47.4661 67.1733Z" fill="#2C394B"/>
<path d="M44.5999 67.1733C44.5999 67.5277 44.9208 67.815 45.3166 67.815C45.7124 67.815 46.0332 67.5277 46.0332 67.1733C46.0332 66.819 45.7124 66.5317 45.3166 66.5317C44.9208 66.5317 44.5999 66.819 44.5999 67.1733Z" fill="#2C394B"/>
<path d="M41.7327 67.1733C41.7327 67.5277 42.0536 67.815 42.4494 67.815C42.8452 67.815 43.166 67.5277 43.166 67.1733C43.166 66.819 42.8452 66.5317 42.4494 66.5317C42.0536 66.5317 41.7327 66.819 41.7327 67.1733Z" fill="#2C394B"/>
<path d="M38.8665 67.1733C38.8665 67.5277 39.1874 67.815 39.5832 67.815C39.979 67.815 40.2998 67.5277 40.2998 67.1733C40.2998 66.819 39.979 66.5317 39.5832 66.5317C39.1874 66.5317 38.8665 66.819 38.8665 67.1733Z" fill="#2C394B"/>
<path d="M36.0003 67.1733C36.0003 67.5277 36.3212 67.815 36.717 67.815C37.1127 67.815 37.4336 67.5277 37.4336 67.1733C37.4336 66.819 37.1127 66.5317 36.717 66.5317C36.3212 66.5317 36.0003 66.819 36.0003 67.1733Z" fill="#2C394B"/>
<path d="M81.8655 69.7398C81.8655 70.0941 82.1864 70.3814 82.5822 70.3814C82.978 70.3814 83.2988 70.0941 83.2988 69.7398C83.2988 69.3854 82.978 69.0981 82.5822 69.0981C82.1864 69.0981 81.8655 69.3854 81.8655 69.7398Z" fill="#2C394B"/>
<path d="M78.9984 69.7398C78.9984 70.0941 79.3192 70.3814 79.715 70.3814C80.1108 70.3814 80.4316 70.0941 80.4316 69.7398C80.4316 69.3854 80.1108 69.0981 79.715 69.0981C79.3192 69.0981 78.9984 69.3854 78.9984 69.7398Z" fill="#2C394B"/>
<path d="M76.1321 69.7398C76.1321 70.0941 76.453 70.3814 76.8488 70.3814C77.2446 70.3814 77.5654 70.0941 77.5654 69.7398C77.5654 69.3854 77.2446 69.0981 76.8488 69.0981C76.453 69.0981 76.1321 69.3854 76.1321 69.7398Z" fill="#2C394B"/>
<path d="M73.265 69.7398C73.265 70.0941 73.5858 70.3814 73.9816 70.3814C74.3774 70.3814 74.6982 70.0941 74.6982 69.7398C74.6982 69.3854 74.3774 69.0981 73.9816 69.0981C73.5858 69.0981 73.265 69.3854 73.265 69.7398Z" fill="#2C394B"/>
<path d="M70.3987 69.7398C70.3987 70.0941 70.7196 70.3814 71.1154 70.3814C71.5112 70.3814 71.832 70.0941 71.832 69.7398C71.832 69.3854 71.5112 69.0981 71.1154 69.0981C70.7196 69.0981 70.3987 69.3854 70.3987 69.7398Z" fill="#2C394B"/>
<path d="M67.5325 69.7398C67.5325 70.0941 67.8534 70.3814 68.2492 70.3814C68.645 70.3814 68.9658 70.0941 68.9658 69.7398C68.9658 69.3854 68.645 69.0981 68.2492 69.0981C67.8534 69.0981 67.5325 69.3854 67.5325 69.7398Z" fill="#2C394B"/>
<path d="M64.6653 69.7398C64.6653 70.0941 64.9862 70.3814 65.382 70.3814C65.7778 70.3814 66.0986 70.0941 66.0986 69.7398C66.0986 69.3854 65.7778 69.0981 65.382 69.0981C64.9862 69.0981 64.6653 69.3854 64.6653 69.7398Z" fill="#2C394B"/>
<path d="M61.7991 69.7398C61.7991 70.0941 62.12 70.3814 62.5158 70.3814C62.9116 70.3814 63.2324 70.0941 63.2324 69.7398C63.2324 69.3854 62.9116 69.0981 62.5158 69.0981C62.12 69.0981 61.7991 69.3854 61.7991 69.7398Z" fill="#2C394B"/>
<path d="M58.9329 69.7398C58.9329 70.0941 59.2538 70.3814 59.6496 70.3814C60.0454 70.3814 60.3662 70.0941 60.3662 69.7398C60.3662 69.3854 60.0454 69.0981 59.6496 69.0981C59.2538 69.0981 58.9329 69.3854 58.9329 69.7398Z" fill="#2C394B"/>
<path d="M56.0657 69.7398C56.0657 70.0941 56.3866 70.3814 56.7824 70.3814C57.1782 70.3814 57.499 70.0941 57.499 69.7398C57.499 69.3854 57.1782 69.0981 56.7824 69.0981C56.3866 69.0981 56.0657 69.3854 56.0657 69.7398Z" fill="#2C394B"/>
<path d="M53.1995 69.7398C53.1995 70.0941 53.5204 70.3814 53.9162 70.3814C54.312 70.3814 54.6328 70.0941 54.6328 69.7398C54.6328 69.3854 54.312 69.0981 53.9162 69.0981C53.5204 69.0981 53.1995 69.3854 53.1995 69.7398Z" fill="#2C394B"/>
<path d="M50.3323 69.7398C50.3323 70.0941 50.6532 70.3814 51.049 70.3814C51.4448 70.3814 51.7656 70.0941 51.7656 69.7398C51.7656 69.3854 51.4448 69.0981 51.049 69.0981C50.6532 69.0981 50.3323 69.3854 50.3323 69.7398Z" fill="#2C394B"/>
<path d="M47.4661 69.7398C47.4661 70.0941 47.787 70.3814 48.1828 70.3814C48.5786 70.3814 48.8994 70.0941 48.8994 69.7398C48.8994 69.3854 48.5786 69.0981 48.1828 69.0981C47.787 69.0981 47.4661 69.3854 47.4661 69.7398Z" fill="#2C394B"/>
<path d="M44.5999 69.7398C44.5999 70.0941 44.9208 70.3814 45.3166 70.3814C45.7124 70.3814 46.0332 70.0941 46.0332 69.7398C46.0332 69.3854 45.7124 69.0981 45.3166 69.0981C44.9208 69.0981 44.5999 69.3854 44.5999 69.7398Z" fill="#2C394B"/>
<path d="M41.7327 69.7398C41.7327 70.0941 42.0536 70.3814 42.4494 70.3814C42.8452 70.3814 43.166 70.0941 43.166 69.7398C43.166 69.3854 42.8452 69.0981 42.4494 69.0981C42.0536 69.0981 41.7327 69.3854 41.7327 69.7398Z" fill="#2C394B"/>
<path d="M38.8665 69.7398C38.8665 70.0941 39.1874 70.3814 39.5832 70.3814C39.979 70.3814 40.2998 70.0941 40.2998 69.7398C40.2998 69.3854 39.979 69.0981 39.5832 69.0981C39.1874 69.0981 38.8665 69.3854 38.8665 69.7398Z" fill="#2C394B"/>
<path d="M36.0003 69.7398C36.0003 70.0941 36.3212 70.3814 36.717 70.3814C37.1127 70.3814 37.4336 70.0941 37.4336 69.7398C37.4336 69.3854 37.1127 69.0981 36.717 69.0981C36.3212 69.0981 36.0003 69.3854 36.0003 69.7398Z" fill="#2C394B"/>
<path d="M81.8655 72.3067C81.8655 72.661 82.1864 72.9483 82.5822 72.9483C82.978 72.9483 83.2988 72.661 83.2988 72.3067C83.2988 71.9523 82.978 71.665 82.5822 71.665C82.1864 71.665 81.8655 71.9523 81.8655 72.3067Z" fill="#2C394B"/>
<path d="M78.9984 72.3067C78.9984 72.661 79.3192 72.9483 79.715 72.9483C80.1108 72.9483 80.4316 72.661 80.4316 72.3067C80.4316 71.9523 80.1108 71.665 79.715 71.665C79.3192 71.665 78.9984 71.9523 78.9984 72.3067Z" fill="#2C394B"/>
<path d="M76.1321 72.3067C76.1321 72.661 76.453 72.9483 76.8488 72.9483C77.2446 72.9483 77.5654 72.661 77.5654 72.3067C77.5654 71.9523 77.2446 71.665 76.8488 71.665C76.453 71.665 76.1321 71.9523 76.1321 72.3067Z" fill="#2C394B"/>
<path d="M73.265 72.3067C73.265 72.661 73.5858 72.9483 73.9816 72.9483C74.3774 72.9483 74.6982 72.661 74.6982 72.3067C74.6982 71.9523 74.3774 71.665 73.9816 71.665C73.5858 71.665 73.265 71.9523 73.265 72.3067Z" fill="#2C394B"/>
<path d="M70.3987 72.3067C70.3987 72.661 70.7196 72.9483 71.1154 72.9483C71.5112 72.9483 71.832 72.661 71.832 72.3067C71.832 71.9523 71.5112 71.665 71.1154 71.665C70.7196 71.665 70.3987 71.9523 70.3987 72.3067Z" fill="#2C394B"/>
<path d="M67.5325 72.3067C67.5325 72.661 67.8534 72.9483 68.2492 72.9483C68.645 72.9483 68.9658 72.661 68.9658 72.3067C68.9658 71.9523 68.645 71.665 68.2492 71.665C67.8534 71.665 67.5325 71.9523 67.5325 72.3067Z" fill="#2C394B"/>
<path d="M64.6653 72.3067C64.6653 72.661 64.9862 72.9483 65.382 72.9483C65.7778 72.9483 66.0986 72.661 66.0986 72.3067C66.0986 71.9523 65.7778 71.665 65.382 71.665C64.9862 71.665 64.6653 71.9523 64.6653 72.3067Z" fill="#2C394B"/>
<path d="M61.7991 72.3067C61.7991 72.661 62.12 72.9483 62.5158 72.9483C62.9116 72.9483 63.2324 72.661 63.2324 72.3067C63.2324 71.9523 62.9116 71.665 62.5158 71.665C62.12 71.665 61.7991 71.9523 61.7991 72.3067Z" fill="#2C394B"/>
<path d="M58.9329 72.3067C58.9329 72.661 59.2538 72.9483 59.6496 72.9483C60.0454 72.9483 60.3662 72.661 60.3662 72.3067C60.3662 71.9523 60.0454 71.665 59.6496 71.665C59.2538 71.665 58.9329 71.9523 58.9329 72.3067Z" fill="#2C394B"/>
<path d="M56.0657 72.3067C56.0657 72.661 56.3866 72.9483 56.7824 72.9483C57.1782 72.9483 57.499 72.661 57.499 72.3067C57.499 71.9523 57.1782 71.665 56.7824 71.665C56.3866 71.665 56.0657 71.9523 56.0657 72.3067Z" fill="#2C394B"/>
<path d="M53.1995 72.3067C53.1995 72.661 53.5204 72.9483 53.9162 72.9483C54.312 72.9483 54.6328 72.661 54.6328 72.3067C54.6328 71.9523 54.312 71.665 53.9162 71.665C53.5204 71.665 53.1995 71.9523 53.1995 72.3067Z" fill="#2C394B"/>
<path d="M50.3323 72.3067C50.3323 72.661 50.6532 72.9483 51.049 72.9483C51.4448 72.9483 51.7656 72.661 51.7656 72.3067C51.7656 71.9523 51.4448 71.665 51.049 71.665C50.6532 71.665 50.3323 71.9523 50.3323 72.3067Z" fill="#2C394B"/>
<path d="M47.4661 72.3067C47.4661 72.661 47.787 72.9483 48.1828 72.9483C48.5786 72.9483 48.8994 72.661 48.8994 72.3067C48.8994 71.9523 48.5786 71.665 48.1828 71.665C47.787 71.665 47.4661 71.9523 47.4661 72.3067Z" fill="#2C394B"/>
<path d="M44.5999 72.3067C44.5999 72.661 44.9208 72.9483 45.3166 72.9483C45.7124 72.9483 46.0332 72.661 46.0332 72.3067C46.0332 71.9523 45.7124 71.665 45.3166 71.665C44.9208 71.665 44.5999 71.9523 44.5999 72.3067Z" fill="#2C394B"/>
<path d="M41.7327 72.3067C41.7327 72.661 42.0536 72.9483 42.4494 72.9483C42.8452 72.9483 43.166 72.661 43.166 72.3067C43.166 71.9523 42.8452 71.665 42.4494 71.665C42.0536 71.665 41.7327 71.9523 41.7327 72.3067Z" fill="#2C394B"/>
<path d="M38.8665 72.3067C38.8665 72.661 39.1874 72.9483 39.5832 72.9483C39.979 72.9483 40.2998 72.661 40.2998 72.3067C40.2998 71.9523 39.979 71.665 39.5832 71.665C39.1874 71.665 38.8665 71.9523 38.8665 72.3067Z" fill="#2C394B"/>
<path d="M36.0003 72.3067C36.0003 72.661 36.3212 72.9483 36.717 72.9483C37.1127 72.9483 37.4336 72.661 37.4336 72.3067C37.4336 71.9523 37.1127 71.665 36.717 71.665C36.3212 71.665 36.0003 71.9523 36.0003 72.3067Z" fill="#2C394B"/>
<path d="M81.8655 74.8731C81.8655 75.2274 82.1864 75.5147 82.5822 75.5147C82.978 75.5147 83.2988 75.2274 83.2988 74.8731C83.2988 74.5187 82.978 74.2314 82.5822 74.2314C82.1864 74.2314 81.8655 74.5187 81.8655 74.8731Z" fill="#2C394B"/>
<path d="M78.9984 74.8731C78.9984 75.2274 79.3192 75.5147 79.715 75.5147C80.1108 75.5147 80.4316 75.2274 80.4316 74.8731C80.4316 74.5187 80.1108 74.2314 79.715 74.2314C79.3192 74.2314 78.9984 74.5187 78.9984 74.8731Z" fill="#2C394B"/>
<path d="M76.1321 74.8731C76.1321 75.2274 76.453 75.5147 76.8488 75.5147C77.2446 75.5147 77.5654 75.2274 77.5654 74.8731C77.5654 74.5187 77.2446 74.2314 76.8488 74.2314C76.453 74.2314 76.1321 74.5187 76.1321 74.8731Z" fill="#2C394B"/>
<path d="M73.265 74.8731C73.265 75.2274 73.5858 75.5147 73.9816 75.5147C74.3774 75.5147 74.6982 75.2274 74.6982 74.8731C74.6982 74.5187 74.3774 74.2314 73.9816 74.2314C73.5858 74.2314 73.265 74.5187 73.265 74.8731Z" fill="#2C394B"/>
<path d="M70.3987 74.8731C70.3987 75.2274 70.7196 75.5147 71.1154 75.5147C71.5112 75.5147 71.832 75.2274 71.832 74.8731C71.832 74.5187 71.5112 74.2314 71.1154 74.2314C70.7196 74.2314 70.3987 74.5187 70.3987 74.8731Z" fill="#2C394B"/>
<path d="M67.5325 74.8731C67.5325 75.2274 67.8534 75.5147 68.2492 75.5147C68.645 75.5147 68.9658 75.2274 68.9658 74.8731C68.9658 74.5187 68.645 74.2314 68.2492 74.2314C67.8534 74.2314 67.5325 74.5187 67.5325 74.8731Z" fill="#2C394B"/>
<path d="M64.6653 74.8731C64.6653 75.2274 64.9862 75.5147 65.382 75.5147C65.7778 75.5147 66.0986 75.2274 66.0986 74.8731C66.0986 74.5187 65.7778 74.2314 65.382 74.2314C64.9862 74.2314 64.6653 74.5187 64.6653 74.8731Z" fill="#2C394B"/>
<path d="M61.7991 74.8731C61.7991 75.2274 62.12 75.5147 62.5158 75.5147C62.9116 75.5147 63.2324 75.2274 63.2324 74.8731C63.2324 74.5187 62.9116 74.2314 62.5158 74.2314C62.12 74.2314 61.7991 74.5187 61.7991 74.8731Z" fill="#2C394B"/>
<path d="M58.9329 74.8731C58.9329 75.2274 59.2538 75.5147 59.6496 75.5147C60.0454 75.5147 60.3662 75.2274 60.3662 74.8731C60.3662 74.5187 60.0454 74.2314 59.6496 74.2314C59.2538 74.2314 58.9329 74.5187 58.9329 74.8731Z" fill="#2C394B"/>
<path d="M56.0657 74.8731C56.0657 75.2274 56.3866 75.5147 56.7824 75.5147C57.1782 75.5147 57.499 75.2274 57.499 74.8731C57.499 74.5187 57.1782 74.2314 56.7824 74.2314C56.3866 74.2314 56.0657 74.5187 56.0657 74.8731Z" fill="#2C394B"/>
<path d="M53.1995 74.8731C53.1995 75.2274 53.5204 75.5147 53.9162 75.5147C54.312 75.5147 54.6328 75.2274 54.6328 74.8731C54.6328 74.5187 54.312 74.2314 53.9162 74.2314C53.5204 74.2314 53.1995 74.5187 53.1995 74.8731Z" fill="#2C394B"/>
<path d="M50.3323 74.8731C50.3323 75.2274 50.6532 75.5147 51.049 75.5147C51.4448 75.5147 51.7656 75.2274 51.7656 74.8731C51.7656 74.5187 51.4448 74.2314 51.049 74.2314C50.6532 74.2314 50.3323 74.5187 50.3323 74.8731Z" fill="#2C394B"/>
<path d="M47.4661 74.8731C47.4661 75.2274 47.787 75.5147 48.1828 75.5147C48.5786 75.5147 48.8994 75.2274 48.8994 74.8731C48.8994 74.5187 48.5786 74.2314 48.1828 74.2314C47.787 74.2314 47.4661 74.5187 47.4661 74.8731Z" fill="#2C394B"/>
<path d="M44.5999 74.8731C44.5999 75.2274 44.9208 75.5147 45.3166 75.5147C45.7124 75.5147 46.0332 75.2274 46.0332 74.8731C46.0332 74.5187 45.7124 74.2314 45.3166 74.2314C44.9208 74.2314 44.5999 74.5187 44.5999 74.8731Z" fill="#2C394B"/>
<path d="M41.7327 74.8731C41.7327 75.2274 42.0536 75.5147 42.4494 75.5147C42.8452 75.5147 43.166 75.2274 43.166 74.8731C43.166 74.5187 42.8452 74.2314 42.4494 74.2314C42.0536 74.2314 41.7327 74.5187 41.7327 74.8731Z" fill="#2C394B"/>
<path d="M38.8665 74.8731C38.8665 75.2274 39.1874 75.5147 39.5832 75.5147C39.979 75.5147 40.2998 75.2274 40.2998 74.8731C40.2998 74.5187 39.979 74.2314 39.5832 74.2314C39.1874 74.2314 38.8665 74.5187 38.8665 74.8731Z" fill="#2C394B"/>
<path d="M36.0003 74.8731C36.0003 75.2274 36.3212 75.5147 36.717 75.5147C37.1127 75.5147 37.4336 75.2274 37.4336 74.8731C37.4336 74.5187 37.1127 74.2314 36.717 74.2314C36.3212 74.2314 36.0003 74.5187 36.0003 74.8731Z" fill="#2C394B"/>
<path d="M81.8655 77.4395C81.8655 77.7938 82.1864 78.0811 82.5822 78.0811C82.978 78.0811 83.2988 77.7938 83.2988 77.4395C83.2988 77.0851 82.978 76.7979 82.5822 76.7979C82.1864 76.7979 81.8655 77.0851 81.8655 77.4395Z" fill="#2C394B"/>
<path d="M78.9984 77.4395C78.9984 77.7938 79.3192 78.0811 79.715 78.0811C80.1108 78.0811 80.4316 77.7938 80.4316 77.4395C80.4316 77.0851 80.1108 76.7979 79.715 76.7979C79.3192 76.7979 78.9984 77.0851 78.9984 77.4395Z" fill="#2C394B"/>
<path d="M76.1321 77.4395C76.1321 77.7938 76.453 78.0811 76.8488 78.0811C77.2446 78.0811 77.5654 77.7938 77.5654 77.4395C77.5654 77.0851 77.2446 76.7979 76.8488 76.7979C76.453 76.7979 76.1321 77.0851 76.1321 77.4395Z" fill="#2C394B"/>
<path d="M73.265 77.4395C73.265 77.7938 73.5858 78.0811 73.9816 78.0811C74.3774 78.0811 74.6982 77.7938 74.6982 77.4395C74.6982 77.0851 74.3774 76.7979 73.9816 76.7979C73.5858 76.7979 73.265 77.0851 73.265 77.4395Z" fill="#2C394B"/>
<path d="M70.3987 77.4395C70.3987 77.7938 70.7196 78.0811 71.1154 78.0811C71.5112 78.0811 71.832 77.7938 71.832 77.4395C71.832 77.0851 71.5112 76.7979 71.1154 76.7979C70.7196 76.7979 70.3987 77.0851 70.3987 77.4395Z" fill="#2C394B"/>
<path d="M67.5325 77.4395C67.5325 77.7938 67.8534 78.0811 68.2492 78.0811C68.645 78.0811 68.9658 77.7938 68.9658 77.4395C68.9658 77.0851 68.645 76.7979 68.2492 76.7979C67.8534 76.7979 67.5325 77.0851 67.5325 77.4395Z" fill="#2C394B"/>
<path d="M64.6653 77.4395C64.6653 77.7938 64.9862 78.0811 65.382 78.0811C65.7778 78.0811 66.0986 77.7938 66.0986 77.4395C66.0986 77.0851 65.7778 76.7979 65.382 76.7979C64.9862 76.7979 64.6653 77.0851 64.6653 77.4395Z" fill="#2C394B"/>
<path d="M61.7991 77.4395C61.7991 77.7938 62.12 78.0811 62.5158 78.0811C62.9116 78.0811 63.2324 77.7938 63.2324 77.4395C63.2324 77.0851 62.9116 76.7979 62.5158 76.7979C62.12 76.7979 61.7991 77.0851 61.7991 77.4395Z" fill="#2C394B"/>
<path d="M58.9329 77.4395C58.9329 77.7938 59.2538 78.0811 59.6496 78.0811C60.0454 78.0811 60.3662 77.7938 60.3662 77.4395C60.3662 77.0851 60.0454 76.7979 59.6496 76.7979C59.2538 76.7979 58.9329 77.0851 58.9329 77.4395Z" fill="#2C394B"/>
<path d="M56.0657 77.4395C56.0657 77.7938 56.3866 78.0811 56.7824 78.0811C57.1782 78.0811 57.499 77.7938 57.499 77.4395C57.499 77.0851 57.1782 76.7979 56.7824 76.7979C56.3866 76.7979 56.0657 77.0851 56.0657 77.4395Z" fill="#2C394B"/>
<path d="M53.1995 77.4395C53.1995 77.7938 53.5204 78.0811 53.9162 78.0811C54.312 78.0811 54.6328 77.7938 54.6328 77.4395C54.6328 77.0851 54.312 76.7979 53.9162 76.7979C53.5204 76.7979 53.1995 77.0851 53.1995 77.4395Z" fill="#2C394B"/>
<path d="M50.3323 77.4395C50.3323 77.7938 50.6532 78.0811 51.049 78.0811C51.4448 78.0811 51.7656 77.7938 51.7656 77.4395C51.7656 77.0851 51.4448 76.7979 51.049 76.7979C50.6532 76.7979 50.3323 77.0851 50.3323 77.4395Z" fill="#2C394B"/>
<path d="M47.4661 77.4395C47.4661 77.7938 47.787 78.0811 48.1828 78.0811C48.5786 78.0811 48.8994 77.7938 48.8994 77.4395C48.8994 77.0851 48.5786 76.7979 48.1828 76.7979C47.787 76.7979 47.4661 77.0851 47.4661 77.4395Z" fill="#2C394B"/>
<path d="M44.5999 77.4395C44.5999 77.7938 44.9208 78.0811 45.3166 78.0811C45.7124 78.0811 46.0332 77.7938 46.0332 77.4395C46.0332 77.0851 45.7124 76.7979 45.3166 76.7979C44.9208 76.7979 44.5999 77.0851 44.5999 77.4395Z" fill="#2C394B"/>
<path d="M41.7327 77.4395C41.7327 77.7938 42.0536 78.0811 42.4494 78.0811C42.8452 78.0811 43.166 77.7938 43.166 77.4395C43.166 77.0851 42.8452 76.7979 42.4494 76.7979C42.0536 76.7979 41.7327 77.0851 41.7327 77.4395Z" fill="#2C394B"/>
<path d="M38.8665 77.4395C38.8665 77.7938 39.1874 78.0811 39.5832 78.0811C39.979 78.0811 40.2998 77.7938 40.2998 77.4395C40.2998 77.0851 39.979 76.7979 39.5832 76.7979C39.1874 76.7979 38.8665 77.0851 38.8665 77.4395Z" fill="#2C394B"/>
<path d="M36.0003 77.4395C36.0003 77.7938 36.3212 78.0811 36.717 78.0811C37.1127 78.0811 37.4336 77.7938 37.4336 77.4395C37.4336 77.0851 37.1127 76.7979 36.717 76.7979C36.3212 76.7979 36.0003 77.0851 36.0003 77.4395Z" fill="#2C394B"/>
<path d="M81.8655 80.0059C81.8655 80.3602 82.1864 80.6475 82.5822 80.6475C82.978 80.6475 83.2988 80.3602 83.2988 80.0059C83.2988 79.6515 82.978 79.3643 82.5822 79.3643C82.1864 79.3643 81.8655 79.6515 81.8655 80.0059Z" fill="#2C394B"/>
<path d="M78.9984 80.0059C78.9984 80.3602 79.3192 80.6475 79.715 80.6475C80.1108 80.6475 80.4316 80.3602 80.4316 80.0059C80.4316 79.6515 80.1108 79.3643 79.715 79.3643C79.3192 79.3643 78.9984 79.6515 78.9984 80.0059Z" fill="#2C394B"/>
<path d="M76.1321 80.0059C76.1321 80.3602 76.453 80.6475 76.8488 80.6475C77.2446 80.6475 77.5654 80.3602 77.5654 80.0059C77.5654 79.6515 77.2446 79.3643 76.8488 79.3643C76.453 79.3643 76.1321 79.6515 76.1321 80.0059Z" fill="#2C394B"/>
<path d="M73.265 80.0059C73.265 80.3602 73.5858 80.6475 73.9816 80.6475C74.3774 80.6475 74.6982 80.3602 74.6982 80.0059C74.6982 79.6515 74.3774 79.3643 73.9816 79.3643C73.5858 79.3643 73.265 79.6515 73.265 80.0059Z" fill="#2C394B"/>
<path d="M70.3987 80.0059C70.3987 80.3602 70.7196 80.6475 71.1154 80.6475C71.5112 80.6475 71.832 80.3602 71.832 80.0059C71.832 79.6515 71.5112 79.3643 71.1154 79.3643C70.7196 79.3643 70.3987 79.6515 70.3987 80.0059Z" fill="#2C394B"/>
<path d="M67.5325 80.0059C67.5325 80.3602 67.8534 80.6475 68.2492 80.6475C68.645 80.6475 68.9658 80.3602 68.9658 80.0059C68.9658 79.6515 68.645 79.3643 68.2492 79.3643C67.8534 79.3643 67.5325 79.6515 67.5325 80.0059Z" fill="#2C394B"/>
<path d="M64.6653 80.0059C64.6653 80.3602 64.9862 80.6475 65.382 80.6475C65.7778 80.6475 66.0986 80.3602 66.0986 80.0059C66.0986 79.6515 65.7778 79.3643 65.382 79.3643C64.9862 79.3643 64.6653 79.6515 64.6653 80.0059Z" fill="#2C394B"/>
<path d="M61.7991 80.0059C61.7991 80.3602 62.12 80.6475 62.5158 80.6475C62.9116 80.6475 63.2324 80.3602 63.2324 80.0059C63.2324 79.6515 62.9116 79.3643 62.5158 79.3643C62.12 79.3643 61.7991 79.6515 61.7991 80.0059Z" fill="#2C394B"/>
<path d="M58.9329 80.0059C58.9329 80.3602 59.2538 80.6475 59.6496 80.6475C60.0454 80.6475 60.3662 80.3602 60.3662 80.0059C60.3662 79.6515 60.0454 79.3643 59.6496 79.3643C59.2538 79.3643 58.9329 79.6515 58.9329 80.0059Z" fill="#2C394B"/>
<path d="M56.0657 80.0059C56.0657 80.3602 56.3866 80.6475 56.7824 80.6475C57.1782 80.6475 57.499 80.3602 57.499 80.0059C57.499 79.6515 57.1782 79.3643 56.7824 79.3643C56.3866 79.3643 56.0657 79.6515 56.0657 80.0059Z" fill="#2C394B"/>
<path d="M53.1995 80.0059C53.1995 80.3602 53.5204 80.6475 53.9162 80.6475C54.312 80.6475 54.6328 80.3602 54.6328 80.0059C54.6328 79.6515 54.312 79.3643 53.9162 79.3643C53.5204 79.3643 53.1995 79.6515 53.1995 80.0059Z" fill="#2C394B"/>
<path d="M50.3323 80.0059C50.3323 80.3602 50.6532 80.6475 51.049 80.6475C51.4448 80.6475 51.7656 80.3602 51.7656 80.0059C51.7656 79.6515 51.4448 79.3643 51.049 79.3643C50.6532 79.3643 50.3323 79.6515 50.3323 80.0059Z" fill="#2C394B"/>
<path d="M47.4661 80.0059C47.4661 80.3602 47.787 80.6475 48.1828 80.6475C48.5786 80.6475 48.8994 80.3602 48.8994 80.0059C48.8994 79.6515 48.5786 79.3643 48.1828 79.3643C47.787 79.3643 47.4661 79.6515 47.4661 80.0059Z" fill="#2C394B"/>
<path d="M44.5999 80.0059C44.5999 80.3602 44.9208 80.6475 45.3166 80.6475C45.7124 80.6475 46.0332 80.3602 46.0332 80.0059C46.0332 79.6515 45.7124 79.3643 45.3166 79.3643C44.9208 79.3643 44.5999 79.6515 44.5999 80.0059Z" fill="#2C394B"/>
<path d="M41.7327 80.0059C41.7327 80.3602 42.0536 80.6475 42.4494 80.6475C42.8452 80.6475 43.166 80.3602 43.166 80.0059C43.166 79.6515 42.8452 79.3643 42.4494 79.3643C42.0536 79.3643 41.7327 79.6515 41.7327 80.0059Z" fill="#2C394B"/>
<path d="M38.8665 80.0059C38.8665 80.3602 39.1874 80.6475 39.5832 80.6475C39.979 80.6475 40.2998 80.3602 40.2998 80.0059C40.2998 79.6515 39.979 79.3643 39.5832 79.3643C39.1874 79.3643 38.8665 79.6515 38.8665 80.0059Z" fill="#2C394B"/>
<path d="M36.0003 80.0059C36.0003 80.3602 36.3212 80.6475 36.717 80.6475C37.1127 80.6475 37.4336 80.3602 37.4336 80.0059C37.4336 79.6515 37.1127 79.3643 36.717 79.3643C36.3212 79.3643 36.0003 79.6515 36.0003 80.0059Z" fill="#2C394B"/>
<path d="M81.8655 82.5723C81.8655 82.9266 82.1864 83.2139 82.5822 83.2139C82.978 83.2139 83.2988 82.9266 83.2988 82.5723C83.2988 82.2179 82.978 81.9307 82.5822 81.9307C82.1864 81.9307 81.8655 82.2179 81.8655 82.5723Z" fill="#2C394B"/>
<path d="M78.9984 82.5723C78.9984 82.9266 79.3192 83.2139 79.715 83.2139C80.1108 83.2139 80.4316 82.9266 80.4316 82.5723C80.4316 82.2179 80.1108 81.9307 79.715 81.9307C79.3192 81.9307 78.9984 82.2179 78.9984 82.5723Z" fill="#2C394B"/>
<path d="M76.1321 82.5723C76.1321 82.9266 76.453 83.2139 76.8488 83.2139C77.2446 83.2139 77.5654 82.9266 77.5654 82.5723C77.5654 82.2179 77.2446 81.9307 76.8488 81.9307C76.453 81.9307 76.1321 82.2179 76.1321 82.5723Z" fill="#2C394B"/>
<path d="M73.265 82.5723C73.265 82.9266 73.5858 83.2139 73.9816 83.2139C74.3774 83.2139 74.6982 82.9266 74.6982 82.5723C74.6982 82.2179 74.3774 81.9307 73.9816 81.9307C73.5858 81.9307 73.265 82.2179 73.265 82.5723Z" fill="#2C394B"/>
<path d="M70.3987 82.5723C70.3987 82.9266 70.7196 83.2139 71.1154 83.2139C71.5112 83.2139 71.832 82.9266 71.832 82.5723C71.832 82.2179 71.5112 81.9307 71.1154 81.9307C70.7196 81.9307 70.3987 82.2179 70.3987 82.5723Z" fill="#2C394B"/>
<path d="M67.5325 82.5723C67.5325 82.9266 67.8534 83.2139 68.2492 83.2139C68.645 83.2139 68.9658 82.9266 68.9658 82.5723C68.9658 82.2179 68.645 81.9307 68.2492 81.9307C67.8534 81.9307 67.5325 82.2179 67.5325 82.5723Z" fill="#2C394B"/>
<path d="M64.6654 82.5723C64.6654 82.9266 64.9862 83.2139 65.382 83.2139C65.7778 83.2139 66.0986 82.9266 66.0986 82.5723C66.0986 82.2179 65.7778 81.9307 65.382 81.9307C64.9862 81.9307 64.6654 82.2179 64.6654 82.5723Z" fill="#2C394B"/>
<path d="M61.7991 82.5723C61.7991 82.9266 62.12 83.2139 62.5158 83.2139C62.9116 83.2139 63.2324 82.9266 63.2324 82.5723C63.2324 82.2179 62.9116 81.9307 62.5158 81.9307C62.12 81.9307 61.7991 82.2179 61.7991 82.5723Z" fill="#2C394B"/>
<path d="M58.9329 82.5723C58.9329 82.9266 59.2538 83.2139 59.6496 83.2139C60.0454 83.2139 60.3662 82.9266 60.3662 82.5723C60.3662 82.2179 60.0454 81.9307 59.6496 81.9307C59.2538 81.9307 58.9329 82.2179 58.9329 82.5723Z" fill="#2C394B"/>
<path d="M56.0657 82.5723C56.0657 82.9266 56.3866 83.2139 56.7824 83.2139C57.1782 83.2139 57.499 82.9266 57.499 82.5723C57.499 82.2179 57.1782 81.9307 56.7824 81.9307C56.3866 81.9307 56.0657 82.2179 56.0657 82.5723Z" fill="#2C394B"/>
<path d="M53.1995 82.5723C53.1995 82.9266 53.5204 83.2139 53.9162 83.2139C54.312 83.2139 54.6328 82.9266 54.6328 82.5723C54.6328 82.2179 54.312 81.9307 53.9162 81.9307C53.5204 81.9307 53.1995 82.2179 53.1995 82.5723Z" fill="#2C394B"/>
<path d="M50.3323 82.5723C50.3323 82.9266 50.6532 83.2139 51.049 83.2139C51.4448 83.2139 51.7656 82.9266 51.7656 82.5723C51.7656 82.2179 51.4448 81.9307 51.049 81.9307C50.6532 81.9307 50.3323 82.2179 50.3323 82.5723Z" fill="#2C394B"/>
<path d="M47.4661 82.5723C47.4661 82.9266 47.787 83.2139 48.1828 83.2139C48.5786 83.2139 48.8994 82.9266 48.8994 82.5723C48.8994 82.2179 48.5786 81.9307 48.1828 81.9307C47.787 81.9307 47.4661 82.2179 47.4661 82.5723Z" fill="#2C394B"/>
<path d="M44.5999 82.5723C44.5999 82.9266 44.9208 83.2139 45.3166 83.2139C45.7124 83.2139 46.0332 82.9266 46.0332 82.5723C46.0332 82.2179 45.7124 81.9307 45.3166 81.9307C44.9208 81.9307 44.5999 82.2179 44.5999 82.5723Z" fill="#2C394B"/>
<path d="M41.7327 82.5723C41.7327 82.9266 42.0536 83.2139 42.4494 83.2139C42.8452 83.2139 43.166 82.9266 43.166 82.5723C43.166 82.2179 42.8452 81.9307 42.4494 81.9307C42.0536 81.9307 41.7327 82.2179 41.7327 82.5723Z" fill="#2C394B"/>
<path d="M38.8665 82.5723C38.8665 82.9266 39.1874 83.2139 39.5832 83.2139C39.979 83.2139 40.2998 82.9266 40.2998 82.5723C40.2998 82.2179 39.979 81.9307 39.5832 81.9307C39.1874 81.9307 38.8665 82.2179 38.8665 82.5723Z" fill="#2C394B"/>
</g>
<path d="M87.0619 22.4077H48.3926V61.0545H87.0619V22.4077Z" fill="#E2EEFF"/>
<path fill-rule="evenodd" clip-rule="evenodd" d="M47.9844 22.4077C47.9844 22.1825 48.167 22 48.3923 22H87.0616C87.2869 22 87.4695 22.1825 87.4695 22.4077V61.0544C87.4695 61.2796 87.2869 61.4621 87.0616 61.4621H48.3923C48.167 61.4621 47.9844 61.2796 47.9844 61.0544V22.4077ZM48.8002 22.8153V60.6468H86.6537V22.8153H48.8002Z" fill="#2C394B"/>
<path d="M87.0619 22.4077H48.3926V34.1485H87.0619V22.4077Z" fill="#2C394B"/>
<path fill-rule="evenodd" clip-rule="evenodd" d="M47.9844 22.4077C47.9844 22.1825 48.167 22 48.3923 22H87.0616C87.2869 22 87.4695 22.1825 87.4695 22.4077V34.1484C87.4695 34.3736 87.2869 34.5561 87.0616 34.5561H48.3923C48.167 34.5561 47.9844 34.3736 47.9844 34.1484V22.4077ZM48.8002 22.8153V33.7408H86.6537V22.8153H48.8002Z" fill="#2C394B"/>
<path d="M90.8149 26.0029H52.1455V64.6497H90.8149V26.0029Z" fill="#E2EEFF"/>
<path fill-rule="evenodd" clip-rule="evenodd" d="M51.7373 26.0034C51.7373 25.7782 51.9199 25.5957 52.1452 25.5957H90.8145C91.0398 25.5957 91.2224 25.7782 91.2224 26.0034V64.6501C91.2224 64.8753 91.0398 65.0578 90.8145 65.0578H52.1452C51.9199 65.0578 51.7373 64.8753 51.7373 64.6501V26.0034ZM52.5531 26.411V64.2424H90.4066V26.411H52.5531Z" fill="#2C394B"/>
<path d="M90.8149 26.0029H52.1455V37.7437H90.8149V26.0029Z" fill="#2C394B"/>
<path fill-rule="evenodd" clip-rule="evenodd" d="M51.7373 26.0034C51.7373 25.7782 51.9199 25.5957 52.1452 25.5957H90.8145C91.0398 25.5957 91.2224 25.7782 91.2224 26.0034V37.7442C91.2224 37.9693 91.0398 38.1518 90.8145 38.1518H52.1452C51.9199 38.1518 51.7373 37.9693 51.7373 37.7442V26.0034ZM52.5531 26.411V37.3365H90.4066V26.411H52.5531Z" fill="#2C394B"/>
<path d="M94.5678 29.5986H55.8984V68.2454H94.5678V29.5986Z" fill="#E2EEFF"/>
<path fill-rule="evenodd" clip-rule="evenodd" d="M55.4902 29.5991C55.4902 29.3739 55.6729 29.1914 55.8981 29.1914H94.5675C94.7928 29.1914 94.9754 29.3739 94.9754 29.5991V68.2458C94.9754 68.471 94.7928 68.6535 94.5675 68.6535H55.8981C55.6729 68.6535 55.4902 68.471 55.4902 68.2458V29.5991ZM56.306 30.0067V67.8382H94.1596V30.0067H56.306Z" fill="#2C394B"/>
<path d="M94.5678 29.5986H55.8984V41.3394H94.5678V29.5986Z" fill="#2C394B"/>
<path fill-rule="evenodd" clip-rule="evenodd" d="M55.4902 29.5991C55.4902 29.3739 55.6729 29.1914 55.8981 29.1914H94.5675C94.7928 29.1914 94.9754 29.3739 94.9754 29.5991V41.3399C94.9754 41.565 94.7928 41.7475 94.5675 41.7475H55.8981C55.6729 41.7475 55.4902 41.565 55.4902 41.3399V29.5991ZM56.306 30.0067V40.9322H94.1596V30.0067H56.306Z" fill="#2C394B"/>
<path d="M98.3197 33.1948H59.6504V71.8416H98.3197V33.1948Z" fill="#E2EEFF"/>
<path fill-rule="evenodd" clip-rule="evenodd" d="M59.2422 33.1948C59.2422 32.9696 59.4248 32.7871 59.6501 32.7871H98.3194C98.5447 32.7871 98.7273 32.9696 98.7273 33.1948V71.8415C98.7273 72.0667 98.5447 72.2492 98.3194 72.2492H59.6501C59.4248 72.2492 59.2422 72.0667 59.2422 71.8415V33.1948ZM60.058 33.6024V71.4339H97.9115V33.6024H60.058Z" fill="#2C394B"/>
<path d="M98.3197 33.1948H59.6504V44.9356H98.3197V33.1948Z" fill="#2C394B"/>
<path fill-rule="evenodd" clip-rule="evenodd" d="M59.2422 33.1948C59.2422 32.9696 59.4248 32.7871 59.6501 32.7871H98.3194C98.5447 32.7871 98.7273 32.9696 98.7273 33.1948V44.9356C98.7273 45.1607 98.5447 45.3432 98.3194 45.3432H59.6501C59.4248 45.3432 59.2422 45.1607 59.2422 44.9356V33.1948ZM60.058 33.6024V44.5279H97.9115V33.6024H60.058Z" fill="#2C394B"/>
<path d="M102.074 36.79H63.4043V75.4368H102.074V36.79Z" fill="#E2EEFF"/>
<path fill-rule="evenodd" clip-rule="evenodd" d="M62.9961 36.79C62.9961 36.5648 63.1787 36.3823 63.404 36.3823H102.073C102.299 36.3823 102.481 36.5648 102.481 36.79V75.4367C102.481 75.6619 102.299 75.8444 102.073 75.8444H63.404C63.1787 75.8444 62.9961 75.6619 62.9961 75.4367V36.79ZM63.8119 37.1977V75.0291H101.665V37.1977H63.8119Z" fill="#2C394B"/>
<path d="M102.074 36.79H63.4043V48.5308H102.074V36.79Z" fill="#2C394B"/>
<path fill-rule="evenodd" clip-rule="evenodd" d="M62.9961 36.79C62.9961 36.5648 63.1787 36.3823 63.404 36.3823H102.073C102.299 36.3823 102.481 36.5648 102.481 36.79V48.5308C102.481 48.7559 102.299 48.9384 102.073 48.9384H63.404C63.1787 48.9384 62.9961 48.7559 62.9961 48.5308V36.79ZM63.8119 37.1977V48.1231H101.665V37.1977H63.8119Z" fill="#2C394B"/>
<path d="M105.826 40.395H67.1562V79.0418H105.826V40.395Z" fill="#E2EEFF"/>
<path fill-rule="evenodd" clip-rule="evenodd" d="M66.748 40.3945C66.748 40.1693 66.9307 39.9868 67.156 39.9868H105.825C106.051 39.9868 106.233 40.1693 106.233 40.3945V79.0412C106.233 79.2664 106.051 79.4489 105.825 79.4489H67.156C66.9307 79.4489 66.748 79.2664 66.748 79.0412V40.3945ZM67.5639 40.8021V78.6336H105.417V40.8021H67.5639Z" fill="#2C394B"/>
<path d="M105.826 40.395H67.1562V52.1358H105.826V40.395Z" fill="#2C394B"/>
<path fill-rule="evenodd" clip-rule="evenodd" d="M66.748 40.3945C66.748 40.1693 66.9307 39.9868 67.156 39.9868H105.825C106.051 39.9868 106.233 40.1693 106.233 40.3945V52.1353C106.233 52.3604 106.051 52.5429 105.825 52.5429H67.156C66.9307 52.5429 66.748 52.3604 66.748 52.1353V40.3945ZM67.5639 40.8021V51.7276H105.417V40.8021H67.5639Z" fill="#2C394B"/>
<path d="M109.578 43.9976H70.9082V82.6443H109.578V43.9976Z" fill="#E2EEFF"/>
<path fill-rule="evenodd" clip-rule="evenodd" d="M70.501 43.9975C70.501 43.7724 70.6836 43.5898 70.9089 43.5898H109.578C109.803 43.5898 109.986 43.7724 109.986 43.9975V82.6443C109.986 82.8694 109.803 83.0519 109.578 83.0519H70.9089C70.6836 83.0519 70.501 82.8694 70.501 82.6443V43.9975ZM71.3168 44.4052V82.2366H109.17V44.4052H71.3168Z" fill="#2C394B"/>
<path d="M109.578 43.9976H70.9082V55.7383H109.578V43.9976Z" fill="#2C394B"/>
<path fill-rule="evenodd" clip-rule="evenodd" d="M70.501 43.9975C70.501 43.7724 70.6836 43.5898 70.9089 43.5898H109.578C109.803 43.5898 109.986 43.7724 109.986 43.9975V55.7383C109.986 55.9634 109.803 56.146 109.578 56.146H70.9089C70.6836 56.146 70.501 55.9634 70.501 55.7383V43.9975ZM71.3168 44.4052V55.3306H109.17V44.4052H71.3168Z" fill="#2C394B"/>
<path d="M74.824 51.1075C75.5089 51.1075 76.064 50.5527 76.064 49.8682C76.064 49.1838 75.5089 48.6289 74.824 48.6289C74.1392 48.6289 73.584 49.1838 73.584 49.8682C73.584 50.5527 74.1392 51.1075 74.824 51.1075Z" fill="#E06A63"/>
<path fill-rule="evenodd" clip-rule="evenodd" d="M74.8237 49.036C74.3641 49.036 73.9916 49.4084 73.9916 49.8677C73.9916 50.327 74.3641 50.6993 74.8237 50.6993C75.2833 50.6993 75.6558 50.327 75.6558 49.8677C75.6558 49.4084 75.2833 49.036 74.8237 49.036ZM73.1758 49.8677C73.1758 48.9581 73.9136 48.2207 74.8237 48.2207C75.7338 48.2207 76.4717 48.9581 76.4717 49.8677C76.4717 50.7773 75.7338 51.5146 74.8237 51.5146C73.9136 51.5146 73.1758 50.7773 73.1758 49.8677Z" fill="#E06A63"/>
<path d="M78.9275 51.1075C79.6124 51.1075 80.1676 50.5527 80.1676 49.8682C80.1676 49.1838 79.6124 48.6289 78.9275 48.6289C78.2427 48.6289 77.6875 49.1838 77.6875 49.8682C77.6875 50.5527 78.2427 51.1075 78.9275 51.1075Z" fill="#F6E049"/>
<path fill-rule="evenodd" clip-rule="evenodd" d="M78.9272 49.036C78.4677 49.036 78.0951 49.4084 78.0951 49.8677C78.0951 50.327 78.4677 50.6993 78.9272 50.6993C79.3868 50.6993 79.7594 50.327 79.7594 49.8677C79.7594 49.4084 79.3868 49.036 78.9272 49.036ZM77.2793 49.8677C77.2793 48.9581 78.0171 48.2207 78.9272 48.2207C79.8374 48.2207 80.5752 48.9581 80.5752 49.8677C80.5752 50.7773 79.8374 51.5146 78.9272 51.5146C78.0171 51.5146 77.2793 50.7773 77.2793 49.8677Z" fill="#F6E049"/>
<path d="M83.0398 51.1075C83.7247 51.1075 84.2799 50.5527 84.2799 49.8682C84.2799 49.1838 83.7247 48.6289 83.0398 48.6289C82.355 48.6289 81.7998 49.1838 81.7998 49.8682C81.7998 50.5527 82.355 51.1075 83.0398 51.1075Z" fill="#7FD6C2"/>
<path fill-rule="evenodd" clip-rule="evenodd" d="M83.0395 49.036C82.58 49.036 82.2074 49.4084 82.2074 49.8677C82.2074 50.327 82.58 50.6993 83.0395 50.6993C83.4991 50.6993 83.8717 50.327 83.8717 49.8677C83.8717 49.4084 83.4991 49.036 83.0395 49.036ZM81.3916 49.8677C81.3916 48.9581 82.1294 48.2207 83.0395 48.2207C83.9497 48.2207 84.6875 48.9581 84.6875 49.8677C84.6875 50.7773 83.9497 51.5146 83.0395 51.5146C82.1294 51.5146 81.3916 50.7773 81.3916 49.8677Z" fill="#7FD6C2"/>
<path d="M9.54958 57.3326C8.81938 57.3326 8.08004 57.1869 7.35896 56.8863C5.28699 56.0028 4 54.0628 4 51.8131V16.4554C4 16.2004 4.20081 16 4.45638 16H23.2775C23.3962 16 23.5057 16.0455 23.5878 16.1184L39.0683 30.3453C39.1595 30.4273 39.2143 30.5457 39.2143 30.6732C39.2143 30.8007 39.1687 30.9191 39.0774 31.0102L13.3558 55.7751C12.2879 56.7952 10.937 57.3326 9.54958 57.3326ZM4.91276 16.9108V51.8131C4.91276 53.6894 5.98982 55.3106 7.71494 56.0484C9.44918 56.777 11.366 56.4309 12.7169 55.1193L38.0916 30.6914L23.095 16.9108H4.91276Z" fill="#E2EEFF"/>
<path d="M17.1492 52.2296C14.4876 49.5047 14.542 45.1502 17.2579 42.4886C19.9828 39.827 24.3373 39.8813 26.9989 42.5972" fill="#74B9FF"/>
<path d="M16.8221 52.5447C13.9976 49.6478 14.0519 44.9945 16.9398 42.161C19.8367 39.3364 24.49 39.3907 27.3236 42.2786L26.6808 42.9124C24.2003 40.3775 20.1174 40.3322 17.5825 42.8128C15.0477 45.2933 15.0024 49.3762 17.483 51.911L16.8221 52.5447Z" fill="#74B9FF"/>
<path d="M17.1504 52.2296C19.812 54.9545 24.1755 54.9998 26.8914 52.3382C29.6164 49.6766 29.6616 45.3131 27.0001 42.5972" fill="#2C394B"/>
<path d="M22.074 54.7541C22.0468 54.7541 22.0197 54.7541 21.9925 54.7541C20.028 54.736 18.1993 53.9484 16.8232 52.5452L17.4751 51.9115C18.6791 53.1427 20.2905 53.8307 22.0106 53.8488C23.7307 53.8669 25.3512 53.2151 26.5824 52.011C27.8136 50.807 28.5016 49.1956 28.5197 47.4755C28.5378 45.7554 27.886 44.1349 26.682 42.9037L27.3247 42.27C28.7008 43.6732 29.4431 45.52 29.416 47.4845C29.3979 49.449 28.6102 51.2777 27.207 52.6538C25.8219 54.0118 24.0023 54.7541 22.074 54.7541Z" fill="#2C394B"/>
<path d="M39.7658 41.8335L37.5742 44.0254L38.2384 44.6895L40.43 42.4976L39.7658 41.8335Z" fill="#2C394B"/>
<path d="M38.2383 41.8359L37.5742 42.5L39.7658 44.6916L40.4299 44.0275L38.2383 41.8359Z" fill="#2C394B"/>
<path d="M17.1916 73L15 75.1919L15.6642 75.856L17.8558 73.6641L17.1916 73Z" fill="#2C394B"/>
<path d="M15.6641 73.0024L15 73.6665L17.1916 75.8581L17.8557 75.194L15.6641 73.0024Z" fill="#2C394B"/>
<path d="M10.8431 26.5936L8.75586 28.6812L9.38844 29.3136L11.4757 27.2261L10.8431 26.5936Z" fill="#2C394B"/>
<path d="M9.38835 26.5921L8.75586 27.2246L10.8431 29.3118L11.4756 28.6793L9.38835 26.5921Z" fill="#2C394B"/>
<path d="M35.348 34.4816C43.3886 34.4816 49.9069 27.9633 49.9069 19.9227C49.9069 11.882 43.3886 5.36377 35.348 5.36377C27.3073 5.36377 20.7891 11.882 20.7891 19.9227C20.7891 27.9633 27.3073 34.4816 35.348 34.4816Z" fill="#F6E049"/>
<path d="M35.3485 34.8454C27.1195 34.8454 20.4258 28.1516 20.4258 19.9227C20.4258 11.6937 27.1195 5 35.3485 5C43.5774 5 50.2712 11.6937 50.2712 19.9227C50.2712 28.1516 43.5774 34.8454 35.3485 34.8454ZM35.3485 5.72758C27.5197 5.72758 21.1534 12.0939 21.1534 19.9227C21.1534 27.7515 27.5197 34.1178 35.3485 34.1178C43.1772 34.1178 49.5436 27.7515 49.5436 19.9227C49.5436 12.0939 43.1772 5.72758 35.3485 5.72758Z" fill="#2C394B"/>
<path d="M28.124 27.1765V26.2015C28.124 23.4294 30.365 21.1885 33.1371 21.1885H37.568C40.3401 21.1885 42.5811 23.4294 42.5811 26.2015V27.1765H28.124Z" fill="#2C394B"/>
<path d="M42.5806 27.5408H28.1236C27.9198 27.5408 27.7598 27.3807 27.7598 27.177V26.202C27.7598 23.2408 30.1753 20.8252 33.1366 20.8252H37.5676C40.5288 20.8252 42.9444 23.2408 42.9444 26.202V27.177C42.9444 27.3734 42.7843 27.5408 42.5806 27.5408ZM28.4873 26.8132H42.2168V26.202C42.2168 23.6409 40.1286 21.5528 37.5676 21.5528H33.1366C30.5755 21.5528 28.4873 23.6409 28.4873 26.202V26.8132Z" fill="#2C394B"/>
<path d="M35.3488 21.1885C33.297 21.1885 31.6309 19.5223 31.6309 17.4706V15.2223C31.6309 13.1706 33.297 11.5044 35.3488 11.5044C37.4006 11.5044 39.0667 13.1706 39.0667 15.2223V17.4706C39.0667 19.5223 37.4006 21.1885 35.3488 21.1885Z" fill="#E2EEFF"/>
<path d="M35.3483 21.5523C33.1001 21.5523 31.2666 19.7188 31.2666 17.4706V15.2224C31.2666 12.9741 33.1001 11.1406 35.3483 11.1406C37.5966 11.1406 39.4301 12.9741 39.4301 15.2224V17.4706C39.4301 19.7188 37.5966 21.5523 35.3483 21.5523ZM35.3483 11.8682C33.5003 11.8682 31.9942 13.3743 31.9942 15.2224V17.4706C31.9942 19.3186 33.5003 20.8247 35.3483 20.8247C37.1964 20.8247 38.7025 19.3186 38.7025 17.4706V15.2224C38.7025 13.3743 37.1964 11.8682 35.3483 11.8682Z" fill="#2C394B"/>
</g>
<defs>
<clipPath id="clip0_254_33364">
<rect width="113" height="83.2632" fill="white"/>
</clipPath>
<clipPath id="clip1_254_33364">
<rect width="48.4286" height="37.3835" fill="white" transform="matrix(-1 0 0 1 84.4287 46)"/>
</clipPath>
</defs>
</svg>
