<svg width="314" height="43" viewBox="0 0 314 43" fill="none" xmlns="http://www.w3.org/2000/svg">
<g clip-path="url(#clip0_1608_2296)">
<path d="M116.957 8.39026H122.787V28.6443H135.418V33.3512H116.957V8.39026Z" fill="#2C394B"/>
<path d="M145.912 33.6365C143.873 33.6365 142.038 33.2205 140.406 32.3885C138.799 31.5326 137.539 30.3559 136.628 28.8583C135.716 27.3606 135.26 25.6609 135.26 23.7591C135.26 21.8573 135.716 20.1576 136.628 18.6599C137.539 17.1623 138.799 15.9974 140.406 15.1654C142.038 14.3096 143.873 13.8817 145.912 13.8817C147.951 13.8817 149.775 14.3096 151.382 15.1654C152.989 15.9974 154.249 17.1623 155.161 18.6599C156.072 20.1576 156.528 21.8573 156.528 23.7591C156.528 25.6609 156.072 27.3606 155.161 28.8583C154.249 30.3559 152.989 31.5326 151.382 32.3885C149.775 33.2205 147.951 33.6365 145.912 33.6365ZM145.912 29.0722C147.352 29.0722 148.527 28.5968 149.439 27.6459C150.374 26.6712 150.842 25.3756 150.842 23.7591C150.842 22.1426 150.374 20.8589 149.439 19.908C148.527 18.9333 147.352 18.446 145.912 18.446C144.473 18.446 143.285 18.9333 142.349 19.908C141.414 20.8589 140.946 22.1426 140.946 23.7591C140.946 25.3756 141.414 26.6712 142.349 27.6459C143.285 28.5968 144.473 29.0722 145.912 29.0722Z" fill="#2C394B"/>
<path d="M168.198 33.6365C166.134 33.6365 164.275 33.2205 162.62 32.3885C160.988 31.5326 159.705 30.3559 158.769 28.8583C157.857 27.3606 157.402 25.6609 157.402 23.7591C157.402 21.8573 157.857 20.1576 158.769 18.6599C159.705 17.1623 160.988 15.9974 162.62 15.1654C164.275 14.3096 166.134 13.8817 168.198 13.8817C170.237 13.8817 172.012 14.3096 173.524 15.1654C175.059 15.9974 176.175 17.1979 176.87 18.7669L172.516 21.0847C171.508 19.3255 170.057 18.446 168.162 18.446C166.698 18.446 165.487 18.9214 164.527 19.8723C163.567 20.8232 163.088 22.1188 163.088 23.7591C163.088 25.3994 163.567 26.695 164.527 27.6459C165.487 28.5968 166.698 29.0722 168.162 29.0722C170.081 29.0722 171.532 28.1926 172.516 26.4335L176.87 28.7869C176.175 30.3084 175.059 31.497 173.524 32.3528C172.012 33.2086 170.237 33.6365 168.198 33.6365Z" fill="#2C394B"/>
<path d="M186.472 13.8817C189.471 13.8817 191.774 14.5948 193.382 16.0212C194.989 17.4238 195.793 19.5514 195.793 22.4041V33.3512H190.539V30.9621C189.483 32.745 187.516 33.6365 184.637 33.6365C183.15 33.6365 181.854 33.3869 180.75 32.8877C179.671 32.3885 178.843 31.6991 178.267 30.8195C177.692 29.9399 177.404 28.9415 177.404 27.8242C177.404 26.0412 178.075 24.6387 179.419 23.6165C180.786 22.5942 182.886 22.0831 185.717 22.0831H190.179C190.179 20.8707 189.807 19.9436 189.063 19.3018C188.32 18.6361 187.204 18.3033 185.717 18.3033C184.685 18.3033 183.665 18.4697 182.658 18.8026C181.674 19.1116 180.834 19.5395 180.139 20.0863L178.123 16.1995C179.179 15.4625 180.439 14.892 181.902 14.4879C183.389 14.0837 184.913 13.8817 186.472 13.8817ZM186.04 29.8924C187 29.8924 187.852 29.6784 188.595 29.2505C189.339 28.7988 189.867 28.1451 190.179 27.2893V25.3281H186.328C184.025 25.3281 182.874 26.0769 182.874 27.5746C182.874 28.2877 183.15 28.8583 183.701 29.2862C184.277 29.6903 185.057 29.8924 186.04 29.8924Z" fill="#2C394B"/>
<path d="M211.922 32.4241C211.37 32.8282 210.686 33.1373 209.87 33.3512C209.079 33.5414 208.239 33.6365 207.351 33.6365C205.048 33.6365 203.261 33.0541 201.989 31.8892C200.742 30.7244 200.118 29.0128 200.118 26.7544V18.8739H197.131V14.5948H200.118V9.92358H205.732V14.5948H210.554V18.8739H205.732V26.6831C205.732 27.4913 205.936 28.1213 206.344 28.573C206.775 29.0009 207.375 29.2148 208.143 29.2148C209.031 29.2148 209.786 28.9771 210.41 28.5017L211.922 32.4241Z" fill="#2C394B"/>
<path d="M232.001 23.8304C232.001 23.9017 231.965 24.4009 231.893 25.3281H217.246C217.51 26.5167 218.134 27.4557 219.118 28.1451C220.101 28.8345 221.325 29.1792 222.788 29.1792C223.796 29.1792 224.684 29.0366 225.451 28.7513C226.243 28.4422 226.975 27.9668 227.646 27.3249L230.633 30.5342C228.81 32.6024 226.147 33.6365 222.644 33.6365C220.461 33.6365 218.53 33.2205 216.851 32.3885C215.171 31.5326 213.876 30.3559 212.964 28.8583C212.052 27.3606 211.596 25.6609 211.596 23.7591C211.596 21.8811 212.04 20.1932 212.928 18.6956C213.84 17.1741 215.075 15.9974 216.635 15.1654C218.218 14.3096 219.981 13.8817 221.925 13.8817C223.82 13.8817 225.535 14.2858 227.071 15.0941C228.606 15.9023 229.806 17.0672 230.669 18.5886C231.557 20.0863 232.001 21.8335 232.001 23.8304ZM221.961 18.0894C220.689 18.0894 219.621 18.446 218.758 19.1591C217.894 19.8723 217.366 20.847 217.174 22.0831H226.711C226.519 20.8707 225.991 19.908 225.127 19.1948C224.264 18.4579 223.208 18.0894 221.961 18.0894Z" fill="#2C394B"/>
<path d="M68.4276 8.39026V33.3512H62.5977V23.1172H51.154V33.3512H45.3242V8.39026H51.154V18.232H62.5977V8.39026H68.4276Z" fill="#006AD5"/>
<path d="M91.2896 28.7156V33.3512H71.7849V8.39026H90.8218V13.0259H77.5787V18.446H89.2743V22.9389H77.5787V28.7156H91.2896Z" fill="#006AD5"/>
<path d="M107.162 24.5079V33.3512H101.332V24.4366L91.5796 8.39027H97.7693L104.499 19.4801L107.162 24.5079Z" fill="#006AD5"/>
<path d="M107.977 23.6961L105.314 18.6683L111.229 8.39026H116.951L107.977 23.6961Z" fill="#2C394B"/>
<path fill-rule="evenodd" clip-rule="evenodd" d="M13.1601 13.4213C15.5371 10.9971 19.392 10.9971 21.769 13.4213C24.1459 15.8455 24.1459 19.7771 21.769 22.2041C19.392 24.6283 15.5371 24.6283 13.1601 22.2041C10.7831 19.7799 10.7831 15.8484 13.1601 13.4213Z" fill="#006AD5"/>
<path fill-rule="evenodd" clip-rule="evenodd" d="M5.11647 5.2172C11.9356 -1.73752 22.9938 -1.73752 29.8158 5.2172C36.635 12.1719 36.635 23.4499 29.8158 30.4075L25.51 34.7989L19.8208 28.9966C21.8638 28.551 23.8094 27.5205 25.3959 25.8997C29.7768 21.4316 29.7768 14.1902 25.3959 9.72215C21.0149 5.2541 13.9146 5.2541 9.53362 9.72215C5.15265 14.1902 5.15265 21.4316 9.53362 25.8997L21.8833 38.4948L17.4634 42.9997L5.11647 30.4046C-1.70549 23.4499 -1.70549 12.1719 5.11647 5.2172Z" fill="#1681EE"/>
<path fill-rule="evenodd" clip-rule="evenodd" d="M25.3959 9.72215C29.7768 14.1902 29.7768 21.4316 25.3959 25.8997C23.8094 27.5177 21.8638 28.551 19.8208 28.9966L25.51 34.7989L29.8158 30.4075C32.8357 27.3275 34.5167 23.402 34.8646 19.3797L25.3984 9.72539L25.3959 9.72215Z" fill="#006AD5"/>
<path d="M257.448 22.096C258.728 22.5013 259.731 23.184 260.456 24.144C261.181 25.0827 261.544 26.2453 261.544 27.632C261.544 29.5947 260.776 31.1093 259.24 32.176C257.725 33.2213 255.507 33.744 252.584 33.744H241V11.344H251.944C254.675 11.344 256.765 11.8667 258.216 12.912C259.688 13.9573 260.424 15.376 260.424 17.168C260.424 18.256 260.157 19.2267 259.624 20.08C259.112 20.9333 258.387 21.6053 257.448 22.096ZM246.152 15.248V20.528H251.304C252.584 20.528 253.555 20.304 254.216 19.856C254.877 19.408 255.208 18.7467 255.208 17.872C255.208 16.9973 254.877 16.3467 254.216 15.92C253.555 15.472 252.584 15.248 251.304 15.248H246.152ZM252.2 29.84C253.565 29.84 254.589 29.616 255.272 29.168C255.976 28.72 256.328 28.0267 256.328 27.088C256.328 25.232 254.952 24.304 252.2 24.304H246.152V29.84H252.2Z" fill="#006AD4"/>
<path d="M265.117 10H270.109V33.744H265.117V10Z" fill="#006AD4"/>
<path d="M282.934 34C281.12 34 279.488 33.6267 278.038 32.88C276.608 32.112 275.488 31.056 274.678 29.712C273.867 28.368 273.462 26.8427 273.462 25.136C273.462 23.4293 273.867 21.904 274.678 20.56C275.488 19.216 276.608 18.1707 278.038 17.424C279.488 16.656 281.12 16.272 282.934 16.272C284.747 16.272 286.368 16.656 287.798 17.424C289.227 18.1707 290.347 19.216 291.158 20.56C291.968 21.904 292.374 23.4293 292.374 25.136C292.374 26.8427 291.968 28.368 291.158 29.712C290.347 31.056 289.227 32.112 287.798 32.88C286.368 33.6267 284.747 34 282.934 34ZM282.934 29.904C284.214 29.904 285.259 29.4773 286.07 28.624C286.902 27.7493 287.318 26.5867 287.318 25.136C287.318 23.6853 286.902 22.5333 286.07 21.68C285.259 20.8053 284.214 20.368 282.934 20.368C281.654 20.368 280.598 20.8053 279.766 21.68C278.934 22.5333 278.518 23.6853 278.518 25.136C278.518 26.5867 278.934 27.7493 279.766 28.624C280.598 29.4773 281.654 29.904 282.934 29.904Z" fill="#006AD4"/>
<path d="M313.471 16.528V30.864C313.471 34.0213 312.649 36.368 311.007 37.904C309.364 39.44 306.964 40.208 303.807 40.208C302.143 40.208 300.564 40.0053 299.071 39.6C297.577 39.1947 296.34 38.608 295.358 37.84L297.342 34.256C298.068 34.8533 298.985 35.3227 300.094 35.664C301.204 36.0267 302.313 36.208 303.423 36.208C305.15 36.208 306.42 35.8133 307.23 35.024C308.062 34.256 308.479 33.0827 308.479 31.504V30.768C307.177 32.1973 305.364 32.912 303.039 32.912C301.46 32.912 300.009 32.5707 298.687 31.888C297.385 31.184 296.35 30.2027 295.582 28.944C294.814 27.6853 294.43 26.2347 294.43 24.592C294.43 22.9493 294.814 21.4987 295.582 20.24C296.35 18.9813 297.385 18.0107 298.687 17.328C300.009 16.624 301.46 16.272 303.039 16.272C305.535 16.272 307.433 17.0933 308.735 18.736V16.528H313.471ZM304.031 28.816C305.353 28.816 306.431 28.432 307.263 27.664C308.116 26.8747 308.543 25.8507 308.543 24.592C308.543 23.3333 308.116 22.32 307.263 21.552C306.431 20.7627 305.353 20.368 304.031 20.368C302.708 20.368 301.62 20.7627 300.767 21.552C299.913 22.32 299.487 23.3333 299.487 24.592C299.487 25.8507 299.913 26.8747 300.767 27.664C301.62 28.432 302.708 28.816 304.031 28.816Z" fill="#006AD4"/>
</g>
<defs>
<clipPath id="clip0_1608_2296">
<rect width="313.471" height="42.9986" fill="white" transform="translate(0 0.00115967)"/>
</clipPath>
</defs>
</svg>
