<svg width="26" height="26" viewBox="0 0 26 26" fill="none" xmlns="http://www.w3.org/2000/svg">
<g clip-path="url(#clip0_224_1199)">
<path fill-rule="evenodd" clip-rule="evenodd" d="M15.3631 9.0804L17.4213 7.0203L15.3631 4.96026C15.2596 4.85831 15.1774 4.73689 15.1211 4.60301C15.0647 4.46914 15.0355 4.32544 15.0349 4.18019C15.0343 4.03495 15.0625 3.89103 15.1178 3.75672C15.1731 3.62242 15.2544 3.50038 15.3571 3.39763C15.4598 3.29489 15.5817 3.21347 15.716 3.15806C15.8503 3.10265 15.9942 3.07435 16.1394 3.07479C16.2846 3.07523 16.4284 3.10439 16.5623 3.16061C16.6962 3.21683 16.8177 3.29898 16.9197 3.40234L18.9806 5.46239L21.0414 3.40234C21.2486 3.19896 21.5278 3.08564 21.8181 3.08706C22.1085 3.08848 22.3865 3.20451 22.5917 3.40991C22.797 3.61531 22.9128 3.89345 22.9139 4.1838C22.9151 4.47415 22.8016 4.75321 22.598 4.96026L20.5371 7.0203L22.598 9.0804C22.8046 9.28683 22.9207 9.56688 22.9209 9.85893C22.921 10.151 22.8051 10.4311 22.5986 10.6377C22.3922 10.8443 22.1122 10.9605 21.8201 10.9606C21.528 10.9607 21.2479 10.8448 21.0413 10.6384L18.9805 8.57853L16.9196 10.6384C16.7128 10.8435 16.433 10.9583 16.1417 10.9576C15.8504 10.957 15.5712 10.8409 15.3653 10.6348C15.1593 10.4287 15.0435 10.1494 15.0431 9.85806C15.0426 9.56672 15.1577 9.28709 15.363 9.0804H15.3631ZM6.11161 0H6.0004C5.78895 0.00620947 5.58019 0.049168 5.38346 0.126953L5.32887 0.148535C4.48539 0.482066 2.00778 1.39821 1.39388 2.01221C0.480936 2.92464 0.0616356 4.0594 0.00542072 5.34219C-0.0571418 6.77559 0.346874 8.268 0.879874 9.58628C2.23137 12.9287 4.76555 16.1693 7.29812 18.701C9.83068 21.2327 13.0719 23.7684 16.4151 25.1198C17.6507 25.6191 19.0243 26 20.3658 26C20.4633 26 20.5608 25.9979 20.6583 25.9938C21.9407 25.9379 23.0763 25.5194 23.9887 24.6061C24.6077 23.9866 25.5172 21.5226 25.8501 20.6739L25.856 20.6587L25.8786 20.6057C26.0361 20.2026 26.0431 19.7563 25.8983 19.3485C25.7536 18.9407 25.4668 18.5987 25.0904 18.385L20.6439 15.8184C20.2275 15.5788 19.7332 15.514 19.2691 15.6382C18.805 15.7624 18.4091 16.0655 18.1681 16.4811C17.7288 17.244 17.0614 17.8617 16.1762 18.0427C15.7601 18.1335 15.3292 18.1322 14.9137 18.0389C14.4982 17.9456 14.1082 17.7624 13.7709 17.5024C12.7826 16.7598 11.8399 15.8988 10.9665 15.025C10.0956 14.1537 9.23786 13.2139 8.49737 12.2286C8.23694 11.8913 8.05373 11.5009 7.96066 11.0851C7.86759 10.6692 7.86693 10.238 7.95873 9.82186C8.14088 8.93938 8.75782 8.27303 9.51822 7.83362C9.93428 7.59247 10.2377 7.19611 10.3619 6.73152C10.486 6.26694 10.4208 5.77206 10.1806 5.35549L7.6156 0.908984C7.46374 0.641356 7.24568 0.417218 6.98233 0.258053C6.71898 0.0988879 6.41916 0.0100315 6.11161 0V0Z" fill="white"/>
</g>
<defs>
<clipPath id="clip0_224_1199">
<rect width="26" height="26" fill="white"/>
</clipPath>
</defs>
</svg>
